<?xml version="1.0" encoding="utf-8" ?>
<svg xmlns="http://www.w3.org/2000/svg" xmlns:ev="http://www.w3.org/2001/xml-events" xmlns:xlink="http://www.w3.org/1999/xlink" baseProfile="full" height="100%" version="1.1" viewBox="-1 0 32 2" width="100%">
  <defs/>
  <rect fill="#111" height="2" width="32" x="-1" y="0"/>
  <g fill="#a10045" stroke="#eee" stroke-opacity="1" stroke-width="0.05">
    <rect height="1" transform="rotate(0 0.5 1)" width="1" x="0" y="0.5"/>
    <rect height="1" transform="rotate(1 1.5 1)" width="1" x="1" y="0.5"/>
    <rect height="1" transform="rotate(2 2.5 1)" width="1" x="2" y="0.5"/>
    <rect height="1" transform="rotate(3 3.5 1)" width="1" x="3" y="0.5"/>
    <rect height="1" transform="rotate(5 5.5 1)" width="1" x="5" y="0.5"/>
    <rect height="1" transform="rotate(6 6.5 1)" width="1" x="6" y="0.5"/>
    <rect height="1" transform="rotate(7 7.5 1)" width="1" x="7" y="0.5"/>
    <rect height="1" transform="rotate(8 8.5 1)" width="1" x="8" y="0.5"/>
    <rect height="1" transform="rotate(9 9.5 1)" width="1" x="9" y="0.5"/>
    <rect height="1" transform="rotate(10 10.5 1)" width="1" x="10" y="0.5"/>
    <rect height="1" transform="rotate(11 11.5 1)" width="1" x="11" y="0.5"/>
    <rect height="1" transform="rotate(12 12.5 1)" width="1" x="12" y="0.5"/>
    <rect height="1" transform="rotate(14 14.5 1)" width="1" x="14" y="0.5"/>
    <rect height="1" transform="rotate(15 15.5 1)" width="1" x="15" y="0.5"/>
    <rect height="1" transform="rotate(16 16.5 1)" width="1" x="16" y="0.5"/>
    <rect height="1" transform="rotate(17 17.5 1)" width="1" x="17" y="0.5"/>
    <rect height="1" transform="rotate(18 18.5 1)" width="1" x="18" y="0.5"/>
    <rect height="1" transform="rotate(20 20.5 1)" width="1" x="20" y="0.5"/>
    <rect height="1" transform="rotate(21 21.5 1)" width="1" x="21" y="0.5"/>
    <rect height="1" transform="rotate(23 23.5 1)" width="1" x="23" y="0.5"/>
    <rect height="1" transform="rotate(24 24.5 1)" width="1" x="24" y="0.5"/>
    <rect height="1" transform="rotate(25 25.5 1)" width="1" x="25" y="0.5"/>
    <rect height="1" transform="rotate(26 26.5 1)" width="1" x="26" y="0.5"/>
    <rect height="1" transform="rotate(27 27.5 1)" width="1" x="27" y="0.5"/>
    <rect height="1" transform="rotate(28 28.5 1)" width="1" x="28" y="0.5"/>
    <rect height="1" transform="rotate(29 29.5 1)" width="1" x="29" y="0.5"/>
  </g>
  <g fill="#eee" font-family="sans-serif" font-size="0.67" text-anchor="middle">
    <text alignment-baseline="middle" x="0.5" y="1">I</text>
    <text alignment-baseline="middle" x="1.5" y="1">T</text>
    <text alignment-baseline="middle" x="2.5" y="1">'</text>
    <text alignment-baseline="middle" x="3.5" y="1">S</text>
    <text alignment-baseline="middle" x="4.5" y="1"> </text>
    <text alignment-baseline="middle" x="5.5" y="1">T</text>
    <text alignment-baseline="middle" x="6.5" y="1">H</text>
    <text alignment-baseline="middle" x="7.5" y="1">U</text>
    <text alignment-baseline="middle" x="8.5" y="1">R</text>
    <text alignment-baseline="middle" x="9.5" y="1">S</text>
    <text alignment-baseline="middle" x="10.5" y="1">D</text>
    <text alignment-baseline="middle" x="11.5" y="1">A</text>
    <text alignment-baseline="middle" x="12.5" y="1">Y</text>
    <text alignment-baseline="middle" x="13.5" y="1"> </text>
    <text alignment-baseline="middle" x="14.5" y="1">N</text>
    <text alignment-baseline="middle" x="15.5" y="1">I</text>
    <text alignment-baseline="middle" x="16.5" y="1">G</text>
    <text alignment-baseline="middle" x="17.5" y="1">H</text>
    <text alignment-baseline="middle" x="18.5" y="1">T</text>
    <text alignment-baseline="middle" x="19.5" y="1"> </text>
    <text alignment-baseline="middle" x="20.5" y="1">I</text>
    <text alignment-baseline="middle" x="21.5" y="1">N</text>
    <text alignment-baseline="middle" x="22.5" y="1"> </text>
    <text alignment-baseline="middle" x="23.5" y="1">C</text>
    <text alignment-baseline="middle" x="24.5" y="1">H</text>
    <text alignment-baseline="middle" x="25.5" y="1">I</text>
    <text alignment-baseline="middle" x="26.5" y="1">C</text>
    <text alignment-baseline="middle" x="27.5" y="1">A</text>
    <text alignment-baseline="middle" x="28.5" y="1">G</text>
    <text alignment-baseline="middle" x="29.5" y="1">O</text>
  </g>
  <g fill="none" stroke="#eee" stroke-opacity="1" stroke-width="0.05">
    <rect height="1" transform="rotate(0.0 0.5 1)" width="1" x="0" y="0.5"/>
    <rect height="1" transform="rotate(1.6817495789183137 1.5 1)" width="1" x="1" y="0.5"/>
    <rect height="1" transform="rotate(3.38584464990598 2.5 1)" width="1" x="2" y="0.5"/>
    <rect height="1" transform="rotate(4.663692586603954 3.5 1)" width="1" x="3" y="0.5"/>
    <rect height="1" transform="rotate(8.83153506139341 5.5 1)" width="1" x="5" y="0.5"/>
    <rect height="1" transform="rotate(10.165020721804026 6.5 1)" width="1" x="6" y="0.5"/>
    <rect height="1" transform="rotate(13.469691169026444 7.5 1)" width="1" x="7" y="0.5"/>
    <rect height="1" transform="rotate(9.446897795298149 8.5 1)" width="1" x="8" y="0.5"/>
    <rect height="1" transform="rotate(13.499356422499648 9.5 1)" width="1" x="9" y="0.5"/>
    <rect height="1" transform="rotate(17.07015185364659 10.5 1)" width="1" x="10" y="0.5"/>
    <rect height="1" transform="rotate(17.923991801880128 11.5 1)" width="1" x="11" y="0.5"/>
    <rect height="1" transform="rotate(18.46207979316346 12.5 1)" width="1" x="12" y="0.5"/>
    <rect height="1" transform="rotate(16.14633489335533 14.5 1)" width="1" x="14" y="0.5"/>
    <rect height="1" transform="rotate(20.311493275333852 15.5 1)" width="1" x="15" y="0.5"/>
    <rect height="1" transform="rotate(22.511520179012052 16.5 1)" width="1" x="16" y="0.5"/>
    <rect height="1" transform="rotate(24.968601159338316 17.5 1)" width="1" x="17" y="0.5"/>
    <rect height="1" transform="rotate(28.96819002331526 18.5 1)" width="1" x="18" y="0.5"/>
    <rect height="1" transform="rotate(26.93721453234896 20.5 1)" width="1" x="20" y="0.5"/>
    <rect height="1" transform="rotate(30.59686477995831 21.5 1)" width="1" x="21" y="0.5"/>
    <rect height="1" transform="rotate(44.15347011158029 23.5 1)" width="1" x="23" y="0.5"/>
    <rect height="1" transform="rotate(33.84137960959147 24.5 1)" width="1" x="24" y="0.5"/>
    <rect height="1" transform="rotate(48.49207587174562 25.5 1)" width="1" x="25" y="0.5"/>
    <rect height="1" transform="rotate(35.515425349830096 26.5 1)" width="1" x="26" y="0.5"/>
    <rect height="1" transform="rotate(33.19653449151345 27.5 1)" width="1" x="27" y="0.5"/>
    <rect height="1" transform="rotate(54.95723083030104 28.5 1)" width="1" x="28" y="0.5"/>
    <rect height="1" transform="rotate(32.71323782172832 29.5 1)" width="1" x="29" y="0.5"/>
  </g>
</svg>
