<?xml version="1.0" encoding="utf-8" ?>
<svg xmlns="http://www.w3.org/2000/svg" xmlns:ev="http://www.w3.org/2001/xml-events" xmlns:xlink="http://www.w3.org/1999/xlink" baseProfile="full" height="100%" version="1.1" viewBox="-1 0 33 2" width="100%">
  <defs/>
  <rect fill="#eee" height="2" width="33" x="-1" y="0"/>
  <g fill="#9cb29e" stroke="#000" stroke-opacity="1" stroke-width="0.05">
    <rect height="1" transform="rotate(0 0.5 1)" width="1" x="0" y="0.5"/>
    <rect height="1" transform="rotate(1 1.5 1)" width="1" x="1" y="0.5"/>
    <rect height="1" transform="rotate(2 2.5 1)" width="1" x="2" y="0.5"/>
    <rect height="1" transform="rotate(3 3.5 1)" width="1" x="3" y="0.5"/>
    <rect height="1" transform="rotate(5 5.5 1)" width="1" x="5" y="0.5"/>
    <rect height="1" transform="rotate(6 6.5 1)" width="1" x="6" y="0.5"/>
    <rect height="1" transform="rotate(7 7.5 1)" width="1" x="7" y="0.5"/>
    <rect height="1" transform="rotate(8 8.5 1)" width="1" x="8" y="0.5"/>
    <rect height="1" transform="rotate(9 9.5 1)" width="1" x="9" y="0.5"/>
    <rect height="1" transform="rotate(10 10.5 1)" width="1" x="10" y="0.5"/>
    <rect height="1" transform="rotate(11 11.5 1)" width="1" x="11" y="0.5"/>
    <rect height="1" transform="rotate(13 13.5 1)" width="1" x="13" y="0.5"/>
    <rect height="1" transform="rotate(14 14.5 1)" width="1" x="14" y="0.5"/>
    <rect height="1" transform="rotate(15 15.5 1)" width="1" x="15" y="0.5"/>
    <rect height="1" transform="rotate(16 16.5 1)" width="1" x="16" y="0.5"/>
    <rect height="1" transform="rotate(17 17.5 1)" width="1" x="17" y="0.5"/>
    <rect height="1" transform="rotate(18 18.5 1)" width="1" x="18" y="0.5"/>
    <rect height="1" transform="rotate(19 19.5 1)" width="1" x="19" y="0.5"/>
    <rect height="1" transform="rotate(21 21.5 1)" width="1" x="21" y="0.5"/>
    <rect height="1" transform="rotate(22 22.5 1)" width="1" x="22" y="0.5"/>
    <rect height="1" transform="rotate(24 24.5 1)" width="1" x="24" y="0.5"/>
    <rect height="1" transform="rotate(25 25.5 1)" width="1" x="25" y="0.5"/>
    <rect height="1" transform="rotate(26 26.5 1)" width="1" x="26" y="0.5"/>
    <rect height="1" transform="rotate(27 27.5 1)" width="1" x="27" y="0.5"/>
    <rect height="1" transform="rotate(28 28.5 1)" width="1" x="28" y="0.5"/>
    <rect height="1" transform="rotate(29 29.5 1)" width="1" x="29" y="0.5"/>
    <rect height="1" transform="rotate(30 30.5 1)" width="1" x="30" y="0.5"/>
  </g>
  <g fill="#000" font-family="sans-serif" font-size="0.67" text-anchor="middle">
    <text alignment-baseline="middle" x="0.5" y="1">I</text>
    <text alignment-baseline="middle" x="1.5" y="1">T</text>
    <text alignment-baseline="middle" x="2.5" y="1">'</text>
    <text alignment-baseline="middle" x="3.5" y="1">S</text>
    <text alignment-baseline="middle" x="4.5" y="1"> </text>
    <text alignment-baseline="middle" x="5.5" y="1">T</text>
    <text alignment-baseline="middle" x="6.5" y="1">U</text>
    <text alignment-baseline="middle" x="7.5" y="1">E</text>
    <text alignment-baseline="middle" x="8.5" y="1">S</text>
    <text alignment-baseline="middle" x="9.5" y="1">D</text>
    <text alignment-baseline="middle" x="10.5" y="1">A</text>
    <text alignment-baseline="middle" x="11.5" y="1">Y</text>
    <text alignment-baseline="middle" x="12.5" y="1"> </text>
    <text alignment-baseline="middle" x="13.5" y="1">E</text>
    <text alignment-baseline="middle" x="14.5" y="1">V</text>
    <text alignment-baseline="middle" x="15.5" y="1">E</text>
    <text alignment-baseline="middle" x="16.5" y="1">N</text>
    <text alignment-baseline="middle" x="17.5" y="1">I</text>
    <text alignment-baseline="middle" x="18.5" y="1">N</text>
    <text alignment-baseline="middle" x="19.5" y="1">G</text>
    <text alignment-baseline="middle" x="20.5" y="1"> </text>
    <text alignment-baseline="middle" x="21.5" y="1">I</text>
    <text alignment-baseline="middle" x="22.5" y="1">N</text>
    <text alignment-baseline="middle" x="23.5" y="1"> </text>
    <text alignment-baseline="middle" x="24.5" y="1">C</text>
    <text alignment-baseline="middle" x="25.5" y="1">H</text>
    <text alignment-baseline="middle" x="26.5" y="1">I</text>
    <text alignment-baseline="middle" x="27.5" y="1">C</text>
    <text alignment-baseline="middle" x="28.5" y="1">A</text>
    <text alignment-baseline="middle" x="29.5" y="1">G</text>
    <text alignment-baseline="middle" x="30.5" y="1">O</text>
  </g>
  <g fill="none" stroke="#000" stroke-opacity="1" stroke-width="0.05">
    <rect height="1" transform="rotate(0.0 0.5 1)" width="1" x="0" y="0.5"/>
    <rect height="1" transform="rotate(1.6710529981664783 1.5 1)" width="1" x="1" y="0.5"/>
    <rect height="1" transform="rotate(3.958552154105914 2.5 1)" width="1" x="2" y="0.5"/>
    <rect height="1" transform="rotate(4.52381555976363 3.5 1)" width="1" x="3" y="0.5"/>
    <rect height="1" transform="rotate(6.149580440900811 5.5 1)" width="1" x="5" y="0.5"/>
    <rect height="1" transform="rotate(9.398536833480069 6.5 1)" width="1" x="6" y="0.5"/>
    <rect height="1" transform="rotate(9.878542872457452 7.5 1)" width="1" x="7" y="0.5"/>
    <rect height="1" transform="rotate(9.595213043370535 8.5 1)" width="1" x="8" y="0.5"/>
    <rect height="1" transform="rotate(12.153300424136322 9.5 1)" width="1" x="9" y="0.5"/>
    <rect height="1" transform="rotate(16.486258639334576 10.5 1)" width="1" x="10" y="0.5"/>
    <rect height="1" transform="rotate(15.404809965362393 11.5 1)" width="1" x="11" y="0.5"/>
    <rect height="1" transform="rotate(22.967728381591833 13.5 1)" width="1" x="13" y="0.5"/>
    <rect height="1" transform="rotate(22.44595560504408 14.5 1)" width="1" x="14" y="0.5"/>
    <rect height="1" transform="rotate(23.94102383733859 15.5 1)" width="1" x="15" y="0.5"/>
    <rect height="1" transform="rotate(17.178846624726262 16.5 1)" width="1" x="16" y="0.5"/>
    <rect height="1" transform="rotate(26.732666509836452 17.5 1)" width="1" x="17" y="0.5"/>
    <rect height="1" transform="rotate(26.539339794269612 18.5 1)" width="1" x="18" y="0.5"/>
    <rect height="1" transform="rotate(22.99385457837953 19.5 1)" width="1" x="19" y="0.5"/>
    <rect height="1" transform="rotate(39.40026085117504 21.5 1)" width="1" x="21" y="0.5"/>
    <rect height="1" transform="rotate(35.788668919480656 22.5 1)" width="1" x="22" y="0.5"/>
    <rect height="1" transform="rotate(31.4941629323556 24.5 1)" width="1" x="24" y="0.5"/>
    <rect height="1" transform="rotate(29.599506302688795 25.5 1)" width="1" x="25" y="0.5"/>
    <rect height="1" transform="rotate(29.64762654786306 26.5 1)" width="1" x="26" y="0.5"/>
    <rect height="1" transform="rotate(43.50691607102827 27.5 1)" width="1" x="27" y="0.5"/>
    <rect height="1" transform="rotate(37.56400736173658 28.5 1)" width="1" x="28" y="0.5"/>
    <rect height="1" transform="rotate(40.87269583105586 29.5 1)" width="1" x="29" y="0.5"/>
    <rect height="1" transform="rotate(36.445089021516694 30.5 1)" width="1" x="30" y="0.5"/>
  </g>
</svg>
