<?xml version="1.0" encoding="utf-8" ?>
<svg xmlns="http://www.w3.org/2000/svg" xmlns:ev="http://www.w3.org/2001/xml-events" xmlns:xlink="http://www.w3.org/1999/xlink" baseProfile="full" height="100%" version="1.1" viewBox="-1 0 34 2" width="100%">
  <defs/>
  <rect fill="#eee" height="2" width="34" x="-1" y="0"/>
  <g fill="#fff59e" stroke="#111" stroke-opacity="1" stroke-width="0.05">
    <rect height="1" transform="rotate(0 0.5 1)" width="1" x="0" y="0.5"/>
    <rect height="1" transform="rotate(1 1.5 1)" width="1" x="1" y="0.5"/>
    <rect height="1" transform="rotate(2 2.5 1)" width="1" x="2" y="0.5"/>
    <rect height="1" transform="rotate(3 3.5 1)" width="1" x="3" y="0.5"/>
    <rect height="1" transform="rotate(5 5.5 1)" width="1" x="5" y="0.5"/>
    <rect height="1" transform="rotate(6 6.5 1)" width="1" x="6" y="0.5"/>
    <rect height="1" transform="rotate(7 7.5 1)" width="1" x="7" y="0.5"/>
    <rect height="1" transform="rotate(8 8.5 1)" width="1" x="8" y="0.5"/>
    <rect height="1" transform="rotate(9 9.5 1)" width="1" x="9" y="0.5"/>
    <rect height="1" transform="rotate(10 10.5 1)" width="1" x="10" y="0.5"/>
    <rect height="1" transform="rotate(11 11.5 1)" width="1" x="11" y="0.5"/>
    <rect height="1" transform="rotate(12 12.5 1)" width="1" x="12" y="0.5"/>
    <rect height="1" transform="rotate(14 14.5 1)" width="1" x="14" y="0.5"/>
    <rect height="1" transform="rotate(15 15.5 1)" width="1" x="15" y="0.5"/>
    <rect height="1" transform="rotate(16 16.5 1)" width="1" x="16" y="0.5"/>
    <rect height="1" transform="rotate(17 17.5 1)" width="1" x="17" y="0.5"/>
    <rect height="1" transform="rotate(18 18.5 1)" width="1" x="18" y="0.5"/>
    <rect height="1" transform="rotate(19 19.5 1)" width="1" x="19" y="0.5"/>
    <rect height="1" transform="rotate(20 20.5 1)" width="1" x="20" y="0.5"/>
    <rect height="1" transform="rotate(22 22.5 1)" width="1" x="22" y="0.5"/>
    <rect height="1" transform="rotate(23 23.5 1)" width="1" x="23" y="0.5"/>
    <rect height="1" transform="rotate(25 25.5 1)" width="1" x="25" y="0.5"/>
    <rect height="1" transform="rotate(26 26.5 1)" width="1" x="26" y="0.5"/>
    <rect height="1" transform="rotate(27 27.5 1)" width="1" x="27" y="0.5"/>
    <rect height="1" transform="rotate(28 28.5 1)" width="1" x="28" y="0.5"/>
    <rect height="1" transform="rotate(29 29.5 1)" width="1" x="29" y="0.5"/>
    <rect height="1" transform="rotate(30 30.5 1)" width="1" x="30" y="0.5"/>
    <rect height="1" transform="rotate(31 31.5 1)" width="1" x="31" y="0.5"/>
  </g>
  <g fill="#111" font-family="sans-serif" font-size="0.67" text-anchor="middle">
    <text alignment-baseline="middle" x="0.5" y="1">I</text>
    <text alignment-baseline="middle" x="1.5" y="1">T</text>
    <text alignment-baseline="middle" x="2.5" y="1">'</text>
    <text alignment-baseline="middle" x="3.5" y="1">S</text>
    <text alignment-baseline="middle" x="4.5" y="1"> </text>
    <text alignment-baseline="middle" x="5.5" y="1">T</text>
    <text alignment-baseline="middle" x="6.5" y="1">H</text>
    <text alignment-baseline="middle" x="7.5" y="1">U</text>
    <text alignment-baseline="middle" x="8.5" y="1">R</text>
    <text alignment-baseline="middle" x="9.5" y="1">S</text>
    <text alignment-baseline="middle" x="10.5" y="1">D</text>
    <text alignment-baseline="middle" x="11.5" y="1">A</text>
    <text alignment-baseline="middle" x="12.5" y="1">Y</text>
    <text alignment-baseline="middle" x="13.5" y="1"> </text>
    <text alignment-baseline="middle" x="14.5" y="1">M</text>
    <text alignment-baseline="middle" x="15.5" y="1">O</text>
    <text alignment-baseline="middle" x="16.5" y="1">R</text>
    <text alignment-baseline="middle" x="17.5" y="1">N</text>
    <text alignment-baseline="middle" x="18.5" y="1">I</text>
    <text alignment-baseline="middle" x="19.5" y="1">N</text>
    <text alignment-baseline="middle" x="20.5" y="1">G</text>
    <text alignment-baseline="middle" x="21.5" y="1"> </text>
    <text alignment-baseline="middle" x="22.5" y="1">I</text>
    <text alignment-baseline="middle" x="23.5" y="1">N</text>
    <text alignment-baseline="middle" x="24.5" y="1"> </text>
    <text alignment-baseline="middle" x="25.5" y="1">C</text>
    <text alignment-baseline="middle" x="26.5" y="1">H</text>
    <text alignment-baseline="middle" x="27.5" y="1">I</text>
    <text alignment-baseline="middle" x="28.5" y="1">C</text>
    <text alignment-baseline="middle" x="29.5" y="1">A</text>
    <text alignment-baseline="middle" x="30.5" y="1">G</text>
    <text alignment-baseline="middle" x="31.5" y="1">O</text>
  </g>
  <g fill="none" stroke="#111" stroke-opacity="1" stroke-width="0.05">
    <rect height="1" transform="rotate(0.0 0.5 1)" width="1" x="0" y="0.5"/>
    <rect height="1" transform="rotate(1.5170162944235006 1.5 1)" width="1" x="1" y="0.5"/>
    <rect height="1" transform="rotate(2.90439980984336 2.5 1)" width="1" x="2" y="0.5"/>
    <rect height="1" transform="rotate(3.7734939919688855 3.5 1)" width="1" x="3" y="0.5"/>
    <rect height="1" transform="rotate(6.330864959579423 5.5 1)" width="1" x="5" y="0.5"/>
    <rect height="1" transform="rotate(8.98790670502333 6.5 1)" width="1" x="6" y="0.5"/>
    <rect height="1" transform="rotate(12.744189715081378 7.5 1)" width="1" x="7" y="0.5"/>
    <rect height="1" transform="rotate(12.241604096348233 8.5 1)" width="1" x="8" y="0.5"/>
    <rect height="1" transform="rotate(9.967926598244652 9.5 1)" width="1" x="9" y="0.5"/>
    <rect height="1" transform="rotate(13.935040404778444 10.5 1)" width="1" x="10" y="0.5"/>
    <rect height="1" transform="rotate(14.036705046576039 11.5 1)" width="1" x="11" y="0.5"/>
    <rect height="1" transform="rotate(22.449617554495205 12.5 1)" width="1" x="12" y="0.5"/>
    <rect height="1" transform="rotate(16.78755555933192 14.5 1)" width="1" x="14" y="0.5"/>
    <rect height="1" transform="rotate(28.95777620464759 15.5 1)" width="1" x="15" y="0.5"/>
    <rect height="1" transform="rotate(16.625258933668874 16.5 1)" width="1" x="16" y="0.5"/>
    <rect height="1" transform="rotate(23.69854471687408 17.5 1)" width="1" x="17" y="0.5"/>
    <rect height="1" transform="rotate(29.579188360273207 18.5 1)" width="1" x="18" y="0.5"/>
    <rect height="1" transform="rotate(19.399660666924042 19.5 1)" width="1" x="19" y="0.5"/>
    <rect height="1" transform="rotate(22.260386138037816 20.5 1)" width="1" x="20" y="0.5"/>
    <rect height="1" transform="rotate(39.46834204003728 22.5 1)" width="1" x="22" y="0.5"/>
    <rect height="1" transform="rotate(45.489479990322955 23.5 1)" width="1" x="23" y="0.5"/>
    <rect height="1" transform="rotate(36.74746396331561 25.5 1)" width="1" x="25" y="0.5"/>
    <rect height="1" transform="rotate(51.34022741405878 26.5 1)" width="1" x="26" y="0.5"/>
    <rect height="1" transform="rotate(36.53900827940507 27.5 1)" width="1" x="27" y="0.5"/>
    <rect height="1" transform="rotate(44.869048068741876 28.5 1)" width="1" x="28" y="0.5"/>
    <rect height="1" transform="rotate(57.85411717334888 29.5 1)" width="1" x="29" y="0.5"/>
    <rect height="1" transform="rotate(49.63628212228562 30.5 1)" width="1" x="30" y="0.5"/>
    <rect height="1" transform="rotate(34.35566710106329 31.5 1)" width="1" x="31" y="0.5"/>
  </g>
</svg>
