<?xml version="1.0" encoding="utf-8" ?>
<svg xmlns="http://www.w3.org/2000/svg" xmlns:ev="http://www.w3.org/2001/xml-events" xmlns:xlink="http://www.w3.org/1999/xlink" baseProfile="full" height="100%" version="1.1" viewBox="-1 0 32 2" width="100%">
  <defs/>
  <rect fill="#eee" height="2" width="32" x="-1" y="0"/>
  <g fill="#9cb29e" stroke="#000" stroke-opacity="1" stroke-width="0.05">
    <rect height="1" transform="rotate(0 0.5 1)" width="1" x="0" y="0.5"/>
    <rect height="1" transform="rotate(1 1.5 1)" width="1" x="1" y="0.5"/>
    <rect height="1" transform="rotate(2 2.5 1)" width="1" x="2" y="0.5"/>
    <rect height="1" transform="rotate(3 3.5 1)" width="1" x="3" y="0.5"/>
    <rect height="1" transform="rotate(5 5.5 1)" width="1" x="5" y="0.5"/>
    <rect height="1" transform="rotate(6 6.5 1)" width="1" x="6" y="0.5"/>
    <rect height="1" transform="rotate(7 7.5 1)" width="1" x="7" y="0.5"/>
    <rect height="1" transform="rotate(8 8.5 1)" width="1" x="8" y="0.5"/>
    <rect height="1" transform="rotate(9 9.5 1)" width="1" x="9" y="0.5"/>
    <rect height="1" transform="rotate(10 10.5 1)" width="1" x="10" y="0.5"/>
    <rect height="1" transform="rotate(12 12.5 1)" width="1" x="12" y="0.5"/>
    <rect height="1" transform="rotate(13 13.5 1)" width="1" x="13" y="0.5"/>
    <rect height="1" transform="rotate(14 14.5 1)" width="1" x="14" y="0.5"/>
    <rect height="1" transform="rotate(15 15.5 1)" width="1" x="15" y="0.5"/>
    <rect height="1" transform="rotate(16 16.5 1)" width="1" x="16" y="0.5"/>
    <rect height="1" transform="rotate(17 17.5 1)" width="1" x="17" y="0.5"/>
    <rect height="1" transform="rotate(18 18.5 1)" width="1" x="18" y="0.5"/>
    <rect height="1" transform="rotate(20 20.5 1)" width="1" x="20" y="0.5"/>
    <rect height="1" transform="rotate(21 21.5 1)" width="1" x="21" y="0.5"/>
    <rect height="1" transform="rotate(23 23.5 1)" width="1" x="23" y="0.5"/>
    <rect height="1" transform="rotate(24 24.5 1)" width="1" x="24" y="0.5"/>
    <rect height="1" transform="rotate(25 25.5 1)" width="1" x="25" y="0.5"/>
    <rect height="1" transform="rotate(26 26.5 1)" width="1" x="26" y="0.5"/>
    <rect height="1" transform="rotate(27 27.5 1)" width="1" x="27" y="0.5"/>
    <rect height="1" transform="rotate(28 28.5 1)" width="1" x="28" y="0.5"/>
    <rect height="1" transform="rotate(29 29.5 1)" width="1" x="29" y="0.5"/>
  </g>
  <g fill="#000" font-family="sans-serif" font-size="0.67" text-anchor="middle">
    <text alignment-baseline="middle" x="0.5" y="1">I</text>
    <text alignment-baseline="middle" x="1.5" y="1">T</text>
    <text alignment-baseline="middle" x="2.5" y="1">'</text>
    <text alignment-baseline="middle" x="3.5" y="1">S</text>
    <text alignment-baseline="middle" x="4.5" y="1"> </text>
    <text alignment-baseline="middle" x="5.5" y="1">M</text>
    <text alignment-baseline="middle" x="6.5" y="1">O</text>
    <text alignment-baseline="middle" x="7.5" y="1">N</text>
    <text alignment-baseline="middle" x="8.5" y="1">D</text>
    <text alignment-baseline="middle" x="9.5" y="1">A</text>
    <text alignment-baseline="middle" x="10.5" y="1">Y</text>
    <text alignment-baseline="middle" x="11.5" y="1"> </text>
    <text alignment-baseline="middle" x="12.5" y="1">E</text>
    <text alignment-baseline="middle" x="13.5" y="1">V</text>
    <text alignment-baseline="middle" x="14.5" y="1">E</text>
    <text alignment-baseline="middle" x="15.5" y="1">N</text>
    <text alignment-baseline="middle" x="16.5" y="1">I</text>
    <text alignment-baseline="middle" x="17.5" y="1">N</text>
    <text alignment-baseline="middle" x="18.5" y="1">G</text>
    <text alignment-baseline="middle" x="19.5" y="1"> </text>
    <text alignment-baseline="middle" x="20.5" y="1">I</text>
    <text alignment-baseline="middle" x="21.5" y="1">N</text>
    <text alignment-baseline="middle" x="22.5" y="1"> </text>
    <text alignment-baseline="middle" x="23.5" y="1">C</text>
    <text alignment-baseline="middle" x="24.5" y="1">H</text>
    <text alignment-baseline="middle" x="25.5" y="1">I</text>
    <text alignment-baseline="middle" x="26.5" y="1">C</text>
    <text alignment-baseline="middle" x="27.5" y="1">A</text>
    <text alignment-baseline="middle" x="28.5" y="1">G</text>
    <text alignment-baseline="middle" x="29.5" y="1">O</text>
  </g>
  <g fill="none" stroke="#000" stroke-opacity="1" stroke-width="0.05">
    <rect height="1" transform="rotate(0.0 0.5 1)" width="1" x="0" y="0.5"/>
    <rect height="1" transform="rotate(1.6971673812584243 1.5 1)" width="1" x="1" y="0.5"/>
    <rect height="1" transform="rotate(2.2954101445073407 2.5 1)" width="1" x="2" y="0.5"/>
    <rect height="1" transform="rotate(5.065736875655701 3.5 1)" width="1" x="3" y="0.5"/>
    <rect height="1" transform="rotate(5.479574373296689 5.5 1)" width="1" x="5" y="0.5"/>
    <rect height="1" transform="rotate(7.055046142329946 6.5 1)" width="1" x="6" y="0.5"/>
    <rect height="1" transform="rotate(11.215272873745286 7.5 1)" width="1" x="7" y="0.5"/>
    <rect height="1" transform="rotate(12.966648782971236 8.5 1)" width="1" x="8" y="0.5"/>
    <rect height="1" transform="rotate(16.24310871605586 9.5 1)" width="1" x="9" y="0.5"/>
    <rect height="1" transform="rotate(10.16569704769398 10.5 1)" width="1" x="10" y="0.5"/>
    <rect height="1" transform="rotate(13.545293109286646 12.5 1)" width="1" x="12" y="0.5"/>
    <rect height="1" transform="rotate(22.807078841633352 13.5 1)" width="1" x="13" y="0.5"/>
    <rect height="1" transform="rotate(21.40796906257719 14.5 1)" width="1" x="14" y="0.5"/>
    <rect height="1" transform="rotate(28.717710557165148 15.5 1)" width="1" x="15" y="0.5"/>
    <rect height="1" transform="rotate(27.44433415667494 16.5 1)" width="1" x="16" y="0.5"/>
    <rect height="1" transform="rotate(30.502704603457964 17.5 1)" width="1" x="17" y="0.5"/>
    <rect height="1" transform="rotate(33.120168095775746 18.5 1)" width="1" x="18" y="0.5"/>
    <rect height="1" transform="rotate(35.94635095763178 20.5 1)" width="1" x="20" y="0.5"/>
    <rect height="1" transform="rotate(40.357120185023916 21.5 1)" width="1" x="21" y="0.5"/>
    <rect height="1" transform="rotate(39.51726332315864 23.5 1)" width="1" x="23" y="0.5"/>
    <rect height="1" transform="rotate(35.105256099699474 24.5 1)" width="1" x="24" y="0.5"/>
    <rect height="1" transform="rotate(26.78587051659077 25.5 1)" width="1" x="25" y="0.5"/>
    <rect height="1" transform="rotate(41.801399366203825 26.5 1)" width="1" x="26" y="0.5"/>
    <rect height="1" transform="rotate(29.909623232543886 27.5 1)" width="1" x="27" y="0.5"/>
    <rect height="1" transform="rotate(48.85368048120948 28.5 1)" width="1" x="28" y="0.5"/>
    <rect height="1" transform="rotate(31.850896872337888 29.5 1)" width="1" x="29" y="0.5"/>
  </g>
</svg>
