<?xml version="1.0" encoding="utf-8" ?>
<svg xmlns="http://www.w3.org/2000/svg" xmlns:ev="http://www.w3.org/2001/xml-events" xmlns:xlink="http://www.w3.org/1999/xlink" baseProfile="full" height="100%" version="1.1" viewBox="-1 0 32 2" width="100%">
  <defs/>
  <rect fill="#eee" height="2" width="32" x="-1" y="0"/>
  <g fill="#fff59e" stroke="#111" stroke-opacity="1" stroke-width="0.05">
    <rect height="1" transform="rotate(0 0.5 1)" width="1" x="0" y="0.5"/>
    <rect height="1" transform="rotate(1 1.5 1)" width="1" x="1" y="0.5"/>
    <rect height="1" transform="rotate(2 2.5 1)" width="1" x="2" y="0.5"/>
    <rect height="1" transform="rotate(3 3.5 1)" width="1" x="3" y="0.5"/>
    <rect height="1" transform="rotate(5 5.5 1)" width="1" x="5" y="0.5"/>
    <rect height="1" transform="rotate(6 6.5 1)" width="1" x="6" y="0.5"/>
    <rect height="1" transform="rotate(7 7.5 1)" width="1" x="7" y="0.5"/>
    <rect height="1" transform="rotate(8 8.5 1)" width="1" x="8" y="0.5"/>
    <rect height="1" transform="rotate(9 9.5 1)" width="1" x="9" y="0.5"/>
    <rect height="1" transform="rotate(10 10.5 1)" width="1" x="10" y="0.5"/>
    <rect height="1" transform="rotate(12 12.5 1)" width="1" x="12" y="0.5"/>
    <rect height="1" transform="rotate(13 13.5 1)" width="1" x="13" y="0.5"/>
    <rect height="1" transform="rotate(14 14.5 1)" width="1" x="14" y="0.5"/>
    <rect height="1" transform="rotate(15 15.5 1)" width="1" x="15" y="0.5"/>
    <rect height="1" transform="rotate(16 16.5 1)" width="1" x="16" y="0.5"/>
    <rect height="1" transform="rotate(17 17.5 1)" width="1" x="17" y="0.5"/>
    <rect height="1" transform="rotate(18 18.5 1)" width="1" x="18" y="0.5"/>
    <rect height="1" transform="rotate(20 20.5 1)" width="1" x="20" y="0.5"/>
    <rect height="1" transform="rotate(21 21.5 1)" width="1" x="21" y="0.5"/>
    <rect height="1" transform="rotate(23 23.5 1)" width="1" x="23" y="0.5"/>
    <rect height="1" transform="rotate(24 24.5 1)" width="1" x="24" y="0.5"/>
    <rect height="1" transform="rotate(25 25.5 1)" width="1" x="25" y="0.5"/>
    <rect height="1" transform="rotate(26 26.5 1)" width="1" x="26" y="0.5"/>
    <rect height="1" transform="rotate(27 27.5 1)" width="1" x="27" y="0.5"/>
    <rect height="1" transform="rotate(28 28.5 1)" width="1" x="28" y="0.5"/>
    <rect height="1" transform="rotate(29 29.5 1)" width="1" x="29" y="0.5"/>
  </g>
  <g fill="#111" font-family="sans-serif" font-size="0.67" text-anchor="middle">
    <text alignment-baseline="middle" x="0.5" y="1">I</text>
    <text alignment-baseline="middle" x="1.5" y="1">T</text>
    <text alignment-baseline="middle" x="2.5" y="1">'</text>
    <text alignment-baseline="middle" x="3.5" y="1">S</text>
    <text alignment-baseline="middle" x="4.5" y="1"> </text>
    <text alignment-baseline="middle" x="5.5" y="1">M</text>
    <text alignment-baseline="middle" x="6.5" y="1">O</text>
    <text alignment-baseline="middle" x="7.5" y="1">N</text>
    <text alignment-baseline="middle" x="8.5" y="1">D</text>
    <text alignment-baseline="middle" x="9.5" y="1">A</text>
    <text alignment-baseline="middle" x="10.5" y="1">Y</text>
    <text alignment-baseline="middle" x="11.5" y="1"> </text>
    <text alignment-baseline="middle" x="12.5" y="1">M</text>
    <text alignment-baseline="middle" x="13.5" y="1">O</text>
    <text alignment-baseline="middle" x="14.5" y="1">R</text>
    <text alignment-baseline="middle" x="15.5" y="1">N</text>
    <text alignment-baseline="middle" x="16.5" y="1">I</text>
    <text alignment-baseline="middle" x="17.5" y="1">N</text>
    <text alignment-baseline="middle" x="18.5" y="1">G</text>
    <text alignment-baseline="middle" x="19.5" y="1"> </text>
    <text alignment-baseline="middle" x="20.5" y="1">I</text>
    <text alignment-baseline="middle" x="21.5" y="1">N</text>
    <text alignment-baseline="middle" x="22.5" y="1"> </text>
    <text alignment-baseline="middle" x="23.5" y="1">C</text>
    <text alignment-baseline="middle" x="24.5" y="1">H</text>
    <text alignment-baseline="middle" x="25.5" y="1">I</text>
    <text alignment-baseline="middle" x="26.5" y="1">C</text>
    <text alignment-baseline="middle" x="27.5" y="1">A</text>
    <text alignment-baseline="middle" x="28.5" y="1">G</text>
    <text alignment-baseline="middle" x="29.5" y="1">O</text>
  </g>
  <g fill="none" stroke="#111" stroke-opacity="1" stroke-width="0.05">
    <rect height="1" transform="rotate(0.0 0.5 1)" width="1" x="0" y="0.5"/>
    <rect height="1" transform="rotate(1.111018377815672 1.5 1)" width="1" x="1" y="0.5"/>
    <rect height="1" transform="rotate(3.327593158548443 2.5 1)" width="1" x="2" y="0.5"/>
    <rect height="1" transform="rotate(3.5383487453178377 3.5 1)" width="1" x="3" y="0.5"/>
    <rect height="1" transform="rotate(6.768746125310583 5.5 1)" width="1" x="5" y="0.5"/>
    <rect height="1" transform="rotate(9.451317165136988 6.5 1)" width="1" x="6" y="0.5"/>
    <rect height="1" transform="rotate(10.123384208618933 7.5 1)" width="1" x="7" y="0.5"/>
    <rect height="1" transform="rotate(11.237608851042047 8.5 1)" width="1" x="8" y="0.5"/>
    <rect height="1" transform="rotate(16.044214297548354 9.5 1)" width="1" x="9" y="0.5"/>
    <rect height="1" transform="rotate(18.395309148718525 10.5 1)" width="1" x="10" y="0.5"/>
    <rect height="1" transform="rotate(23.131475614227917 12.5 1)" width="1" x="12" y="0.5"/>
    <rect height="1" transform="rotate(19.15327186292856 13.5 1)" width="1" x="13" y="0.5"/>
    <rect height="1" transform="rotate(26.437024677360807 14.5 1)" width="1" x="14" y="0.5"/>
    <rect height="1" transform="rotate(22.08292908525013 15.5 1)" width="1" x="15" y="0.5"/>
    <rect height="1" transform="rotate(17.922725548882937 16.5 1)" width="1" x="16" y="0.5"/>
    <rect height="1" transform="rotate(21.796237268367335 17.5 1)" width="1" x="17" y="0.5"/>
    <rect height="1" transform="rotate(30.70227159314451 18.5 1)" width="1" x="18" y="0.5"/>
    <rect height="1" transform="rotate(38.54110324009521 20.5 1)" width="1" x="20" y="0.5"/>
    <rect height="1" transform="rotate(35.786595810809054 21.5 1)" width="1" x="21" y="0.5"/>
    <rect height="1" transform="rotate(41.81032718230459 23.5 1)" width="1" x="23" y="0.5"/>
    <rect height="1" transform="rotate(42.432457294045136 24.5 1)" width="1" x="24" y="0.5"/>
    <rect height="1" transform="rotate(35.91543004757222 25.5 1)" width="1" x="25" y="0.5"/>
    <rect height="1" transform="rotate(45.46673457356662 26.5 1)" width="1" x="26" y="0.5"/>
    <rect height="1" transform="rotate(32.822272974464305 27.5 1)" width="1" x="27" y="0.5"/>
    <rect height="1" transform="rotate(55.82248313916412 28.5 1)" width="1" x="28" y="0.5"/>
    <rect height="1" transform="rotate(30.09048460928871 29.5 1)" width="1" x="29" y="0.5"/>
  </g>
</svg>
