<?xml version="1.0" encoding="utf-8" ?>
<svg xmlns="http://www.w3.org/2000/svg" xmlns:ev="http://www.w3.org/2001/xml-events" xmlns:xlink="http://www.w3.org/1999/xlink" baseProfile="full" height="100%" version="1.1" viewBox="-1 0 35 2" width="100%">
  <defs/>
  <rect fill="#eee" height="2" width="35" x="-1" y="0"/>
  <g fill="#80ffcc" stroke="#222" stroke-opacity="1" stroke-width="0.05">
    <rect height="1" transform="rotate(0 0.5 1)" width="1" x="0" y="0.5"/>
    <rect height="1" transform="rotate(1 1.5 1)" width="1" x="1" y="0.5"/>
    <rect height="1" transform="rotate(2 2.5 1)" width="1" x="2" y="0.5"/>
    <rect height="1" transform="rotate(3 3.5 1)" width="1" x="3" y="0.5"/>
    <rect height="1" transform="rotate(5 5.5 1)" width="1" x="5" y="0.5"/>
    <rect height="1" transform="rotate(6 6.5 1)" width="1" x="6" y="0.5"/>
    <rect height="1" transform="rotate(7 7.5 1)" width="1" x="7" y="0.5"/>
    <rect height="1" transform="rotate(8 8.5 1)" width="1" x="8" y="0.5"/>
    <rect height="1" transform="rotate(9 9.5 1)" width="1" x="9" y="0.5"/>
    <rect height="1" transform="rotate(10 10.5 1)" width="1" x="10" y="0.5"/>
    <rect height="1" transform="rotate(11 11.5 1)" width="1" x="11" y="0.5"/>
    <rect height="1" transform="rotate(13 13.5 1)" width="1" x="13" y="0.5"/>
    <rect height="1" transform="rotate(14 14.5 1)" width="1" x="14" y="0.5"/>
    <rect height="1" transform="rotate(15 15.5 1)" width="1" x="15" y="0.5"/>
    <rect height="1" transform="rotate(16 16.5 1)" width="1" x="16" y="0.5"/>
    <rect height="1" transform="rotate(17 17.5 1)" width="1" x="17" y="0.5"/>
    <rect height="1" transform="rotate(18 18.5 1)" width="1" x="18" y="0.5"/>
    <rect height="1" transform="rotate(19 19.5 1)" width="1" x="19" y="0.5"/>
    <rect height="1" transform="rotate(20 20.5 1)" width="1" x="20" y="0.5"/>
    <rect height="1" transform="rotate(21 21.5 1)" width="1" x="21" y="0.5"/>
    <rect height="1" transform="rotate(23 23.5 1)" width="1" x="23" y="0.5"/>
    <rect height="1" transform="rotate(24 24.5 1)" width="1" x="24" y="0.5"/>
    <rect height="1" transform="rotate(26 26.5 1)" width="1" x="26" y="0.5"/>
    <rect height="1" transform="rotate(27 27.5 1)" width="1" x="27" y="0.5"/>
    <rect height="1" transform="rotate(28 28.5 1)" width="1" x="28" y="0.5"/>
    <rect height="1" transform="rotate(29 29.5 1)" width="1" x="29" y="0.5"/>
    <rect height="1" transform="rotate(30 30.5 1)" width="1" x="30" y="0.5"/>
    <rect height="1" transform="rotate(31 31.5 1)" width="1" x="31" y="0.5"/>
    <rect height="1" transform="rotate(32 32.5 1)" width="1" x="32" y="0.5"/>
  </g>
  <g fill="#222" font-family="sans-serif" font-size="0.67" text-anchor="middle">
    <text alignment-baseline="middle" x="0.5" y="1">I</text>
    <text alignment-baseline="middle" x="1.5" y="1">T</text>
    <text alignment-baseline="middle" x="2.5" y="1">'</text>
    <text alignment-baseline="middle" x="3.5" y="1">S</text>
    <text alignment-baseline="middle" x="4.5" y="1"> </text>
    <text alignment-baseline="middle" x="5.5" y="1">T</text>
    <text alignment-baseline="middle" x="6.5" y="1">U</text>
    <text alignment-baseline="middle" x="7.5" y="1">E</text>
    <text alignment-baseline="middle" x="8.5" y="1">S</text>
    <text alignment-baseline="middle" x="9.5" y="1">D</text>
    <text alignment-baseline="middle" x="10.5" y="1">A</text>
    <text alignment-baseline="middle" x="11.5" y="1">Y</text>
    <text alignment-baseline="middle" x="12.5" y="1"> </text>
    <text alignment-baseline="middle" x="13.5" y="1">A</text>
    <text alignment-baseline="middle" x="14.5" y="1">F</text>
    <text alignment-baseline="middle" x="15.5" y="1">T</text>
    <text alignment-baseline="middle" x="16.5" y="1">E</text>
    <text alignment-baseline="middle" x="17.5" y="1">R</text>
    <text alignment-baseline="middle" x="18.5" y="1">N</text>
    <text alignment-baseline="middle" x="19.5" y="1">O</text>
    <text alignment-baseline="middle" x="20.5" y="1">O</text>
    <text alignment-baseline="middle" x="21.5" y="1">N</text>
    <text alignment-baseline="middle" x="22.5" y="1"> </text>
    <text alignment-baseline="middle" x="23.5" y="1">I</text>
    <text alignment-baseline="middle" x="24.5" y="1">N</text>
    <text alignment-baseline="middle" x="25.5" y="1"> </text>
    <text alignment-baseline="middle" x="26.5" y="1">C</text>
    <text alignment-baseline="middle" x="27.5" y="1">H</text>
    <text alignment-baseline="middle" x="28.5" y="1">I</text>
    <text alignment-baseline="middle" x="29.5" y="1">C</text>
    <text alignment-baseline="middle" x="30.5" y="1">A</text>
    <text alignment-baseline="middle" x="31.5" y="1">G</text>
    <text alignment-baseline="middle" x="32.5" y="1">O</text>
  </g>
  <g fill="none" stroke="#222" stroke-opacity="1" stroke-width="0.05">
    <rect height="1" transform="rotate(0.0 0.5 1)" width="1" x="0" y="0.5"/>
    <rect height="1" transform="rotate(1.9331657611556359 1.5 1)" width="1" x="1" y="0.5"/>
    <rect height="1" transform="rotate(3.1908756498546915 2.5 1)" width="1" x="2" y="0.5"/>
    <rect height="1" transform="rotate(4.693683562058331 3.5 1)" width="1" x="3" y="0.5"/>
    <rect height="1" transform="rotate(5.201274852022481 5.5 1)" width="1" x="5" y="0.5"/>
    <rect height="1" transform="rotate(8.77035221914437 6.5 1)" width="1" x="6" y="0.5"/>
    <rect height="1" transform="rotate(8.948331488326001 7.5 1)" width="1" x="7" y="0.5"/>
    <rect height="1" transform="rotate(8.82939550469478 8.5 1)" width="1" x="8" y="0.5"/>
    <rect height="1" transform="rotate(9.33798749710725 9.5 1)" width="1" x="9" y="0.5"/>
    <rect height="1" transform="rotate(17.51828657807717 10.5 1)" width="1" x="10" y="0.5"/>
    <rect height="1" transform="rotate(12.645454259376386 11.5 1)" width="1" x="11" y="0.5"/>
    <rect height="1" transform="rotate(16.99773591804506 13.5 1)" width="1" x="13" y="0.5"/>
    <rect height="1" transform="rotate(19.60069353798294 14.5 1)" width="1" x="14" y="0.5"/>
    <rect height="1" transform="rotate(28.21905854176189 15.5 1)" width="1" x="15" y="0.5"/>
    <rect height="1" transform="rotate(21.886463580112686 16.5 1)" width="1" x="16" y="0.5"/>
    <rect height="1" transform="rotate(31.74329725623782 17.5 1)" width="1" x="17" y="0.5"/>
    <rect height="1" transform="rotate(21.70195855320318 18.5 1)" width="1" x="18" y="0.5"/>
    <rect height="1" transform="rotate(21.941885662073073 19.5 1)" width="1" x="19" y="0.5"/>
    <rect height="1" transform="rotate(21.466708727872028 20.5 1)" width="1" x="20" y="0.5"/>
    <rect height="1" transform="rotate(23.502991917452228 21.5 1)" width="1" x="21" y="0.5"/>
    <rect height="1" transform="rotate(45.83286612806821 23.5 1)" width="1" x="23" y="0.5"/>
    <rect height="1" transform="rotate(31.57841809323376 24.5 1)" width="1" x="24" y="0.5"/>
    <rect height="1" transform="rotate(27.970521990667613 26.5 1)" width="1" x="26" y="0.5"/>
    <rect height="1" transform="rotate(27.087618007920373 27.5 1)" width="1" x="27" y="0.5"/>
    <rect height="1" transform="rotate(32.792169558875116 28.5 1)" width="1" x="28" y="0.5"/>
    <rect height="1" transform="rotate(48.48225183514039 29.5 1)" width="1" x="29" y="0.5"/>
    <rect height="1" transform="rotate(55.582645540449704 30.5 1)" width="1" x="30" y="0.5"/>
    <rect height="1" transform="rotate(39.997787300519235 31.5 1)" width="1" x="31" y="0.5"/>
    <rect height="1" transform="rotate(57.77598919022561 32.5 1)" width="1" x="32" y="0.5"/>
  </g>
</svg>
