<?xml version="1.0" encoding="utf-8" ?>
<svg xmlns="http://www.w3.org/2000/svg" xmlns:ev="http://www.w3.org/2001/xml-events" xmlns:xlink="http://www.w3.org/1999/xlink" baseProfile="full" height="100%" version="1.1" viewBox="-1 0 33 2" width="100%">
  <defs/>
  <rect fill="#111" height="2" width="33" x="-1" y="0"/>
  <g fill="#a10045" stroke="#eee" stroke-opacity="1" stroke-width="0.05">
    <rect height="1" transform="rotate(0 0.5 1)" width="1" x="0" y="0.5"/>
    <rect height="1" transform="rotate(1 1.5 1)" width="1" x="1" y="0.5"/>
    <rect height="1" transform="rotate(2 2.5 1)" width="1" x="2" y="0.5"/>
    <rect height="1" transform="rotate(3 3.5 1)" width="1" x="3" y="0.5"/>
    <rect height="1" transform="rotate(5 5.5 1)" width="1" x="5" y="0.5"/>
    <rect height="1" transform="rotate(6 6.5 1)" width="1" x="6" y="0.5"/>
    <rect height="1" transform="rotate(7 7.5 1)" width="1" x="7" y="0.5"/>
    <rect height="1" transform="rotate(8 8.5 1)" width="1" x="8" y="0.5"/>
    <rect height="1" transform="rotate(9 9.5 1)" width="1" x="9" y="0.5"/>
    <rect height="1" transform="rotate(10 10.5 1)" width="1" x="10" y="0.5"/>
    <rect height="1" transform="rotate(11 11.5 1)" width="1" x="11" y="0.5"/>
    <rect height="1" transform="rotate(12 12.5 1)" width="1" x="12" y="0.5"/>
    <rect height="1" transform="rotate(13 13.5 1)" width="1" x="13" y="0.5"/>
    <rect height="1" transform="rotate(15 15.5 1)" width="1" x="15" y="0.5"/>
    <rect height="1" transform="rotate(16 16.5 1)" width="1" x="16" y="0.5"/>
    <rect height="1" transform="rotate(17 17.5 1)" width="1" x="17" y="0.5"/>
    <rect height="1" transform="rotate(18 18.5 1)" width="1" x="18" y="0.5"/>
    <rect height="1" transform="rotate(19 19.5 1)" width="1" x="19" y="0.5"/>
    <rect height="1" transform="rotate(21 21.5 1)" width="1" x="21" y="0.5"/>
    <rect height="1" transform="rotate(22 22.5 1)" width="1" x="22" y="0.5"/>
    <rect height="1" transform="rotate(24 24.5 1)" width="1" x="24" y="0.5"/>
    <rect height="1" transform="rotate(25 25.5 1)" width="1" x="25" y="0.5"/>
    <rect height="1" transform="rotate(26 26.5 1)" width="1" x="26" y="0.5"/>
    <rect height="1" transform="rotate(27 27.5 1)" width="1" x="27" y="0.5"/>
    <rect height="1" transform="rotate(28 28.5 1)" width="1" x="28" y="0.5"/>
    <rect height="1" transform="rotate(29 29.5 1)" width="1" x="29" y="0.5"/>
    <rect height="1" transform="rotate(30 30.5 1)" width="1" x="30" y="0.5"/>
  </g>
  <g fill="#eee" font-family="sans-serif" font-size="0.67" text-anchor="middle">
    <text alignment-baseline="middle" x="0.5" y="1">I</text>
    <text alignment-baseline="middle" x="1.5" y="1">T</text>
    <text alignment-baseline="middle" x="2.5" y="1">'</text>
    <text alignment-baseline="middle" x="3.5" y="1">S</text>
    <text alignment-baseline="middle" x="4.5" y="1"> </text>
    <text alignment-baseline="middle" x="5.5" y="1">W</text>
    <text alignment-baseline="middle" x="6.5" y="1">E</text>
    <text alignment-baseline="middle" x="7.5" y="1">D</text>
    <text alignment-baseline="middle" x="8.5" y="1">N</text>
    <text alignment-baseline="middle" x="9.5" y="1">E</text>
    <text alignment-baseline="middle" x="10.5" y="1">S</text>
    <text alignment-baseline="middle" x="11.5" y="1">D</text>
    <text alignment-baseline="middle" x="12.5" y="1">A</text>
    <text alignment-baseline="middle" x="13.5" y="1">Y</text>
    <text alignment-baseline="middle" x="14.5" y="1"> </text>
    <text alignment-baseline="middle" x="15.5" y="1">N</text>
    <text alignment-baseline="middle" x="16.5" y="1">I</text>
    <text alignment-baseline="middle" x="17.5" y="1">G</text>
    <text alignment-baseline="middle" x="18.5" y="1">H</text>
    <text alignment-baseline="middle" x="19.5" y="1">T</text>
    <text alignment-baseline="middle" x="20.5" y="1"> </text>
    <text alignment-baseline="middle" x="21.5" y="1">I</text>
    <text alignment-baseline="middle" x="22.5" y="1">N</text>
    <text alignment-baseline="middle" x="23.5" y="1"> </text>
    <text alignment-baseline="middle" x="24.5" y="1">C</text>
    <text alignment-baseline="middle" x="25.5" y="1">H</text>
    <text alignment-baseline="middle" x="26.5" y="1">I</text>
    <text alignment-baseline="middle" x="27.5" y="1">C</text>
    <text alignment-baseline="middle" x="28.5" y="1">A</text>
    <text alignment-baseline="middle" x="29.5" y="1">G</text>
    <text alignment-baseline="middle" x="30.5" y="1">O</text>
  </g>
  <g fill="none" stroke="#eee" stroke-opacity="1" stroke-width="0.05">
    <rect height="1" transform="rotate(0.0 0.5 1)" width="1" x="0" y="0.5"/>
    <rect height="1" transform="rotate(1.2407684230666327 1.5 1)" width="1" x="1" y="0.5"/>
    <rect height="1" transform="rotate(2.587166911612642 2.5 1)" width="1" x="2" y="0.5"/>
    <rect height="1" transform="rotate(4.990332518407016 3.5 1)" width="1" x="3" y="0.5"/>
    <rect height="1" transform="rotate(5.031714700665142 5.5 1)" width="1" x="5" y="0.5"/>
    <rect height="1" transform="rotate(9.669811654444732 6.5 1)" width="1" x="6" y="0.5"/>
    <rect height="1" transform="rotate(12.35629157315083 7.5 1)" width="1" x="7" y="0.5"/>
    <rect height="1" transform="rotate(14.087428705614073 8.5 1)" width="1" x="8" y="0.5"/>
    <rect height="1" transform="rotate(13.553227754894637 9.5 1)" width="1" x="9" y="0.5"/>
    <rect height="1" transform="rotate(11.886608121733635 10.5 1)" width="1" x="10" y="0.5"/>
    <rect height="1" transform="rotate(16.784074285247012 11.5 1)" width="1" x="11" y="0.5"/>
    <rect height="1" transform="rotate(22.942515907940585 12.5 1)" width="1" x="12" y="0.5"/>
    <rect height="1" transform="rotate(21.164556668533226 13.5 1)" width="1" x="13" y="0.5"/>
    <rect height="1" transform="rotate(28.09753988670027 15.5 1)" width="1" x="15" y="0.5"/>
    <rect height="1" transform="rotate(18.242574740150324 16.5 1)" width="1" x="16" y="0.5"/>
    <rect height="1" transform="rotate(30.04141234529796 17.5 1)" width="1" x="17" y="0.5"/>
    <rect height="1" transform="rotate(28.8051359493788 18.5 1)" width="1" x="18" y="0.5"/>
    <rect height="1" transform="rotate(34.438296126931114 19.5 1)" width="1" x="19" y="0.5"/>
    <rect height="1" transform="rotate(35.61213419693726 21.5 1)" width="1" x="21" y="0.5"/>
    <rect height="1" transform="rotate(31.30062503701131 22.5 1)" width="1" x="22" y="0.5"/>
    <rect height="1" transform="rotate(41.39851454523597 24.5 1)" width="1" x="24" y="0.5"/>
    <rect height="1" transform="rotate(48.455545612827876 25.5 1)" width="1" x="25" y="0.5"/>
    <rect height="1" transform="rotate(29.418949489346836 26.5 1)" width="1" x="26" y="0.5"/>
    <rect height="1" transform="rotate(46.749261620348506 27.5 1)" width="1" x="27" y="0.5"/>
    <rect height="1" transform="rotate(47.52383947225652 28.5 1)" width="1" x="28" y="0.5"/>
    <rect height="1" transform="rotate(36.02051089467741 29.5 1)" width="1" x="29" y="0.5"/>
    <rect height="1" transform="rotate(47.51179150151982 30.5 1)" width="1" x="30" y="0.5"/>
  </g>
</svg>
