<?xml version="1.0" encoding="utf-8" ?>
<svg xmlns="http://www.w3.org/2000/svg" xmlns:ev="http://www.w3.org/2001/xml-events" xmlns:xlink="http://www.w3.org/1999/xlink" baseProfile="full" height="100%" version="1.1" viewBox="-1 0 30 2" width="100%">
  <defs/>
  <rect fill="#111" height="2" width="30" x="-1" y="0"/>
  <g fill="#a10045" stroke="#eee" stroke-opacity="1" stroke-width="0.05">
    <rect height="1" transform="rotate(0 0.5 1)" width="1" x="0" y="0.5"/>
    <rect height="1" transform="rotate(1 1.5 1)" width="1" x="1" y="0.5"/>
    <rect height="1" transform="rotate(2 2.5 1)" width="1" x="2" y="0.5"/>
    <rect height="1" transform="rotate(3 3.5 1)" width="1" x="3" y="0.5"/>
    <rect height="1" transform="rotate(5 5.5 1)" width="1" x="5" y="0.5"/>
    <rect height="1" transform="rotate(6 6.5 1)" width="1" x="6" y="0.5"/>
    <rect height="1" transform="rotate(7 7.5 1)" width="1" x="7" y="0.5"/>
    <rect height="1" transform="rotate(8 8.5 1)" width="1" x="8" y="0.5"/>
    <rect height="1" transform="rotate(9 9.5 1)" width="1" x="9" y="0.5"/>
    <rect height="1" transform="rotate(10 10.5 1)" width="1" x="10" y="0.5"/>
    <rect height="1" transform="rotate(12 12.5 1)" width="1" x="12" y="0.5"/>
    <rect height="1" transform="rotate(13 13.5 1)" width="1" x="13" y="0.5"/>
    <rect height="1" transform="rotate(14 14.5 1)" width="1" x="14" y="0.5"/>
    <rect height="1" transform="rotate(15 15.5 1)" width="1" x="15" y="0.5"/>
    <rect height="1" transform="rotate(16 16.5 1)" width="1" x="16" y="0.5"/>
    <rect height="1" transform="rotate(18 18.5 1)" width="1" x="18" y="0.5"/>
    <rect height="1" transform="rotate(19 19.5 1)" width="1" x="19" y="0.5"/>
    <rect height="1" transform="rotate(21 21.5 1)" width="1" x="21" y="0.5"/>
    <rect height="1" transform="rotate(22 22.5 1)" width="1" x="22" y="0.5"/>
    <rect height="1" transform="rotate(23 23.5 1)" width="1" x="23" y="0.5"/>
    <rect height="1" transform="rotate(24 24.5 1)" width="1" x="24" y="0.5"/>
    <rect height="1" transform="rotate(25 25.5 1)" width="1" x="25" y="0.5"/>
    <rect height="1" transform="rotate(26 26.5 1)" width="1" x="26" y="0.5"/>
    <rect height="1" transform="rotate(27 27.5 1)" width="1" x="27" y="0.5"/>
  </g>
  <g fill="#eee" font-family="sans-serif" font-size="0.67" text-anchor="middle">
    <text alignment-baseline="middle" x="0.5" y="1">I</text>
    <text alignment-baseline="middle" x="1.5" y="1">T</text>
    <text alignment-baseline="middle" x="2.5" y="1">'</text>
    <text alignment-baseline="middle" x="3.5" y="1">S</text>
    <text alignment-baseline="middle" x="4.5" y="1"> </text>
    <text alignment-baseline="middle" x="5.5" y="1">F</text>
    <text alignment-baseline="middle" x="6.5" y="1">R</text>
    <text alignment-baseline="middle" x="7.5" y="1">I</text>
    <text alignment-baseline="middle" x="8.5" y="1">D</text>
    <text alignment-baseline="middle" x="9.5" y="1">A</text>
    <text alignment-baseline="middle" x="10.5" y="1">Y</text>
    <text alignment-baseline="middle" x="11.5" y="1"> </text>
    <text alignment-baseline="middle" x="12.5" y="1">N</text>
    <text alignment-baseline="middle" x="13.5" y="1">I</text>
    <text alignment-baseline="middle" x="14.5" y="1">G</text>
    <text alignment-baseline="middle" x="15.5" y="1">H</text>
    <text alignment-baseline="middle" x="16.5" y="1">T</text>
    <text alignment-baseline="middle" x="17.5" y="1"> </text>
    <text alignment-baseline="middle" x="18.5" y="1">I</text>
    <text alignment-baseline="middle" x="19.5" y="1">N</text>
    <text alignment-baseline="middle" x="20.5" y="1"> </text>
    <text alignment-baseline="middle" x="21.5" y="1">C</text>
    <text alignment-baseline="middle" x="22.5" y="1">H</text>
    <text alignment-baseline="middle" x="23.5" y="1">I</text>
    <text alignment-baseline="middle" x="24.5" y="1">C</text>
    <text alignment-baseline="middle" x="25.5" y="1">A</text>
    <text alignment-baseline="middle" x="26.5" y="1">G</text>
    <text alignment-baseline="middle" x="27.5" y="1">O</text>
  </g>
  <g fill="none" stroke="#eee" stroke-opacity="1" stroke-width="0.05">
    <rect height="1" transform="rotate(0.0 0.5 1)" width="1" x="0" y="0.5"/>
    <rect height="1" transform="rotate(1.0461583401167958 1.5 1)" width="1" x="1" y="0.5"/>
    <rect height="1" transform="rotate(2.8260009318025507 2.5 1)" width="1" x="2" y="0.5"/>
    <rect height="1" transform="rotate(4.8511889733491484 3.5 1)" width="1" x="3" y="0.5"/>
    <rect height="1" transform="rotate(8.834019969744721 5.5 1)" width="1" x="5" y="0.5"/>
    <rect height="1" transform="rotate(6.719672533229066 6.5 1)" width="1" x="6" y="0.5"/>
    <rect height="1" transform="rotate(8.351884244344431 7.5 1)" width="1" x="7" y="0.5"/>
    <rect height="1" transform="rotate(10.59558184073489 8.5 1)" width="1" x="8" y="0.5"/>
    <rect height="1" transform="rotate(13.260522470609217 9.5 1)" width="1" x="9" y="0.5"/>
    <rect height="1" transform="rotate(18.965147137019187 10.5 1)" width="1" x="10" y="0.5"/>
    <rect height="1" transform="rotate(19.479776000019584 12.5 1)" width="1" x="12" y="0.5"/>
    <rect height="1" transform="rotate(24.167556720260563 13.5 1)" width="1" x="13" y="0.5"/>
    <rect height="1" transform="rotate(20.45280554688091 14.5 1)" width="1" x="14" y="0.5"/>
    <rect height="1" transform="rotate(19.39281623660931 15.5 1)" width="1" x="15" y="0.5"/>
    <rect height="1" transform="rotate(28.511003099343245 16.5 1)" width="1" x="16" y="0.5"/>
    <rect height="1" transform="rotate(23.01773789444616 18.5 1)" width="1" x="18" y="0.5"/>
    <rect height="1" transform="rotate(29.511471110500523 19.5 1)" width="1" x="19" y="0.5"/>
    <rect height="1" transform="rotate(31.437485607251297 21.5 1)" width="1" x="21" y="0.5"/>
    <rect height="1" transform="rotate(27.688545646099268 22.5 1)" width="1" x="22" y="0.5"/>
    <rect height="1" transform="rotate(25.43365363494153 23.5 1)" width="1" x="23" y="0.5"/>
    <rect height="1" transform="rotate(47.710819150781155 24.5 1)" width="1" x="24" y="0.5"/>
    <rect height="1" transform="rotate(42.07865039066524 25.5 1)" width="1" x="25" y="0.5"/>
    <rect height="1" transform="rotate(36.075636005027796 26.5 1)" width="1" x="26" y="0.5"/>
    <rect height="1" transform="rotate(50.786670764858194 27.5 1)" width="1" x="27" y="0.5"/>
  </g>
</svg>
