<?xml version="1.0" encoding="utf-8" ?>
<svg xmlns="http://www.w3.org/2000/svg" xmlns:ev="http://www.w3.org/2001/xml-events" xmlns:xlink="http://www.w3.org/1999/xlink" baseProfile="full" height="100%" version="1.1" viewBox="-1 0 33 2" width="100%">
  <defs/>
  <rect fill="#eee" height="2" width="33" x="-1" y="0"/>
  <g fill="#fff59e" stroke="#111" stroke-opacity="1" stroke-width="0.05">
    <rect height="1" transform="rotate(0 0.5 1)" width="1" x="0" y="0.5"/>
    <rect height="1" transform="rotate(1 1.5 1)" width="1" x="1" y="0.5"/>
    <rect height="1" transform="rotate(2 2.5 1)" width="1" x="2" y="0.5"/>
    <rect height="1" transform="rotate(3 3.5 1)" width="1" x="3" y="0.5"/>
    <rect height="1" transform="rotate(5 5.5 1)" width="1" x="5" y="0.5"/>
    <rect height="1" transform="rotate(6 6.5 1)" width="1" x="6" y="0.5"/>
    <rect height="1" transform="rotate(7 7.5 1)" width="1" x="7" y="0.5"/>
    <rect height="1" transform="rotate(8 8.5 1)" width="1" x="8" y="0.5"/>
    <rect height="1" transform="rotate(9 9.5 1)" width="1" x="9" y="0.5"/>
    <rect height="1" transform="rotate(10 10.5 1)" width="1" x="10" y="0.5"/>
    <rect height="1" transform="rotate(11 11.5 1)" width="1" x="11" y="0.5"/>
    <rect height="1" transform="rotate(13 13.5 1)" width="1" x="13" y="0.5"/>
    <rect height="1" transform="rotate(14 14.5 1)" width="1" x="14" y="0.5"/>
    <rect height="1" transform="rotate(15 15.5 1)" width="1" x="15" y="0.5"/>
    <rect height="1" transform="rotate(16 16.5 1)" width="1" x="16" y="0.5"/>
    <rect height="1" transform="rotate(17 17.5 1)" width="1" x="17" y="0.5"/>
    <rect height="1" transform="rotate(18 18.5 1)" width="1" x="18" y="0.5"/>
    <rect height="1" transform="rotate(19 19.5 1)" width="1" x="19" y="0.5"/>
    <rect height="1" transform="rotate(21 21.5 1)" width="1" x="21" y="0.5"/>
    <rect height="1" transform="rotate(22 22.5 1)" width="1" x="22" y="0.5"/>
    <rect height="1" transform="rotate(24 24.5 1)" width="1" x="24" y="0.5"/>
    <rect height="1" transform="rotate(25 25.5 1)" width="1" x="25" y="0.5"/>
    <rect height="1" transform="rotate(26 26.5 1)" width="1" x="26" y="0.5"/>
    <rect height="1" transform="rotate(27 27.5 1)" width="1" x="27" y="0.5"/>
    <rect height="1" transform="rotate(28 28.5 1)" width="1" x="28" y="0.5"/>
    <rect height="1" transform="rotate(29 29.5 1)" width="1" x="29" y="0.5"/>
    <rect height="1" transform="rotate(30 30.5 1)" width="1" x="30" y="0.5"/>
  </g>
  <g fill="#111" font-family="sans-serif" font-size="0.67" text-anchor="middle">
    <text alignment-baseline="middle" x="0.5" y="1">I</text>
    <text alignment-baseline="middle" x="1.5" y="1">T</text>
    <text alignment-baseline="middle" x="2.5" y="1">'</text>
    <text alignment-baseline="middle" x="3.5" y="1">S</text>
    <text alignment-baseline="middle" x="4.5" y="1"> </text>
    <text alignment-baseline="middle" x="5.5" y="1">T</text>
    <text alignment-baseline="middle" x="6.5" y="1">U</text>
    <text alignment-baseline="middle" x="7.5" y="1">E</text>
    <text alignment-baseline="middle" x="8.5" y="1">S</text>
    <text alignment-baseline="middle" x="9.5" y="1">D</text>
    <text alignment-baseline="middle" x="10.5" y="1">A</text>
    <text alignment-baseline="middle" x="11.5" y="1">Y</text>
    <text alignment-baseline="middle" x="12.5" y="1"> </text>
    <text alignment-baseline="middle" x="13.5" y="1">M</text>
    <text alignment-baseline="middle" x="14.5" y="1">O</text>
    <text alignment-baseline="middle" x="15.5" y="1">R</text>
    <text alignment-baseline="middle" x="16.5" y="1">N</text>
    <text alignment-baseline="middle" x="17.5" y="1">I</text>
    <text alignment-baseline="middle" x="18.5" y="1">N</text>
    <text alignment-baseline="middle" x="19.5" y="1">G</text>
    <text alignment-baseline="middle" x="20.5" y="1"> </text>
    <text alignment-baseline="middle" x="21.5" y="1">I</text>
    <text alignment-baseline="middle" x="22.5" y="1">N</text>
    <text alignment-baseline="middle" x="23.5" y="1"> </text>
    <text alignment-baseline="middle" x="24.5" y="1">C</text>
    <text alignment-baseline="middle" x="25.5" y="1">H</text>
    <text alignment-baseline="middle" x="26.5" y="1">I</text>
    <text alignment-baseline="middle" x="27.5" y="1">C</text>
    <text alignment-baseline="middle" x="28.5" y="1">A</text>
    <text alignment-baseline="middle" x="29.5" y="1">G</text>
    <text alignment-baseline="middle" x="30.5" y="1">O</text>
  </g>
  <g fill="none" stroke="#111" stroke-opacity="1" stroke-width="0.05">
    <rect height="1" transform="rotate(0.0 0.5 1)" width="1" x="0" y="0.5"/>
    <rect height="1" transform="rotate(1.1863832212732395 1.5 1)" width="1" x="1" y="0.5"/>
    <rect height="1" transform="rotate(2.6788679768081263 2.5 1)" width="1" x="2" y="0.5"/>
    <rect height="1" transform="rotate(5.834968269769491 3.5 1)" width="1" x="3" y="0.5"/>
    <rect height="1" transform="rotate(9.275157661787995 5.5 1)" width="1" x="5" y="0.5"/>
    <rect height="1" transform="rotate(8.25603804875298 6.5 1)" width="1" x="6" y="0.5"/>
    <rect height="1" transform="rotate(12.659409403241963 7.5 1)" width="1" x="7" y="0.5"/>
    <rect height="1" transform="rotate(11.942479436930824 8.5 1)" width="1" x="8" y="0.5"/>
    <rect height="1" transform="rotate(9.52528003664645 9.5 1)" width="1" x="9" y="0.5"/>
    <rect height="1" transform="rotate(14.15826510501132 10.5 1)" width="1" x="10" y="0.5"/>
    <rect height="1" transform="rotate(18.783192210239193 11.5 1)" width="1" x="11" y="0.5"/>
    <rect height="1" transform="rotate(14.425135383154647 13.5 1)" width="1" x="13" y="0.5"/>
    <rect height="1" transform="rotate(14.274870428257856 14.5 1)" width="1" x="14" y="0.5"/>
    <rect height="1" transform="rotate(23.131286709135686 15.5 1)" width="1" x="15" y="0.5"/>
    <rect height="1" transform="rotate(24.14903439141674 16.5 1)" width="1" x="16" y="0.5"/>
    <rect height="1" transform="rotate(23.099298298629463 17.5 1)" width="1" x="17" y="0.5"/>
    <rect height="1" transform="rotate(27.534122262458705 18.5 1)" width="1" x="18" y="0.5"/>
    <rect height="1" transform="rotate(36.936612581603306 19.5 1)" width="1" x="19" y="0.5"/>
    <rect height="1" transform="rotate(24.012525056766112 21.5 1)" width="1" x="21" y="0.5"/>
    <rect height="1" transform="rotate(24.472508932161794 22.5 1)" width="1" x="22" y="0.5"/>
    <rect height="1" transform="rotate(36.76969992587909 24.5 1)" width="1" x="24" y="0.5"/>
    <rect height="1" transform="rotate(35.35933567481172 25.5 1)" width="1" x="25" y="0.5"/>
    <rect height="1" transform="rotate(31.984895488244607 26.5 1)" width="1" x="26" y="0.5"/>
    <rect height="1" transform="rotate(34.249267373888976 27.5 1)" width="1" x="27" y="0.5"/>
    <rect height="1" transform="rotate(32.70656300176957 28.5 1)" width="1" x="28" y="0.5"/>
    <rect height="1" transform="rotate(39.746956011143006 29.5 1)" width="1" x="29" y="0.5"/>
    <rect height="1" transform="rotate(56.97774841994396 30.5 1)" width="1" x="30" y="0.5"/>
  </g>
</svg>
