<?xml version="1.0" encoding="utf-8" ?>
<svg xmlns="http://www.w3.org/2000/svg" xmlns:ev="http://www.w3.org/2001/xml-events" xmlns:xlink="http://www.w3.org/1999/xlink" baseProfile="full" height="100%" version="1.1" viewBox="-1 0 34 2" width="100%">
  <defs/>
  <rect fill="#eee" height="2" width="34" x="-1" y="0"/>
  <g fill="#fff59e" stroke="#111" stroke-opacity="1" stroke-width="0.05">
    <rect height="1" transform="rotate(0 0.5 1)" width="1" x="0" y="0.5"/>
    <rect height="1" transform="rotate(1 1.5 1)" width="1" x="1" y="0.5"/>
    <rect height="1" transform="rotate(2 2.5 1)" width="1" x="2" y="0.5"/>
    <rect height="1" transform="rotate(3 3.5 1)" width="1" x="3" y="0.5"/>
    <rect height="1" transform="rotate(5 5.5 1)" width="1" x="5" y="0.5"/>
    <rect height="1" transform="rotate(6 6.5 1)" width="1" x="6" y="0.5"/>
    <rect height="1" transform="rotate(7 7.5 1)" width="1" x="7" y="0.5"/>
    <rect height="1" transform="rotate(8 8.5 1)" width="1" x="8" y="0.5"/>
    <rect height="1" transform="rotate(9 9.5 1)" width="1" x="9" y="0.5"/>
    <rect height="1" transform="rotate(10 10.5 1)" width="1" x="10" y="0.5"/>
    <rect height="1" transform="rotate(11 11.5 1)" width="1" x="11" y="0.5"/>
    <rect height="1" transform="rotate(12 12.5 1)" width="1" x="12" y="0.5"/>
    <rect height="1" transform="rotate(14 14.5 1)" width="1" x="14" y="0.5"/>
    <rect height="1" transform="rotate(15 15.5 1)" width="1" x="15" y="0.5"/>
    <rect height="1" transform="rotate(16 16.5 1)" width="1" x="16" y="0.5"/>
    <rect height="1" transform="rotate(17 17.5 1)" width="1" x="17" y="0.5"/>
    <rect height="1" transform="rotate(18 18.5 1)" width="1" x="18" y="0.5"/>
    <rect height="1" transform="rotate(19 19.5 1)" width="1" x="19" y="0.5"/>
    <rect height="1" transform="rotate(20 20.5 1)" width="1" x="20" y="0.5"/>
    <rect height="1" transform="rotate(22 22.5 1)" width="1" x="22" y="0.5"/>
    <rect height="1" transform="rotate(23 23.5 1)" width="1" x="23" y="0.5"/>
    <rect height="1" transform="rotate(25 25.5 1)" width="1" x="25" y="0.5"/>
    <rect height="1" transform="rotate(26 26.5 1)" width="1" x="26" y="0.5"/>
    <rect height="1" transform="rotate(27 27.5 1)" width="1" x="27" y="0.5"/>
    <rect height="1" transform="rotate(28 28.5 1)" width="1" x="28" y="0.5"/>
    <rect height="1" transform="rotate(29 29.5 1)" width="1" x="29" y="0.5"/>
    <rect height="1" transform="rotate(30 30.5 1)" width="1" x="30" y="0.5"/>
    <rect height="1" transform="rotate(31 31.5 1)" width="1" x="31" y="0.5"/>
  </g>
  <g fill="#111" font-family="sans-serif" font-size="0.67" text-anchor="middle">
    <text alignment-baseline="middle" x="0.5" y="1">I</text>
    <text alignment-baseline="middle" x="1.5" y="1">T</text>
    <text alignment-baseline="middle" x="2.5" y="1">'</text>
    <text alignment-baseline="middle" x="3.5" y="1">S</text>
    <text alignment-baseline="middle" x="4.5" y="1"> </text>
    <text alignment-baseline="middle" x="5.5" y="1">T</text>
    <text alignment-baseline="middle" x="6.5" y="1">H</text>
    <text alignment-baseline="middle" x="7.5" y="1">U</text>
    <text alignment-baseline="middle" x="8.5" y="1">R</text>
    <text alignment-baseline="middle" x="9.5" y="1">S</text>
    <text alignment-baseline="middle" x="10.5" y="1">D</text>
    <text alignment-baseline="middle" x="11.5" y="1">A</text>
    <text alignment-baseline="middle" x="12.5" y="1">Y</text>
    <text alignment-baseline="middle" x="13.5" y="1"> </text>
    <text alignment-baseline="middle" x="14.5" y="1">M</text>
    <text alignment-baseline="middle" x="15.5" y="1">O</text>
    <text alignment-baseline="middle" x="16.5" y="1">R</text>
    <text alignment-baseline="middle" x="17.5" y="1">N</text>
    <text alignment-baseline="middle" x="18.5" y="1">I</text>
    <text alignment-baseline="middle" x="19.5" y="1">N</text>
    <text alignment-baseline="middle" x="20.5" y="1">G</text>
    <text alignment-baseline="middle" x="21.5" y="1"> </text>
    <text alignment-baseline="middle" x="22.5" y="1">I</text>
    <text alignment-baseline="middle" x="23.5" y="1">N</text>
    <text alignment-baseline="middle" x="24.5" y="1"> </text>
    <text alignment-baseline="middle" x="25.5" y="1">C</text>
    <text alignment-baseline="middle" x="26.5" y="1">H</text>
    <text alignment-baseline="middle" x="27.5" y="1">I</text>
    <text alignment-baseline="middle" x="28.5" y="1">C</text>
    <text alignment-baseline="middle" x="29.5" y="1">A</text>
    <text alignment-baseline="middle" x="30.5" y="1">G</text>
    <text alignment-baseline="middle" x="31.5" y="1">O</text>
  </g>
  <g fill="none" stroke="#111" stroke-opacity="1" stroke-width="0.05">
    <rect height="1" transform="rotate(0.0 0.5 1)" width="1" x="0" y="0.5"/>
    <rect height="1" transform="rotate(1.1170598385016968 1.5 1)" width="1" x="1" y="0.5"/>
    <rect height="1" transform="rotate(3.0560890738718953 2.5 1)" width="1" x="2" y="0.5"/>
    <rect height="1" transform="rotate(5.215014555084266 3.5 1)" width="1" x="3" y="0.5"/>
    <rect height="1" transform="rotate(7.122463770923408 5.5 1)" width="1" x="5" y="0.5"/>
    <rect height="1" transform="rotate(8.885208171492838 6.5 1)" width="1" x="6" y="0.5"/>
    <rect height="1" transform="rotate(9.30263096237745 7.5 1)" width="1" x="7" y="0.5"/>
    <rect height="1" transform="rotate(13.449643245499104 8.5 1)" width="1" x="8" y="0.5"/>
    <rect height="1" transform="rotate(13.383659099615503 9.5 1)" width="1" x="9" y="0.5"/>
    <rect height="1" transform="rotate(19.738650151578604 10.5 1)" width="1" x="10" y="0.5"/>
    <rect height="1" transform="rotate(15.22222244504993 11.5 1)" width="1" x="11" y="0.5"/>
    <rect height="1" transform="rotate(13.220894557599498 12.5 1)" width="1" x="12" y="0.5"/>
    <rect height="1" transform="rotate(18.80166568241799 14.5 1)" width="1" x="14" y="0.5"/>
    <rect height="1" transform="rotate(21.16288489823185 15.5 1)" width="1" x="15" y="0.5"/>
    <rect height="1" transform="rotate(27.777341036295862 16.5 1)" width="1" x="16" y="0.5"/>
    <rect height="1" transform="rotate(22.896236024815217 17.5 1)" width="1" x="17" y="0.5"/>
    <rect height="1" transform="rotate(23.04007472275892 18.5 1)" width="1" x="18" y="0.5"/>
    <rect height="1" transform="rotate(25.677491328970405 19.5 1)" width="1" x="19" y="0.5"/>
    <rect height="1" transform="rotate(34.46400154949981 20.5 1)" width="1" x="20" y="0.5"/>
    <rect height="1" transform="rotate(32.17076336352011 22.5 1)" width="1" x="22" y="0.5"/>
    <rect height="1" transform="rotate(37.47639846812216 23.5 1)" width="1" x="23" y="0.5"/>
    <rect height="1" transform="rotate(48.86315700968771 25.5 1)" width="1" x="25" y="0.5"/>
    <rect height="1" transform="rotate(47.615590068558234 26.5 1)" width="1" x="26" y="0.5"/>
    <rect height="1" transform="rotate(46.50014349276563 27.5 1)" width="1" x="27" y="0.5"/>
    <rect height="1" transform="rotate(51.994361839341444 28.5 1)" width="1" x="28" y="0.5"/>
    <rect height="1" transform="rotate(50.07570103917767 29.5 1)" width="1" x="29" y="0.5"/>
    <rect height="1" transform="rotate(33.95098906590793 30.5 1)" width="1" x="30" y="0.5"/>
    <rect height="1" transform="rotate(36.347711226826306 31.5 1)" width="1" x="31" y="0.5"/>
  </g>
</svg>
