<?xml version="1.0" encoding="utf-8" ?>
<svg xmlns="http://www.w3.org/2000/svg" xmlns:ev="http://www.w3.org/2001/xml-events" xmlns:xlink="http://www.w3.org/1999/xlink" baseProfile="full" height="100%" version="1.1" viewBox="-1 0 34 2" width="100%">
  <defs/>
  <rect fill="#eee" height="2" width="34" x="-1" y="0"/>
  <g fill="#9cb29e" stroke="#000" stroke-opacity="1" stroke-width="0.05">
    <rect height="1" transform="rotate(0 0.5 1)" width="1" x="0" y="0.5"/>
    <rect height="1" transform="rotate(1 1.5 1)" width="1" x="1" y="0.5"/>
    <rect height="1" transform="rotate(2 2.5 1)" width="1" x="2" y="0.5"/>
    <rect height="1" transform="rotate(3 3.5 1)" width="1" x="3" y="0.5"/>
    <rect height="1" transform="rotate(5 5.5 1)" width="1" x="5" y="0.5"/>
    <rect height="1" transform="rotate(6 6.5 1)" width="1" x="6" y="0.5"/>
    <rect height="1" transform="rotate(7 7.5 1)" width="1" x="7" y="0.5"/>
    <rect height="1" transform="rotate(8 8.5 1)" width="1" x="8" y="0.5"/>
    <rect height="1" transform="rotate(9 9.5 1)" width="1" x="9" y="0.5"/>
    <rect height="1" transform="rotate(10 10.5 1)" width="1" x="10" y="0.5"/>
    <rect height="1" transform="rotate(11 11.5 1)" width="1" x="11" y="0.5"/>
    <rect height="1" transform="rotate(12 12.5 1)" width="1" x="12" y="0.5"/>
    <rect height="1" transform="rotate(14 14.5 1)" width="1" x="14" y="0.5"/>
    <rect height="1" transform="rotate(15 15.5 1)" width="1" x="15" y="0.5"/>
    <rect height="1" transform="rotate(16 16.5 1)" width="1" x="16" y="0.5"/>
    <rect height="1" transform="rotate(17 17.5 1)" width="1" x="17" y="0.5"/>
    <rect height="1" transform="rotate(18 18.5 1)" width="1" x="18" y="0.5"/>
    <rect height="1" transform="rotate(19 19.5 1)" width="1" x="19" y="0.5"/>
    <rect height="1" transform="rotate(20 20.5 1)" width="1" x="20" y="0.5"/>
    <rect height="1" transform="rotate(22 22.5 1)" width="1" x="22" y="0.5"/>
    <rect height="1" transform="rotate(23 23.5 1)" width="1" x="23" y="0.5"/>
    <rect height="1" transform="rotate(25 25.5 1)" width="1" x="25" y="0.5"/>
    <rect height="1" transform="rotate(26 26.5 1)" width="1" x="26" y="0.5"/>
    <rect height="1" transform="rotate(27 27.5 1)" width="1" x="27" y="0.5"/>
    <rect height="1" transform="rotate(28 28.5 1)" width="1" x="28" y="0.5"/>
    <rect height="1" transform="rotate(29 29.5 1)" width="1" x="29" y="0.5"/>
    <rect height="1" transform="rotate(30 30.5 1)" width="1" x="30" y="0.5"/>
    <rect height="1" transform="rotate(31 31.5 1)" width="1" x="31" y="0.5"/>
  </g>
  <g fill="#000" font-family="sans-serif" font-size="0.67" text-anchor="middle">
    <text alignment-baseline="middle" x="0.5" y="1">I</text>
    <text alignment-baseline="middle" x="1.5" y="1">T</text>
    <text alignment-baseline="middle" x="2.5" y="1">'</text>
    <text alignment-baseline="middle" x="3.5" y="1">S</text>
    <text alignment-baseline="middle" x="4.5" y="1"> </text>
    <text alignment-baseline="middle" x="5.5" y="1">T</text>
    <text alignment-baseline="middle" x="6.5" y="1">H</text>
    <text alignment-baseline="middle" x="7.5" y="1">U</text>
    <text alignment-baseline="middle" x="8.5" y="1">R</text>
    <text alignment-baseline="middle" x="9.5" y="1">S</text>
    <text alignment-baseline="middle" x="10.5" y="1">D</text>
    <text alignment-baseline="middle" x="11.5" y="1">A</text>
    <text alignment-baseline="middle" x="12.5" y="1">Y</text>
    <text alignment-baseline="middle" x="13.5" y="1"> </text>
    <text alignment-baseline="middle" x="14.5" y="1">E</text>
    <text alignment-baseline="middle" x="15.5" y="1">V</text>
    <text alignment-baseline="middle" x="16.5" y="1">E</text>
    <text alignment-baseline="middle" x="17.5" y="1">N</text>
    <text alignment-baseline="middle" x="18.5" y="1">I</text>
    <text alignment-baseline="middle" x="19.5" y="1">N</text>
    <text alignment-baseline="middle" x="20.5" y="1">G</text>
    <text alignment-baseline="middle" x="21.5" y="1"> </text>
    <text alignment-baseline="middle" x="22.5" y="1">I</text>
    <text alignment-baseline="middle" x="23.5" y="1">N</text>
    <text alignment-baseline="middle" x="24.5" y="1"> </text>
    <text alignment-baseline="middle" x="25.5" y="1">C</text>
    <text alignment-baseline="middle" x="26.5" y="1">H</text>
    <text alignment-baseline="middle" x="27.5" y="1">I</text>
    <text alignment-baseline="middle" x="28.5" y="1">C</text>
    <text alignment-baseline="middle" x="29.5" y="1">A</text>
    <text alignment-baseline="middle" x="30.5" y="1">G</text>
    <text alignment-baseline="middle" x="31.5" y="1">O</text>
  </g>
  <g fill="none" stroke="#000" stroke-opacity="1" stroke-width="0.05">
    <rect height="1" transform="rotate(0.0 0.5 1)" width="1" x="0" y="0.5"/>
    <rect height="1" transform="rotate(1.2889497865776658 1.5 1)" width="1" x="1" y="0.5"/>
    <rect height="1" transform="rotate(3.1066554657199834 2.5 1)" width="1" x="2" y="0.5"/>
    <rect height="1" transform="rotate(3.806059131033931 3.5 1)" width="1" x="3" y="0.5"/>
    <rect height="1" transform="rotate(5.847258892892536 5.5 1)" width="1" x="5" y="0.5"/>
    <rect height="1" transform="rotate(10.80560048484016 6.5 1)" width="1" x="6" y="0.5"/>
    <rect height="1" transform="rotate(9.093349520370667 7.5 1)" width="1" x="7" y="0.5"/>
    <rect height="1" transform="rotate(11.947627480440435 8.5 1)" width="1" x="8" y="0.5"/>
    <rect height="1" transform="rotate(12.752060334576308 9.5 1)" width="1" x="9" y="0.5"/>
    <rect height="1" transform="rotate(13.712763227868493 10.5 1)" width="1" x="10" y="0.5"/>
    <rect height="1" transform="rotate(16.030928261864567 11.5 1)" width="1" x="11" y="0.5"/>
    <rect height="1" transform="rotate(12.557998371357463 12.5 1)" width="1" x="12" y="0.5"/>
    <rect height="1" transform="rotate(26.21580315588585 14.5 1)" width="1" x="14" y="0.5"/>
    <rect height="1" transform="rotate(27.821149371546905 15.5 1)" width="1" x="15" y="0.5"/>
    <rect height="1" transform="rotate(17.833451284675817 16.5 1)" width="1" x="16" y="0.5"/>
    <rect height="1" transform="rotate(28.200769271000517 17.5 1)" width="1" x="17" y="0.5"/>
    <rect height="1" transform="rotate(31.967079855024274 18.5 1)" width="1" x="18" y="0.5"/>
    <rect height="1" transform="rotate(34.32925549913811 19.5 1)" width="1" x="19" y="0.5"/>
    <rect height="1" transform="rotate(29.10236290566531 20.5 1)" width="1" x="20" y="0.5"/>
    <rect height="1" transform="rotate(33.91154435129814 22.5 1)" width="1" x="22" y="0.5"/>
    <rect height="1" transform="rotate(37.47327936950863 23.5 1)" width="1" x="23" y="0.5"/>
    <rect height="1" transform="rotate(31.746380676431514 25.5 1)" width="1" x="25" y="0.5"/>
    <rect height="1" transform="rotate(30.86574371771728 26.5 1)" width="1" x="26" y="0.5"/>
    <rect height="1" transform="rotate(39.79395399598169 27.5 1)" width="1" x="27" y="0.5"/>
    <rect height="1" transform="rotate(40.65770301840127 28.5 1)" width="1" x="28" y="0.5"/>
    <rect height="1" transform="rotate(56.69540343522587 29.5 1)" width="1" x="29" y="0.5"/>
    <rect height="1" transform="rotate(56.68787660677866 30.5 1)" width="1" x="30" y="0.5"/>
    <rect height="1" transform="rotate(44.90340017456951 31.5 1)" width="1" x="31" y="0.5"/>
  </g>
</svg>
