<?xml version="1.0" encoding="utf-8" ?>
<svg xmlns="http://www.w3.org/2000/svg" xmlns:ev="http://www.w3.org/2001/xml-events" xmlns:xlink="http://www.w3.org/1999/xlink" baseProfile="full" height="100%" version="1.1" viewBox="-1 0 32 2" width="100%">
  <defs/>
  <rect fill="#eee" height="2" width="32" x="-1" y="0"/>
  <g fill="#9cb29e" stroke="#000" stroke-opacity="1" stroke-width="0.05">
    <rect height="1" transform="rotate(0 0.5 1)" width="1" x="0" y="0.5"/>
    <rect height="1" transform="rotate(1 1.5 1)" width="1" x="1" y="0.5"/>
    <rect height="1" transform="rotate(2 2.5 1)" width="1" x="2" y="0.5"/>
    <rect height="1" transform="rotate(3 3.5 1)" width="1" x="3" y="0.5"/>
    <rect height="1" transform="rotate(5 5.5 1)" width="1" x="5" y="0.5"/>
    <rect height="1" transform="rotate(6 6.5 1)" width="1" x="6" y="0.5"/>
    <rect height="1" transform="rotate(7 7.5 1)" width="1" x="7" y="0.5"/>
    <rect height="1" transform="rotate(8 8.5 1)" width="1" x="8" y="0.5"/>
    <rect height="1" transform="rotate(9 9.5 1)" width="1" x="9" y="0.5"/>
    <rect height="1" transform="rotate(10 10.5 1)" width="1" x="10" y="0.5"/>
    <rect height="1" transform="rotate(12 12.5 1)" width="1" x="12" y="0.5"/>
    <rect height="1" transform="rotate(13 13.5 1)" width="1" x="13" y="0.5"/>
    <rect height="1" transform="rotate(14 14.5 1)" width="1" x="14" y="0.5"/>
    <rect height="1" transform="rotate(15 15.5 1)" width="1" x="15" y="0.5"/>
    <rect height="1" transform="rotate(16 16.5 1)" width="1" x="16" y="0.5"/>
    <rect height="1" transform="rotate(17 17.5 1)" width="1" x="17" y="0.5"/>
    <rect height="1" transform="rotate(18 18.5 1)" width="1" x="18" y="0.5"/>
    <rect height="1" transform="rotate(20 20.5 1)" width="1" x="20" y="0.5"/>
    <rect height="1" transform="rotate(21 21.5 1)" width="1" x="21" y="0.5"/>
    <rect height="1" transform="rotate(23 23.5 1)" width="1" x="23" y="0.5"/>
    <rect height="1" transform="rotate(24 24.5 1)" width="1" x="24" y="0.5"/>
    <rect height="1" transform="rotate(25 25.5 1)" width="1" x="25" y="0.5"/>
    <rect height="1" transform="rotate(26 26.5 1)" width="1" x="26" y="0.5"/>
    <rect height="1" transform="rotate(27 27.5 1)" width="1" x="27" y="0.5"/>
    <rect height="1" transform="rotate(28 28.5 1)" width="1" x="28" y="0.5"/>
    <rect height="1" transform="rotate(29 29.5 1)" width="1" x="29" y="0.5"/>
  </g>
  <g fill="#000" font-family="sans-serif" font-size="0.67" text-anchor="middle">
    <text alignment-baseline="middle" x="0.5" y="1">I</text>
    <text alignment-baseline="middle" x="1.5" y="1">T</text>
    <text alignment-baseline="middle" x="2.5" y="1">'</text>
    <text alignment-baseline="middle" x="3.5" y="1">S</text>
    <text alignment-baseline="middle" x="4.5" y="1"> </text>
    <text alignment-baseline="middle" x="5.5" y="1">S</text>
    <text alignment-baseline="middle" x="6.5" y="1">U</text>
    <text alignment-baseline="middle" x="7.5" y="1">N</text>
    <text alignment-baseline="middle" x="8.5" y="1">D</text>
    <text alignment-baseline="middle" x="9.5" y="1">A</text>
    <text alignment-baseline="middle" x="10.5" y="1">Y</text>
    <text alignment-baseline="middle" x="11.5" y="1"> </text>
    <text alignment-baseline="middle" x="12.5" y="1">E</text>
    <text alignment-baseline="middle" x="13.5" y="1">V</text>
    <text alignment-baseline="middle" x="14.5" y="1">E</text>
    <text alignment-baseline="middle" x="15.5" y="1">N</text>
    <text alignment-baseline="middle" x="16.5" y="1">I</text>
    <text alignment-baseline="middle" x="17.5" y="1">N</text>
    <text alignment-baseline="middle" x="18.5" y="1">G</text>
    <text alignment-baseline="middle" x="19.5" y="1"> </text>
    <text alignment-baseline="middle" x="20.5" y="1">I</text>
    <text alignment-baseline="middle" x="21.5" y="1">N</text>
    <text alignment-baseline="middle" x="22.5" y="1"> </text>
    <text alignment-baseline="middle" x="23.5" y="1">C</text>
    <text alignment-baseline="middle" x="24.5" y="1">H</text>
    <text alignment-baseline="middle" x="25.5" y="1">I</text>
    <text alignment-baseline="middle" x="26.5" y="1">C</text>
    <text alignment-baseline="middle" x="27.5" y="1">A</text>
    <text alignment-baseline="middle" x="28.5" y="1">G</text>
    <text alignment-baseline="middle" x="29.5" y="1">O</text>
  </g>
  <g fill="none" stroke="#000" stroke-opacity="1" stroke-width="0.05">
    <rect height="1" transform="rotate(0.0 0.5 1)" width="1" x="0" y="0.5"/>
    <rect height="1" transform="rotate(1.7950971458889344 1.5 1)" width="1" x="1" y="0.5"/>
    <rect height="1" transform="rotate(2.838322640072299 2.5 1)" width="1" x="2" y="0.5"/>
    <rect height="1" transform="rotate(4.822776630260758 3.5 1)" width="1" x="3" y="0.5"/>
    <rect height="1" transform="rotate(5.010858519809829 5.5 1)" width="1" x="5" y="0.5"/>
    <rect height="1" transform="rotate(7.201904384240192 6.5 1)" width="1" x="6" y="0.5"/>
    <rect height="1" transform="rotate(8.64395884013658 7.5 1)" width="1" x="7" y="0.5"/>
    <rect height="1" transform="rotate(14.137856570843823 8.5 1)" width="1" x="8" y="0.5"/>
    <rect height="1" transform="rotate(10.732762823148072 9.5 1)" width="1" x="9" y="0.5"/>
    <rect height="1" transform="rotate(11.822199325060438 10.5 1)" width="1" x="10" y="0.5"/>
    <rect height="1" transform="rotate(22.732634737672935 12.5 1)" width="1" x="12" y="0.5"/>
    <rect height="1" transform="rotate(20.70477383611749 13.5 1)" width="1" x="13" y="0.5"/>
    <rect height="1" transform="rotate(15.887735368738786 14.5 1)" width="1" x="14" y="0.5"/>
    <rect height="1" transform="rotate(25.438246559548773 15.5 1)" width="1" x="15" y="0.5"/>
    <rect height="1" transform="rotate(16.72810393328462 16.5 1)" width="1" x="16" y="0.5"/>
    <rect height="1" transform="rotate(18.2411514065831 17.5 1)" width="1" x="17" y="0.5"/>
    <rect height="1" transform="rotate(28.723019253441088 18.5 1)" width="1" x="18" y="0.5"/>
    <rect height="1" transform="rotate(33.585989886097224 20.5 1)" width="1" x="20" y="0.5"/>
    <rect height="1" transform="rotate(29.772431555624976 21.5 1)" width="1" x="21" y="0.5"/>
    <rect height="1" transform="rotate(29.65386885649 23.5 1)" width="1" x="23" y="0.5"/>
    <rect height="1" transform="rotate(27.278232165357327 24.5 1)" width="1" x="24" y="0.5"/>
    <rect height="1" transform="rotate(33.860053505067 25.5 1)" width="1" x="25" y="0.5"/>
    <rect height="1" transform="rotate(43.44134907326889 26.5 1)" width="1" x="26" y="0.5"/>
    <rect height="1" transform="rotate(29.680470528498955 27.5 1)" width="1" x="27" y="0.5"/>
    <rect height="1" transform="rotate(35.1857261424627 28.5 1)" width="1" x="28" y="0.5"/>
    <rect height="1" transform="rotate(39.885933380191155 29.5 1)" width="1" x="29" y="0.5"/>
  </g>
</svg>
