<?xml version="1.0" encoding="utf-8" ?>
<svg xmlns="http://www.w3.org/2000/svg" xmlns:ev="http://www.w3.org/2001/xml-events" xmlns:xlink="http://www.w3.org/1999/xlink" baseProfile="full" height="100%" version="1.1" viewBox="-1 0 36 2" width="100%">
  <defs/>
  <rect fill="#eee" height="2" width="36" x="-1" y="0"/>
  <g fill="#80ffcc" stroke="#222" stroke-opacity="1" stroke-width="0.05">
    <rect height="1" transform="rotate(0 0.5 1)" width="1" x="0" y="0.5"/>
    <rect height="1" transform="rotate(1 1.5 1)" width="1" x="1" y="0.5"/>
    <rect height="1" transform="rotate(2 2.5 1)" width="1" x="2" y="0.5"/>
    <rect height="1" transform="rotate(3 3.5 1)" width="1" x="3" y="0.5"/>
    <rect height="1" transform="rotate(5 5.5 1)" width="1" x="5" y="0.5"/>
    <rect height="1" transform="rotate(6 6.5 1)" width="1" x="6" y="0.5"/>
    <rect height="1" transform="rotate(7 7.5 1)" width="1" x="7" y="0.5"/>
    <rect height="1" transform="rotate(8 8.5 1)" width="1" x="8" y="0.5"/>
    <rect height="1" transform="rotate(9 9.5 1)" width="1" x="9" y="0.5"/>
    <rect height="1" transform="rotate(10 10.5 1)" width="1" x="10" y="0.5"/>
    <rect height="1" transform="rotate(11 11.5 1)" width="1" x="11" y="0.5"/>
    <rect height="1" transform="rotate(12 12.5 1)" width="1" x="12" y="0.5"/>
    <rect height="1" transform="rotate(14 14.5 1)" width="1" x="14" y="0.5"/>
    <rect height="1" transform="rotate(15 15.5 1)" width="1" x="15" y="0.5"/>
    <rect height="1" transform="rotate(16 16.5 1)" width="1" x="16" y="0.5"/>
    <rect height="1" transform="rotate(17 17.5 1)" width="1" x="17" y="0.5"/>
    <rect height="1" transform="rotate(18 18.5 1)" width="1" x="18" y="0.5"/>
    <rect height="1" transform="rotate(19 19.5 1)" width="1" x="19" y="0.5"/>
    <rect height="1" transform="rotate(20 20.5 1)" width="1" x="20" y="0.5"/>
    <rect height="1" transform="rotate(21 21.5 1)" width="1" x="21" y="0.5"/>
    <rect height="1" transform="rotate(22 22.5 1)" width="1" x="22" y="0.5"/>
    <rect height="1" transform="rotate(24 24.5 1)" width="1" x="24" y="0.5"/>
    <rect height="1" transform="rotate(25 25.5 1)" width="1" x="25" y="0.5"/>
    <rect height="1" transform="rotate(27 27.5 1)" width="1" x="27" y="0.5"/>
    <rect height="1" transform="rotate(28 28.5 1)" width="1" x="28" y="0.5"/>
    <rect height="1" transform="rotate(29 29.5 1)" width="1" x="29" y="0.5"/>
    <rect height="1" transform="rotate(30 30.5 1)" width="1" x="30" y="0.5"/>
    <rect height="1" transform="rotate(31 31.5 1)" width="1" x="31" y="0.5"/>
    <rect height="1" transform="rotate(32 32.5 1)" width="1" x="32" y="0.5"/>
    <rect height="1" transform="rotate(33 33.5 1)" width="1" x="33" y="0.5"/>
  </g>
  <g fill="#222" font-family="sans-serif" font-size="0.67" text-anchor="middle">
    <text alignment-baseline="middle" x="0.5" y="1">I</text>
    <text alignment-baseline="middle" x="1.5" y="1">T</text>
    <text alignment-baseline="middle" x="2.5" y="1">'</text>
    <text alignment-baseline="middle" x="3.5" y="1">S</text>
    <text alignment-baseline="middle" x="4.5" y="1"> </text>
    <text alignment-baseline="middle" x="5.5" y="1">T</text>
    <text alignment-baseline="middle" x="6.5" y="1">H</text>
    <text alignment-baseline="middle" x="7.5" y="1">U</text>
    <text alignment-baseline="middle" x="8.5" y="1">R</text>
    <text alignment-baseline="middle" x="9.5" y="1">S</text>
    <text alignment-baseline="middle" x="10.5" y="1">D</text>
    <text alignment-baseline="middle" x="11.5" y="1">A</text>
    <text alignment-baseline="middle" x="12.5" y="1">Y</text>
    <text alignment-baseline="middle" x="13.5" y="1"> </text>
    <text alignment-baseline="middle" x="14.5" y="1">A</text>
    <text alignment-baseline="middle" x="15.5" y="1">F</text>
    <text alignment-baseline="middle" x="16.5" y="1">T</text>
    <text alignment-baseline="middle" x="17.5" y="1">E</text>
    <text alignment-baseline="middle" x="18.5" y="1">R</text>
    <text alignment-baseline="middle" x="19.5" y="1">N</text>
    <text alignment-baseline="middle" x="20.5" y="1">O</text>
    <text alignment-baseline="middle" x="21.5" y="1">O</text>
    <text alignment-baseline="middle" x="22.5" y="1">N</text>
    <text alignment-baseline="middle" x="23.5" y="1"> </text>
    <text alignment-baseline="middle" x="24.5" y="1">I</text>
    <text alignment-baseline="middle" x="25.5" y="1">N</text>
    <text alignment-baseline="middle" x="26.5" y="1"> </text>
    <text alignment-baseline="middle" x="27.5" y="1">C</text>
    <text alignment-baseline="middle" x="28.5" y="1">H</text>
    <text alignment-baseline="middle" x="29.5" y="1">I</text>
    <text alignment-baseline="middle" x="30.5" y="1">C</text>
    <text alignment-baseline="middle" x="31.5" y="1">A</text>
    <text alignment-baseline="middle" x="32.5" y="1">G</text>
    <text alignment-baseline="middle" x="33.5" y="1">O</text>
  </g>
  <g fill="none" stroke="#222" stroke-opacity="1" stroke-width="0.05">
    <rect height="1" transform="rotate(0.0 0.5 1)" width="1" x="0" y="0.5"/>
    <rect height="1" transform="rotate(1.1829768218285226 1.5 1)" width="1" x="1" y="0.5"/>
    <rect height="1" transform="rotate(2.0825321622800184 2.5 1)" width="1" x="2" y="0.5"/>
    <rect height="1" transform="rotate(4.550635581213445 3.5 1)" width="1" x="3" y="0.5"/>
    <rect height="1" transform="rotate(5.8785919252802055 5.5 1)" width="1" x="5" y="0.5"/>
    <rect height="1" transform="rotate(7.740597964479124 6.5 1)" width="1" x="6" y="0.5"/>
    <rect height="1" transform="rotate(10.1363586135248 7.5 1)" width="1" x="7" y="0.5"/>
    <rect height="1" transform="rotate(8.692693321315174 8.5 1)" width="1" x="8" y="0.5"/>
    <rect height="1" transform="rotate(12.994204292345053 9.5 1)" width="1" x="9" y="0.5"/>
    <rect height="1" transform="rotate(17.15169927020536 10.5 1)" width="1" x="10" y="0.5"/>
    <rect height="1" transform="rotate(21.647254911793677 11.5 1)" width="1" x="11" y="0.5"/>
    <rect height="1" transform="rotate(16.4984905064935 12.5 1)" width="1" x="12" y="0.5"/>
    <rect height="1" transform="rotate(22.04315540227669 14.5 1)" width="1" x="14" y="0.5"/>
    <rect height="1" transform="rotate(19.48785450643569 15.5 1)" width="1" x="15" y="0.5"/>
    <rect height="1" transform="rotate(31.754715031020524 16.5 1)" width="1" x="16" y="0.5"/>
    <rect height="1" transform="rotate(21.451818916281006 17.5 1)" width="1" x="17" y="0.5"/>
    <rect height="1" transform="rotate(32.34815470673028 18.5 1)" width="1" x="18" y="0.5"/>
    <rect height="1" transform="rotate(31.348615599870943 19.5 1)" width="1" x="19" y="0.5"/>
    <rect height="1" transform="rotate(20.823665422007316 20.5 1)" width="1" x="20" y="0.5"/>
    <rect height="1" transform="rotate(22.185189480477717 21.5 1)" width="1" x="21" y="0.5"/>
    <rect height="1" transform="rotate(40.45156790450784 22.5 1)" width="1" x="22" y="0.5"/>
    <rect height="1" transform="rotate(31.95716916483843 24.5 1)" width="1" x="24" y="0.5"/>
    <rect height="1" transform="rotate(28.267753918247017 25.5 1)" width="1" x="25" y="0.5"/>
    <rect height="1" transform="rotate(39.2584594075845 27.5 1)" width="1" x="27" y="0.5"/>
    <rect height="1" transform="rotate(35.468473903234006 28.5 1)" width="1" x="28" y="0.5"/>
    <rect height="1" transform="rotate(51.73788307410684 29.5 1)" width="1" x="29" y="0.5"/>
    <rect height="1" transform="rotate(48.030163106747764 30.5 1)" width="1" x="30" y="0.5"/>
    <rect height="1" transform="rotate(31.21688569454171 31.5 1)" width="1" x="31" y="0.5"/>
    <rect height="1" transform="rotate(54.28488936354998 32.5 1)" width="1" x="32" y="0.5"/>
    <rect height="1" transform="rotate(64.64390555721775 33.5 1)" width="1" x="33" y="0.5"/>
  </g>
</svg>
