<?xml version="1.0" encoding="utf-8" ?>
<svg xmlns="http://www.w3.org/2000/svg" xmlns:ev="http://www.w3.org/2001/xml-events" xmlns:xlink="http://www.w3.org/1999/xlink" baseProfile="full" height="100%" version="1.1" viewBox="-1 0 32 2" width="100%">
  <defs/>
  <rect fill="#eee" height="2" width="32" x="-1" y="0"/>
  <g fill="#fff59e" stroke="#111" stroke-opacity="1" stroke-width="0.05">
    <rect height="1" transform="rotate(0 0.5 1)" width="1" x="0" y="0.5"/>
    <rect height="1" transform="rotate(1 1.5 1)" width="1" x="1" y="0.5"/>
    <rect height="1" transform="rotate(2 2.5 1)" width="1" x="2" y="0.5"/>
    <rect height="1" transform="rotate(3 3.5 1)" width="1" x="3" y="0.5"/>
    <rect height="1" transform="rotate(5 5.5 1)" width="1" x="5" y="0.5"/>
    <rect height="1" transform="rotate(6 6.5 1)" width="1" x="6" y="0.5"/>
    <rect height="1" transform="rotate(7 7.5 1)" width="1" x="7" y="0.5"/>
    <rect height="1" transform="rotate(8 8.5 1)" width="1" x="8" y="0.5"/>
    <rect height="1" transform="rotate(9 9.5 1)" width="1" x="9" y="0.5"/>
    <rect height="1" transform="rotate(10 10.5 1)" width="1" x="10" y="0.5"/>
    <rect height="1" transform="rotate(12 12.5 1)" width="1" x="12" y="0.5"/>
    <rect height="1" transform="rotate(13 13.5 1)" width="1" x="13" y="0.5"/>
    <rect height="1" transform="rotate(14 14.5 1)" width="1" x="14" y="0.5"/>
    <rect height="1" transform="rotate(15 15.5 1)" width="1" x="15" y="0.5"/>
    <rect height="1" transform="rotate(16 16.5 1)" width="1" x="16" y="0.5"/>
    <rect height="1" transform="rotate(17 17.5 1)" width="1" x="17" y="0.5"/>
    <rect height="1" transform="rotate(18 18.5 1)" width="1" x="18" y="0.5"/>
    <rect height="1" transform="rotate(20 20.5 1)" width="1" x="20" y="0.5"/>
    <rect height="1" transform="rotate(21 21.5 1)" width="1" x="21" y="0.5"/>
    <rect height="1" transform="rotate(23 23.5 1)" width="1" x="23" y="0.5"/>
    <rect height="1" transform="rotate(24 24.5 1)" width="1" x="24" y="0.5"/>
    <rect height="1" transform="rotate(25 25.5 1)" width="1" x="25" y="0.5"/>
    <rect height="1" transform="rotate(26 26.5 1)" width="1" x="26" y="0.5"/>
    <rect height="1" transform="rotate(27 27.5 1)" width="1" x="27" y="0.5"/>
    <rect height="1" transform="rotate(28 28.5 1)" width="1" x="28" y="0.5"/>
    <rect height="1" transform="rotate(29 29.5 1)" width="1" x="29" y="0.5"/>
  </g>
  <g fill="#111" font-family="sans-serif" font-size="0.67" text-anchor="middle">
    <text alignment-baseline="middle" x="0.5" y="1">I</text>
    <text alignment-baseline="middle" x="1.5" y="1">T</text>
    <text alignment-baseline="middle" x="2.5" y="1">'</text>
    <text alignment-baseline="middle" x="3.5" y="1">S</text>
    <text alignment-baseline="middle" x="4.5" y="1"> </text>
    <text alignment-baseline="middle" x="5.5" y="1">F</text>
    <text alignment-baseline="middle" x="6.5" y="1">R</text>
    <text alignment-baseline="middle" x="7.5" y="1">I</text>
    <text alignment-baseline="middle" x="8.5" y="1">D</text>
    <text alignment-baseline="middle" x="9.5" y="1">A</text>
    <text alignment-baseline="middle" x="10.5" y="1">Y</text>
    <text alignment-baseline="middle" x="11.5" y="1"> </text>
    <text alignment-baseline="middle" x="12.5" y="1">M</text>
    <text alignment-baseline="middle" x="13.5" y="1">O</text>
    <text alignment-baseline="middle" x="14.5" y="1">R</text>
    <text alignment-baseline="middle" x="15.5" y="1">N</text>
    <text alignment-baseline="middle" x="16.5" y="1">I</text>
    <text alignment-baseline="middle" x="17.5" y="1">N</text>
    <text alignment-baseline="middle" x="18.5" y="1">G</text>
    <text alignment-baseline="middle" x="19.5" y="1"> </text>
    <text alignment-baseline="middle" x="20.5" y="1">I</text>
    <text alignment-baseline="middle" x="21.5" y="1">N</text>
    <text alignment-baseline="middle" x="22.5" y="1"> </text>
    <text alignment-baseline="middle" x="23.5" y="1">C</text>
    <text alignment-baseline="middle" x="24.5" y="1">H</text>
    <text alignment-baseline="middle" x="25.5" y="1">I</text>
    <text alignment-baseline="middle" x="26.5" y="1">C</text>
    <text alignment-baseline="middle" x="27.5" y="1">A</text>
    <text alignment-baseline="middle" x="28.5" y="1">G</text>
    <text alignment-baseline="middle" x="29.5" y="1">O</text>
  </g>
  <g fill="none" stroke="#111" stroke-opacity="1" stroke-width="0.05">
    <rect height="1" transform="rotate(0.0 0.5 1)" width="1" x="0" y="0.5"/>
    <rect height="1" transform="rotate(1.6075907937788338 1.5 1)" width="1" x="1" y="0.5"/>
    <rect height="1" transform="rotate(3.6871076637161533 2.5 1)" width="1" x="2" y="0.5"/>
    <rect height="1" transform="rotate(4.016966524651985 3.5 1)" width="1" x="3" y="0.5"/>
    <rect height="1" transform="rotate(9.23009740569452 5.5 1)" width="1" x="5" y="0.5"/>
    <rect height="1" transform="rotate(8.821456987377635 6.5 1)" width="1" x="6" y="0.5"/>
    <rect height="1" transform="rotate(9.06813792328731 7.5 1)" width="1" x="7" y="0.5"/>
    <rect height="1" transform="rotate(14.52766777570007 8.5 1)" width="1" x="8" y="0.5"/>
    <rect height="1" transform="rotate(9.293872236758716 9.5 1)" width="1" x="9" y="0.5"/>
    <rect height="1" transform="rotate(13.640264729613662 10.5 1)" width="1" x="10" y="0.5"/>
    <rect height="1" transform="rotate(21.22824897568291 12.5 1)" width="1" x="12" y="0.5"/>
    <rect height="1" transform="rotate(13.65250068527336 13.5 1)" width="1" x="13" y="0.5"/>
    <rect height="1" transform="rotate(23.59282383558209 14.5 1)" width="1" x="14" y="0.5"/>
    <rect height="1" transform="rotate(28.659132424511007 15.5 1)" width="1" x="15" y="0.5"/>
    <rect height="1" transform="rotate(24.71046879831702 16.5 1)" width="1" x="16" y="0.5"/>
    <rect height="1" transform="rotate(27.066039099615626 17.5 1)" width="1" x="17" y="0.5"/>
    <rect height="1" transform="rotate(24.6770799488304 18.5 1)" width="1" x="18" y="0.5"/>
    <rect height="1" transform="rotate(27.922007987095387 20.5 1)" width="1" x="20" y="0.5"/>
    <rect height="1" transform="rotate(26.516169316446895 21.5 1)" width="1" x="21" y="0.5"/>
    <rect height="1" transform="rotate(45.43834565035297 23.5 1)" width="1" x="23" y="0.5"/>
    <rect height="1" transform="rotate(32.874573027176766 24.5 1)" width="1" x="24" y="0.5"/>
    <rect height="1" transform="rotate(41.117583301341156 25.5 1)" width="1" x="25" y="0.5"/>
    <rect height="1" transform="rotate(37.39198329104267 26.5 1)" width="1" x="26" y="0.5"/>
    <rect height="1" transform="rotate(28.893285284797248 27.5 1)" width="1" x="27" y="0.5"/>
    <rect height="1" transform="rotate(54.49544459665612 28.5 1)" width="1" x="28" y="0.5"/>
    <rect height="1" transform="rotate(54.414289605268415 29.5 1)" width="1" x="29" y="0.5"/>
  </g>
</svg>
