<?xml version="1.0" encoding="utf-8" ?>
<svg xmlns="http://www.w3.org/2000/svg" xmlns:ev="http://www.w3.org/2001/xml-events" xmlns:xlink="http://www.w3.org/1999/xlink" baseProfile="full" height="100%" version="1.1" viewBox="-1 0 32 2" width="100%">
  <defs/>
  <rect fill="#eee" height="2" width="32" x="-1" y="0"/>
  <g fill="#9cb29e" stroke="#000" stroke-opacity="1" stroke-width="0.05">
    <rect height="1" transform="rotate(0 0.5 1)" width="1" x="0" y="0.5"/>
    <rect height="1" transform="rotate(1 1.5 1)" width="1" x="1" y="0.5"/>
    <rect height="1" transform="rotate(2 2.5 1)" width="1" x="2" y="0.5"/>
    <rect height="1" transform="rotate(3 3.5 1)" width="1" x="3" y="0.5"/>
    <rect height="1" transform="rotate(5 5.5 1)" width="1" x="5" y="0.5"/>
    <rect height="1" transform="rotate(6 6.5 1)" width="1" x="6" y="0.5"/>
    <rect height="1" transform="rotate(7 7.5 1)" width="1" x="7" y="0.5"/>
    <rect height="1" transform="rotate(8 8.5 1)" width="1" x="8" y="0.5"/>
    <rect height="1" transform="rotate(9 9.5 1)" width="1" x="9" y="0.5"/>
    <rect height="1" transform="rotate(10 10.5 1)" width="1" x="10" y="0.5"/>
    <rect height="1" transform="rotate(12 12.5 1)" width="1" x="12" y="0.5"/>
    <rect height="1" transform="rotate(13 13.5 1)" width="1" x="13" y="0.5"/>
    <rect height="1" transform="rotate(14 14.5 1)" width="1" x="14" y="0.5"/>
    <rect height="1" transform="rotate(15 15.5 1)" width="1" x="15" y="0.5"/>
    <rect height="1" transform="rotate(16 16.5 1)" width="1" x="16" y="0.5"/>
    <rect height="1" transform="rotate(17 17.5 1)" width="1" x="17" y="0.5"/>
    <rect height="1" transform="rotate(18 18.5 1)" width="1" x="18" y="0.5"/>
    <rect height="1" transform="rotate(20 20.5 1)" width="1" x="20" y="0.5"/>
    <rect height="1" transform="rotate(21 21.5 1)" width="1" x="21" y="0.5"/>
    <rect height="1" transform="rotate(23 23.5 1)" width="1" x="23" y="0.5"/>
    <rect height="1" transform="rotate(24 24.5 1)" width="1" x="24" y="0.5"/>
    <rect height="1" transform="rotate(25 25.5 1)" width="1" x="25" y="0.5"/>
    <rect height="1" transform="rotate(26 26.5 1)" width="1" x="26" y="0.5"/>
    <rect height="1" transform="rotate(27 27.5 1)" width="1" x="27" y="0.5"/>
    <rect height="1" transform="rotate(28 28.5 1)" width="1" x="28" y="0.5"/>
    <rect height="1" transform="rotate(29 29.5 1)" width="1" x="29" y="0.5"/>
  </g>
  <g fill="#000" font-family="sans-serif" font-size="0.67" text-anchor="middle">
    <text alignment-baseline="middle" x="0.5" y="1">I</text>
    <text alignment-baseline="middle" x="1.5" y="1">T</text>
    <text alignment-baseline="middle" x="2.5" y="1">'</text>
    <text alignment-baseline="middle" x="3.5" y="1">S</text>
    <text alignment-baseline="middle" x="4.5" y="1"> </text>
    <text alignment-baseline="middle" x="5.5" y="1">F</text>
    <text alignment-baseline="middle" x="6.5" y="1">R</text>
    <text alignment-baseline="middle" x="7.5" y="1">I</text>
    <text alignment-baseline="middle" x="8.5" y="1">D</text>
    <text alignment-baseline="middle" x="9.5" y="1">A</text>
    <text alignment-baseline="middle" x="10.5" y="1">Y</text>
    <text alignment-baseline="middle" x="11.5" y="1"> </text>
    <text alignment-baseline="middle" x="12.5" y="1">E</text>
    <text alignment-baseline="middle" x="13.5" y="1">V</text>
    <text alignment-baseline="middle" x="14.5" y="1">E</text>
    <text alignment-baseline="middle" x="15.5" y="1">N</text>
    <text alignment-baseline="middle" x="16.5" y="1">I</text>
    <text alignment-baseline="middle" x="17.5" y="1">N</text>
    <text alignment-baseline="middle" x="18.5" y="1">G</text>
    <text alignment-baseline="middle" x="19.5" y="1"> </text>
    <text alignment-baseline="middle" x="20.5" y="1">I</text>
    <text alignment-baseline="middle" x="21.5" y="1">N</text>
    <text alignment-baseline="middle" x="22.5" y="1"> </text>
    <text alignment-baseline="middle" x="23.5" y="1">C</text>
    <text alignment-baseline="middle" x="24.5" y="1">H</text>
    <text alignment-baseline="middle" x="25.5" y="1">I</text>
    <text alignment-baseline="middle" x="26.5" y="1">C</text>
    <text alignment-baseline="middle" x="27.5" y="1">A</text>
    <text alignment-baseline="middle" x="28.5" y="1">G</text>
    <text alignment-baseline="middle" x="29.5" y="1">O</text>
  </g>
  <g fill="none" stroke="#000" stroke-opacity="1" stroke-width="0.05">
    <rect height="1" transform="rotate(0.0 0.5 1)" width="1" x="0" y="0.5"/>
    <rect height="1" transform="rotate(1.7371448661072781 1.5 1)" width="1" x="1" y="0.5"/>
    <rect height="1" transform="rotate(2.053065881894482 2.5 1)" width="1" x="2" y="0.5"/>
    <rect height="1" transform="rotate(3.445490066159428 3.5 1)" width="1" x="3" y="0.5"/>
    <rect height="1" transform="rotate(5.042322588147945 5.5 1)" width="1" x="5" y="0.5"/>
    <rect height="1" transform="rotate(10.182297395704188 6.5 1)" width="1" x="6" y="0.5"/>
    <rect height="1" transform="rotate(13.709079995418389 7.5 1)" width="1" x="7" y="0.5"/>
    <rect height="1" transform="rotate(14.664512311743373 8.5 1)" width="1" x="8" y="0.5"/>
    <rect height="1" transform="rotate(11.082523364737039 9.5 1)" width="1" x="9" y="0.5"/>
    <rect height="1" transform="rotate(15.335372550097519 10.5 1)" width="1" x="10" y="0.5"/>
    <rect height="1" transform="rotate(17.614493405863993 12.5 1)" width="1" x="12" y="0.5"/>
    <rect height="1" transform="rotate(13.498176092755102 13.5 1)" width="1" x="13" y="0.5"/>
    <rect height="1" transform="rotate(16.539019841377886 14.5 1)" width="1" x="14" y="0.5"/>
    <rect height="1" transform="rotate(19.1670632894302 15.5 1)" width="1" x="15" y="0.5"/>
    <rect height="1" transform="rotate(29.014088998308807 16.5 1)" width="1" x="16" y="0.5"/>
    <rect height="1" transform="rotate(29.886591134532374 17.5 1)" width="1" x="17" y="0.5"/>
    <rect height="1" transform="rotate(24.25315725848074 18.5 1)" width="1" x="18" y="0.5"/>
    <rect height="1" transform="rotate(34.63353286028655 20.5 1)" width="1" x="20" y="0.5"/>
    <rect height="1" transform="rotate(26.72619835393469 21.5 1)" width="1" x="21" y="0.5"/>
    <rect height="1" transform="rotate(40.59433647320922 23.5 1)" width="1" x="23" y="0.5"/>
    <rect height="1" transform="rotate(41.48830517791826 24.5 1)" width="1" x="24" y="0.5"/>
    <rect height="1" transform="rotate(42.08096477085341 25.5 1)" width="1" x="25" y="0.5"/>
    <rect height="1" transform="rotate(40.649860278379656 26.5 1)" width="1" x="26" y="0.5"/>
    <rect height="1" transform="rotate(52.94718316243566 27.5 1)" width="1" x="27" y="0.5"/>
    <rect height="1" transform="rotate(39.58740705558725 28.5 1)" width="1" x="28" y="0.5"/>
    <rect height="1" transform="rotate(57.473109062144175 29.5 1)" width="1" x="29" y="0.5"/>
  </g>
</svg>
