<?xml version="1.0" encoding="utf-8" ?>
<svg xmlns="http://www.w3.org/2000/svg" xmlns:ev="http://www.w3.org/2001/xml-events" xmlns:xlink="http://www.w3.org/1999/xlink" baseProfile="full" height="100%" version="1.1" viewBox="-1 0 36 2" width="100%">
  <defs/>
  <rect fill="#eee" height="2" width="36" x="-1" y="0"/>
  <g fill="#80ffcc" stroke="#222" stroke-opacity="1" stroke-width="0.05">
    <rect height="1" transform="rotate(0 0.5 1)" width="1" x="0" y="0.5"/>
    <rect height="1" transform="rotate(1 1.5 1)" width="1" x="1" y="0.5"/>
    <rect height="1" transform="rotate(2 2.5 1)" width="1" x="2" y="0.5"/>
    <rect height="1" transform="rotate(3 3.5 1)" width="1" x="3" y="0.5"/>
    <rect height="1" transform="rotate(5 5.5 1)" width="1" x="5" y="0.5"/>
    <rect height="1" transform="rotate(6 6.5 1)" width="1" x="6" y="0.5"/>
    <rect height="1" transform="rotate(7 7.5 1)" width="1" x="7" y="0.5"/>
    <rect height="1" transform="rotate(8 8.5 1)" width="1" x="8" y="0.5"/>
    <rect height="1" transform="rotate(9 9.5 1)" width="1" x="9" y="0.5"/>
    <rect height="1" transform="rotate(10 10.5 1)" width="1" x="10" y="0.5"/>
    <rect height="1" transform="rotate(11 11.5 1)" width="1" x="11" y="0.5"/>
    <rect height="1" transform="rotate(12 12.5 1)" width="1" x="12" y="0.5"/>
    <rect height="1" transform="rotate(14 14.5 1)" width="1" x="14" y="0.5"/>
    <rect height="1" transform="rotate(15 15.5 1)" width="1" x="15" y="0.5"/>
    <rect height="1" transform="rotate(16 16.5 1)" width="1" x="16" y="0.5"/>
    <rect height="1" transform="rotate(17 17.5 1)" width="1" x="17" y="0.5"/>
    <rect height="1" transform="rotate(18 18.5 1)" width="1" x="18" y="0.5"/>
    <rect height="1" transform="rotate(19 19.5 1)" width="1" x="19" y="0.5"/>
    <rect height="1" transform="rotate(20 20.5 1)" width="1" x="20" y="0.5"/>
    <rect height="1" transform="rotate(21 21.5 1)" width="1" x="21" y="0.5"/>
    <rect height="1" transform="rotate(22 22.5 1)" width="1" x="22" y="0.5"/>
    <rect height="1" transform="rotate(24 24.5 1)" width="1" x="24" y="0.5"/>
    <rect height="1" transform="rotate(25 25.5 1)" width="1" x="25" y="0.5"/>
    <rect height="1" transform="rotate(27 27.5 1)" width="1" x="27" y="0.5"/>
    <rect height="1" transform="rotate(28 28.5 1)" width="1" x="28" y="0.5"/>
    <rect height="1" transform="rotate(29 29.5 1)" width="1" x="29" y="0.5"/>
    <rect height="1" transform="rotate(30 30.5 1)" width="1" x="30" y="0.5"/>
    <rect height="1" transform="rotate(31 31.5 1)" width="1" x="31" y="0.5"/>
    <rect height="1" transform="rotate(32 32.5 1)" width="1" x="32" y="0.5"/>
    <rect height="1" transform="rotate(33 33.5 1)" width="1" x="33" y="0.5"/>
  </g>
  <g fill="#222" font-family="sans-serif" font-size="0.67" text-anchor="middle">
    <text alignment-baseline="middle" x="0.5" y="1">I</text>
    <text alignment-baseline="middle" x="1.5" y="1">T</text>
    <text alignment-baseline="middle" x="2.5" y="1">'</text>
    <text alignment-baseline="middle" x="3.5" y="1">S</text>
    <text alignment-baseline="middle" x="4.5" y="1"> </text>
    <text alignment-baseline="middle" x="5.5" y="1">S</text>
    <text alignment-baseline="middle" x="6.5" y="1">A</text>
    <text alignment-baseline="middle" x="7.5" y="1">T</text>
    <text alignment-baseline="middle" x="8.5" y="1">U</text>
    <text alignment-baseline="middle" x="9.5" y="1">R</text>
    <text alignment-baseline="middle" x="10.5" y="1">D</text>
    <text alignment-baseline="middle" x="11.5" y="1">A</text>
    <text alignment-baseline="middle" x="12.5" y="1">Y</text>
    <text alignment-baseline="middle" x="13.5" y="1"> </text>
    <text alignment-baseline="middle" x="14.5" y="1">A</text>
    <text alignment-baseline="middle" x="15.5" y="1">F</text>
    <text alignment-baseline="middle" x="16.5" y="1">T</text>
    <text alignment-baseline="middle" x="17.5" y="1">E</text>
    <text alignment-baseline="middle" x="18.5" y="1">R</text>
    <text alignment-baseline="middle" x="19.5" y="1">N</text>
    <text alignment-baseline="middle" x="20.5" y="1">O</text>
    <text alignment-baseline="middle" x="21.5" y="1">O</text>
    <text alignment-baseline="middle" x="22.5" y="1">N</text>
    <text alignment-baseline="middle" x="23.5" y="1"> </text>
    <text alignment-baseline="middle" x="24.5" y="1">I</text>
    <text alignment-baseline="middle" x="25.5" y="1">N</text>
    <text alignment-baseline="middle" x="26.5" y="1"> </text>
    <text alignment-baseline="middle" x="27.5" y="1">C</text>
    <text alignment-baseline="middle" x="28.5" y="1">H</text>
    <text alignment-baseline="middle" x="29.5" y="1">I</text>
    <text alignment-baseline="middle" x="30.5" y="1">C</text>
    <text alignment-baseline="middle" x="31.5" y="1">A</text>
    <text alignment-baseline="middle" x="32.5" y="1">G</text>
    <text alignment-baseline="middle" x="33.5" y="1">O</text>
  </g>
  <g fill="none" stroke="#222" stroke-opacity="1" stroke-width="0.05">
    <rect height="1" transform="rotate(0.0 0.5 1)" width="1" x="0" y="0.5"/>
    <rect height="1" transform="rotate(1.1936446929995213 1.5 1)" width="1" x="1" y="0.5"/>
    <rect height="1" transform="rotate(3.3425855288273487 2.5 1)" width="1" x="2" y="0.5"/>
    <rect height="1" transform="rotate(3.2262013836367562 3.5 1)" width="1" x="3" y="0.5"/>
    <rect height="1" transform="rotate(8.999972828711986 5.5 1)" width="1" x="5" y="0.5"/>
    <rect height="1" transform="rotate(11.067485954429813 6.5 1)" width="1" x="6" y="0.5"/>
    <rect height="1" transform="rotate(8.658558175124643 7.5 1)" width="1" x="7" y="0.5"/>
    <rect height="1" transform="rotate(11.25847359165531 8.5 1)" width="1" x="8" y="0.5"/>
    <rect height="1" transform="rotate(10.196374001717649 9.5 1)" width="1" x="9" y="0.5"/>
    <rect height="1" transform="rotate(10.917401584241865 10.5 1)" width="1" x="10" y="0.5"/>
    <rect height="1" transform="rotate(17.97262072065582 11.5 1)" width="1" x="11" y="0.5"/>
    <rect height="1" transform="rotate(17.09901204121482 12.5 1)" width="1" x="12" y="0.5"/>
    <rect height="1" transform="rotate(19.86792163160305 14.5 1)" width="1" x="14" y="0.5"/>
    <rect height="1" transform="rotate(18.6456678197371 15.5 1)" width="1" x="15" y="0.5"/>
    <rect height="1" transform="rotate(22.03209827721746 16.5 1)" width="1" x="16" y="0.5"/>
    <rect height="1" transform="rotate(23.552028954878622 17.5 1)" width="1" x="17" y="0.5"/>
    <rect height="1" transform="rotate(24.826838247786984 18.5 1)" width="1" x="18" y="0.5"/>
    <rect height="1" transform="rotate(23.787406652190842 19.5 1)" width="1" x="19" y="0.5"/>
    <rect height="1" transform="rotate(21.917632026896534 20.5 1)" width="1" x="20" y="0.5"/>
    <rect height="1" transform="rotate(31.413063585605503 21.5 1)" width="1" x="21" y="0.5"/>
    <rect height="1" transform="rotate(22.880686164162498 22.5 1)" width="1" x="22" y="0.5"/>
    <rect height="1" transform="rotate(27.276137541323287 24.5 1)" width="1" x="24" y="0.5"/>
    <rect height="1" transform="rotate(25.632882214653684 25.5 1)" width="1" x="25" y="0.5"/>
    <rect height="1" transform="rotate(40.03729147816584 27.5 1)" width="1" x="27" y="0.5"/>
    <rect height="1" transform="rotate(31.50113623802337 28.5 1)" width="1" x="28" y="0.5"/>
    <rect height="1" transform="rotate(42.51102187869621 29.5 1)" width="1" x="29" y="0.5"/>
    <rect height="1" transform="rotate(55.71022604158347 30.5 1)" width="1" x="30" y="0.5"/>
    <rect height="1" transform="rotate(52.09354609044163 31.5 1)" width="1" x="31" y="0.5"/>
    <rect height="1" transform="rotate(39.36786767435319 32.5 1)" width="1" x="32" y="0.5"/>
    <rect height="1" transform="rotate(42.896051061395625 33.5 1)" width="1" x="33" y="0.5"/>
  </g>
</svg>
