<?xml version="1.0" encoding="utf-8" ?>
<svg xmlns="http://www.w3.org/2000/svg" xmlns:ev="http://www.w3.org/2001/xml-events" xmlns:xlink="http://www.w3.org/1999/xlink" baseProfile="full" height="100%" version="1.1" viewBox="-1 0 34 2" width="100%">
  <defs/>
  <rect fill="#eee" height="2" width="34" x="-1" y="0"/>
  <g fill="#80ffcc" stroke="#222" stroke-opacity="1" stroke-width="0.05">
    <rect height="1" transform="rotate(0 0.5 1)" width="1" x="0" y="0.5"/>
    <rect height="1" transform="rotate(1 1.5 1)" width="1" x="1" y="0.5"/>
    <rect height="1" transform="rotate(2 2.5 1)" width="1" x="2" y="0.5"/>
    <rect height="1" transform="rotate(3 3.5 1)" width="1" x="3" y="0.5"/>
    <rect height="1" transform="rotate(5 5.5 1)" width="1" x="5" y="0.5"/>
    <rect height="1" transform="rotate(6 6.5 1)" width="1" x="6" y="0.5"/>
    <rect height="1" transform="rotate(7 7.5 1)" width="1" x="7" y="0.5"/>
    <rect height="1" transform="rotate(8 8.5 1)" width="1" x="8" y="0.5"/>
    <rect height="1" transform="rotate(9 9.5 1)" width="1" x="9" y="0.5"/>
    <rect height="1" transform="rotate(10 10.5 1)" width="1" x="10" y="0.5"/>
    <rect height="1" transform="rotate(12 12.5 1)" width="1" x="12" y="0.5"/>
    <rect height="1" transform="rotate(13 13.5 1)" width="1" x="13" y="0.5"/>
    <rect height="1" transform="rotate(14 14.5 1)" width="1" x="14" y="0.5"/>
    <rect height="1" transform="rotate(15 15.5 1)" width="1" x="15" y="0.5"/>
    <rect height="1" transform="rotate(16 16.5 1)" width="1" x="16" y="0.5"/>
    <rect height="1" transform="rotate(17 17.5 1)" width="1" x="17" y="0.5"/>
    <rect height="1" transform="rotate(18 18.5 1)" width="1" x="18" y="0.5"/>
    <rect height="1" transform="rotate(19 19.5 1)" width="1" x="19" y="0.5"/>
    <rect height="1" transform="rotate(20 20.5 1)" width="1" x="20" y="0.5"/>
    <rect height="1" transform="rotate(22 22.5 1)" width="1" x="22" y="0.5"/>
    <rect height="1" transform="rotate(23 23.5 1)" width="1" x="23" y="0.5"/>
    <rect height="1" transform="rotate(25 25.5 1)" width="1" x="25" y="0.5"/>
    <rect height="1" transform="rotate(26 26.5 1)" width="1" x="26" y="0.5"/>
    <rect height="1" transform="rotate(27 27.5 1)" width="1" x="27" y="0.5"/>
    <rect height="1" transform="rotate(28 28.5 1)" width="1" x="28" y="0.5"/>
    <rect height="1" transform="rotate(29 29.5 1)" width="1" x="29" y="0.5"/>
    <rect height="1" transform="rotate(30 30.5 1)" width="1" x="30" y="0.5"/>
    <rect height="1" transform="rotate(31 31.5 1)" width="1" x="31" y="0.5"/>
  </g>
  <g fill="#222" font-family="sans-serif" font-size="0.67" text-anchor="middle">
    <text alignment-baseline="middle" x="0.5" y="1">I</text>
    <text alignment-baseline="middle" x="1.5" y="1">T</text>
    <text alignment-baseline="middle" x="2.5" y="1">'</text>
    <text alignment-baseline="middle" x="3.5" y="1">S</text>
    <text alignment-baseline="middle" x="4.5" y="1"> </text>
    <text alignment-baseline="middle" x="5.5" y="1">F</text>
    <text alignment-baseline="middle" x="6.5" y="1">R</text>
    <text alignment-baseline="middle" x="7.5" y="1">I</text>
    <text alignment-baseline="middle" x="8.5" y="1">D</text>
    <text alignment-baseline="middle" x="9.5" y="1">A</text>
    <text alignment-baseline="middle" x="10.5" y="1">Y</text>
    <text alignment-baseline="middle" x="11.5" y="1"> </text>
    <text alignment-baseline="middle" x="12.5" y="1">A</text>
    <text alignment-baseline="middle" x="13.5" y="1">F</text>
    <text alignment-baseline="middle" x="14.5" y="1">T</text>
    <text alignment-baseline="middle" x="15.5" y="1">E</text>
    <text alignment-baseline="middle" x="16.5" y="1">R</text>
    <text alignment-baseline="middle" x="17.5" y="1">N</text>
    <text alignment-baseline="middle" x="18.5" y="1">O</text>
    <text alignment-baseline="middle" x="19.5" y="1">O</text>
    <text alignment-baseline="middle" x="20.5" y="1">N</text>
    <text alignment-baseline="middle" x="21.5" y="1"> </text>
    <text alignment-baseline="middle" x="22.5" y="1">I</text>
    <text alignment-baseline="middle" x="23.5" y="1">N</text>
    <text alignment-baseline="middle" x="24.5" y="1"> </text>
    <text alignment-baseline="middle" x="25.5" y="1">C</text>
    <text alignment-baseline="middle" x="26.5" y="1">H</text>
    <text alignment-baseline="middle" x="27.5" y="1">I</text>
    <text alignment-baseline="middle" x="28.5" y="1">C</text>
    <text alignment-baseline="middle" x="29.5" y="1">A</text>
    <text alignment-baseline="middle" x="30.5" y="1">G</text>
    <text alignment-baseline="middle" x="31.5" y="1">O</text>
  </g>
  <g fill="none" stroke="#222" stroke-opacity="1" stroke-width="0.05">
    <rect height="1" transform="rotate(0.0 0.5 1)" width="1" x="0" y="0.5"/>
    <rect height="1" transform="rotate(1.0064268504983938 1.5 1)" width="1" x="1" y="0.5"/>
    <rect height="1" transform="rotate(3.4981388286005246 2.5 1)" width="1" x="2" y="0.5"/>
    <rect height="1" transform="rotate(3.7467328961352866 3.5 1)" width="1" x="3" y="0.5"/>
    <rect height="1" transform="rotate(6.2351209483306835 5.5 1)" width="1" x="5" y="0.5"/>
    <rect height="1" transform="rotate(10.484116536743503 6.5 1)" width="1" x="6" y="0.5"/>
    <rect height="1" transform="rotate(12.063113619225652 7.5 1)" width="1" x="7" y="0.5"/>
    <rect height="1" transform="rotate(8.875669992435716 8.5 1)" width="1" x="8" y="0.5"/>
    <rect height="1" transform="rotate(9.15075806627411 9.5 1)" width="1" x="9" y="0.5"/>
    <rect height="1" transform="rotate(17.961811112784826 10.5 1)" width="1" x="10" y="0.5"/>
    <rect height="1" transform="rotate(14.15956304625852 12.5 1)" width="1" x="12" y="0.5"/>
    <rect height="1" transform="rotate(18.074851890560357 13.5 1)" width="1" x="13" y="0.5"/>
    <rect height="1" transform="rotate(17.605115889447422 14.5 1)" width="1" x="14" y="0.5"/>
    <rect height="1" transform="rotate(29.608157446815436 15.5 1)" width="1" x="15" y="0.5"/>
    <rect height="1" transform="rotate(20.316567978611538 16.5 1)" width="1" x="16" y="0.5"/>
    <rect height="1" transform="rotate(18.129613596738373 17.5 1)" width="1" x="17" y="0.5"/>
    <rect height="1" transform="rotate(28.333499276163863 18.5 1)" width="1" x="18" y="0.5"/>
    <rect height="1" transform="rotate(22.94801740593277 19.5 1)" width="1" x="19" y="0.5"/>
    <rect height="1" transform="rotate(23.53733440108818 20.5 1)" width="1" x="20" y="0.5"/>
    <rect height="1" transform="rotate(35.61196296812489 22.5 1)" width="1" x="22" y="0.5"/>
    <rect height="1" transform="rotate(43.735286650164156 23.5 1)" width="1" x="23" y="0.5"/>
    <rect height="1" transform="rotate(37.33147717564127 25.5 1)" width="1" x="25" y="0.5"/>
    <rect height="1" transform="rotate(31.39376575797358 26.5 1)" width="1" x="26" y="0.5"/>
    <rect height="1" transform="rotate(51.159879411879295 27.5 1)" width="1" x="27" y="0.5"/>
    <rect height="1" transform="rotate(47.6021800255451 28.5 1)" width="1" x="28" y="0.5"/>
    <rect height="1" transform="rotate(50.39631243650089 29.5 1)" width="1" x="29" y="0.5"/>
    <rect height="1" transform="rotate(32.845131088530565 30.5 1)" width="1" x="30" y="0.5"/>
    <rect height="1" transform="rotate(49.01175080569079 31.5 1)" width="1" x="31" y="0.5"/>
  </g>
</svg>
