<?xml version="1.0" encoding="utf-8" ?>
<svg xmlns="http://www.w3.org/2000/svg" xmlns:ev="http://www.w3.org/2001/xml-events" xmlns:xlink="http://www.w3.org/1999/xlink" baseProfile="full" height="100%" version="1.1" viewBox="-1 0 31 2" width="100%">
  <defs/>
  <rect fill="#111" height="2" width="31" x="-1" y="0"/>
  <g fill="#a10045" stroke="#eee" stroke-opacity="1" stroke-width="0.05">
    <rect height="1" transform="rotate(0 0.5 1)" width="1" x="0" y="0.5"/>
    <rect height="1" transform="rotate(1 1.5 1)" width="1" x="1" y="0.5"/>
    <rect height="1" transform="rotate(2 2.5 1)" width="1" x="2" y="0.5"/>
    <rect height="1" transform="rotate(3 3.5 1)" width="1" x="3" y="0.5"/>
    <rect height="1" transform="rotate(5 5.5 1)" width="1" x="5" y="0.5"/>
    <rect height="1" transform="rotate(6 6.5 1)" width="1" x="6" y="0.5"/>
    <rect height="1" transform="rotate(7 7.5 1)" width="1" x="7" y="0.5"/>
    <rect height="1" transform="rotate(8 8.5 1)" width="1" x="8" y="0.5"/>
    <rect height="1" transform="rotate(9 9.5 1)" width="1" x="9" y="0.5"/>
    <rect height="1" transform="rotate(10 10.5 1)" width="1" x="10" y="0.5"/>
    <rect height="1" transform="rotate(11 11.5 1)" width="1" x="11" y="0.5"/>
    <rect height="1" transform="rotate(13 13.5 1)" width="1" x="13" y="0.5"/>
    <rect height="1" transform="rotate(14 14.5 1)" width="1" x="14" y="0.5"/>
    <rect height="1" transform="rotate(15 15.5 1)" width="1" x="15" y="0.5"/>
    <rect height="1" transform="rotate(16 16.5 1)" width="1" x="16" y="0.5"/>
    <rect height="1" transform="rotate(17 17.5 1)" width="1" x="17" y="0.5"/>
    <rect height="1" transform="rotate(19 19.5 1)" width="1" x="19" y="0.5"/>
    <rect height="1" transform="rotate(20 20.5 1)" width="1" x="20" y="0.5"/>
    <rect height="1" transform="rotate(22 22.5 1)" width="1" x="22" y="0.5"/>
    <rect height="1" transform="rotate(23 23.5 1)" width="1" x="23" y="0.5"/>
    <rect height="1" transform="rotate(24 24.5 1)" width="1" x="24" y="0.5"/>
    <rect height="1" transform="rotate(25 25.5 1)" width="1" x="25" y="0.5"/>
    <rect height="1" transform="rotate(26 26.5 1)" width="1" x="26" y="0.5"/>
    <rect height="1" transform="rotate(27 27.5 1)" width="1" x="27" y="0.5"/>
    <rect height="1" transform="rotate(28 28.5 1)" width="1" x="28" y="0.5"/>
  </g>
  <g fill="#eee" font-family="sans-serif" font-size="0.67" text-anchor="middle">
    <text alignment-baseline="middle" x="0.5" y="1">I</text>
    <text alignment-baseline="middle" x="1.5" y="1">T</text>
    <text alignment-baseline="middle" x="2.5" y="1">'</text>
    <text alignment-baseline="middle" x="3.5" y="1">S</text>
    <text alignment-baseline="middle" x="4.5" y="1"> </text>
    <text alignment-baseline="middle" x="5.5" y="1">T</text>
    <text alignment-baseline="middle" x="6.5" y="1">U</text>
    <text alignment-baseline="middle" x="7.5" y="1">E</text>
    <text alignment-baseline="middle" x="8.5" y="1">S</text>
    <text alignment-baseline="middle" x="9.5" y="1">D</text>
    <text alignment-baseline="middle" x="10.5" y="1">A</text>
    <text alignment-baseline="middle" x="11.5" y="1">Y</text>
    <text alignment-baseline="middle" x="12.5" y="1"> </text>
    <text alignment-baseline="middle" x="13.5" y="1">N</text>
    <text alignment-baseline="middle" x="14.5" y="1">I</text>
    <text alignment-baseline="middle" x="15.5" y="1">G</text>
    <text alignment-baseline="middle" x="16.5" y="1">H</text>
    <text alignment-baseline="middle" x="17.5" y="1">T</text>
    <text alignment-baseline="middle" x="18.5" y="1"> </text>
    <text alignment-baseline="middle" x="19.5" y="1">I</text>
    <text alignment-baseline="middle" x="20.5" y="1">N</text>
    <text alignment-baseline="middle" x="21.5" y="1"> </text>
    <text alignment-baseline="middle" x="22.5" y="1">C</text>
    <text alignment-baseline="middle" x="23.5" y="1">H</text>
    <text alignment-baseline="middle" x="24.5" y="1">I</text>
    <text alignment-baseline="middle" x="25.5" y="1">C</text>
    <text alignment-baseline="middle" x="26.5" y="1">A</text>
    <text alignment-baseline="middle" x="27.5" y="1">G</text>
    <text alignment-baseline="middle" x="28.5" y="1">O</text>
  </g>
  <g fill="none" stroke="#eee" stroke-opacity="1" stroke-width="0.05">
    <rect height="1" transform="rotate(0.0 0.5 1)" width="1" x="0" y="0.5"/>
    <rect height="1" transform="rotate(1.8464537486999726 1.5 1)" width="1" x="1" y="0.5"/>
    <rect height="1" transform="rotate(3.8186340870194035 2.5 1)" width="1" x="2" y="0.5"/>
    <rect height="1" transform="rotate(4.073147757052801 3.5 1)" width="1" x="3" y="0.5"/>
    <rect height="1" transform="rotate(6.313767079197361 5.5 1)" width="1" x="5" y="0.5"/>
    <rect height="1" transform="rotate(9.723585549408487 6.5 1)" width="1" x="6" y="0.5"/>
    <rect height="1" transform="rotate(7.720126707225699 7.5 1)" width="1" x="7" y="0.5"/>
    <rect height="1" transform="rotate(15.061831962501257 8.5 1)" width="1" x="8" y="0.5"/>
    <rect height="1" transform="rotate(16.21984494460708 9.5 1)" width="1" x="9" y="0.5"/>
    <rect height="1" transform="rotate(10.05957813705373 10.5 1)" width="1" x="10" y="0.5"/>
    <rect height="1" transform="rotate(13.524142302493857 11.5 1)" width="1" x="11" y="0.5"/>
    <rect height="1" transform="rotate(22.961985834992397 13.5 1)" width="1" x="13" y="0.5"/>
    <rect height="1" transform="rotate(21.799924288229025 14.5 1)" width="1" x="14" y="0.5"/>
    <rect height="1" transform="rotate(26.02746766241604 15.5 1)" width="1" x="15" y="0.5"/>
    <rect height="1" transform="rotate(21.71105182785311 16.5 1)" width="1" x="16" y="0.5"/>
    <rect height="1" transform="rotate(27.754399523158593 17.5 1)" width="1" x="17" y="0.5"/>
    <rect height="1" transform="rotate(29.109111931004467 19.5 1)" width="1" x="19" y="0.5"/>
    <rect height="1" transform="rotate(24.511666340196378 20.5 1)" width="1" x="20" y="0.5"/>
    <rect height="1" transform="rotate(30.28939702074615 22.5 1)" width="1" x="22" y="0.5"/>
    <rect height="1" transform="rotate(37.43302515678632 23.5 1)" width="1" x="23" y="0.5"/>
    <rect height="1" transform="rotate(45.55259014298552 24.5 1)" width="1" x="24" y="0.5"/>
    <rect height="1" transform="rotate(27.127280583092915 25.5 1)" width="1" x="25" y="0.5"/>
    <rect height="1" transform="rotate(42.048005814404455 26.5 1)" width="1" x="26" y="0.5"/>
    <rect height="1" transform="rotate(40.78963184937991 27.5 1)" width="1" x="27" y="0.5"/>
    <rect height="1" transform="rotate(30.08914225119787 28.5 1)" width="1" x="28" y="0.5"/>
  </g>
</svg>
