<?xml version="1.0" encoding="utf-8" ?>
<svg xmlns="http://www.w3.org/2000/svg" xmlns:ev="http://www.w3.org/2001/xml-events" xmlns:xlink="http://www.w3.org/1999/xlink" baseProfile="full" height="100%" version="1.1" viewBox="-1 0 36 2" width="100%">
  <defs/>
  <rect fill="#eee" height="2" width="36" x="-1" y="0"/>
  <g fill="#80ffcc" stroke="#222" stroke-opacity="1" stroke-width="0.05">
    <rect height="1" transform="rotate(0 0.5 1)" width="1" x="0" y="0.5"/>
    <rect height="1" transform="rotate(1 1.5 1)" width="1" x="1" y="0.5"/>
    <rect height="1" transform="rotate(2 2.5 1)" width="1" x="2" y="0.5"/>
    <rect height="1" transform="rotate(3 3.5 1)" width="1" x="3" y="0.5"/>
    <rect height="1" transform="rotate(5 5.5 1)" width="1" x="5" y="0.5"/>
    <rect height="1" transform="rotate(6 6.5 1)" width="1" x="6" y="0.5"/>
    <rect height="1" transform="rotate(7 7.5 1)" width="1" x="7" y="0.5"/>
    <rect height="1" transform="rotate(8 8.5 1)" width="1" x="8" y="0.5"/>
    <rect height="1" transform="rotate(9 9.5 1)" width="1" x="9" y="0.5"/>
    <rect height="1" transform="rotate(10 10.5 1)" width="1" x="10" y="0.5"/>
    <rect height="1" transform="rotate(11 11.5 1)" width="1" x="11" y="0.5"/>
    <rect height="1" transform="rotate(12 12.5 1)" width="1" x="12" y="0.5"/>
    <rect height="1" transform="rotate(14 14.5 1)" width="1" x="14" y="0.5"/>
    <rect height="1" transform="rotate(15 15.5 1)" width="1" x="15" y="0.5"/>
    <rect height="1" transform="rotate(16 16.5 1)" width="1" x="16" y="0.5"/>
    <rect height="1" transform="rotate(17 17.5 1)" width="1" x="17" y="0.5"/>
    <rect height="1" transform="rotate(18 18.5 1)" width="1" x="18" y="0.5"/>
    <rect height="1" transform="rotate(19 19.5 1)" width="1" x="19" y="0.5"/>
    <rect height="1" transform="rotate(20 20.5 1)" width="1" x="20" y="0.5"/>
    <rect height="1" transform="rotate(21 21.5 1)" width="1" x="21" y="0.5"/>
    <rect height="1" transform="rotate(22 22.5 1)" width="1" x="22" y="0.5"/>
    <rect height="1" transform="rotate(24 24.5 1)" width="1" x="24" y="0.5"/>
    <rect height="1" transform="rotate(25 25.5 1)" width="1" x="25" y="0.5"/>
    <rect height="1" transform="rotate(27 27.5 1)" width="1" x="27" y="0.5"/>
    <rect height="1" transform="rotate(28 28.5 1)" width="1" x="28" y="0.5"/>
    <rect height="1" transform="rotate(29 29.5 1)" width="1" x="29" y="0.5"/>
    <rect height="1" transform="rotate(30 30.5 1)" width="1" x="30" y="0.5"/>
    <rect height="1" transform="rotate(31 31.5 1)" width="1" x="31" y="0.5"/>
    <rect height="1" transform="rotate(32 32.5 1)" width="1" x="32" y="0.5"/>
    <rect height="1" transform="rotate(33 33.5 1)" width="1" x="33" y="0.5"/>
  </g>
  <g fill="#222" font-family="sans-serif" font-size="0.67" text-anchor="middle">
    <text alignment-baseline="middle" x="0.5" y="1">I</text>
    <text alignment-baseline="middle" x="1.5" y="1">T</text>
    <text alignment-baseline="middle" x="2.5" y="1">'</text>
    <text alignment-baseline="middle" x="3.5" y="1">S</text>
    <text alignment-baseline="middle" x="4.5" y="1"> </text>
    <text alignment-baseline="middle" x="5.5" y="1">T</text>
    <text alignment-baseline="middle" x="6.5" y="1">H</text>
    <text alignment-baseline="middle" x="7.5" y="1">U</text>
    <text alignment-baseline="middle" x="8.5" y="1">R</text>
    <text alignment-baseline="middle" x="9.5" y="1">S</text>
    <text alignment-baseline="middle" x="10.5" y="1">D</text>
    <text alignment-baseline="middle" x="11.5" y="1">A</text>
    <text alignment-baseline="middle" x="12.5" y="1">Y</text>
    <text alignment-baseline="middle" x="13.5" y="1"> </text>
    <text alignment-baseline="middle" x="14.5" y="1">A</text>
    <text alignment-baseline="middle" x="15.5" y="1">F</text>
    <text alignment-baseline="middle" x="16.5" y="1">T</text>
    <text alignment-baseline="middle" x="17.5" y="1">E</text>
    <text alignment-baseline="middle" x="18.5" y="1">R</text>
    <text alignment-baseline="middle" x="19.5" y="1">N</text>
    <text alignment-baseline="middle" x="20.5" y="1">O</text>
    <text alignment-baseline="middle" x="21.5" y="1">O</text>
    <text alignment-baseline="middle" x="22.5" y="1">N</text>
    <text alignment-baseline="middle" x="23.5" y="1"> </text>
    <text alignment-baseline="middle" x="24.5" y="1">I</text>
    <text alignment-baseline="middle" x="25.5" y="1">N</text>
    <text alignment-baseline="middle" x="26.5" y="1"> </text>
    <text alignment-baseline="middle" x="27.5" y="1">C</text>
    <text alignment-baseline="middle" x="28.5" y="1">H</text>
    <text alignment-baseline="middle" x="29.5" y="1">I</text>
    <text alignment-baseline="middle" x="30.5" y="1">C</text>
    <text alignment-baseline="middle" x="31.5" y="1">A</text>
    <text alignment-baseline="middle" x="32.5" y="1">G</text>
    <text alignment-baseline="middle" x="33.5" y="1">O</text>
  </g>
  <g fill="none" stroke="#222" stroke-opacity="1" stroke-width="0.05">
    <rect height="1" transform="rotate(0.0 0.5 1)" width="1" x="0" y="0.5"/>
    <rect height="1" transform="rotate(1.3454983567669276 1.5 1)" width="1" x="1" y="0.5"/>
    <rect height="1" transform="rotate(3.2764756146645553 2.5 1)" width="1" x="2" y="0.5"/>
    <rect height="1" transform="rotate(4.7099386911226 3.5 1)" width="1" x="3" y="0.5"/>
    <rect height="1" transform="rotate(5.664568638277661 5.5 1)" width="1" x="5" y="0.5"/>
    <rect height="1" transform="rotate(11.411828521099514 6.5 1)" width="1" x="6" y="0.5"/>
    <rect height="1" transform="rotate(13.084457823728004 7.5 1)" width="1" x="7" y="0.5"/>
    <rect height="1" transform="rotate(9.994407634577355 8.5 1)" width="1" x="8" y="0.5"/>
    <rect height="1" transform="rotate(11.002143639179677 9.5 1)" width="1" x="9" y="0.5"/>
    <rect height="1" transform="rotate(16.194545177053413 10.5 1)" width="1" x="10" y="0.5"/>
    <rect height="1" transform="rotate(18.751134040282466 11.5 1)" width="1" x="11" y="0.5"/>
    <rect height="1" transform="rotate(13.28912135521415 12.5 1)" width="1" x="12" y="0.5"/>
    <rect height="1" transform="rotate(14.336809915967041 14.5 1)" width="1" x="14" y="0.5"/>
    <rect height="1" transform="rotate(27.785814056420417 15.5 1)" width="1" x="15" y="0.5"/>
    <rect height="1" transform="rotate(31.900096659281388 16.5 1)" width="1" x="16" y="0.5"/>
    <rect height="1" transform="rotate(24.107343803238336 17.5 1)" width="1" x="17" y="0.5"/>
    <rect height="1" transform="rotate(27.409115563102475 18.5 1)" width="1" x="18" y="0.5"/>
    <rect height="1" transform="rotate(23.777071401139867 19.5 1)" width="1" x="19" y="0.5"/>
    <rect height="1" transform="rotate(29.387300765956937 20.5 1)" width="1" x="20" y="0.5"/>
    <rect height="1" transform="rotate(22.5854391514475 21.5 1)" width="1" x="21" y="0.5"/>
    <rect height="1" transform="rotate(40.67704706127862 22.5 1)" width="1" x="22" y="0.5"/>
    <rect height="1" transform="rotate(35.681536626279375 24.5 1)" width="1" x="24" y="0.5"/>
    <rect height="1" transform="rotate(46.254446313979784 25.5 1)" width="1" x="25" y="0.5"/>
    <rect height="1" transform="rotate(45.727019574279474 27.5 1)" width="1" x="27" y="0.5"/>
    <rect height="1" transform="rotate(47.960621393286516 28.5 1)" width="1" x="28" y="0.5"/>
    <rect height="1" transform="rotate(48.362302276771516 29.5 1)" width="1" x="29" y="0.5"/>
    <rect height="1" transform="rotate(34.54265380069756 30.5 1)" width="1" x="30" y="0.5"/>
    <rect height="1" transform="rotate(59.99331280796594 31.5 1)" width="1" x="31" y="0.5"/>
    <rect height="1" transform="rotate(34.57787820688334 32.5 1)" width="1" x="32" y="0.5"/>
    <rect height="1" transform="rotate(51.95246674392151 33.5 1)" width="1" x="33" y="0.5"/>
  </g>
</svg>
