<?xml version="1.0" encoding="utf-8" ?>
<svg xmlns="http://www.w3.org/2000/svg" xmlns:ev="http://www.w3.org/2001/xml-events" xmlns:xlink="http://www.w3.org/1999/xlink" baseProfile="full" height="100%" version="1.1" viewBox="-1 0 34 2" width="100%">
  <defs/>
  <rect fill="#eee" height="2" width="34" x="-1" y="0"/>
  <g fill="#fff59e" stroke="#111" stroke-opacity="1" stroke-width="0.05">
    <rect height="1" transform="rotate(0 0.5 1)" width="1" x="0" y="0.5"/>
    <rect height="1" transform="rotate(1 1.5 1)" width="1" x="1" y="0.5"/>
    <rect height="1" transform="rotate(2 2.5 1)" width="1" x="2" y="0.5"/>
    <rect height="1" transform="rotate(3 3.5 1)" width="1" x="3" y="0.5"/>
    <rect height="1" transform="rotate(5 5.5 1)" width="1" x="5" y="0.5"/>
    <rect height="1" transform="rotate(6 6.5 1)" width="1" x="6" y="0.5"/>
    <rect height="1" transform="rotate(7 7.5 1)" width="1" x="7" y="0.5"/>
    <rect height="1" transform="rotate(8 8.5 1)" width="1" x="8" y="0.5"/>
    <rect height="1" transform="rotate(9 9.5 1)" width="1" x="9" y="0.5"/>
    <rect height="1" transform="rotate(10 10.5 1)" width="1" x="10" y="0.5"/>
    <rect height="1" transform="rotate(11 11.5 1)" width="1" x="11" y="0.5"/>
    <rect height="1" transform="rotate(12 12.5 1)" width="1" x="12" y="0.5"/>
    <rect height="1" transform="rotate(14 14.5 1)" width="1" x="14" y="0.5"/>
    <rect height="1" transform="rotate(15 15.5 1)" width="1" x="15" y="0.5"/>
    <rect height="1" transform="rotate(16 16.5 1)" width="1" x="16" y="0.5"/>
    <rect height="1" transform="rotate(17 17.5 1)" width="1" x="17" y="0.5"/>
    <rect height="1" transform="rotate(18 18.5 1)" width="1" x="18" y="0.5"/>
    <rect height="1" transform="rotate(19 19.5 1)" width="1" x="19" y="0.5"/>
    <rect height="1" transform="rotate(20 20.5 1)" width="1" x="20" y="0.5"/>
    <rect height="1" transform="rotate(22 22.5 1)" width="1" x="22" y="0.5"/>
    <rect height="1" transform="rotate(23 23.5 1)" width="1" x="23" y="0.5"/>
    <rect height="1" transform="rotate(25 25.5 1)" width="1" x="25" y="0.5"/>
    <rect height="1" transform="rotate(26 26.5 1)" width="1" x="26" y="0.5"/>
    <rect height="1" transform="rotate(27 27.5 1)" width="1" x="27" y="0.5"/>
    <rect height="1" transform="rotate(28 28.5 1)" width="1" x="28" y="0.5"/>
    <rect height="1" transform="rotate(29 29.5 1)" width="1" x="29" y="0.5"/>
    <rect height="1" transform="rotate(30 30.5 1)" width="1" x="30" y="0.5"/>
    <rect height="1" transform="rotate(31 31.5 1)" width="1" x="31" y="0.5"/>
  </g>
  <g fill="#111" font-family="sans-serif" font-size="0.67" text-anchor="middle">
    <text alignment-baseline="middle" x="0.5" y="1">I</text>
    <text alignment-baseline="middle" x="1.5" y="1">T</text>
    <text alignment-baseline="middle" x="2.5" y="1">'</text>
    <text alignment-baseline="middle" x="3.5" y="1">S</text>
    <text alignment-baseline="middle" x="4.5" y="1"> </text>
    <text alignment-baseline="middle" x="5.5" y="1">S</text>
    <text alignment-baseline="middle" x="6.5" y="1">A</text>
    <text alignment-baseline="middle" x="7.5" y="1">T</text>
    <text alignment-baseline="middle" x="8.5" y="1">U</text>
    <text alignment-baseline="middle" x="9.5" y="1">R</text>
    <text alignment-baseline="middle" x="10.5" y="1">D</text>
    <text alignment-baseline="middle" x="11.5" y="1">A</text>
    <text alignment-baseline="middle" x="12.5" y="1">Y</text>
    <text alignment-baseline="middle" x="13.5" y="1"> </text>
    <text alignment-baseline="middle" x="14.5" y="1">M</text>
    <text alignment-baseline="middle" x="15.5" y="1">O</text>
    <text alignment-baseline="middle" x="16.5" y="1">R</text>
    <text alignment-baseline="middle" x="17.5" y="1">N</text>
    <text alignment-baseline="middle" x="18.5" y="1">I</text>
    <text alignment-baseline="middle" x="19.5" y="1">N</text>
    <text alignment-baseline="middle" x="20.5" y="1">G</text>
    <text alignment-baseline="middle" x="21.5" y="1"> </text>
    <text alignment-baseline="middle" x="22.5" y="1">I</text>
    <text alignment-baseline="middle" x="23.5" y="1">N</text>
    <text alignment-baseline="middle" x="24.5" y="1"> </text>
    <text alignment-baseline="middle" x="25.5" y="1">C</text>
    <text alignment-baseline="middle" x="26.5" y="1">H</text>
    <text alignment-baseline="middle" x="27.5" y="1">I</text>
    <text alignment-baseline="middle" x="28.5" y="1">C</text>
    <text alignment-baseline="middle" x="29.5" y="1">A</text>
    <text alignment-baseline="middle" x="30.5" y="1">G</text>
    <text alignment-baseline="middle" x="31.5" y="1">O</text>
  </g>
  <g fill="none" stroke="#111" stroke-opacity="1" stroke-width="0.05">
    <rect height="1" transform="rotate(0.0 0.5 1)" width="1" x="0" y="0.5"/>
    <rect height="1" transform="rotate(1.1369822568316068 1.5 1)" width="1" x="1" y="0.5"/>
    <rect height="1" transform="rotate(3.7001677697938913 2.5 1)" width="1" x="2" y="0.5"/>
    <rect height="1" transform="rotate(4.692854431366855 3.5 1)" width="1" x="3" y="0.5"/>
    <rect height="1" transform="rotate(9.401836593574155 5.5 1)" width="1" x="5" y="0.5"/>
    <rect height="1" transform="rotate(10.699371346880657 6.5 1)" width="1" x="6" y="0.5"/>
    <rect height="1" transform="rotate(8.325923330841015 7.5 1)" width="1" x="7" y="0.5"/>
    <rect height="1" transform="rotate(11.343040274634706 8.5 1)" width="1" x="8" y="0.5"/>
    <rect height="1" transform="rotate(11.40940308105946 9.5 1)" width="1" x="9" y="0.5"/>
    <rect height="1" transform="rotate(12.461871751262233 10.5 1)" width="1" x="10" y="0.5"/>
    <rect height="1" transform="rotate(19.223624373339245 11.5 1)" width="1" x="11" y="0.5"/>
    <rect height="1" transform="rotate(20.143095426631348 12.5 1)" width="1" x="12" y="0.5"/>
    <rect height="1" transform="rotate(19.954751947464516 14.5 1)" width="1" x="14" y="0.5"/>
    <rect height="1" transform="rotate(27.126291810885558 15.5 1)" width="1" x="15" y="0.5"/>
    <rect height="1" transform="rotate(30.293471383732133 16.5 1)" width="1" x="16" y="0.5"/>
    <rect height="1" transform="rotate(18.645621079420447 17.5 1)" width="1" x="17" y="0.5"/>
    <rect height="1" transform="rotate(29.37658022447708 18.5 1)" width="1" x="18" y="0.5"/>
    <rect height="1" transform="rotate(26.034804341792487 19.5 1)" width="1" x="19" y="0.5"/>
    <rect height="1" transform="rotate(39.25041661385397 20.5 1)" width="1" x="20" y="0.5"/>
    <rect height="1" transform="rotate(28.169093447537364 22.5 1)" width="1" x="22" y="0.5"/>
    <rect height="1" transform="rotate(30.084192079620806 23.5 1)" width="1" x="23" y="0.5"/>
    <rect height="1" transform="rotate(44.00745032836145 25.5 1)" width="1" x="25" y="0.5"/>
    <rect height="1" transform="rotate(49.78179770639581 26.5 1)" width="1" x="26" y="0.5"/>
    <rect height="1" transform="rotate(27.077637365282694 27.5 1)" width="1" x="27" y="0.5"/>
    <rect height="1" transform="rotate(33.26022958615643 28.5 1)" width="1" x="28" y="0.5"/>
    <rect height="1" transform="rotate(51.832993872124106 29.5 1)" width="1" x="29" y="0.5"/>
    <rect height="1" transform="rotate(44.420241880276016 30.5 1)" width="1" x="30" y="0.5"/>
    <rect height="1" transform="rotate(51.91796266088364 31.5 1)" width="1" x="31" y="0.5"/>
  </g>
</svg>
