<?xml version="1.0" encoding="utf-8" ?>
<svg xmlns="http://www.w3.org/2000/svg" xmlns:ev="http://www.w3.org/2001/xml-events" xmlns:xlink="http://www.w3.org/1999/xlink" baseProfile="full" height="100%" version="1.1" viewBox="-1 0 32 2" width="100%">
  <defs/>
  <rect fill="#111" height="2" width="32" x="-1" y="0"/>
  <g fill="#a10045" stroke="#eee" stroke-opacity="1" stroke-width="0.05">
    <rect height="1" transform="rotate(0 0.5 1)" width="1" x="0" y="0.5"/>
    <rect height="1" transform="rotate(1 1.5 1)" width="1" x="1" y="0.5"/>
    <rect height="1" transform="rotate(2 2.5 1)" width="1" x="2" y="0.5"/>
    <rect height="1" transform="rotate(3 3.5 1)" width="1" x="3" y="0.5"/>
    <rect height="1" transform="rotate(5 5.5 1)" width="1" x="5" y="0.5"/>
    <rect height="1" transform="rotate(6 6.5 1)" width="1" x="6" y="0.5"/>
    <rect height="1" transform="rotate(7 7.5 1)" width="1" x="7" y="0.5"/>
    <rect height="1" transform="rotate(8 8.5 1)" width="1" x="8" y="0.5"/>
    <rect height="1" transform="rotate(9 9.5 1)" width="1" x="9" y="0.5"/>
    <rect height="1" transform="rotate(10 10.5 1)" width="1" x="10" y="0.5"/>
    <rect height="1" transform="rotate(11 11.5 1)" width="1" x="11" y="0.5"/>
    <rect height="1" transform="rotate(12 12.5 1)" width="1" x="12" y="0.5"/>
    <rect height="1" transform="rotate(14 14.5 1)" width="1" x="14" y="0.5"/>
    <rect height="1" transform="rotate(15 15.5 1)" width="1" x="15" y="0.5"/>
    <rect height="1" transform="rotate(16 16.5 1)" width="1" x="16" y="0.5"/>
    <rect height="1" transform="rotate(17 17.5 1)" width="1" x="17" y="0.5"/>
    <rect height="1" transform="rotate(18 18.5 1)" width="1" x="18" y="0.5"/>
    <rect height="1" transform="rotate(20 20.5 1)" width="1" x="20" y="0.5"/>
    <rect height="1" transform="rotate(21 21.5 1)" width="1" x="21" y="0.5"/>
    <rect height="1" transform="rotate(23 23.5 1)" width="1" x="23" y="0.5"/>
    <rect height="1" transform="rotate(24 24.5 1)" width="1" x="24" y="0.5"/>
    <rect height="1" transform="rotate(25 25.5 1)" width="1" x="25" y="0.5"/>
    <rect height="1" transform="rotate(26 26.5 1)" width="1" x="26" y="0.5"/>
    <rect height="1" transform="rotate(27 27.5 1)" width="1" x="27" y="0.5"/>
    <rect height="1" transform="rotate(28 28.5 1)" width="1" x="28" y="0.5"/>
    <rect height="1" transform="rotate(29 29.5 1)" width="1" x="29" y="0.5"/>
  </g>
  <g fill="#eee" font-family="sans-serif" font-size="0.67" text-anchor="middle">
    <text alignment-baseline="middle" x="0.5" y="1">I</text>
    <text alignment-baseline="middle" x="1.5" y="1">T</text>
    <text alignment-baseline="middle" x="2.5" y="1">'</text>
    <text alignment-baseline="middle" x="3.5" y="1">S</text>
    <text alignment-baseline="middle" x="4.5" y="1"> </text>
    <text alignment-baseline="middle" x="5.5" y="1">T</text>
    <text alignment-baseline="middle" x="6.5" y="1">H</text>
    <text alignment-baseline="middle" x="7.5" y="1">U</text>
    <text alignment-baseline="middle" x="8.5" y="1">R</text>
    <text alignment-baseline="middle" x="9.5" y="1">S</text>
    <text alignment-baseline="middle" x="10.5" y="1">D</text>
    <text alignment-baseline="middle" x="11.5" y="1">A</text>
    <text alignment-baseline="middle" x="12.5" y="1">Y</text>
    <text alignment-baseline="middle" x="13.5" y="1"> </text>
    <text alignment-baseline="middle" x="14.5" y="1">N</text>
    <text alignment-baseline="middle" x="15.5" y="1">I</text>
    <text alignment-baseline="middle" x="16.5" y="1">G</text>
    <text alignment-baseline="middle" x="17.5" y="1">H</text>
    <text alignment-baseline="middle" x="18.5" y="1">T</text>
    <text alignment-baseline="middle" x="19.5" y="1"> </text>
    <text alignment-baseline="middle" x="20.5" y="1">I</text>
    <text alignment-baseline="middle" x="21.5" y="1">N</text>
    <text alignment-baseline="middle" x="22.5" y="1"> </text>
    <text alignment-baseline="middle" x="23.5" y="1">C</text>
    <text alignment-baseline="middle" x="24.5" y="1">H</text>
    <text alignment-baseline="middle" x="25.5" y="1">I</text>
    <text alignment-baseline="middle" x="26.5" y="1">C</text>
    <text alignment-baseline="middle" x="27.5" y="1">A</text>
    <text alignment-baseline="middle" x="28.5" y="1">G</text>
    <text alignment-baseline="middle" x="29.5" y="1">O</text>
  </g>
  <g fill="none" stroke="#eee" stroke-opacity="1" stroke-width="0.05">
    <rect height="1" transform="rotate(0.0 0.5 1)" width="1" x="0" y="0.5"/>
    <rect height="1" transform="rotate(1.0053669814175645 1.5 1)" width="1" x="1" y="0.5"/>
    <rect height="1" transform="rotate(2.973677314569125 2.5 1)" width="1" x="2" y="0.5"/>
    <rect height="1" transform="rotate(4.277429783846348 3.5 1)" width="1" x="3" y="0.5"/>
    <rect height="1" transform="rotate(7.1917676214537885 5.5 1)" width="1" x="5" y="0.5"/>
    <rect height="1" transform="rotate(11.992379355800281 6.5 1)" width="1" x="6" y="0.5"/>
    <rect height="1" transform="rotate(12.450562587393764 7.5 1)" width="1" x="7" y="0.5"/>
    <rect height="1" transform="rotate(9.526323856836527 8.5 1)" width="1" x="8" y="0.5"/>
    <rect height="1" transform="rotate(12.629599918621668 9.5 1)" width="1" x="9" y="0.5"/>
    <rect height="1" transform="rotate(15.423846763522555 10.5 1)" width="1" x="10" y="0.5"/>
    <rect height="1" transform="rotate(17.616409432739648 11.5 1)" width="1" x="11" y="0.5"/>
    <rect height="1" transform="rotate(22.706199509998843 12.5 1)" width="1" x="12" y="0.5"/>
    <rect height="1" transform="rotate(26.73909643754169 14.5 1)" width="1" x="14" y="0.5"/>
    <rect height="1" transform="rotate(25.307030047324687 15.5 1)" width="1" x="15" y="0.5"/>
    <rect height="1" transform="rotate(19.30405478228328 16.5 1)" width="1" x="16" y="0.5"/>
    <rect height="1" transform="rotate(29.812772795793457 17.5 1)" width="1" x="17" y="0.5"/>
    <rect height="1" transform="rotate(19.806552627273373 18.5 1)" width="1" x="18" y="0.5"/>
    <rect height="1" transform="rotate(20.214169350641306 20.5 1)" width="1" x="20" y="0.5"/>
    <rect height="1" transform="rotate(33.430411828090655 21.5 1)" width="1" x="21" y="0.5"/>
    <rect height="1" transform="rotate(27.533542276874325 23.5 1)" width="1" x="23" y="0.5"/>
    <rect height="1" transform="rotate(40.87216373037186 24.5 1)" width="1" x="24" y="0.5"/>
    <rect height="1" transform="rotate(49.43595078120897 25.5 1)" width="1" x="25" y="0.5"/>
    <rect height="1" transform="rotate(31.657096410982973 26.5 1)" width="1" x="26" y="0.5"/>
    <rect height="1" transform="rotate(36.4748356770152 27.5 1)" width="1" x="27" y="0.5"/>
    <rect height="1" transform="rotate(47.6627768293822 28.5 1)" width="1" x="28" y="0.5"/>
    <rect height="1" transform="rotate(55.316993682109604 29.5 1)" width="1" x="29" y="0.5"/>
  </g>
</svg>
