<?xml version="1.0" encoding="utf-8" ?>
<svg xmlns="http://www.w3.org/2000/svg" xmlns:ev="http://www.w3.org/2001/xml-events" xmlns:xlink="http://www.w3.org/1999/xlink" baseProfile="full" height="100%" version="1.1" viewBox="-1 0 30 2" width="100%">
  <defs/>
  <rect fill="#111" height="2" width="30" x="-1" y="0"/>
  <g fill="#a10045" stroke="#eee" stroke-opacity="1" stroke-width="0.05">
    <rect height="1" transform="rotate(0 0.5 1)" width="1" x="0" y="0.5"/>
    <rect height="1" transform="rotate(1 1.5 1)" width="1" x="1" y="0.5"/>
    <rect height="1" transform="rotate(2 2.5 1)" width="1" x="2" y="0.5"/>
    <rect height="1" transform="rotate(3 3.5 1)" width="1" x="3" y="0.5"/>
    <rect height="1" transform="rotate(5 5.5 1)" width="1" x="5" y="0.5"/>
    <rect height="1" transform="rotate(6 6.5 1)" width="1" x="6" y="0.5"/>
    <rect height="1" transform="rotate(7 7.5 1)" width="1" x="7" y="0.5"/>
    <rect height="1" transform="rotate(8 8.5 1)" width="1" x="8" y="0.5"/>
    <rect height="1" transform="rotate(9 9.5 1)" width="1" x="9" y="0.5"/>
    <rect height="1" transform="rotate(10 10.5 1)" width="1" x="10" y="0.5"/>
    <rect height="1" transform="rotate(12 12.5 1)" width="1" x="12" y="0.5"/>
    <rect height="1" transform="rotate(13 13.5 1)" width="1" x="13" y="0.5"/>
    <rect height="1" transform="rotate(14 14.5 1)" width="1" x="14" y="0.5"/>
    <rect height="1" transform="rotate(15 15.5 1)" width="1" x="15" y="0.5"/>
    <rect height="1" transform="rotate(16 16.5 1)" width="1" x="16" y="0.5"/>
    <rect height="1" transform="rotate(18 18.5 1)" width="1" x="18" y="0.5"/>
    <rect height="1" transform="rotate(19 19.5 1)" width="1" x="19" y="0.5"/>
    <rect height="1" transform="rotate(21 21.5 1)" width="1" x="21" y="0.5"/>
    <rect height="1" transform="rotate(22 22.5 1)" width="1" x="22" y="0.5"/>
    <rect height="1" transform="rotate(23 23.5 1)" width="1" x="23" y="0.5"/>
    <rect height="1" transform="rotate(24 24.5 1)" width="1" x="24" y="0.5"/>
    <rect height="1" transform="rotate(25 25.5 1)" width="1" x="25" y="0.5"/>
    <rect height="1" transform="rotate(26 26.5 1)" width="1" x="26" y="0.5"/>
    <rect height="1" transform="rotate(27 27.5 1)" width="1" x="27" y="0.5"/>
  </g>
  <g fill="#eee" font-family="sans-serif" font-size="0.67" text-anchor="middle">
    <text alignment-baseline="middle" x="0.5" y="1">I</text>
    <text alignment-baseline="middle" x="1.5" y="1">T</text>
    <text alignment-baseline="middle" x="2.5" y="1">'</text>
    <text alignment-baseline="middle" x="3.5" y="1">S</text>
    <text alignment-baseline="middle" x="4.5" y="1"> </text>
    <text alignment-baseline="middle" x="5.5" y="1">M</text>
    <text alignment-baseline="middle" x="6.5" y="1">O</text>
    <text alignment-baseline="middle" x="7.5" y="1">N</text>
    <text alignment-baseline="middle" x="8.5" y="1">D</text>
    <text alignment-baseline="middle" x="9.5" y="1">A</text>
    <text alignment-baseline="middle" x="10.5" y="1">Y</text>
    <text alignment-baseline="middle" x="11.5" y="1"> </text>
    <text alignment-baseline="middle" x="12.5" y="1">N</text>
    <text alignment-baseline="middle" x="13.5" y="1">I</text>
    <text alignment-baseline="middle" x="14.5" y="1">G</text>
    <text alignment-baseline="middle" x="15.5" y="1">H</text>
    <text alignment-baseline="middle" x="16.5" y="1">T</text>
    <text alignment-baseline="middle" x="17.5" y="1"> </text>
    <text alignment-baseline="middle" x="18.5" y="1">I</text>
    <text alignment-baseline="middle" x="19.5" y="1">N</text>
    <text alignment-baseline="middle" x="20.5" y="1"> </text>
    <text alignment-baseline="middle" x="21.5" y="1">C</text>
    <text alignment-baseline="middle" x="22.5" y="1">H</text>
    <text alignment-baseline="middle" x="23.5" y="1">I</text>
    <text alignment-baseline="middle" x="24.5" y="1">C</text>
    <text alignment-baseline="middle" x="25.5" y="1">A</text>
    <text alignment-baseline="middle" x="26.5" y="1">G</text>
    <text alignment-baseline="middle" x="27.5" y="1">O</text>
  </g>
  <g fill="none" stroke="#eee" stroke-opacity="1" stroke-width="0.05">
    <rect height="1" transform="rotate(0.0 0.5 1)" width="1" x="0" y="0.5"/>
    <rect height="1" transform="rotate(1.9310849269622963 1.5 1)" width="1" x="1" y="0.5"/>
    <rect height="1" transform="rotate(2.1741540991673185 2.5 1)" width="1" x="2" y="0.5"/>
    <rect height="1" transform="rotate(5.1445036964731905 3.5 1)" width="1" x="3" y="0.5"/>
    <rect height="1" transform="rotate(8.412580867286925 5.5 1)" width="1" x="5" y="0.5"/>
    <rect height="1" transform="rotate(8.917216313953034 6.5 1)" width="1" x="6" y="0.5"/>
    <rect height="1" transform="rotate(10.71250427401939 7.5 1)" width="1" x="7" y="0.5"/>
    <rect height="1" transform="rotate(13.658460683800524 8.5 1)" width="1" x="8" y="0.5"/>
    <rect height="1" transform="rotate(14.503441385599864 9.5 1)" width="1" x="9" y="0.5"/>
    <rect height="1" transform="rotate(19.874131252958904 10.5 1)" width="1" x="10" y="0.5"/>
    <rect height="1" transform="rotate(14.303640888015591 12.5 1)" width="1" x="12" y="0.5"/>
    <rect height="1" transform="rotate(14.328056970252558 13.5 1)" width="1" x="13" y="0.5"/>
    <rect height="1" transform="rotate(26.703018734371994 14.5 1)" width="1" x="14" y="0.5"/>
    <rect height="1" transform="rotate(28.382837158231304 15.5 1)" width="1" x="15" y="0.5"/>
    <rect height="1" transform="rotate(16.450278201957893 16.5 1)" width="1" x="16" y="0.5"/>
    <rect height="1" transform="rotate(25.830947991575268 18.5 1)" width="1" x="18" y="0.5"/>
    <rect height="1" transform="rotate(19.804855980717974 19.5 1)" width="1" x="19" y="0.5"/>
    <rect height="1" transform="rotate(21.865866558642608 21.5 1)" width="1" x="21" y="0.5"/>
    <rect height="1" transform="rotate(34.86383459621437 22.5 1)" width="1" x="22" y="0.5"/>
    <rect height="1" transform="rotate(44.76781371524483 23.5 1)" width="1" x="23" y="0.5"/>
    <rect height="1" transform="rotate(35.15759750966927 24.5 1)" width="1" x="24" y="0.5"/>
    <rect height="1" transform="rotate(44.11005606035256 25.5 1)" width="1" x="25" y="0.5"/>
    <rect height="1" transform="rotate(46.05429822962954 26.5 1)" width="1" x="26" y="0.5"/>
    <rect height="1" transform="rotate(49.054756237201566 27.5 1)" width="1" x="27" y="0.5"/>
  </g>
</svg>
