<?xml version="1.0" encoding="utf-8" ?>
<svg xmlns="http://www.w3.org/2000/svg" xmlns:ev="http://www.w3.org/2001/xml-events" xmlns:xlink="http://www.w3.org/1999/xlink" baseProfile="full" height="100%" version="1.1" viewBox="-1 0 35 2" width="100%">
  <defs/>
  <rect fill="#eee" height="2" width="35" x="-1" y="0"/>
  <g fill="#9cb29e" stroke="#000" stroke-opacity="1" stroke-width="0.05">
    <rect height="1" transform="rotate(0 0.5 1)" width="1" x="0" y="0.5"/>
    <rect height="1" transform="rotate(1 1.5 1)" width="1" x="1" y="0.5"/>
    <rect height="1" transform="rotate(2 2.5 1)" width="1" x="2" y="0.5"/>
    <rect height="1" transform="rotate(3 3.5 1)" width="1" x="3" y="0.5"/>
    <rect height="1" transform="rotate(5 5.5 1)" width="1" x="5" y="0.5"/>
    <rect height="1" transform="rotate(6 6.5 1)" width="1" x="6" y="0.5"/>
    <rect height="1" transform="rotate(7 7.5 1)" width="1" x="7" y="0.5"/>
    <rect height="1" transform="rotate(8 8.5 1)" width="1" x="8" y="0.5"/>
    <rect height="1" transform="rotate(9 9.5 1)" width="1" x="9" y="0.5"/>
    <rect height="1" transform="rotate(10 10.5 1)" width="1" x="10" y="0.5"/>
    <rect height="1" transform="rotate(11 11.5 1)" width="1" x="11" y="0.5"/>
    <rect height="1" transform="rotate(12 12.5 1)" width="1" x="12" y="0.5"/>
    <rect height="1" transform="rotate(13 13.5 1)" width="1" x="13" y="0.5"/>
    <rect height="1" transform="rotate(15 15.5 1)" width="1" x="15" y="0.5"/>
    <rect height="1" transform="rotate(16 16.5 1)" width="1" x="16" y="0.5"/>
    <rect height="1" transform="rotate(17 17.5 1)" width="1" x="17" y="0.5"/>
    <rect height="1" transform="rotate(18 18.5 1)" width="1" x="18" y="0.5"/>
    <rect height="1" transform="rotate(19 19.5 1)" width="1" x="19" y="0.5"/>
    <rect height="1" transform="rotate(20 20.5 1)" width="1" x="20" y="0.5"/>
    <rect height="1" transform="rotate(21 21.5 1)" width="1" x="21" y="0.5"/>
    <rect height="1" transform="rotate(23 23.5 1)" width="1" x="23" y="0.5"/>
    <rect height="1" transform="rotate(24 24.5 1)" width="1" x="24" y="0.5"/>
    <rect height="1" transform="rotate(26 26.5 1)" width="1" x="26" y="0.5"/>
    <rect height="1" transform="rotate(27 27.5 1)" width="1" x="27" y="0.5"/>
    <rect height="1" transform="rotate(28 28.5 1)" width="1" x="28" y="0.5"/>
    <rect height="1" transform="rotate(29 29.5 1)" width="1" x="29" y="0.5"/>
    <rect height="1" transform="rotate(30 30.5 1)" width="1" x="30" y="0.5"/>
    <rect height="1" transform="rotate(31 31.5 1)" width="1" x="31" y="0.5"/>
    <rect height="1" transform="rotate(32 32.5 1)" width="1" x="32" y="0.5"/>
  </g>
  <g fill="#000" font-family="sans-serif" font-size="0.67" text-anchor="middle">
    <text alignment-baseline="middle" x="0.5" y="1">I</text>
    <text alignment-baseline="middle" x="1.5" y="1">T</text>
    <text alignment-baseline="middle" x="2.5" y="1">'</text>
    <text alignment-baseline="middle" x="3.5" y="1">S</text>
    <text alignment-baseline="middle" x="4.5" y="1"> </text>
    <text alignment-baseline="middle" x="5.5" y="1">W</text>
    <text alignment-baseline="middle" x="6.5" y="1">E</text>
    <text alignment-baseline="middle" x="7.5" y="1">D</text>
    <text alignment-baseline="middle" x="8.5" y="1">N</text>
    <text alignment-baseline="middle" x="9.5" y="1">E</text>
    <text alignment-baseline="middle" x="10.5" y="1">S</text>
    <text alignment-baseline="middle" x="11.5" y="1">D</text>
    <text alignment-baseline="middle" x="12.5" y="1">A</text>
    <text alignment-baseline="middle" x="13.5" y="1">Y</text>
    <text alignment-baseline="middle" x="14.5" y="1"> </text>
    <text alignment-baseline="middle" x="15.5" y="1">E</text>
    <text alignment-baseline="middle" x="16.5" y="1">V</text>
    <text alignment-baseline="middle" x="17.5" y="1">E</text>
    <text alignment-baseline="middle" x="18.5" y="1">N</text>
    <text alignment-baseline="middle" x="19.5" y="1">I</text>
    <text alignment-baseline="middle" x="20.5" y="1">N</text>
    <text alignment-baseline="middle" x="21.5" y="1">G</text>
    <text alignment-baseline="middle" x="22.5" y="1"> </text>
    <text alignment-baseline="middle" x="23.5" y="1">I</text>
    <text alignment-baseline="middle" x="24.5" y="1">N</text>
    <text alignment-baseline="middle" x="25.5" y="1"> </text>
    <text alignment-baseline="middle" x="26.5" y="1">C</text>
    <text alignment-baseline="middle" x="27.5" y="1">H</text>
    <text alignment-baseline="middle" x="28.5" y="1">I</text>
    <text alignment-baseline="middle" x="29.5" y="1">C</text>
    <text alignment-baseline="middle" x="30.5" y="1">A</text>
    <text alignment-baseline="middle" x="31.5" y="1">G</text>
    <text alignment-baseline="middle" x="32.5" y="1">O</text>
  </g>
  <g fill="none" stroke="#000" stroke-opacity="1" stroke-width="0.05">
    <rect height="1" transform="rotate(0.0 0.5 1)" width="1" x="0" y="0.5"/>
    <rect height="1" transform="rotate(1.2861775489228995 1.5 1)" width="1" x="1" y="0.5"/>
    <rect height="1" transform="rotate(3.15825212917425 2.5 1)" width="1" x="2" y="0.5"/>
    <rect height="1" transform="rotate(5.226726590050216 3.5 1)" width="1" x="3" y="0.5"/>
    <rect height="1" transform="rotate(8.730893242691627 5.5 1)" width="1" x="5" y="0.5"/>
    <rect height="1" transform="rotate(9.555663325536006 6.5 1)" width="1" x="6" y="0.5"/>
    <rect height="1" transform="rotate(11.015786378375722 7.5 1)" width="1" x="7" y="0.5"/>
    <rect height="1" transform="rotate(9.228159091769228 8.5 1)" width="1" x="8" y="0.5"/>
    <rect height="1" transform="rotate(11.662538590464157 9.5 1)" width="1" x="9" y="0.5"/>
    <rect height="1" transform="rotate(18.0827625728805 10.5 1)" width="1" x="10" y="0.5"/>
    <rect height="1" transform="rotate(21.210861410757477 11.5 1)" width="1" x="11" y="0.5"/>
    <rect height="1" transform="rotate(22.09224914161657 12.5 1)" width="1" x="12" y="0.5"/>
    <rect height="1" transform="rotate(22.25176945373923 13.5 1)" width="1" x="13" y="0.5"/>
    <rect height="1" transform="rotate(15.98258041400032 15.5 1)" width="1" x="15" y="0.5"/>
    <rect height="1" transform="rotate(22.638062495421174 16.5 1)" width="1" x="16" y="0.5"/>
    <rect height="1" transform="rotate(26.86982914825964 17.5 1)" width="1" x="17" y="0.5"/>
    <rect height="1" transform="rotate(31.012488436157927 18.5 1)" width="1" x="18" y="0.5"/>
    <rect height="1" transform="rotate(27.573627349357967 19.5 1)" width="1" x="19" y="0.5"/>
    <rect height="1" transform="rotate(31.102903392752776 20.5 1)" width="1" x="20" y="0.5"/>
    <rect height="1" transform="rotate(25.72130989393941 21.5 1)" width="1" x="21" y="0.5"/>
    <rect height="1" transform="rotate(44.77612396732345 23.5 1)" width="1" x="23" y="0.5"/>
    <rect height="1" transform="rotate(32.00986699112393 24.5 1)" width="1" x="24" y="0.5"/>
    <rect height="1" transform="rotate(31.661710105926346 26.5 1)" width="1" x="26" y="0.5"/>
    <rect height="1" transform="rotate(30.14820660345445 27.5 1)" width="1" x="27" y="0.5"/>
    <rect height="1" transform="rotate(37.53543129793459 28.5 1)" width="1" x="28" y="0.5"/>
    <rect height="1" transform="rotate(34.1266036724631 29.5 1)" width="1" x="29" y="0.5"/>
    <rect height="1" transform="rotate(47.39537699508041 30.5 1)" width="1" x="30" y="0.5"/>
    <rect height="1" transform="rotate(57.50008351941232 31.5 1)" width="1" x="31" y="0.5"/>
    <rect height="1" transform="rotate(46.24276719591754 32.5 1)" width="1" x="32" y="0.5"/>
  </g>
</svg>
