<?xml version="1.0" encoding="utf-8" ?>
<svg xmlns="http://www.w3.org/2000/svg" xmlns:ev="http://www.w3.org/2001/xml-events" xmlns:xlink="http://www.w3.org/1999/xlink" baseProfile="full" height="100%" version="1.1" viewBox="-1 0 36 2" width="100%">
  <defs/>
  <rect fill="#eee" height="2" width="36" x="-1" y="0"/>
  <g fill="#80ffcc" stroke="#222" stroke-opacity="1" stroke-width="0.05">
    <rect height="1" transform="rotate(0 0.5 1)" width="1" x="0" y="0.5"/>
    <rect height="1" transform="rotate(1 1.5 1)" width="1" x="1" y="0.5"/>
    <rect height="1" transform="rotate(2 2.5 1)" width="1" x="2" y="0.5"/>
    <rect height="1" transform="rotate(3 3.5 1)" width="1" x="3" y="0.5"/>
    <rect height="1" transform="rotate(5 5.5 1)" width="1" x="5" y="0.5"/>
    <rect height="1" transform="rotate(6 6.5 1)" width="1" x="6" y="0.5"/>
    <rect height="1" transform="rotate(7 7.5 1)" width="1" x="7" y="0.5"/>
    <rect height="1" transform="rotate(8 8.5 1)" width="1" x="8" y="0.5"/>
    <rect height="1" transform="rotate(9 9.5 1)" width="1" x="9" y="0.5"/>
    <rect height="1" transform="rotate(10 10.5 1)" width="1" x="10" y="0.5"/>
    <rect height="1" transform="rotate(11 11.5 1)" width="1" x="11" y="0.5"/>
    <rect height="1" transform="rotate(12 12.5 1)" width="1" x="12" y="0.5"/>
    <rect height="1" transform="rotate(14 14.5 1)" width="1" x="14" y="0.5"/>
    <rect height="1" transform="rotate(15 15.5 1)" width="1" x="15" y="0.5"/>
    <rect height="1" transform="rotate(16 16.5 1)" width="1" x="16" y="0.5"/>
    <rect height="1" transform="rotate(17 17.5 1)" width="1" x="17" y="0.5"/>
    <rect height="1" transform="rotate(18 18.5 1)" width="1" x="18" y="0.5"/>
    <rect height="1" transform="rotate(19 19.5 1)" width="1" x="19" y="0.5"/>
    <rect height="1" transform="rotate(20 20.5 1)" width="1" x="20" y="0.5"/>
    <rect height="1" transform="rotate(21 21.5 1)" width="1" x="21" y="0.5"/>
    <rect height="1" transform="rotate(22 22.5 1)" width="1" x="22" y="0.5"/>
    <rect height="1" transform="rotate(24 24.5 1)" width="1" x="24" y="0.5"/>
    <rect height="1" transform="rotate(25 25.5 1)" width="1" x="25" y="0.5"/>
    <rect height="1" transform="rotate(27 27.5 1)" width="1" x="27" y="0.5"/>
    <rect height="1" transform="rotate(28 28.5 1)" width="1" x="28" y="0.5"/>
    <rect height="1" transform="rotate(29 29.5 1)" width="1" x="29" y="0.5"/>
    <rect height="1" transform="rotate(30 30.5 1)" width="1" x="30" y="0.5"/>
    <rect height="1" transform="rotate(31 31.5 1)" width="1" x="31" y="0.5"/>
    <rect height="1" transform="rotate(32 32.5 1)" width="1" x="32" y="0.5"/>
    <rect height="1" transform="rotate(33 33.5 1)" width="1" x="33" y="0.5"/>
  </g>
  <g fill="#222" font-family="sans-serif" font-size="0.67" text-anchor="middle">
    <text alignment-baseline="middle" x="0.5" y="1">I</text>
    <text alignment-baseline="middle" x="1.5" y="1">T</text>
    <text alignment-baseline="middle" x="2.5" y="1">'</text>
    <text alignment-baseline="middle" x="3.5" y="1">S</text>
    <text alignment-baseline="middle" x="4.5" y="1"> </text>
    <text alignment-baseline="middle" x="5.5" y="1">T</text>
    <text alignment-baseline="middle" x="6.5" y="1">H</text>
    <text alignment-baseline="middle" x="7.5" y="1">U</text>
    <text alignment-baseline="middle" x="8.5" y="1">R</text>
    <text alignment-baseline="middle" x="9.5" y="1">S</text>
    <text alignment-baseline="middle" x="10.5" y="1">D</text>
    <text alignment-baseline="middle" x="11.5" y="1">A</text>
    <text alignment-baseline="middle" x="12.5" y="1">Y</text>
    <text alignment-baseline="middle" x="13.5" y="1"> </text>
    <text alignment-baseline="middle" x="14.5" y="1">A</text>
    <text alignment-baseline="middle" x="15.5" y="1">F</text>
    <text alignment-baseline="middle" x="16.5" y="1">T</text>
    <text alignment-baseline="middle" x="17.5" y="1">E</text>
    <text alignment-baseline="middle" x="18.5" y="1">R</text>
    <text alignment-baseline="middle" x="19.5" y="1">N</text>
    <text alignment-baseline="middle" x="20.5" y="1">O</text>
    <text alignment-baseline="middle" x="21.5" y="1">O</text>
    <text alignment-baseline="middle" x="22.5" y="1">N</text>
    <text alignment-baseline="middle" x="23.5" y="1"> </text>
    <text alignment-baseline="middle" x="24.5" y="1">I</text>
    <text alignment-baseline="middle" x="25.5" y="1">N</text>
    <text alignment-baseline="middle" x="26.5" y="1"> </text>
    <text alignment-baseline="middle" x="27.5" y="1">C</text>
    <text alignment-baseline="middle" x="28.5" y="1">H</text>
    <text alignment-baseline="middle" x="29.5" y="1">I</text>
    <text alignment-baseline="middle" x="30.5" y="1">C</text>
    <text alignment-baseline="middle" x="31.5" y="1">A</text>
    <text alignment-baseline="middle" x="32.5" y="1">G</text>
    <text alignment-baseline="middle" x="33.5" y="1">O</text>
  </g>
  <g fill="none" stroke="#222" stroke-opacity="1" stroke-width="0.05">
    <rect height="1" transform="rotate(0.0 0.5 1)" width="1" x="0" y="0.5"/>
    <rect height="1" transform="rotate(1.947919149634098 1.5 1)" width="1" x="1" y="0.5"/>
    <rect height="1" transform="rotate(2.548129410669394 2.5 1)" width="1" x="2" y="0.5"/>
    <rect height="1" transform="rotate(5.250968847443028 3.5 1)" width="1" x="3" y="0.5"/>
    <rect height="1" transform="rotate(7.477729314757131 5.5 1)" width="1" x="5" y="0.5"/>
    <rect height="1" transform="rotate(9.433480076645626 6.5 1)" width="1" x="6" y="0.5"/>
    <rect height="1" transform="rotate(10.099715126365004 7.5 1)" width="1" x="7" y="0.5"/>
    <rect height="1" transform="rotate(14.919044445148765 8.5 1)" width="1" x="8" y="0.5"/>
    <rect height="1" transform="rotate(15.34189249554025 9.5 1)" width="1" x="9" y="0.5"/>
    <rect height="1" transform="rotate(12.700710672404865 10.5 1)" width="1" x="10" y="0.5"/>
    <rect height="1" transform="rotate(14.708321007299192 11.5 1)" width="1" x="11" y="0.5"/>
    <rect height="1" transform="rotate(22.815274498649458 12.5 1)" width="1" x="12" y="0.5"/>
    <rect height="1" transform="rotate(19.340954337214903 14.5 1)" width="1" x="14" y="0.5"/>
    <rect height="1" transform="rotate(27.8971092987857 15.5 1)" width="1" x="15" y="0.5"/>
    <rect height="1" transform="rotate(20.9027243072457 16.5 1)" width="1" x="16" y="0.5"/>
    <rect height="1" transform="rotate(25.82082976806411 17.5 1)" width="1" x="17" y="0.5"/>
    <rect height="1" transform="rotate(20.353061262820564 18.5 1)" width="1" x="18" y="0.5"/>
    <rect height="1" transform="rotate(27.287904753551455 19.5 1)" width="1" x="19" y="0.5"/>
    <rect height="1" transform="rotate(27.423027075128825 20.5 1)" width="1" x="20" y="0.5"/>
    <rect height="1" transform="rotate(29.902286748480137 21.5 1)" width="1" x="21" y="0.5"/>
    <rect height="1" transform="rotate(43.71811004172848 22.5 1)" width="1" x="22" y="0.5"/>
    <rect height="1" transform="rotate(26.223650194818205 24.5 1)" width="1" x="24" y="0.5"/>
    <rect height="1" transform="rotate(40.78208291780192 25.5 1)" width="1" x="25" y="0.5"/>
    <rect height="1" transform="rotate(47.1481732834591 27.5 1)" width="1" x="27" y="0.5"/>
    <rect height="1" transform="rotate(52.3353780892841 28.5 1)" width="1" x="28" y="0.5"/>
    <rect height="1" transform="rotate(29.38540510582705 29.5 1)" width="1" x="29" y="0.5"/>
    <rect height="1" transform="rotate(35.41089113241334 30.5 1)" width="1" x="30" y="0.5"/>
    <rect height="1" transform="rotate(31.46630324489341 31.5 1)" width="1" x="31" y="0.5"/>
    <rect height="1" transform="rotate(44.96945659209413 32.5 1)" width="1" x="32" y="0.5"/>
    <rect height="1" transform="rotate(33.23191018107686 33.5 1)" width="1" x="33" y="0.5"/>
  </g>
</svg>
