<?xml version="1.0" encoding="utf-8" ?>
<svg xmlns="http://www.w3.org/2000/svg" xmlns:ev="http://www.w3.org/2001/xml-events" xmlns:xlink="http://www.w3.org/1999/xlink" baseProfile="full" height="100%" version="1.1" viewBox="-1 0 32 2" width="100%">
  <defs/>
  <rect fill="#111" height="2" width="32" x="-1" y="0"/>
  <g fill="#a10045" stroke="#eee" stroke-opacity="1" stroke-width="0.05">
    <rect height="1" transform="rotate(0 0.5 1)" width="1" x="0" y="0.5"/>
    <rect height="1" transform="rotate(1 1.5 1)" width="1" x="1" y="0.5"/>
    <rect height="1" transform="rotate(2 2.5 1)" width="1" x="2" y="0.5"/>
    <rect height="1" transform="rotate(3 3.5 1)" width="1" x="3" y="0.5"/>
    <rect height="1" transform="rotate(5 5.5 1)" width="1" x="5" y="0.5"/>
    <rect height="1" transform="rotate(6 6.5 1)" width="1" x="6" y="0.5"/>
    <rect height="1" transform="rotate(7 7.5 1)" width="1" x="7" y="0.5"/>
    <rect height="1" transform="rotate(8 8.5 1)" width="1" x="8" y="0.5"/>
    <rect height="1" transform="rotate(9 9.5 1)" width="1" x="9" y="0.5"/>
    <rect height="1" transform="rotate(10 10.5 1)" width="1" x="10" y="0.5"/>
    <rect height="1" transform="rotate(11 11.5 1)" width="1" x="11" y="0.5"/>
    <rect height="1" transform="rotate(12 12.5 1)" width="1" x="12" y="0.5"/>
    <rect height="1" transform="rotate(14 14.5 1)" width="1" x="14" y="0.5"/>
    <rect height="1" transform="rotate(15 15.5 1)" width="1" x="15" y="0.5"/>
    <rect height="1" transform="rotate(16 16.5 1)" width="1" x="16" y="0.5"/>
    <rect height="1" transform="rotate(17 17.5 1)" width="1" x="17" y="0.5"/>
    <rect height="1" transform="rotate(18 18.5 1)" width="1" x="18" y="0.5"/>
    <rect height="1" transform="rotate(20 20.5 1)" width="1" x="20" y="0.5"/>
    <rect height="1" transform="rotate(21 21.5 1)" width="1" x="21" y="0.5"/>
    <rect height="1" transform="rotate(23 23.5 1)" width="1" x="23" y="0.5"/>
    <rect height="1" transform="rotate(24 24.5 1)" width="1" x="24" y="0.5"/>
    <rect height="1" transform="rotate(25 25.5 1)" width="1" x="25" y="0.5"/>
    <rect height="1" transform="rotate(26 26.5 1)" width="1" x="26" y="0.5"/>
    <rect height="1" transform="rotate(27 27.5 1)" width="1" x="27" y="0.5"/>
    <rect height="1" transform="rotate(28 28.5 1)" width="1" x="28" y="0.5"/>
    <rect height="1" transform="rotate(29 29.5 1)" width="1" x="29" y="0.5"/>
  </g>
  <g fill="#eee" font-family="sans-serif" font-size="0.67" text-anchor="middle">
    <text alignment-baseline="middle" x="0.5" y="1">I</text>
    <text alignment-baseline="middle" x="1.5" y="1">T</text>
    <text alignment-baseline="middle" x="2.5" y="1">'</text>
    <text alignment-baseline="middle" x="3.5" y="1">S</text>
    <text alignment-baseline="middle" x="4.5" y="1"> </text>
    <text alignment-baseline="middle" x="5.5" y="1">S</text>
    <text alignment-baseline="middle" x="6.5" y="1">A</text>
    <text alignment-baseline="middle" x="7.5" y="1">T</text>
    <text alignment-baseline="middle" x="8.5" y="1">U</text>
    <text alignment-baseline="middle" x="9.5" y="1">R</text>
    <text alignment-baseline="middle" x="10.5" y="1">D</text>
    <text alignment-baseline="middle" x="11.5" y="1">A</text>
    <text alignment-baseline="middle" x="12.5" y="1">Y</text>
    <text alignment-baseline="middle" x="13.5" y="1"> </text>
    <text alignment-baseline="middle" x="14.5" y="1">N</text>
    <text alignment-baseline="middle" x="15.5" y="1">I</text>
    <text alignment-baseline="middle" x="16.5" y="1">G</text>
    <text alignment-baseline="middle" x="17.5" y="1">H</text>
    <text alignment-baseline="middle" x="18.5" y="1">T</text>
    <text alignment-baseline="middle" x="19.5" y="1"> </text>
    <text alignment-baseline="middle" x="20.5" y="1">I</text>
    <text alignment-baseline="middle" x="21.5" y="1">N</text>
    <text alignment-baseline="middle" x="22.5" y="1"> </text>
    <text alignment-baseline="middle" x="23.5" y="1">C</text>
    <text alignment-baseline="middle" x="24.5" y="1">H</text>
    <text alignment-baseline="middle" x="25.5" y="1">I</text>
    <text alignment-baseline="middle" x="26.5" y="1">C</text>
    <text alignment-baseline="middle" x="27.5" y="1">A</text>
    <text alignment-baseline="middle" x="28.5" y="1">G</text>
    <text alignment-baseline="middle" x="29.5" y="1">O</text>
  </g>
  <g fill="none" stroke="#eee" stroke-opacity="1" stroke-width="0.05">
    <rect height="1" transform="rotate(0.0 0.5 1)" width="1" x="0" y="0.5"/>
    <rect height="1" transform="rotate(1.0305393660143851 1.5 1)" width="1" x="1" y="0.5"/>
    <rect height="1" transform="rotate(3.4092476608745814 2.5 1)" width="1" x="2" y="0.5"/>
    <rect height="1" transform="rotate(3.5623951153845406 3.5 1)" width="1" x="3" y="0.5"/>
    <rect height="1" transform="rotate(7.904150290802507 5.5 1)" width="1" x="5" y="0.5"/>
    <rect height="1" transform="rotate(7.736021185616608 6.5 1)" width="1" x="6" y="0.5"/>
    <rect height="1" transform="rotate(10.059096676829693 7.5 1)" width="1" x="7" y="0.5"/>
    <rect height="1" transform="rotate(13.85643076902818 8.5 1)" width="1" x="8" y="0.5"/>
    <rect height="1" transform="rotate(15.863927087504626 9.5 1)" width="1" x="9" y="0.5"/>
    <rect height="1" transform="rotate(12.489878942350185 10.5 1)" width="1" x="10" y="0.5"/>
    <rect height="1" transform="rotate(11.714882612053128 11.5 1)" width="1" x="11" y="0.5"/>
    <rect height="1" transform="rotate(18.95524742036262 12.5 1)" width="1" x="12" y="0.5"/>
    <rect height="1" transform="rotate(27.93669631715679 14.5 1)" width="1" x="14" y="0.5"/>
    <rect height="1" transform="rotate(20.916788713539486 15.5 1)" width="1" x="15" y="0.5"/>
    <rect height="1" transform="rotate(30.516314999869078 16.5 1)" width="1" x="16" y="0.5"/>
    <rect height="1" transform="rotate(27.987933145237964 17.5 1)" width="1" x="17" y="0.5"/>
    <rect height="1" transform="rotate(30.676404273383834 18.5 1)" width="1" x="18" y="0.5"/>
    <rect height="1" transform="rotate(33.11662307029036 20.5 1)" width="1" x="20" y="0.5"/>
    <rect height="1" transform="rotate(25.370844908232364 21.5 1)" width="1" x="21" y="0.5"/>
    <rect height="1" transform="rotate(45.00508952880332 23.5 1)" width="1" x="23" y="0.5"/>
    <rect height="1" transform="rotate(28.987122522755886 24.5 1)" width="1" x="24" y="0.5"/>
    <rect height="1" transform="rotate(26.584952148466247 25.5 1)" width="1" x="25" y="0.5"/>
    <rect height="1" transform="rotate(30.236866831001155 26.5 1)" width="1" x="26" y="0.5"/>
    <rect height="1" transform="rotate(46.287396580936694 27.5 1)" width="1" x="27" y="0.5"/>
    <rect height="1" transform="rotate(55.44299594465856 28.5 1)" width="1" x="28" y="0.5"/>
    <rect height="1" transform="rotate(50.34050826895452 29.5 1)" width="1" x="29" y="0.5"/>
  </g>
</svg>
