<?xml version="1.0" encoding="utf-8" ?>
<svg xmlns="http://www.w3.org/2000/svg" xmlns:ev="http://www.w3.org/2001/xml-events" xmlns:xlink="http://www.w3.org/1999/xlink" baseProfile="full" height="100%" version="1.1" viewBox="-1 0 34 2" width="100%">
  <defs/>
  <rect fill="#eee" height="2" width="34" x="-1" y="0"/>
  <g fill="#80ffcc" stroke="#222" stroke-opacity="1" stroke-width="0.05">
    <rect height="1" transform="rotate(0 0.5 1)" width="1" x="0" y="0.5"/>
    <rect height="1" transform="rotate(1 1.5 1)" width="1" x="1" y="0.5"/>
    <rect height="1" transform="rotate(2 2.5 1)" width="1" x="2" y="0.5"/>
    <rect height="1" transform="rotate(3 3.5 1)" width="1" x="3" y="0.5"/>
    <rect height="1" transform="rotate(5 5.5 1)" width="1" x="5" y="0.5"/>
    <rect height="1" transform="rotate(6 6.5 1)" width="1" x="6" y="0.5"/>
    <rect height="1" transform="rotate(7 7.5 1)" width="1" x="7" y="0.5"/>
    <rect height="1" transform="rotate(8 8.5 1)" width="1" x="8" y="0.5"/>
    <rect height="1" transform="rotate(9 9.5 1)" width="1" x="9" y="0.5"/>
    <rect height="1" transform="rotate(10 10.5 1)" width="1" x="10" y="0.5"/>
    <rect height="1" transform="rotate(12 12.5 1)" width="1" x="12" y="0.5"/>
    <rect height="1" transform="rotate(13 13.5 1)" width="1" x="13" y="0.5"/>
    <rect height="1" transform="rotate(14 14.5 1)" width="1" x="14" y="0.5"/>
    <rect height="1" transform="rotate(15 15.5 1)" width="1" x="15" y="0.5"/>
    <rect height="1" transform="rotate(16 16.5 1)" width="1" x="16" y="0.5"/>
    <rect height="1" transform="rotate(17 17.5 1)" width="1" x="17" y="0.5"/>
    <rect height="1" transform="rotate(18 18.5 1)" width="1" x="18" y="0.5"/>
    <rect height="1" transform="rotate(19 19.5 1)" width="1" x="19" y="0.5"/>
    <rect height="1" transform="rotate(20 20.5 1)" width="1" x="20" y="0.5"/>
    <rect height="1" transform="rotate(22 22.5 1)" width="1" x="22" y="0.5"/>
    <rect height="1" transform="rotate(23 23.5 1)" width="1" x="23" y="0.5"/>
    <rect height="1" transform="rotate(25 25.5 1)" width="1" x="25" y="0.5"/>
    <rect height="1" transform="rotate(26 26.5 1)" width="1" x="26" y="0.5"/>
    <rect height="1" transform="rotate(27 27.5 1)" width="1" x="27" y="0.5"/>
    <rect height="1" transform="rotate(28 28.5 1)" width="1" x="28" y="0.5"/>
    <rect height="1" transform="rotate(29 29.5 1)" width="1" x="29" y="0.5"/>
    <rect height="1" transform="rotate(30 30.5 1)" width="1" x="30" y="0.5"/>
    <rect height="1" transform="rotate(31 31.5 1)" width="1" x="31" y="0.5"/>
  </g>
  <g fill="#222" font-family="sans-serif" font-size="0.67" text-anchor="middle">
    <text alignment-baseline="middle" x="0.5" y="1">I</text>
    <text alignment-baseline="middle" x="1.5" y="1">T</text>
    <text alignment-baseline="middle" x="2.5" y="1">'</text>
    <text alignment-baseline="middle" x="3.5" y="1">S</text>
    <text alignment-baseline="middle" x="4.5" y="1"> </text>
    <text alignment-baseline="middle" x="5.5" y="1">S</text>
    <text alignment-baseline="middle" x="6.5" y="1">U</text>
    <text alignment-baseline="middle" x="7.5" y="1">N</text>
    <text alignment-baseline="middle" x="8.5" y="1">D</text>
    <text alignment-baseline="middle" x="9.5" y="1">A</text>
    <text alignment-baseline="middle" x="10.5" y="1">Y</text>
    <text alignment-baseline="middle" x="11.5" y="1"> </text>
    <text alignment-baseline="middle" x="12.5" y="1">A</text>
    <text alignment-baseline="middle" x="13.5" y="1">F</text>
    <text alignment-baseline="middle" x="14.5" y="1">T</text>
    <text alignment-baseline="middle" x="15.5" y="1">E</text>
    <text alignment-baseline="middle" x="16.5" y="1">R</text>
    <text alignment-baseline="middle" x="17.5" y="1">N</text>
    <text alignment-baseline="middle" x="18.5" y="1">O</text>
    <text alignment-baseline="middle" x="19.5" y="1">O</text>
    <text alignment-baseline="middle" x="20.5" y="1">N</text>
    <text alignment-baseline="middle" x="21.5" y="1"> </text>
    <text alignment-baseline="middle" x="22.5" y="1">I</text>
    <text alignment-baseline="middle" x="23.5" y="1">N</text>
    <text alignment-baseline="middle" x="24.5" y="1"> </text>
    <text alignment-baseline="middle" x="25.5" y="1">C</text>
    <text alignment-baseline="middle" x="26.5" y="1">H</text>
    <text alignment-baseline="middle" x="27.5" y="1">I</text>
    <text alignment-baseline="middle" x="28.5" y="1">C</text>
    <text alignment-baseline="middle" x="29.5" y="1">A</text>
    <text alignment-baseline="middle" x="30.5" y="1">G</text>
    <text alignment-baseline="middle" x="31.5" y="1">O</text>
  </g>
  <g fill="none" stroke="#222" stroke-opacity="1" stroke-width="0.05">
    <rect height="1" transform="rotate(0.0 0.5 1)" width="1" x="0" y="0.5"/>
    <rect height="1" transform="rotate(1.1003804540269082 1.5 1)" width="1" x="1" y="0.5"/>
    <rect height="1" transform="rotate(3.1706771607682565 2.5 1)" width="1" x="2" y="0.5"/>
    <rect height="1" transform="rotate(5.679885964423077 3.5 1)" width="1" x="3" y="0.5"/>
    <rect height="1" transform="rotate(9.445951989223701 5.5 1)" width="1" x="5" y="0.5"/>
    <rect height="1" transform="rotate(6.581334892705302 6.5 1)" width="1" x="6" y="0.5"/>
    <rect height="1" transform="rotate(13.71489653246611 7.5 1)" width="1" x="7" y="0.5"/>
    <rect height="1" transform="rotate(12.091368387192048 8.5 1)" width="1" x="8" y="0.5"/>
    <rect height="1" transform="rotate(12.299510196394447 9.5 1)" width="1" x="9" y="0.5"/>
    <rect height="1" transform="rotate(18.249804912278726 10.5 1)" width="1" x="10" y="0.5"/>
    <rect height="1" transform="rotate(19.248350332590615 12.5 1)" width="1" x="12" y="0.5"/>
    <rect height="1" transform="rotate(14.07486263748418 13.5 1)" width="1" x="13" y="0.5"/>
    <rect height="1" transform="rotate(23.6489566108857 14.5 1)" width="1" x="14" y="0.5"/>
    <rect height="1" transform="rotate(19.279125272025897 15.5 1)" width="1" x="15" y="0.5"/>
    <rect height="1" transform="rotate(29.19991496144625 16.5 1)" width="1" x="16" y="0.5"/>
    <rect height="1" transform="rotate(30.849586782088213 17.5 1)" width="1" x="17" y="0.5"/>
    <rect height="1" transform="rotate(30.113914094585787 18.5 1)" width="1" x="18" y="0.5"/>
    <rect height="1" transform="rotate(22.98559605010861 19.5 1)" width="1" x="19" y="0.5"/>
    <rect height="1" transform="rotate(27.15720863417303 20.5 1)" width="1" x="20" y="0.5"/>
    <rect height="1" transform="rotate(33.89143661346722 22.5 1)" width="1" x="22" y="0.5"/>
    <rect height="1" transform="rotate(23.022200798946546 23.5 1)" width="1" x="23" y="0.5"/>
    <rect height="1" transform="rotate(49.484872801372084 25.5 1)" width="1" x="25" y="0.5"/>
    <rect height="1" transform="rotate(49.63322476698502 26.5 1)" width="1" x="26" y="0.5"/>
    <rect height="1" transform="rotate(33.696166077655995 27.5 1)" width="1" x="27" y="0.5"/>
    <rect height="1" transform="rotate(39.9801334724631 28.5 1)" width="1" x="28" y="0.5"/>
    <rect height="1" transform="rotate(38.348592028315544 29.5 1)" width="1" x="29" y="0.5"/>
    <rect height="1" transform="rotate(40.082473496716084 30.5 1)" width="1" x="30" y="0.5"/>
    <rect height="1" transform="rotate(61.62749255187874 31.5 1)" width="1" x="31" y="0.5"/>
  </g>
</svg>
