<?xml version="1.0" encoding="utf-8" ?>
<svg xmlns="http://www.w3.org/2000/svg" xmlns:ev="http://www.w3.org/2001/xml-events" xmlns:xlink="http://www.w3.org/1999/xlink" baseProfile="full" height="100%" version="1.1" viewBox="-1 0 33 2" width="100%">
  <defs/>
  <rect fill="#eee" height="2" width="33" x="-1" y="0"/>
  <g fill="#9cb29e" stroke="#000" stroke-opacity="1" stroke-width="0.05">
    <rect height="1" transform="rotate(0 0.5 1)" width="1" x="0" y="0.5"/>
    <rect height="1" transform="rotate(1 1.5 1)" width="1" x="1" y="0.5"/>
    <rect height="1" transform="rotate(2 2.5 1)" width="1" x="2" y="0.5"/>
    <rect height="1" transform="rotate(3 3.5 1)" width="1" x="3" y="0.5"/>
    <rect height="1" transform="rotate(5 5.5 1)" width="1" x="5" y="0.5"/>
    <rect height="1" transform="rotate(6 6.5 1)" width="1" x="6" y="0.5"/>
    <rect height="1" transform="rotate(7 7.5 1)" width="1" x="7" y="0.5"/>
    <rect height="1" transform="rotate(8 8.5 1)" width="1" x="8" y="0.5"/>
    <rect height="1" transform="rotate(9 9.5 1)" width="1" x="9" y="0.5"/>
    <rect height="1" transform="rotate(10 10.5 1)" width="1" x="10" y="0.5"/>
    <rect height="1" transform="rotate(11 11.5 1)" width="1" x="11" y="0.5"/>
    <rect height="1" transform="rotate(13 13.5 1)" width="1" x="13" y="0.5"/>
    <rect height="1" transform="rotate(14 14.5 1)" width="1" x="14" y="0.5"/>
    <rect height="1" transform="rotate(15 15.5 1)" width="1" x="15" y="0.5"/>
    <rect height="1" transform="rotate(16 16.5 1)" width="1" x="16" y="0.5"/>
    <rect height="1" transform="rotate(17 17.5 1)" width="1" x="17" y="0.5"/>
    <rect height="1" transform="rotate(18 18.5 1)" width="1" x="18" y="0.5"/>
    <rect height="1" transform="rotate(19 19.5 1)" width="1" x="19" y="0.5"/>
    <rect height="1" transform="rotate(21 21.5 1)" width="1" x="21" y="0.5"/>
    <rect height="1" transform="rotate(22 22.5 1)" width="1" x="22" y="0.5"/>
    <rect height="1" transform="rotate(24 24.5 1)" width="1" x="24" y="0.5"/>
    <rect height="1" transform="rotate(25 25.5 1)" width="1" x="25" y="0.5"/>
    <rect height="1" transform="rotate(26 26.5 1)" width="1" x="26" y="0.5"/>
    <rect height="1" transform="rotate(27 27.5 1)" width="1" x="27" y="0.5"/>
    <rect height="1" transform="rotate(28 28.5 1)" width="1" x="28" y="0.5"/>
    <rect height="1" transform="rotate(29 29.5 1)" width="1" x="29" y="0.5"/>
    <rect height="1" transform="rotate(30 30.5 1)" width="1" x="30" y="0.5"/>
  </g>
  <g fill="#000" font-family="sans-serif" font-size="0.67" text-anchor="middle">
    <text alignment-baseline="middle" x="0.5" y="1">I</text>
    <text alignment-baseline="middle" x="1.5" y="1">T</text>
    <text alignment-baseline="middle" x="2.5" y="1">'</text>
    <text alignment-baseline="middle" x="3.5" y="1">S</text>
    <text alignment-baseline="middle" x="4.5" y="1"> </text>
    <text alignment-baseline="middle" x="5.5" y="1">T</text>
    <text alignment-baseline="middle" x="6.5" y="1">U</text>
    <text alignment-baseline="middle" x="7.5" y="1">E</text>
    <text alignment-baseline="middle" x="8.5" y="1">S</text>
    <text alignment-baseline="middle" x="9.5" y="1">D</text>
    <text alignment-baseline="middle" x="10.5" y="1">A</text>
    <text alignment-baseline="middle" x="11.5" y="1">Y</text>
    <text alignment-baseline="middle" x="12.5" y="1"> </text>
    <text alignment-baseline="middle" x="13.5" y="1">E</text>
    <text alignment-baseline="middle" x="14.5" y="1">V</text>
    <text alignment-baseline="middle" x="15.5" y="1">E</text>
    <text alignment-baseline="middle" x="16.5" y="1">N</text>
    <text alignment-baseline="middle" x="17.5" y="1">I</text>
    <text alignment-baseline="middle" x="18.5" y="1">N</text>
    <text alignment-baseline="middle" x="19.5" y="1">G</text>
    <text alignment-baseline="middle" x="20.5" y="1"> </text>
    <text alignment-baseline="middle" x="21.5" y="1">I</text>
    <text alignment-baseline="middle" x="22.5" y="1">N</text>
    <text alignment-baseline="middle" x="23.5" y="1"> </text>
    <text alignment-baseline="middle" x="24.5" y="1">C</text>
    <text alignment-baseline="middle" x="25.5" y="1">H</text>
    <text alignment-baseline="middle" x="26.5" y="1">I</text>
    <text alignment-baseline="middle" x="27.5" y="1">C</text>
    <text alignment-baseline="middle" x="28.5" y="1">A</text>
    <text alignment-baseline="middle" x="29.5" y="1">G</text>
    <text alignment-baseline="middle" x="30.5" y="1">O</text>
  </g>
  <g fill="none" stroke="#000" stroke-opacity="1" stroke-width="0.05">
    <rect height="1" transform="rotate(0.0 0.5 1)" width="1" x="0" y="0.5"/>
    <rect height="1" transform="rotate(1.9699528618972162 1.5 1)" width="1" x="1" y="0.5"/>
    <rect height="1" transform="rotate(2.730585728823434 2.5 1)" width="1" x="2" y="0.5"/>
    <rect height="1" transform="rotate(5.8247939872832415 3.5 1)" width="1" x="3" y="0.5"/>
    <rect height="1" transform="rotate(7.906837484342905 5.5 1)" width="1" x="5" y="0.5"/>
    <rect height="1" transform="rotate(6.750653942615613 6.5 1)" width="1" x="6" y="0.5"/>
    <rect height="1" transform="rotate(7.69107867483176 7.5 1)" width="1" x="7" y="0.5"/>
    <rect height="1" transform="rotate(10.683208282430899 8.5 1)" width="1" x="8" y="0.5"/>
    <rect height="1" transform="rotate(12.805349941159328 9.5 1)" width="1" x="9" y="0.5"/>
    <rect height="1" transform="rotate(17.049931204599076 10.5 1)" width="1" x="10" y="0.5"/>
    <rect height="1" transform="rotate(13.518695522897435 11.5 1)" width="1" x="11" y="0.5"/>
    <rect height="1" transform="rotate(13.575015589305892 13.5 1)" width="1" x="13" y="0.5"/>
    <rect height="1" transform="rotate(14.909739570546973 14.5 1)" width="1" x="14" y="0.5"/>
    <rect height="1" transform="rotate(16.212399971353012 15.5 1)" width="1" x="15" y="0.5"/>
    <rect height="1" transform="rotate(19.40546486820371 16.5 1)" width="1" x="16" y="0.5"/>
    <rect height="1" transform="rotate(33.40847833983932 17.5 1)" width="1" x="17" y="0.5"/>
    <rect height="1" transform="rotate(31.810459380482506 18.5 1)" width="1" x="18" y="0.5"/>
    <rect height="1" transform="rotate(36.250976233388585 19.5 1)" width="1" x="19" y="0.5"/>
    <rect height="1" transform="rotate(31.78209223672263 21.5 1)" width="1" x="21" y="0.5"/>
    <rect height="1" transform="rotate(40.11460494343287 22.5 1)" width="1" x="22" y="0.5"/>
    <rect height="1" transform="rotate(36.20655409477577 24.5 1)" width="1" x="24" y="0.5"/>
    <rect height="1" transform="rotate(47.019508857484084 25.5 1)" width="1" x="25" y="0.5"/>
    <rect height="1" transform="rotate(39.74957812088086 26.5 1)" width="1" x="26" y="0.5"/>
    <rect height="1" transform="rotate(36.43080668161123 27.5 1)" width="1" x="27" y="0.5"/>
    <rect height="1" transform="rotate(47.81500728905139 28.5 1)" width="1" x="28" y="0.5"/>
    <rect height="1" transform="rotate(49.74961717003865 29.5 1)" width="1" x="29" y="0.5"/>
    <rect height="1" transform="rotate(55.569213140182384 30.5 1)" width="1" x="30" y="0.5"/>
  </g>
</svg>
