<?xml version="1.0" encoding="utf-8" ?>
<svg xmlns="http://www.w3.org/2000/svg" xmlns:ev="http://www.w3.org/2001/xml-events" xmlns:xlink="http://www.w3.org/1999/xlink" baseProfile="full" height="100%" version="1.1" viewBox="-1 0 35 2" width="100%">
  <defs/>
  <rect fill="#eee" height="2" width="35" x="-1" y="0"/>
  <g fill="#80ffcc" stroke="#222" stroke-opacity="1" stroke-width="0.05">
    <rect height="1" transform="rotate(0 0.5 1)" width="1" x="0" y="0.5"/>
    <rect height="1" transform="rotate(1 1.5 1)" width="1" x="1" y="0.5"/>
    <rect height="1" transform="rotate(2 2.5 1)" width="1" x="2" y="0.5"/>
    <rect height="1" transform="rotate(3 3.5 1)" width="1" x="3" y="0.5"/>
    <rect height="1" transform="rotate(5 5.5 1)" width="1" x="5" y="0.5"/>
    <rect height="1" transform="rotate(6 6.5 1)" width="1" x="6" y="0.5"/>
    <rect height="1" transform="rotate(7 7.5 1)" width="1" x="7" y="0.5"/>
    <rect height="1" transform="rotate(8 8.5 1)" width="1" x="8" y="0.5"/>
    <rect height="1" transform="rotate(9 9.5 1)" width="1" x="9" y="0.5"/>
    <rect height="1" transform="rotate(10 10.5 1)" width="1" x="10" y="0.5"/>
    <rect height="1" transform="rotate(11 11.5 1)" width="1" x="11" y="0.5"/>
    <rect height="1" transform="rotate(13 13.5 1)" width="1" x="13" y="0.5"/>
    <rect height="1" transform="rotate(14 14.5 1)" width="1" x="14" y="0.5"/>
    <rect height="1" transform="rotate(15 15.5 1)" width="1" x="15" y="0.5"/>
    <rect height="1" transform="rotate(16 16.5 1)" width="1" x="16" y="0.5"/>
    <rect height="1" transform="rotate(17 17.5 1)" width="1" x="17" y="0.5"/>
    <rect height="1" transform="rotate(18 18.5 1)" width="1" x="18" y="0.5"/>
    <rect height="1" transform="rotate(19 19.5 1)" width="1" x="19" y="0.5"/>
    <rect height="1" transform="rotate(20 20.5 1)" width="1" x="20" y="0.5"/>
    <rect height="1" transform="rotate(21 21.5 1)" width="1" x="21" y="0.5"/>
    <rect height="1" transform="rotate(23 23.5 1)" width="1" x="23" y="0.5"/>
    <rect height="1" transform="rotate(24 24.5 1)" width="1" x="24" y="0.5"/>
    <rect height="1" transform="rotate(26 26.5 1)" width="1" x="26" y="0.5"/>
    <rect height="1" transform="rotate(27 27.5 1)" width="1" x="27" y="0.5"/>
    <rect height="1" transform="rotate(28 28.5 1)" width="1" x="28" y="0.5"/>
    <rect height="1" transform="rotate(29 29.5 1)" width="1" x="29" y="0.5"/>
    <rect height="1" transform="rotate(30 30.5 1)" width="1" x="30" y="0.5"/>
    <rect height="1" transform="rotate(31 31.5 1)" width="1" x="31" y="0.5"/>
    <rect height="1" transform="rotate(32 32.5 1)" width="1" x="32" y="0.5"/>
  </g>
  <g fill="#222" font-family="sans-serif" font-size="0.67" text-anchor="middle">
    <text alignment-baseline="middle" x="0.5" y="1">I</text>
    <text alignment-baseline="middle" x="1.5" y="1">T</text>
    <text alignment-baseline="middle" x="2.5" y="1">'</text>
    <text alignment-baseline="middle" x="3.5" y="1">S</text>
    <text alignment-baseline="middle" x="4.5" y="1"> </text>
    <text alignment-baseline="middle" x="5.5" y="1">T</text>
    <text alignment-baseline="middle" x="6.5" y="1">U</text>
    <text alignment-baseline="middle" x="7.5" y="1">E</text>
    <text alignment-baseline="middle" x="8.5" y="1">S</text>
    <text alignment-baseline="middle" x="9.5" y="1">D</text>
    <text alignment-baseline="middle" x="10.5" y="1">A</text>
    <text alignment-baseline="middle" x="11.5" y="1">Y</text>
    <text alignment-baseline="middle" x="12.5" y="1"> </text>
    <text alignment-baseline="middle" x="13.5" y="1">A</text>
    <text alignment-baseline="middle" x="14.5" y="1">F</text>
    <text alignment-baseline="middle" x="15.5" y="1">T</text>
    <text alignment-baseline="middle" x="16.5" y="1">E</text>
    <text alignment-baseline="middle" x="17.5" y="1">R</text>
    <text alignment-baseline="middle" x="18.5" y="1">N</text>
    <text alignment-baseline="middle" x="19.5" y="1">O</text>
    <text alignment-baseline="middle" x="20.5" y="1">O</text>
    <text alignment-baseline="middle" x="21.5" y="1">N</text>
    <text alignment-baseline="middle" x="22.5" y="1"> </text>
    <text alignment-baseline="middle" x="23.5" y="1">I</text>
    <text alignment-baseline="middle" x="24.5" y="1">N</text>
    <text alignment-baseline="middle" x="25.5" y="1"> </text>
    <text alignment-baseline="middle" x="26.5" y="1">C</text>
    <text alignment-baseline="middle" x="27.5" y="1">H</text>
    <text alignment-baseline="middle" x="28.5" y="1">I</text>
    <text alignment-baseline="middle" x="29.5" y="1">C</text>
    <text alignment-baseline="middle" x="30.5" y="1">A</text>
    <text alignment-baseline="middle" x="31.5" y="1">G</text>
    <text alignment-baseline="middle" x="32.5" y="1">O</text>
  </g>
  <g fill="none" stroke="#222" stroke-opacity="1" stroke-width="0.05">
    <rect height="1" transform="rotate(0.0 0.5 1)" width="1" x="0" y="0.5"/>
    <rect height="1" transform="rotate(1.3962616337193325 1.5 1)" width="1" x="1" y="0.5"/>
    <rect height="1" transform="rotate(2.0744653130952195 2.5 1)" width="1" x="2" y="0.5"/>
    <rect height="1" transform="rotate(3.2325258443387095 3.5 1)" width="1" x="3" y="0.5"/>
    <rect height="1" transform="rotate(6.580494369358965 5.5 1)" width="1" x="5" y="0.5"/>
    <rect height="1" transform="rotate(9.427402352985782 6.5 1)" width="1" x="6" y="0.5"/>
    <rect height="1" transform="rotate(9.294511312301195 7.5 1)" width="1" x="7" y="0.5"/>
    <rect height="1" transform="rotate(14.854832492499831 8.5 1)" width="1" x="8" y="0.5"/>
    <rect height="1" transform="rotate(17.516645489178433 9.5 1)" width="1" x="9" y="0.5"/>
    <rect height="1" transform="rotate(11.502205945713214 10.5 1)" width="1" x="10" y="0.5"/>
    <rect height="1" transform="rotate(19.285236650182988 11.5 1)" width="1" x="11" y="0.5"/>
    <rect height="1" transform="rotate(21.394876276271923 13.5 1)" width="1" x="13" y="0.5"/>
    <rect height="1" transform="rotate(26.487389096007558 14.5 1)" width="1" x="14" y="0.5"/>
    <rect height="1" transform="rotate(26.273167623828474 15.5 1)" width="1" x="15" y="0.5"/>
    <rect height="1" transform="rotate(18.868122870505456 16.5 1)" width="1" x="16" y="0.5"/>
    <rect height="1" transform="rotate(24.82204384862964 17.5 1)" width="1" x="17" y="0.5"/>
    <rect height="1" transform="rotate(23.69282955266966 18.5 1)" width="1" x="18" y="0.5"/>
    <rect height="1" transform="rotate(31.461067561139604 19.5 1)" width="1" x="19" y="0.5"/>
    <rect height="1" transform="rotate(36.53420884240813 20.5 1)" width="1" x="20" y="0.5"/>
    <rect height="1" transform="rotate(32.84979430654895 21.5 1)" width="1" x="21" y="0.5"/>
    <rect height="1" transform="rotate(32.97058803094427 23.5 1)" width="1" x="23" y="0.5"/>
    <rect height="1" transform="rotate(29.504249293081198 24.5 1)" width="1" x="24" y="0.5"/>
    <rect height="1" transform="rotate(45.65185500571755 26.5 1)" width="1" x="26" y="0.5"/>
    <rect height="1" transform="rotate(53.07011775122249 27.5 1)" width="1" x="27" y="0.5"/>
    <rect height="1" transform="rotate(53.19238051085962 28.5 1)" width="1" x="28" y="0.5"/>
    <rect height="1" transform="rotate(51.7702907554113 29.5 1)" width="1" x="29" y="0.5"/>
    <rect height="1" transform="rotate(30.272421135712992 30.5 1)" width="1" x="30" y="0.5"/>
    <rect height="1" transform="rotate(61.96880313652036 31.5 1)" width="1" x="31" y="0.5"/>
    <rect height="1" transform="rotate(62.30605256932209 32.5 1)" width="1" x="32" y="0.5"/>
  </g>
</svg>
