<?xml version="1.0" encoding="utf-8" ?>
<svg xmlns="http://www.w3.org/2000/svg" xmlns:ev="http://www.w3.org/2001/xml-events" xmlns:xlink="http://www.w3.org/1999/xlink" baseProfile="full" height="100%" version="1.1" viewBox="-1 0 30 2" width="100%">
  <defs/>
  <rect fill="#111" height="2" width="30" x="-1" y="0"/>
  <g fill="#a10045" stroke="#eee" stroke-opacity="1" stroke-width="0.05">
    <rect height="1" transform="rotate(0 0.5 1)" width="1" x="0" y="0.5"/>
    <rect height="1" transform="rotate(1 1.5 1)" width="1" x="1" y="0.5"/>
    <rect height="1" transform="rotate(2 2.5 1)" width="1" x="2" y="0.5"/>
    <rect height="1" transform="rotate(3 3.5 1)" width="1" x="3" y="0.5"/>
    <rect height="1" transform="rotate(5 5.5 1)" width="1" x="5" y="0.5"/>
    <rect height="1" transform="rotate(6 6.5 1)" width="1" x="6" y="0.5"/>
    <rect height="1" transform="rotate(7 7.5 1)" width="1" x="7" y="0.5"/>
    <rect height="1" transform="rotate(8 8.5 1)" width="1" x="8" y="0.5"/>
    <rect height="1" transform="rotate(9 9.5 1)" width="1" x="9" y="0.5"/>
    <rect height="1" transform="rotate(10 10.5 1)" width="1" x="10" y="0.5"/>
    <rect height="1" transform="rotate(12 12.5 1)" width="1" x="12" y="0.5"/>
    <rect height="1" transform="rotate(13 13.5 1)" width="1" x="13" y="0.5"/>
    <rect height="1" transform="rotate(14 14.5 1)" width="1" x="14" y="0.5"/>
    <rect height="1" transform="rotate(15 15.5 1)" width="1" x="15" y="0.5"/>
    <rect height="1" transform="rotate(16 16.5 1)" width="1" x="16" y="0.5"/>
    <rect height="1" transform="rotate(18 18.5 1)" width="1" x="18" y="0.5"/>
    <rect height="1" transform="rotate(19 19.5 1)" width="1" x="19" y="0.5"/>
    <rect height="1" transform="rotate(21 21.5 1)" width="1" x="21" y="0.5"/>
    <rect height="1" transform="rotate(22 22.5 1)" width="1" x="22" y="0.5"/>
    <rect height="1" transform="rotate(23 23.5 1)" width="1" x="23" y="0.5"/>
    <rect height="1" transform="rotate(24 24.5 1)" width="1" x="24" y="0.5"/>
    <rect height="1" transform="rotate(25 25.5 1)" width="1" x="25" y="0.5"/>
    <rect height="1" transform="rotate(26 26.5 1)" width="1" x="26" y="0.5"/>
    <rect height="1" transform="rotate(27 27.5 1)" width="1" x="27" y="0.5"/>
  </g>
  <g fill="#eee" font-family="sans-serif" font-size="0.67" text-anchor="middle">
    <text alignment-baseline="middle" x="0.5" y="1">I</text>
    <text alignment-baseline="middle" x="1.5" y="1">T</text>
    <text alignment-baseline="middle" x="2.5" y="1">'</text>
    <text alignment-baseline="middle" x="3.5" y="1">S</text>
    <text alignment-baseline="middle" x="4.5" y="1"> </text>
    <text alignment-baseline="middle" x="5.5" y="1">S</text>
    <text alignment-baseline="middle" x="6.5" y="1">U</text>
    <text alignment-baseline="middle" x="7.5" y="1">N</text>
    <text alignment-baseline="middle" x="8.5" y="1">D</text>
    <text alignment-baseline="middle" x="9.5" y="1">A</text>
    <text alignment-baseline="middle" x="10.5" y="1">Y</text>
    <text alignment-baseline="middle" x="11.5" y="1"> </text>
    <text alignment-baseline="middle" x="12.5" y="1">N</text>
    <text alignment-baseline="middle" x="13.5" y="1">I</text>
    <text alignment-baseline="middle" x="14.5" y="1">G</text>
    <text alignment-baseline="middle" x="15.5" y="1">H</text>
    <text alignment-baseline="middle" x="16.5" y="1">T</text>
    <text alignment-baseline="middle" x="17.5" y="1"> </text>
    <text alignment-baseline="middle" x="18.5" y="1">I</text>
    <text alignment-baseline="middle" x="19.5" y="1">N</text>
    <text alignment-baseline="middle" x="20.5" y="1"> </text>
    <text alignment-baseline="middle" x="21.5" y="1">C</text>
    <text alignment-baseline="middle" x="22.5" y="1">H</text>
    <text alignment-baseline="middle" x="23.5" y="1">I</text>
    <text alignment-baseline="middle" x="24.5" y="1">C</text>
    <text alignment-baseline="middle" x="25.5" y="1">A</text>
    <text alignment-baseline="middle" x="26.5" y="1">G</text>
    <text alignment-baseline="middle" x="27.5" y="1">O</text>
  </g>
  <g fill="none" stroke="#eee" stroke-opacity="1" stroke-width="0.05">
    <rect height="1" transform="rotate(0.0 0.5 1)" width="1" x="0" y="0.5"/>
    <rect height="1" transform="rotate(1.2930453339568861 1.5 1)" width="1" x="1" y="0.5"/>
    <rect height="1" transform="rotate(3.0054568668012793 2.5 1)" width="1" x="2" y="0.5"/>
    <rect height="1" transform="rotate(5.154981659473705 3.5 1)" width="1" x="3" y="0.5"/>
    <rect height="1" transform="rotate(5.200470836868911 5.5 1)" width="1" x="5" y="0.5"/>
    <rect height="1" transform="rotate(11.152602141046017 6.5 1)" width="1" x="6" y="0.5"/>
    <rect height="1" transform="rotate(8.97772058298838 7.5 1)" width="1" x="7" y="0.5"/>
    <rect height="1" transform="rotate(8.955140011332897 8.5 1)" width="1" x="8" y="0.5"/>
    <rect height="1" transform="rotate(15.722289688721443 9.5 1)" width="1" x="9" y="0.5"/>
    <rect height="1" transform="rotate(10.711659564126686 10.5 1)" width="1" x="10" y="0.5"/>
    <rect height="1" transform="rotate(23.89845909537305 12.5 1)" width="1" x="12" y="0.5"/>
    <rect height="1" transform="rotate(18.39629821759917 13.5 1)" width="1" x="13" y="0.5"/>
    <rect height="1" transform="rotate(19.172178789432046 14.5 1)" width="1" x="14" y="0.5"/>
    <rect height="1" transform="rotate(18.134056331484633 15.5 1)" width="1" x="15" y="0.5"/>
    <rect height="1" transform="rotate(16.852744891154657 16.5 1)" width="1" x="16" y="0.5"/>
    <rect height="1" transform="rotate(23.711563002244386 18.5 1)" width="1" x="18" y="0.5"/>
    <rect height="1" transform="rotate(23.26902331922866 19.5 1)" width="1" x="19" y="0.5"/>
    <rect height="1" transform="rotate(23.229273797089043 21.5 1)" width="1" x="21" y="0.5"/>
    <rect height="1" transform="rotate(32.40493789973957 22.5 1)" width="1" x="22" y="0.5"/>
    <rect height="1" transform="rotate(29.045146579231005 23.5 1)" width="1" x="23" y="0.5"/>
    <rect height="1" transform="rotate(25.271866687900236 24.5 1)" width="1" x="24" y="0.5"/>
    <rect height="1" transform="rotate(27.758862730680917 25.5 1)" width="1" x="25" y="0.5"/>
    <rect height="1" transform="rotate(42.16478088324274 26.5 1)" width="1" x="26" y="0.5"/>
    <rect height="1" transform="rotate(31.934362640035555 27.5 1)" width="1" x="27" y="0.5"/>
  </g>
</svg>
