<?xml version="1.0" encoding="utf-8" ?>
<svg xmlns="http://www.w3.org/2000/svg" xmlns:ev="http://www.w3.org/2001/xml-events" xmlns:xlink="http://www.w3.org/1999/xlink" baseProfile="full" height="100%" version="1.1" viewBox="-1 0 30 2" width="100%">
  <defs/>
  <rect fill="#111" height="2" width="30" x="-1" y="0"/>
  <g fill="#a10045" stroke="#eee" stroke-opacity="1" stroke-width="0.05">
    <rect height="1" transform="rotate(0 0.5 1)" width="1" x="0" y="0.5"/>
    <rect height="1" transform="rotate(1 1.5 1)" width="1" x="1" y="0.5"/>
    <rect height="1" transform="rotate(2 2.5 1)" width="1" x="2" y="0.5"/>
    <rect height="1" transform="rotate(3 3.5 1)" width="1" x="3" y="0.5"/>
    <rect height="1" transform="rotate(5 5.5 1)" width="1" x="5" y="0.5"/>
    <rect height="1" transform="rotate(6 6.5 1)" width="1" x="6" y="0.5"/>
    <rect height="1" transform="rotate(7 7.5 1)" width="1" x="7" y="0.5"/>
    <rect height="1" transform="rotate(8 8.5 1)" width="1" x="8" y="0.5"/>
    <rect height="1" transform="rotate(9 9.5 1)" width="1" x="9" y="0.5"/>
    <rect height="1" transform="rotate(10 10.5 1)" width="1" x="10" y="0.5"/>
    <rect height="1" transform="rotate(12 12.5 1)" width="1" x="12" y="0.5"/>
    <rect height="1" transform="rotate(13 13.5 1)" width="1" x="13" y="0.5"/>
    <rect height="1" transform="rotate(14 14.5 1)" width="1" x="14" y="0.5"/>
    <rect height="1" transform="rotate(15 15.5 1)" width="1" x="15" y="0.5"/>
    <rect height="1" transform="rotate(16 16.5 1)" width="1" x="16" y="0.5"/>
    <rect height="1" transform="rotate(18 18.5 1)" width="1" x="18" y="0.5"/>
    <rect height="1" transform="rotate(19 19.5 1)" width="1" x="19" y="0.5"/>
    <rect height="1" transform="rotate(21 21.5 1)" width="1" x="21" y="0.5"/>
    <rect height="1" transform="rotate(22 22.5 1)" width="1" x="22" y="0.5"/>
    <rect height="1" transform="rotate(23 23.5 1)" width="1" x="23" y="0.5"/>
    <rect height="1" transform="rotate(24 24.5 1)" width="1" x="24" y="0.5"/>
    <rect height="1" transform="rotate(25 25.5 1)" width="1" x="25" y="0.5"/>
    <rect height="1" transform="rotate(26 26.5 1)" width="1" x="26" y="0.5"/>
    <rect height="1" transform="rotate(27 27.5 1)" width="1" x="27" y="0.5"/>
  </g>
  <g fill="#eee" font-family="sans-serif" font-size="0.67" text-anchor="middle">
    <text alignment-baseline="middle" x="0.5" y="1">I</text>
    <text alignment-baseline="middle" x="1.5" y="1">T</text>
    <text alignment-baseline="middle" x="2.5" y="1">'</text>
    <text alignment-baseline="middle" x="3.5" y="1">S</text>
    <text alignment-baseline="middle" x="4.5" y="1"> </text>
    <text alignment-baseline="middle" x="5.5" y="1">F</text>
    <text alignment-baseline="middle" x="6.5" y="1">R</text>
    <text alignment-baseline="middle" x="7.5" y="1">I</text>
    <text alignment-baseline="middle" x="8.5" y="1">D</text>
    <text alignment-baseline="middle" x="9.5" y="1">A</text>
    <text alignment-baseline="middle" x="10.5" y="1">Y</text>
    <text alignment-baseline="middle" x="11.5" y="1"> </text>
    <text alignment-baseline="middle" x="12.5" y="1">N</text>
    <text alignment-baseline="middle" x="13.5" y="1">I</text>
    <text alignment-baseline="middle" x="14.5" y="1">G</text>
    <text alignment-baseline="middle" x="15.5" y="1">H</text>
    <text alignment-baseline="middle" x="16.5" y="1">T</text>
    <text alignment-baseline="middle" x="17.5" y="1"> </text>
    <text alignment-baseline="middle" x="18.5" y="1">I</text>
    <text alignment-baseline="middle" x="19.5" y="1">N</text>
    <text alignment-baseline="middle" x="20.5" y="1"> </text>
    <text alignment-baseline="middle" x="21.5" y="1">C</text>
    <text alignment-baseline="middle" x="22.5" y="1">H</text>
    <text alignment-baseline="middle" x="23.5" y="1">I</text>
    <text alignment-baseline="middle" x="24.5" y="1">C</text>
    <text alignment-baseline="middle" x="25.5" y="1">A</text>
    <text alignment-baseline="middle" x="26.5" y="1">G</text>
    <text alignment-baseline="middle" x="27.5" y="1">O</text>
  </g>
  <g fill="none" stroke="#eee" stroke-opacity="1" stroke-width="0.05">
    <rect height="1" transform="rotate(0.0 0.5 1)" width="1" x="0" y="0.5"/>
    <rect height="1" transform="rotate(1.5292941448533988 1.5 1)" width="1" x="1" y="0.5"/>
    <rect height="1" transform="rotate(3.318082601417661 2.5 1)" width="1" x="2" y="0.5"/>
    <rect height="1" transform="rotate(3.202025419133176 3.5 1)" width="1" x="3" y="0.5"/>
    <rect height="1" transform="rotate(9.6569720924275 5.5 1)" width="1" x="5" y="0.5"/>
    <rect height="1" transform="rotate(7.007267846804749 6.5 1)" width="1" x="6" y="0.5"/>
    <rect height="1" transform="rotate(7.994590207172008 7.5 1)" width="1" x="7" y="0.5"/>
    <rect height="1" transform="rotate(14.102653427323908 8.5 1)" width="1" x="8" y="0.5"/>
    <rect height="1" transform="rotate(17.81901152100691 9.5 1)" width="1" x="9" y="0.5"/>
    <rect height="1" transform="rotate(17.820445946839435 10.5 1)" width="1" x="10" y="0.5"/>
    <rect height="1" transform="rotate(22.85424993763261 12.5 1)" width="1" x="12" y="0.5"/>
    <rect height="1" transform="rotate(15.46867318835093 13.5 1)" width="1" x="13" y="0.5"/>
    <rect height="1" transform="rotate(24.955222517614207 14.5 1)" width="1" x="14" y="0.5"/>
    <rect height="1" transform="rotate(28.586583971157307 15.5 1)" width="1" x="15" y="0.5"/>
    <rect height="1" transform="rotate(27.74163166354555 16.5 1)" width="1" x="16" y="0.5"/>
    <rect height="1" transform="rotate(21.05734342179659 18.5 1)" width="1" x="18" y="0.5"/>
    <rect height="1" transform="rotate(34.452479208323496 19.5 1)" width="1" x="19" y="0.5"/>
    <rect height="1" transform="rotate(39.29020787636133 21.5 1)" width="1" x="21" y="0.5"/>
    <rect height="1" transform="rotate(32.31243256704678 22.5 1)" width="1" x="22" y="0.5"/>
    <rect height="1" transform="rotate(39.06492628870911 23.5 1)" width="1" x="23" y="0.5"/>
    <rect height="1" transform="rotate(43.933271877230055 24.5 1)" width="1" x="24" y="0.5"/>
    <rect height="1" transform="rotate(28.189568721113943 25.5 1)" width="1" x="25" y="0.5"/>
    <rect height="1" transform="rotate(36.727393489976585 26.5 1)" width="1" x="26" y="0.5"/>
    <rect height="1" transform="rotate(52.05114650931409 27.5 1)" width="1" x="27" y="0.5"/>
  </g>
</svg>
