<?xml version="1.0" encoding="utf-8" ?>
<svg xmlns="http://www.w3.org/2000/svg" xmlns:ev="http://www.w3.org/2001/xml-events" xmlns:xlink="http://www.w3.org/1999/xlink" baseProfile="full" height="100%" version="1.1" viewBox="-1 0 30 2" width="100%">
  <defs/>
  <rect fill="#111" height="2" width="30" x="-1" y="0"/>
  <g fill="#a10045" stroke="#eee" stroke-opacity="1" stroke-width="0.05">
    <rect height="1" transform="rotate(0 0.5 1)" width="1" x="0" y="0.5"/>
    <rect height="1" transform="rotate(1 1.5 1)" width="1" x="1" y="0.5"/>
    <rect height="1" transform="rotate(2 2.5 1)" width="1" x="2" y="0.5"/>
    <rect height="1" transform="rotate(3 3.5 1)" width="1" x="3" y="0.5"/>
    <rect height="1" transform="rotate(5 5.5 1)" width="1" x="5" y="0.5"/>
    <rect height="1" transform="rotate(6 6.5 1)" width="1" x="6" y="0.5"/>
    <rect height="1" transform="rotate(7 7.5 1)" width="1" x="7" y="0.5"/>
    <rect height="1" transform="rotate(8 8.5 1)" width="1" x="8" y="0.5"/>
    <rect height="1" transform="rotate(9 9.5 1)" width="1" x="9" y="0.5"/>
    <rect height="1" transform="rotate(10 10.5 1)" width="1" x="10" y="0.5"/>
    <rect height="1" transform="rotate(12 12.5 1)" width="1" x="12" y="0.5"/>
    <rect height="1" transform="rotate(13 13.5 1)" width="1" x="13" y="0.5"/>
    <rect height="1" transform="rotate(14 14.5 1)" width="1" x="14" y="0.5"/>
    <rect height="1" transform="rotate(15 15.5 1)" width="1" x="15" y="0.5"/>
    <rect height="1" transform="rotate(16 16.5 1)" width="1" x="16" y="0.5"/>
    <rect height="1" transform="rotate(18 18.5 1)" width="1" x="18" y="0.5"/>
    <rect height="1" transform="rotate(19 19.5 1)" width="1" x="19" y="0.5"/>
    <rect height="1" transform="rotate(21 21.5 1)" width="1" x="21" y="0.5"/>
    <rect height="1" transform="rotate(22 22.5 1)" width="1" x="22" y="0.5"/>
    <rect height="1" transform="rotate(23 23.5 1)" width="1" x="23" y="0.5"/>
    <rect height="1" transform="rotate(24 24.5 1)" width="1" x="24" y="0.5"/>
    <rect height="1" transform="rotate(25 25.5 1)" width="1" x="25" y="0.5"/>
    <rect height="1" transform="rotate(26 26.5 1)" width="1" x="26" y="0.5"/>
    <rect height="1" transform="rotate(27 27.5 1)" width="1" x="27" y="0.5"/>
  </g>
  <g fill="#eee" font-family="sans-serif" font-size="0.67" text-anchor="middle">
    <text alignment-baseline="middle" x="0.5" y="1">I</text>
    <text alignment-baseline="middle" x="1.5" y="1">T</text>
    <text alignment-baseline="middle" x="2.5" y="1">'</text>
    <text alignment-baseline="middle" x="3.5" y="1">S</text>
    <text alignment-baseline="middle" x="4.5" y="1"> </text>
    <text alignment-baseline="middle" x="5.5" y="1">S</text>
    <text alignment-baseline="middle" x="6.5" y="1">U</text>
    <text alignment-baseline="middle" x="7.5" y="1">N</text>
    <text alignment-baseline="middle" x="8.5" y="1">D</text>
    <text alignment-baseline="middle" x="9.5" y="1">A</text>
    <text alignment-baseline="middle" x="10.5" y="1">Y</text>
    <text alignment-baseline="middle" x="11.5" y="1"> </text>
    <text alignment-baseline="middle" x="12.5" y="1">N</text>
    <text alignment-baseline="middle" x="13.5" y="1">I</text>
    <text alignment-baseline="middle" x="14.5" y="1">G</text>
    <text alignment-baseline="middle" x="15.5" y="1">H</text>
    <text alignment-baseline="middle" x="16.5" y="1">T</text>
    <text alignment-baseline="middle" x="17.5" y="1"> </text>
    <text alignment-baseline="middle" x="18.5" y="1">I</text>
    <text alignment-baseline="middle" x="19.5" y="1">N</text>
    <text alignment-baseline="middle" x="20.5" y="1"> </text>
    <text alignment-baseline="middle" x="21.5" y="1">C</text>
    <text alignment-baseline="middle" x="22.5" y="1">H</text>
    <text alignment-baseline="middle" x="23.5" y="1">I</text>
    <text alignment-baseline="middle" x="24.5" y="1">C</text>
    <text alignment-baseline="middle" x="25.5" y="1">A</text>
    <text alignment-baseline="middle" x="26.5" y="1">G</text>
    <text alignment-baseline="middle" x="27.5" y="1">O</text>
  </g>
  <g fill="none" stroke="#eee" stroke-opacity="1" stroke-width="0.05">
    <rect height="1" transform="rotate(0.0 0.5 1)" width="1" x="0" y="0.5"/>
    <rect height="1" transform="rotate(1.7499865040634588 1.5 1)" width="1" x="1" y="0.5"/>
    <rect height="1" transform="rotate(3.5705895234094815 2.5 1)" width="1" x="2" y="0.5"/>
    <rect height="1" transform="rotate(5.714055182869125 3.5 1)" width="1" x="3" y="0.5"/>
    <rect height="1" transform="rotate(9.543781658533149 5.5 1)" width="1" x="5" y="0.5"/>
    <rect height="1" transform="rotate(9.26223478348124 6.5 1)" width="1" x="6" y="0.5"/>
    <rect height="1" transform="rotate(9.540545431279403 7.5 1)" width="1" x="7" y="0.5"/>
    <rect height="1" transform="rotate(8.002167292186186 8.5 1)" width="1" x="8" y="0.5"/>
    <rect height="1" transform="rotate(13.048280860096543 9.5 1)" width="1" x="9" y="0.5"/>
    <rect height="1" transform="rotate(13.328225691200664 10.5 1)" width="1" x="10" y="0.5"/>
    <rect height="1" transform="rotate(16.10317594571834 12.5 1)" width="1" x="12" y="0.5"/>
    <rect height="1" transform="rotate(25.236473864944813 13.5 1)" width="1" x="13" y="0.5"/>
    <rect height="1" transform="rotate(23.029503201263015 14.5 1)" width="1" x="14" y="0.5"/>
    <rect height="1" transform="rotate(21.579423914616815 15.5 1)" width="1" x="15" y="0.5"/>
    <rect height="1" transform="rotate(24.486969972055682 16.5 1)" width="1" x="16" y="0.5"/>
    <rect height="1" transform="rotate(27.826562037790676 18.5 1)" width="1" x="18" y="0.5"/>
    <rect height="1" transform="rotate(25.78991443557504 19.5 1)" width="1" x="19" y="0.5"/>
    <rect height="1" transform="rotate(36.0898523815978 21.5 1)" width="1" x="21" y="0.5"/>
    <rect height="1" transform="rotate(41.77848971174147 22.5 1)" width="1" x="22" y="0.5"/>
    <rect height="1" transform="rotate(39.54186929220718 23.5 1)" width="1" x="23" y="0.5"/>
    <rect height="1" transform="rotate(31.867327559137507 24.5 1)" width="1" x="24" y="0.5"/>
    <rect height="1" transform="rotate(27.51061723604988 25.5 1)" width="1" x="25" y="0.5"/>
    <rect height="1" transform="rotate(32.431899283754284 26.5 1)" width="1" x="26" y="0.5"/>
    <rect height="1" transform="rotate(40.47586554661993 27.5 1)" width="1" x="27" y="0.5"/>
  </g>
</svg>
