<?xml version="1.0" encoding="utf-8" ?>
<svg xmlns="http://www.w3.org/2000/svg" xmlns:ev="http://www.w3.org/2001/xml-events" xmlns:xlink="http://www.w3.org/1999/xlink" baseProfile="full" height="100%" version="1.1" viewBox="-1 0 31 2" width="100%">
  <defs/>
  <rect fill="#111" height="2" width="31" x="-1" y="0"/>
  <g fill="#a10045" stroke="#eee" stroke-opacity="1" stroke-width="0.05">
    <rect height="1" transform="rotate(0 0.5 1)" width="1" x="0" y="0.5"/>
    <rect height="1" transform="rotate(1 1.5 1)" width="1" x="1" y="0.5"/>
    <rect height="1" transform="rotate(2 2.5 1)" width="1" x="2" y="0.5"/>
    <rect height="1" transform="rotate(3 3.5 1)" width="1" x="3" y="0.5"/>
    <rect height="1" transform="rotate(5 5.5 1)" width="1" x="5" y="0.5"/>
    <rect height="1" transform="rotate(6 6.5 1)" width="1" x="6" y="0.5"/>
    <rect height="1" transform="rotate(7 7.5 1)" width="1" x="7" y="0.5"/>
    <rect height="1" transform="rotate(8 8.5 1)" width="1" x="8" y="0.5"/>
    <rect height="1" transform="rotate(9 9.5 1)" width="1" x="9" y="0.5"/>
    <rect height="1" transform="rotate(10 10.5 1)" width="1" x="10" y="0.5"/>
    <rect height="1" transform="rotate(11 11.5 1)" width="1" x="11" y="0.5"/>
    <rect height="1" transform="rotate(13 13.5 1)" width="1" x="13" y="0.5"/>
    <rect height="1" transform="rotate(14 14.5 1)" width="1" x="14" y="0.5"/>
    <rect height="1" transform="rotate(15 15.5 1)" width="1" x="15" y="0.5"/>
    <rect height="1" transform="rotate(16 16.5 1)" width="1" x="16" y="0.5"/>
    <rect height="1" transform="rotate(17 17.5 1)" width="1" x="17" y="0.5"/>
    <rect height="1" transform="rotate(19 19.5 1)" width="1" x="19" y="0.5"/>
    <rect height="1" transform="rotate(20 20.5 1)" width="1" x="20" y="0.5"/>
    <rect height="1" transform="rotate(22 22.5 1)" width="1" x="22" y="0.5"/>
    <rect height="1" transform="rotate(23 23.5 1)" width="1" x="23" y="0.5"/>
    <rect height="1" transform="rotate(24 24.5 1)" width="1" x="24" y="0.5"/>
    <rect height="1" transform="rotate(25 25.5 1)" width="1" x="25" y="0.5"/>
    <rect height="1" transform="rotate(26 26.5 1)" width="1" x="26" y="0.5"/>
    <rect height="1" transform="rotate(27 27.5 1)" width="1" x="27" y="0.5"/>
    <rect height="1" transform="rotate(28 28.5 1)" width="1" x="28" y="0.5"/>
  </g>
  <g fill="#eee" font-family="sans-serif" font-size="0.67" text-anchor="middle">
    <text alignment-baseline="middle" x="0.5" y="1">I</text>
    <text alignment-baseline="middle" x="1.5" y="1">T</text>
    <text alignment-baseline="middle" x="2.5" y="1">'</text>
    <text alignment-baseline="middle" x="3.5" y="1">S</text>
    <text alignment-baseline="middle" x="4.5" y="1"> </text>
    <text alignment-baseline="middle" x="5.5" y="1">T</text>
    <text alignment-baseline="middle" x="6.5" y="1">U</text>
    <text alignment-baseline="middle" x="7.5" y="1">E</text>
    <text alignment-baseline="middle" x="8.5" y="1">S</text>
    <text alignment-baseline="middle" x="9.5" y="1">D</text>
    <text alignment-baseline="middle" x="10.5" y="1">A</text>
    <text alignment-baseline="middle" x="11.5" y="1">Y</text>
    <text alignment-baseline="middle" x="12.5" y="1"> </text>
    <text alignment-baseline="middle" x="13.5" y="1">N</text>
    <text alignment-baseline="middle" x="14.5" y="1">I</text>
    <text alignment-baseline="middle" x="15.5" y="1">G</text>
    <text alignment-baseline="middle" x="16.5" y="1">H</text>
    <text alignment-baseline="middle" x="17.5" y="1">T</text>
    <text alignment-baseline="middle" x="18.5" y="1"> </text>
    <text alignment-baseline="middle" x="19.5" y="1">I</text>
    <text alignment-baseline="middle" x="20.5" y="1">N</text>
    <text alignment-baseline="middle" x="21.5" y="1"> </text>
    <text alignment-baseline="middle" x="22.5" y="1">C</text>
    <text alignment-baseline="middle" x="23.5" y="1">H</text>
    <text alignment-baseline="middle" x="24.5" y="1">I</text>
    <text alignment-baseline="middle" x="25.5" y="1">C</text>
    <text alignment-baseline="middle" x="26.5" y="1">A</text>
    <text alignment-baseline="middle" x="27.5" y="1">G</text>
    <text alignment-baseline="middle" x="28.5" y="1">O</text>
  </g>
  <g fill="none" stroke="#eee" stroke-opacity="1" stroke-width="0.05">
    <rect height="1" transform="rotate(0.0 0.5 1)" width="1" x="0" y="0.5"/>
    <rect height="1" transform="rotate(1.8203643163901861 1.5 1)" width="1" x="1" y="0.5"/>
    <rect height="1" transform="rotate(2.3687574018991646 2.5 1)" width="1" x="2" y="0.5"/>
    <rect height="1" transform="rotate(5.344884843280998 3.5 1)" width="1" x="3" y="0.5"/>
    <rect height="1" transform="rotate(8.855363166201464 5.5 1)" width="1" x="5" y="0.5"/>
    <rect height="1" transform="rotate(10.027366942510369 6.5 1)" width="1" x="6" y="0.5"/>
    <rect height="1" transform="rotate(12.576343122648655 7.5 1)" width="1" x="7" y="0.5"/>
    <rect height="1" transform="rotate(12.691419504320292 8.5 1)" width="1" x="8" y="0.5"/>
    <rect height="1" transform="rotate(10.541482871571114 9.5 1)" width="1" x="9" y="0.5"/>
    <rect height="1" transform="rotate(15.997360235831898 10.5 1)" width="1" x="10" y="0.5"/>
    <rect height="1" transform="rotate(16.233064311035534 11.5 1)" width="1" x="11" y="0.5"/>
    <rect height="1" transform="rotate(21.151749846277593 13.5 1)" width="1" x="13" y="0.5"/>
    <rect height="1" transform="rotate(25.79699441548535 14.5 1)" width="1" x="14" y="0.5"/>
    <rect height="1" transform="rotate(16.189378590847628 15.5 1)" width="1" x="15" y="0.5"/>
    <rect height="1" transform="rotate(24.761121900120294 16.5 1)" width="1" x="16" y="0.5"/>
    <rect height="1" transform="rotate(25.00264462664174 17.5 1)" width="1" x="17" y="0.5"/>
    <rect height="1" transform="rotate(37.57315347693168 19.5 1)" width="1" x="19" y="0.5"/>
    <rect height="1" transform="rotate(26.891110209460408 20.5 1)" width="1" x="20" y="0.5"/>
    <rect height="1" transform="rotate(38.38780400009259 22.5 1)" width="1" x="22" y="0.5"/>
    <rect height="1" transform="rotate(25.370955255949443 23.5 1)" width="1" x="23" y="0.5"/>
    <rect height="1" transform="rotate(41.47704801432703 24.5 1)" width="1" x="24" y="0.5"/>
    <rect height="1" transform="rotate(27.897795757638665 25.5 1)" width="1" x="25" y="0.5"/>
    <rect height="1" transform="rotate(45.973712918631456 26.5 1)" width="1" x="26" y="0.5"/>
    <rect height="1" transform="rotate(34.60098662924646 27.5 1)" width="1" x="27" y="0.5"/>
    <rect height="1" transform="rotate(44.25924033598375 28.5 1)" width="1" x="28" y="0.5"/>
  </g>
</svg>
