<?xml version="1.0" encoding="utf-8" ?>
<svg xmlns="http://www.w3.org/2000/svg" xmlns:ev="http://www.w3.org/2001/xml-events" xmlns:xlink="http://www.w3.org/1999/xlink" baseProfile="full" height="100%" version="1.1" viewBox="-1 0 34 2" width="100%">
  <defs/>
  <rect fill="#eee" height="2" width="34" x="-1" y="0"/>
  <g fill="#80ffcc" stroke="#222" stroke-opacity="1" stroke-width="0.05">
    <rect height="1" transform="rotate(0 0.5 1)" width="1" x="0" y="0.5"/>
    <rect height="1" transform="rotate(1 1.5 1)" width="1" x="1" y="0.5"/>
    <rect height="1" transform="rotate(2 2.5 1)" width="1" x="2" y="0.5"/>
    <rect height="1" transform="rotate(3 3.5 1)" width="1" x="3" y="0.5"/>
    <rect height="1" transform="rotate(5 5.5 1)" width="1" x="5" y="0.5"/>
    <rect height="1" transform="rotate(6 6.5 1)" width="1" x="6" y="0.5"/>
    <rect height="1" transform="rotate(7 7.5 1)" width="1" x="7" y="0.5"/>
    <rect height="1" transform="rotate(8 8.5 1)" width="1" x="8" y="0.5"/>
    <rect height="1" transform="rotate(9 9.5 1)" width="1" x="9" y="0.5"/>
    <rect height="1" transform="rotate(10 10.5 1)" width="1" x="10" y="0.5"/>
    <rect height="1" transform="rotate(12 12.5 1)" width="1" x="12" y="0.5"/>
    <rect height="1" transform="rotate(13 13.5 1)" width="1" x="13" y="0.5"/>
    <rect height="1" transform="rotate(14 14.5 1)" width="1" x="14" y="0.5"/>
    <rect height="1" transform="rotate(15 15.5 1)" width="1" x="15" y="0.5"/>
    <rect height="1" transform="rotate(16 16.5 1)" width="1" x="16" y="0.5"/>
    <rect height="1" transform="rotate(17 17.5 1)" width="1" x="17" y="0.5"/>
    <rect height="1" transform="rotate(18 18.5 1)" width="1" x="18" y="0.5"/>
    <rect height="1" transform="rotate(19 19.5 1)" width="1" x="19" y="0.5"/>
    <rect height="1" transform="rotate(20 20.5 1)" width="1" x="20" y="0.5"/>
    <rect height="1" transform="rotate(22 22.5 1)" width="1" x="22" y="0.5"/>
    <rect height="1" transform="rotate(23 23.5 1)" width="1" x="23" y="0.5"/>
    <rect height="1" transform="rotate(25 25.5 1)" width="1" x="25" y="0.5"/>
    <rect height="1" transform="rotate(26 26.5 1)" width="1" x="26" y="0.5"/>
    <rect height="1" transform="rotate(27 27.5 1)" width="1" x="27" y="0.5"/>
    <rect height="1" transform="rotate(28 28.5 1)" width="1" x="28" y="0.5"/>
    <rect height="1" transform="rotate(29 29.5 1)" width="1" x="29" y="0.5"/>
    <rect height="1" transform="rotate(30 30.5 1)" width="1" x="30" y="0.5"/>
    <rect height="1" transform="rotate(31 31.5 1)" width="1" x="31" y="0.5"/>
  </g>
  <g fill="#222" font-family="sans-serif" font-size="0.67" text-anchor="middle">
    <text alignment-baseline="middle" x="0.5" y="1">I</text>
    <text alignment-baseline="middle" x="1.5" y="1">T</text>
    <text alignment-baseline="middle" x="2.5" y="1">'</text>
    <text alignment-baseline="middle" x="3.5" y="1">S</text>
    <text alignment-baseline="middle" x="4.5" y="1"> </text>
    <text alignment-baseline="middle" x="5.5" y="1">M</text>
    <text alignment-baseline="middle" x="6.5" y="1">O</text>
    <text alignment-baseline="middle" x="7.5" y="1">N</text>
    <text alignment-baseline="middle" x="8.5" y="1">D</text>
    <text alignment-baseline="middle" x="9.5" y="1">A</text>
    <text alignment-baseline="middle" x="10.5" y="1">Y</text>
    <text alignment-baseline="middle" x="11.5" y="1"> </text>
    <text alignment-baseline="middle" x="12.5" y="1">A</text>
    <text alignment-baseline="middle" x="13.5" y="1">F</text>
    <text alignment-baseline="middle" x="14.5" y="1">T</text>
    <text alignment-baseline="middle" x="15.5" y="1">E</text>
    <text alignment-baseline="middle" x="16.5" y="1">R</text>
    <text alignment-baseline="middle" x="17.5" y="1">N</text>
    <text alignment-baseline="middle" x="18.5" y="1">O</text>
    <text alignment-baseline="middle" x="19.5" y="1">O</text>
    <text alignment-baseline="middle" x="20.5" y="1">N</text>
    <text alignment-baseline="middle" x="21.5" y="1"> </text>
    <text alignment-baseline="middle" x="22.5" y="1">I</text>
    <text alignment-baseline="middle" x="23.5" y="1">N</text>
    <text alignment-baseline="middle" x="24.5" y="1"> </text>
    <text alignment-baseline="middle" x="25.5" y="1">C</text>
    <text alignment-baseline="middle" x="26.5" y="1">H</text>
    <text alignment-baseline="middle" x="27.5" y="1">I</text>
    <text alignment-baseline="middle" x="28.5" y="1">C</text>
    <text alignment-baseline="middle" x="29.5" y="1">A</text>
    <text alignment-baseline="middle" x="30.5" y="1">G</text>
    <text alignment-baseline="middle" x="31.5" y="1">O</text>
  </g>
  <g fill="none" stroke="#222" stroke-opacity="1" stroke-width="0.05">
    <rect height="1" transform="rotate(0.0 0.5 1)" width="1" x="0" y="0.5"/>
    <rect height="1" transform="rotate(1.2351692087178172 1.5 1)" width="1" x="1" y="0.5"/>
    <rect height="1" transform="rotate(3.304119953080961 2.5 1)" width="1" x="2" y="0.5"/>
    <rect height="1" transform="rotate(5.846849662862052 3.5 1)" width="1" x="3" y="0.5"/>
    <rect height="1" transform="rotate(8.408540661955255 5.5 1)" width="1" x="5" y="0.5"/>
    <rect height="1" transform="rotate(9.614313305222412 6.5 1)" width="1" x="6" y="0.5"/>
    <rect height="1" transform="rotate(10.03724702201616 7.5 1)" width="1" x="7" y="0.5"/>
    <rect height="1" transform="rotate(15.375041449344153 8.5 1)" width="1" x="8" y="0.5"/>
    <rect height="1" transform="rotate(12.342294105673131 9.5 1)" width="1" x="9" y="0.5"/>
    <rect height="1" transform="rotate(11.00847388583168 10.5 1)" width="1" x="10" y="0.5"/>
    <rect height="1" transform="rotate(22.40768685142837 12.5 1)" width="1" x="12" y="0.5"/>
    <rect height="1" transform="rotate(16.93096964780935 13.5 1)" width="1" x="13" y="0.5"/>
    <rect height="1" transform="rotate(15.76658120066059 14.5 1)" width="1" x="14" y="0.5"/>
    <rect height="1" transform="rotate(23.615851083043257 15.5 1)" width="1" x="15" y="0.5"/>
    <rect height="1" transform="rotate(30.74953360409122 16.5 1)" width="1" x="16" y="0.5"/>
    <rect height="1" transform="rotate(27.392921725977896 17.5 1)" width="1" x="17" y="0.5"/>
    <rect height="1" transform="rotate(32.845496438353464 18.5 1)" width="1" x="18" y="0.5"/>
    <rect height="1" transform="rotate(30.909536128949984 19.5 1)" width="1" x="19" y="0.5"/>
    <rect height="1" transform="rotate(36.71883675114422 20.5 1)" width="1" x="20" y="0.5"/>
    <rect height="1" transform="rotate(26.172417336988342 22.5 1)" width="1" x="22" y="0.5"/>
    <rect height="1" transform="rotate(25.007539125827968 23.5 1)" width="1" x="23" y="0.5"/>
    <rect height="1" transform="rotate(32.16773907190995 25.5 1)" width="1" x="25" y="0.5"/>
    <rect height="1" transform="rotate(31.95357119346949 26.5 1)" width="1" x="26" y="0.5"/>
    <rect height="1" transform="rotate(27.248329657552187 27.5 1)" width="1" x="27" y="0.5"/>
    <rect height="1" transform="rotate(45.62377751163784 28.5 1)" width="1" x="28" y="0.5"/>
    <rect height="1" transform="rotate(45.26831053288252 29.5 1)" width="1" x="29" y="0.5"/>
    <rect height="1" transform="rotate(30.082587700905997 30.5 1)" width="1" x="30" y="0.5"/>
    <rect height="1" transform="rotate(38.31016921367259 31.5 1)" width="1" x="31" y="0.5"/>
  </g>
</svg>
