<?xml version="1.0" encoding="utf-8" ?>
<svg xmlns="http://www.w3.org/2000/svg" xmlns:ev="http://www.w3.org/2001/xml-events" xmlns:xlink="http://www.w3.org/1999/xlink" baseProfile="full" height="100%" version="1.1" viewBox="-1 0 32 2" width="100%">
  <defs/>
  <rect fill="#eee" height="2" width="32" x="-1" y="0"/>
  <g fill="#fff59e" stroke="#111" stroke-opacity="1" stroke-width="0.05">
    <rect height="1" transform="rotate(0 0.5 1)" width="1" x="0" y="0.5"/>
    <rect height="1" transform="rotate(1 1.5 1)" width="1" x="1" y="0.5"/>
    <rect height="1" transform="rotate(2 2.5 1)" width="1" x="2" y="0.5"/>
    <rect height="1" transform="rotate(3 3.5 1)" width="1" x="3" y="0.5"/>
    <rect height="1" transform="rotate(5 5.5 1)" width="1" x="5" y="0.5"/>
    <rect height="1" transform="rotate(6 6.5 1)" width="1" x="6" y="0.5"/>
    <rect height="1" transform="rotate(7 7.5 1)" width="1" x="7" y="0.5"/>
    <rect height="1" transform="rotate(8 8.5 1)" width="1" x="8" y="0.5"/>
    <rect height="1" transform="rotate(9 9.5 1)" width="1" x="9" y="0.5"/>
    <rect height="1" transform="rotate(10 10.5 1)" width="1" x="10" y="0.5"/>
    <rect height="1" transform="rotate(12 12.5 1)" width="1" x="12" y="0.5"/>
    <rect height="1" transform="rotate(13 13.5 1)" width="1" x="13" y="0.5"/>
    <rect height="1" transform="rotate(14 14.5 1)" width="1" x="14" y="0.5"/>
    <rect height="1" transform="rotate(15 15.5 1)" width="1" x="15" y="0.5"/>
    <rect height="1" transform="rotate(16 16.5 1)" width="1" x="16" y="0.5"/>
    <rect height="1" transform="rotate(17 17.5 1)" width="1" x="17" y="0.5"/>
    <rect height="1" transform="rotate(18 18.5 1)" width="1" x="18" y="0.5"/>
    <rect height="1" transform="rotate(20 20.5 1)" width="1" x="20" y="0.5"/>
    <rect height="1" transform="rotate(21 21.5 1)" width="1" x="21" y="0.5"/>
    <rect height="1" transform="rotate(23 23.5 1)" width="1" x="23" y="0.5"/>
    <rect height="1" transform="rotate(24 24.5 1)" width="1" x="24" y="0.5"/>
    <rect height="1" transform="rotate(25 25.5 1)" width="1" x="25" y="0.5"/>
    <rect height="1" transform="rotate(26 26.5 1)" width="1" x="26" y="0.5"/>
    <rect height="1" transform="rotate(27 27.5 1)" width="1" x="27" y="0.5"/>
    <rect height="1" transform="rotate(28 28.5 1)" width="1" x="28" y="0.5"/>
    <rect height="1" transform="rotate(29 29.5 1)" width="1" x="29" y="0.5"/>
  </g>
  <g fill="#111" font-family="sans-serif" font-size="0.67" text-anchor="middle">
    <text alignment-baseline="middle" x="0.5" y="1">I</text>
    <text alignment-baseline="middle" x="1.5" y="1">T</text>
    <text alignment-baseline="middle" x="2.5" y="1">'</text>
    <text alignment-baseline="middle" x="3.5" y="1">S</text>
    <text alignment-baseline="middle" x="4.5" y="1"> </text>
    <text alignment-baseline="middle" x="5.5" y="1">F</text>
    <text alignment-baseline="middle" x="6.5" y="1">R</text>
    <text alignment-baseline="middle" x="7.5" y="1">I</text>
    <text alignment-baseline="middle" x="8.5" y="1">D</text>
    <text alignment-baseline="middle" x="9.5" y="1">A</text>
    <text alignment-baseline="middle" x="10.5" y="1">Y</text>
    <text alignment-baseline="middle" x="11.5" y="1"> </text>
    <text alignment-baseline="middle" x="12.5" y="1">M</text>
    <text alignment-baseline="middle" x="13.5" y="1">O</text>
    <text alignment-baseline="middle" x="14.5" y="1">R</text>
    <text alignment-baseline="middle" x="15.5" y="1">N</text>
    <text alignment-baseline="middle" x="16.5" y="1">I</text>
    <text alignment-baseline="middle" x="17.5" y="1">N</text>
    <text alignment-baseline="middle" x="18.5" y="1">G</text>
    <text alignment-baseline="middle" x="19.5" y="1"> </text>
    <text alignment-baseline="middle" x="20.5" y="1">I</text>
    <text alignment-baseline="middle" x="21.5" y="1">N</text>
    <text alignment-baseline="middle" x="22.5" y="1"> </text>
    <text alignment-baseline="middle" x="23.5" y="1">C</text>
    <text alignment-baseline="middle" x="24.5" y="1">H</text>
    <text alignment-baseline="middle" x="25.5" y="1">I</text>
    <text alignment-baseline="middle" x="26.5" y="1">C</text>
    <text alignment-baseline="middle" x="27.5" y="1">A</text>
    <text alignment-baseline="middle" x="28.5" y="1">G</text>
    <text alignment-baseline="middle" x="29.5" y="1">O</text>
  </g>
  <g fill="none" stroke="#111" stroke-opacity="1" stroke-width="0.05">
    <rect height="1" transform="rotate(0.0 0.5 1)" width="1" x="0" y="0.5"/>
    <rect height="1" transform="rotate(1.4266221886465849 1.5 1)" width="1" x="1" y="0.5"/>
    <rect height="1" transform="rotate(3.670211427545568 2.5 1)" width="1" x="2" y="0.5"/>
    <rect height="1" transform="rotate(4.66283881157325 3.5 1)" width="1" x="3" y="0.5"/>
    <rect height="1" transform="rotate(7.650563026258325 5.5 1)" width="1" x="5" y="0.5"/>
    <rect height="1" transform="rotate(10.602681519321969 6.5 1)" width="1" x="6" y="0.5"/>
    <rect height="1" transform="rotate(8.492251697376975 7.5 1)" width="1" x="7" y="0.5"/>
    <rect height="1" transform="rotate(11.158878031065669 8.5 1)" width="1" x="8" y="0.5"/>
    <rect height="1" transform="rotate(12.558079670003861 9.5 1)" width="1" x="9" y="0.5"/>
    <rect height="1" transform="rotate(19.851055960872834 10.5 1)" width="1" x="10" y="0.5"/>
    <rect height="1" transform="rotate(16.385470512413665 12.5 1)" width="1" x="12" y="0.5"/>
    <rect height="1" transform="rotate(21.287774286789826 13.5 1)" width="1" x="13" y="0.5"/>
    <rect height="1" transform="rotate(14.417645261144246 14.5 1)" width="1" x="14" y="0.5"/>
    <rect height="1" transform="rotate(18.508198024599537 15.5 1)" width="1" x="15" y="0.5"/>
    <rect height="1" transform="rotate(26.137472170862683 16.5 1)" width="1" x="16" y="0.5"/>
    <rect height="1" transform="rotate(32.24715054888181 17.5 1)" width="1" x="17" y="0.5"/>
    <rect height="1" transform="rotate(26.192260372255316 18.5 1)" width="1" x="18" y="0.5"/>
    <rect height="1" transform="rotate(24.74211913553834 20.5 1)" width="1" x="20" y="0.5"/>
    <rect height="1" transform="rotate(21.208655747826995 21.5 1)" width="1" x="21" y="0.5"/>
    <rect height="1" transform="rotate(31.321830144408423 23.5 1)" width="1" x="23" y="0.5"/>
    <rect height="1" transform="rotate(27.12726940565393 24.5 1)" width="1" x="24" y="0.5"/>
    <rect height="1" transform="rotate(27.299662657854462 25.5 1)" width="1" x="25" y="0.5"/>
    <rect height="1" transform="rotate(45.52838741248444 26.5 1)" width="1" x="26" y="0.5"/>
    <rect height="1" transform="rotate(29.42837139131661 27.5 1)" width="1" x="27" y="0.5"/>
    <rect height="1" transform="rotate(35.026085992000525 28.5 1)" width="1" x="28" y="0.5"/>
    <rect height="1" transform="rotate(46.83178493051367 29.5 1)" width="1" x="29" y="0.5"/>
  </g>
</svg>
