<?xml version="1.0" encoding="utf-8" ?>
<svg xmlns="http://www.w3.org/2000/svg" xmlns:ev="http://www.w3.org/2001/xml-events" xmlns:xlink="http://www.w3.org/1999/xlink" baseProfile="full" height="100%" version="1.1" viewBox="-1 0 34 2" width="100%">
  <defs/>
  <rect fill="#eee" height="2" width="34" x="-1" y="0"/>
  <g fill="#9cb29e" stroke="#000" stroke-opacity="1" stroke-width="0.05">
    <rect height="1" transform="rotate(0 0.5 1)" width="1" x="0" y="0.5"/>
    <rect height="1" transform="rotate(1 1.5 1)" width="1" x="1" y="0.5"/>
    <rect height="1" transform="rotate(2 2.5 1)" width="1" x="2" y="0.5"/>
    <rect height="1" transform="rotate(3 3.5 1)" width="1" x="3" y="0.5"/>
    <rect height="1" transform="rotate(5 5.5 1)" width="1" x="5" y="0.5"/>
    <rect height="1" transform="rotate(6 6.5 1)" width="1" x="6" y="0.5"/>
    <rect height="1" transform="rotate(7 7.5 1)" width="1" x="7" y="0.5"/>
    <rect height="1" transform="rotate(8 8.5 1)" width="1" x="8" y="0.5"/>
    <rect height="1" transform="rotate(9 9.5 1)" width="1" x="9" y="0.5"/>
    <rect height="1" transform="rotate(10 10.5 1)" width="1" x="10" y="0.5"/>
    <rect height="1" transform="rotate(11 11.5 1)" width="1" x="11" y="0.5"/>
    <rect height="1" transform="rotate(12 12.5 1)" width="1" x="12" y="0.5"/>
    <rect height="1" transform="rotate(14 14.5 1)" width="1" x="14" y="0.5"/>
    <rect height="1" transform="rotate(15 15.5 1)" width="1" x="15" y="0.5"/>
    <rect height="1" transform="rotate(16 16.5 1)" width="1" x="16" y="0.5"/>
    <rect height="1" transform="rotate(17 17.5 1)" width="1" x="17" y="0.5"/>
    <rect height="1" transform="rotate(18 18.5 1)" width="1" x="18" y="0.5"/>
    <rect height="1" transform="rotate(19 19.5 1)" width="1" x="19" y="0.5"/>
    <rect height="1" transform="rotate(20 20.5 1)" width="1" x="20" y="0.5"/>
    <rect height="1" transform="rotate(22 22.5 1)" width="1" x="22" y="0.5"/>
    <rect height="1" transform="rotate(23 23.5 1)" width="1" x="23" y="0.5"/>
    <rect height="1" transform="rotate(25 25.5 1)" width="1" x="25" y="0.5"/>
    <rect height="1" transform="rotate(26 26.5 1)" width="1" x="26" y="0.5"/>
    <rect height="1" transform="rotate(27 27.5 1)" width="1" x="27" y="0.5"/>
    <rect height="1" transform="rotate(28 28.5 1)" width="1" x="28" y="0.5"/>
    <rect height="1" transform="rotate(29 29.5 1)" width="1" x="29" y="0.5"/>
    <rect height="1" transform="rotate(30 30.5 1)" width="1" x="30" y="0.5"/>
    <rect height="1" transform="rotate(31 31.5 1)" width="1" x="31" y="0.5"/>
  </g>
  <g fill="#000" font-family="sans-serif" font-size="0.67" text-anchor="middle">
    <text alignment-baseline="middle" x="0.5" y="1">I</text>
    <text alignment-baseline="middle" x="1.5" y="1">T</text>
    <text alignment-baseline="middle" x="2.5" y="1">'</text>
    <text alignment-baseline="middle" x="3.5" y="1">S</text>
    <text alignment-baseline="middle" x="4.5" y="1"> </text>
    <text alignment-baseline="middle" x="5.5" y="1">T</text>
    <text alignment-baseline="middle" x="6.5" y="1">H</text>
    <text alignment-baseline="middle" x="7.5" y="1">U</text>
    <text alignment-baseline="middle" x="8.5" y="1">R</text>
    <text alignment-baseline="middle" x="9.5" y="1">S</text>
    <text alignment-baseline="middle" x="10.5" y="1">D</text>
    <text alignment-baseline="middle" x="11.5" y="1">A</text>
    <text alignment-baseline="middle" x="12.5" y="1">Y</text>
    <text alignment-baseline="middle" x="13.5" y="1"> </text>
    <text alignment-baseline="middle" x="14.5" y="1">E</text>
    <text alignment-baseline="middle" x="15.5" y="1">V</text>
    <text alignment-baseline="middle" x="16.5" y="1">E</text>
    <text alignment-baseline="middle" x="17.5" y="1">N</text>
    <text alignment-baseline="middle" x="18.5" y="1">I</text>
    <text alignment-baseline="middle" x="19.5" y="1">N</text>
    <text alignment-baseline="middle" x="20.5" y="1">G</text>
    <text alignment-baseline="middle" x="21.5" y="1"> </text>
    <text alignment-baseline="middle" x="22.5" y="1">I</text>
    <text alignment-baseline="middle" x="23.5" y="1">N</text>
    <text alignment-baseline="middle" x="24.5" y="1"> </text>
    <text alignment-baseline="middle" x="25.5" y="1">C</text>
    <text alignment-baseline="middle" x="26.5" y="1">H</text>
    <text alignment-baseline="middle" x="27.5" y="1">I</text>
    <text alignment-baseline="middle" x="28.5" y="1">C</text>
    <text alignment-baseline="middle" x="29.5" y="1">A</text>
    <text alignment-baseline="middle" x="30.5" y="1">G</text>
    <text alignment-baseline="middle" x="31.5" y="1">O</text>
  </g>
  <g fill="none" stroke="#000" stroke-opacity="1" stroke-width="0.05">
    <rect height="1" transform="rotate(0.0 0.5 1)" width="1" x="0" y="0.5"/>
    <rect height="1" transform="rotate(1.4917800252985338 1.5 1)" width="1" x="1" y="0.5"/>
    <rect height="1" transform="rotate(3.0825540397440165 2.5 1)" width="1" x="2" y="0.5"/>
    <rect height="1" transform="rotate(5.9168461095779445 3.5 1)" width="1" x="3" y="0.5"/>
    <rect height="1" transform="rotate(8.646464271328426 5.5 1)" width="1" x="5" y="0.5"/>
    <rect height="1" transform="rotate(6.201555633941062 6.5 1)" width="1" x="6" y="0.5"/>
    <rect height="1" transform="rotate(9.545854878204977 7.5 1)" width="1" x="7" y="0.5"/>
    <rect height="1" transform="rotate(8.922966223031622 8.5 1)" width="1" x="8" y="0.5"/>
    <rect height="1" transform="rotate(10.230415531402304 9.5 1)" width="1" x="9" y="0.5"/>
    <rect height="1" transform="rotate(17.908050016025598 10.5 1)" width="1" x="10" y="0.5"/>
    <rect height="1" transform="rotate(16.365231487188577 11.5 1)" width="1" x="11" y="0.5"/>
    <rect height="1" transform="rotate(22.450687362508233 12.5 1)" width="1" x="12" y="0.5"/>
    <rect height="1" transform="rotate(25.283898651166833 14.5 1)" width="1" x="14" y="0.5"/>
    <rect height="1" transform="rotate(16.841366846219564 15.5 1)" width="1" x="15" y="0.5"/>
    <rect height="1" transform="rotate(27.01749296353973 16.5 1)" width="1" x="16" y="0.5"/>
    <rect height="1" transform="rotate(30.131966439635686 17.5 1)" width="1" x="17" y="0.5"/>
    <rect height="1" transform="rotate(32.53801091759125 18.5 1)" width="1" x="18" y="0.5"/>
    <rect height="1" transform="rotate(19.07026093231311 19.5 1)" width="1" x="19" y="0.5"/>
    <rect height="1" transform="rotate(37.14733426267973 20.5 1)" width="1" x="20" y="0.5"/>
    <rect height="1" transform="rotate(22.19933122637377 22.5 1)" width="1" x="22" y="0.5"/>
    <rect height="1" transform="rotate(24.22699962821989 23.5 1)" width="1" x="23" y="0.5"/>
    <rect height="1" transform="rotate(26.344113704168077 25.5 1)" width="1" x="25" y="0.5"/>
    <rect height="1" transform="rotate(36.922484901207184 26.5 1)" width="1" x="26" y="0.5"/>
    <rect height="1" transform="rotate(42.18664303889614 27.5 1)" width="1" x="27" y="0.5"/>
    <rect height="1" transform="rotate(50.51691876708696 28.5 1)" width="1" x="28" y="0.5"/>
    <rect height="1" transform="rotate(36.93812939964804 29.5 1)" width="1" x="29" y="0.5"/>
    <rect height="1" transform="rotate(56.445057570261056 30.5 1)" width="1" x="30" y="0.5"/>
    <rect height="1" transform="rotate(47.90572461951384 31.5 1)" width="1" x="31" y="0.5"/>
  </g>
</svg>
