<?xml version="1.0" encoding="utf-8" ?>
<svg xmlns="http://www.w3.org/2000/svg" xmlns:ev="http://www.w3.org/2001/xml-events" xmlns:xlink="http://www.w3.org/1999/xlink" baseProfile="full" height="100%" version="1.1" viewBox="-1 0 35 2" width="100%">
  <defs/>
  <rect fill="#eee" height="2" width="35" x="-1" y="0"/>
  <g fill="#9cb29e" stroke="#000" stroke-opacity="1" stroke-width="0.05">
    <rect height="1" transform="rotate(0 0.5 1)" width="1" x="0" y="0.5"/>
    <rect height="1" transform="rotate(1 1.5 1)" width="1" x="1" y="0.5"/>
    <rect height="1" transform="rotate(2 2.5 1)" width="1" x="2" y="0.5"/>
    <rect height="1" transform="rotate(3 3.5 1)" width="1" x="3" y="0.5"/>
    <rect height="1" transform="rotate(5 5.5 1)" width="1" x="5" y="0.5"/>
    <rect height="1" transform="rotate(6 6.5 1)" width="1" x="6" y="0.5"/>
    <rect height="1" transform="rotate(7 7.5 1)" width="1" x="7" y="0.5"/>
    <rect height="1" transform="rotate(8 8.5 1)" width="1" x="8" y="0.5"/>
    <rect height="1" transform="rotate(9 9.5 1)" width="1" x="9" y="0.5"/>
    <rect height="1" transform="rotate(10 10.5 1)" width="1" x="10" y="0.5"/>
    <rect height="1" transform="rotate(11 11.5 1)" width="1" x="11" y="0.5"/>
    <rect height="1" transform="rotate(12 12.5 1)" width="1" x="12" y="0.5"/>
    <rect height="1" transform="rotate(13 13.5 1)" width="1" x="13" y="0.5"/>
    <rect height="1" transform="rotate(15 15.5 1)" width="1" x="15" y="0.5"/>
    <rect height="1" transform="rotate(16 16.5 1)" width="1" x="16" y="0.5"/>
    <rect height="1" transform="rotate(17 17.5 1)" width="1" x="17" y="0.5"/>
    <rect height="1" transform="rotate(18 18.5 1)" width="1" x="18" y="0.5"/>
    <rect height="1" transform="rotate(19 19.5 1)" width="1" x="19" y="0.5"/>
    <rect height="1" transform="rotate(20 20.5 1)" width="1" x="20" y="0.5"/>
    <rect height="1" transform="rotate(21 21.5 1)" width="1" x="21" y="0.5"/>
    <rect height="1" transform="rotate(23 23.5 1)" width="1" x="23" y="0.5"/>
    <rect height="1" transform="rotate(24 24.5 1)" width="1" x="24" y="0.5"/>
    <rect height="1" transform="rotate(26 26.5 1)" width="1" x="26" y="0.5"/>
    <rect height="1" transform="rotate(27 27.5 1)" width="1" x="27" y="0.5"/>
    <rect height="1" transform="rotate(28 28.5 1)" width="1" x="28" y="0.5"/>
    <rect height="1" transform="rotate(29 29.5 1)" width="1" x="29" y="0.5"/>
    <rect height="1" transform="rotate(30 30.5 1)" width="1" x="30" y="0.5"/>
    <rect height="1" transform="rotate(31 31.5 1)" width="1" x="31" y="0.5"/>
    <rect height="1" transform="rotate(32 32.5 1)" width="1" x="32" y="0.5"/>
  </g>
  <g fill="#000" font-family="sans-serif" font-size="0.67" text-anchor="middle">
    <text alignment-baseline="middle" x="0.5" y="1">I</text>
    <text alignment-baseline="middle" x="1.5" y="1">T</text>
    <text alignment-baseline="middle" x="2.5" y="1">'</text>
    <text alignment-baseline="middle" x="3.5" y="1">S</text>
    <text alignment-baseline="middle" x="4.5" y="1"> </text>
    <text alignment-baseline="middle" x="5.5" y="1">W</text>
    <text alignment-baseline="middle" x="6.5" y="1">E</text>
    <text alignment-baseline="middle" x="7.5" y="1">D</text>
    <text alignment-baseline="middle" x="8.5" y="1">N</text>
    <text alignment-baseline="middle" x="9.5" y="1">E</text>
    <text alignment-baseline="middle" x="10.5" y="1">S</text>
    <text alignment-baseline="middle" x="11.5" y="1">D</text>
    <text alignment-baseline="middle" x="12.5" y="1">A</text>
    <text alignment-baseline="middle" x="13.5" y="1">Y</text>
    <text alignment-baseline="middle" x="14.5" y="1"> </text>
    <text alignment-baseline="middle" x="15.5" y="1">E</text>
    <text alignment-baseline="middle" x="16.5" y="1">V</text>
    <text alignment-baseline="middle" x="17.5" y="1">E</text>
    <text alignment-baseline="middle" x="18.5" y="1">N</text>
    <text alignment-baseline="middle" x="19.5" y="1">I</text>
    <text alignment-baseline="middle" x="20.5" y="1">N</text>
    <text alignment-baseline="middle" x="21.5" y="1">G</text>
    <text alignment-baseline="middle" x="22.5" y="1"> </text>
    <text alignment-baseline="middle" x="23.5" y="1">I</text>
    <text alignment-baseline="middle" x="24.5" y="1">N</text>
    <text alignment-baseline="middle" x="25.5" y="1"> </text>
    <text alignment-baseline="middle" x="26.5" y="1">C</text>
    <text alignment-baseline="middle" x="27.5" y="1">H</text>
    <text alignment-baseline="middle" x="28.5" y="1">I</text>
    <text alignment-baseline="middle" x="29.5" y="1">C</text>
    <text alignment-baseline="middle" x="30.5" y="1">A</text>
    <text alignment-baseline="middle" x="31.5" y="1">G</text>
    <text alignment-baseline="middle" x="32.5" y="1">O</text>
  </g>
  <g fill="none" stroke="#000" stroke-opacity="1" stroke-width="0.05">
    <rect height="1" transform="rotate(0.0 0.5 1)" width="1" x="0" y="0.5"/>
    <rect height="1" transform="rotate(1.6202177277033583 1.5 1)" width="1" x="1" y="0.5"/>
    <rect height="1" transform="rotate(2.5547376564445488 2.5 1)" width="1" x="2" y="0.5"/>
    <rect height="1" transform="rotate(5.520104983272025 3.5 1)" width="1" x="3" y="0.5"/>
    <rect height="1" transform="rotate(8.828330487610913 5.5 1)" width="1" x="5" y="0.5"/>
    <rect height="1" transform="rotate(7.602746801799714 6.5 1)" width="1" x="6" y="0.5"/>
    <rect height="1" transform="rotate(7.126030919224311 7.5 1)" width="1" x="7" y="0.5"/>
    <rect height="1" transform="rotate(10.052567576884588 8.5 1)" width="1" x="8" y="0.5"/>
    <rect height="1" transform="rotate(13.627830952558714 9.5 1)" width="1" x="9" y="0.5"/>
    <rect height="1" transform="rotate(13.336361450892568 10.5 1)" width="1" x="10" y="0.5"/>
    <rect height="1" transform="rotate(11.480422915174204 11.5 1)" width="1" x="11" y="0.5"/>
    <rect height="1" transform="rotate(23.10562682086671 12.5 1)" width="1" x="12" y="0.5"/>
    <rect height="1" transform="rotate(21.539607845653073 13.5 1)" width="1" x="13" y="0.5"/>
    <rect height="1" transform="rotate(16.37142103365497 15.5 1)" width="1" x="15" y="0.5"/>
    <rect height="1" transform="rotate(27.45217576310761 16.5 1)" width="1" x="16" y="0.5"/>
    <rect height="1" transform="rotate(20.647882554142004 17.5 1)" width="1" x="17" y="0.5"/>
    <rect height="1" transform="rotate(25.79193574912606 18.5 1)" width="1" x="18" y="0.5"/>
    <rect height="1" transform="rotate(23.431927937981644 19.5 1)" width="1" x="19" y="0.5"/>
    <rect height="1" transform="rotate(32.33844203434377 20.5 1)" width="1" x="20" y="0.5"/>
    <rect height="1" transform="rotate(38.3854233475832 21.5 1)" width="1" x="21" y="0.5"/>
    <rect height="1" transform="rotate(28.803371040233326 23.5 1)" width="1" x="23" y="0.5"/>
    <rect height="1" transform="rotate(40.490770346845494 24.5 1)" width="1" x="24" y="0.5"/>
    <rect height="1" transform="rotate(27.0848258288473 26.5 1)" width="1" x="26" y="0.5"/>
    <rect height="1" transform="rotate(41.59067603839188 27.5 1)" width="1" x="27" y="0.5"/>
    <rect height="1" transform="rotate(37.0991852067289 28.5 1)" width="1" x="28" y="0.5"/>
    <rect height="1" transform="rotate(36.73015642158372 29.5 1)" width="1" x="29" y="0.5"/>
    <rect height="1" transform="rotate(51.150626203738994 30.5 1)" width="1" x="30" y="0.5"/>
    <rect height="1" transform="rotate(48.94489083846602 31.5 1)" width="1" x="31" y="0.5"/>
    <rect height="1" transform="rotate(60.615041201046125 32.5 1)" width="1" x="32" y="0.5"/>
  </g>
</svg>
