<?xml version="1.0" encoding="utf-8" ?>
<svg xmlns="http://www.w3.org/2000/svg" xmlns:ev="http://www.w3.org/2001/xml-events" xmlns:xlink="http://www.w3.org/1999/xlink" baseProfile="full" height="100%" version="1.1" viewBox="-1 0 30 2" width="100%">
  <defs/>
  <rect fill="#111" height="2" width="30" x="-1" y="0"/>
  <g fill="#a10045" stroke="#eee" stroke-opacity="1" stroke-width="0.05">
    <rect height="1" transform="rotate(0 0.5 1)" width="1" x="0" y="0.5"/>
    <rect height="1" transform="rotate(1 1.5 1)" width="1" x="1" y="0.5"/>
    <rect height="1" transform="rotate(2 2.5 1)" width="1" x="2" y="0.5"/>
    <rect height="1" transform="rotate(3 3.5 1)" width="1" x="3" y="0.5"/>
    <rect height="1" transform="rotate(5 5.5 1)" width="1" x="5" y="0.5"/>
    <rect height="1" transform="rotate(6 6.5 1)" width="1" x="6" y="0.5"/>
    <rect height="1" transform="rotate(7 7.5 1)" width="1" x="7" y="0.5"/>
    <rect height="1" transform="rotate(8 8.5 1)" width="1" x="8" y="0.5"/>
    <rect height="1" transform="rotate(9 9.5 1)" width="1" x="9" y="0.5"/>
    <rect height="1" transform="rotate(10 10.5 1)" width="1" x="10" y="0.5"/>
    <rect height="1" transform="rotate(12 12.5 1)" width="1" x="12" y="0.5"/>
    <rect height="1" transform="rotate(13 13.5 1)" width="1" x="13" y="0.5"/>
    <rect height="1" transform="rotate(14 14.5 1)" width="1" x="14" y="0.5"/>
    <rect height="1" transform="rotate(15 15.5 1)" width="1" x="15" y="0.5"/>
    <rect height="1" transform="rotate(16 16.5 1)" width="1" x="16" y="0.5"/>
    <rect height="1" transform="rotate(18 18.5 1)" width="1" x="18" y="0.5"/>
    <rect height="1" transform="rotate(19 19.5 1)" width="1" x="19" y="0.5"/>
    <rect height="1" transform="rotate(21 21.5 1)" width="1" x="21" y="0.5"/>
    <rect height="1" transform="rotate(22 22.5 1)" width="1" x="22" y="0.5"/>
    <rect height="1" transform="rotate(23 23.5 1)" width="1" x="23" y="0.5"/>
    <rect height="1" transform="rotate(24 24.5 1)" width="1" x="24" y="0.5"/>
    <rect height="1" transform="rotate(25 25.5 1)" width="1" x="25" y="0.5"/>
    <rect height="1" transform="rotate(26 26.5 1)" width="1" x="26" y="0.5"/>
    <rect height="1" transform="rotate(27 27.5 1)" width="1" x="27" y="0.5"/>
  </g>
  <g fill="#eee" font-family="sans-serif" font-size="0.67" text-anchor="middle">
    <text alignment-baseline="middle" x="0.5" y="1">I</text>
    <text alignment-baseline="middle" x="1.5" y="1">T</text>
    <text alignment-baseline="middle" x="2.5" y="1">'</text>
    <text alignment-baseline="middle" x="3.5" y="1">S</text>
    <text alignment-baseline="middle" x="4.5" y="1"> </text>
    <text alignment-baseline="middle" x="5.5" y="1">F</text>
    <text alignment-baseline="middle" x="6.5" y="1">R</text>
    <text alignment-baseline="middle" x="7.5" y="1">I</text>
    <text alignment-baseline="middle" x="8.5" y="1">D</text>
    <text alignment-baseline="middle" x="9.5" y="1">A</text>
    <text alignment-baseline="middle" x="10.5" y="1">Y</text>
    <text alignment-baseline="middle" x="11.5" y="1"> </text>
    <text alignment-baseline="middle" x="12.5" y="1">N</text>
    <text alignment-baseline="middle" x="13.5" y="1">I</text>
    <text alignment-baseline="middle" x="14.5" y="1">G</text>
    <text alignment-baseline="middle" x="15.5" y="1">H</text>
    <text alignment-baseline="middle" x="16.5" y="1">T</text>
    <text alignment-baseline="middle" x="17.5" y="1"> </text>
    <text alignment-baseline="middle" x="18.5" y="1">I</text>
    <text alignment-baseline="middle" x="19.5" y="1">N</text>
    <text alignment-baseline="middle" x="20.5" y="1"> </text>
    <text alignment-baseline="middle" x="21.5" y="1">C</text>
    <text alignment-baseline="middle" x="22.5" y="1">H</text>
    <text alignment-baseline="middle" x="23.5" y="1">I</text>
    <text alignment-baseline="middle" x="24.5" y="1">C</text>
    <text alignment-baseline="middle" x="25.5" y="1">A</text>
    <text alignment-baseline="middle" x="26.5" y="1">G</text>
    <text alignment-baseline="middle" x="27.5" y="1">O</text>
  </g>
  <g fill="none" stroke="#eee" stroke-opacity="1" stroke-width="0.05">
    <rect height="1" transform="rotate(0.0 0.5 1)" width="1" x="0" y="0.5"/>
    <rect height="1" transform="rotate(1.3863289873042737 1.5 1)" width="1" x="1" y="0.5"/>
    <rect height="1" transform="rotate(3.4431537694293346 2.5 1)" width="1" x="2" y="0.5"/>
    <rect height="1" transform="rotate(4.139534967605472 3.5 1)" width="1" x="3" y="0.5"/>
    <rect height="1" transform="rotate(8.247307483702203 5.5 1)" width="1" x="5" y="0.5"/>
    <rect height="1" transform="rotate(11.133689425953426 6.5 1)" width="1" x="6" y="0.5"/>
    <rect height="1" transform="rotate(9.331704252869168 7.5 1)" width="1" x="7" y="0.5"/>
    <rect height="1" transform="rotate(12.517902834043728 8.5 1)" width="1" x="8" y="0.5"/>
    <rect height="1" transform="rotate(14.554367290424405 9.5 1)" width="1" x="9" y="0.5"/>
    <rect height="1" transform="rotate(16.819560797978816 10.5 1)" width="1" x="10" y="0.5"/>
    <rect height="1" transform="rotate(18.897100639192004 12.5 1)" width="1" x="12" y="0.5"/>
    <rect height="1" transform="rotate(22.965064840453522 13.5 1)" width="1" x="13" y="0.5"/>
    <rect height="1" transform="rotate(20.040864725001637 14.5 1)" width="1" x="14" y="0.5"/>
    <rect height="1" transform="rotate(19.4968489074467 15.5 1)" width="1" x="15" y="0.5"/>
    <rect height="1" transform="rotate(18.45465403294736 16.5 1)" width="1" x="16" y="0.5"/>
    <rect height="1" transform="rotate(28.85255278555454 18.5 1)" width="1" x="18" y="0.5"/>
    <rect height="1" transform="rotate(21.883979425540446 19.5 1)" width="1" x="19" y="0.5"/>
    <rect height="1" transform="rotate(35.99108250893145 21.5 1)" width="1" x="21" y="0.5"/>
    <rect height="1" transform="rotate(22.64491255234747 22.5 1)" width="1" x="22" y="0.5"/>
    <rect height="1" transform="rotate(29.42349541051016 23.5 1)" width="1" x="23" y="0.5"/>
    <rect height="1" transform="rotate(27.087674064237206 24.5 1)" width="1" x="24" y="0.5"/>
    <rect height="1" transform="rotate(43.873758164391305 25.5 1)" width="1" x="25" y="0.5"/>
    <rect height="1" transform="rotate(31.87142556279491 26.5 1)" width="1" x="26" y="0.5"/>
    <rect height="1" transform="rotate(32.989999742863624 27.5 1)" width="1" x="27" y="0.5"/>
  </g>
</svg>
