<?xml version="1.0" encoding="utf-8" ?>
<svg xmlns="http://www.w3.org/2000/svg" xmlns:ev="http://www.w3.org/2001/xml-events" xmlns:xlink="http://www.w3.org/1999/xlink" baseProfile="full" height="100%" version="1.1" viewBox="-1 0 36 2" width="100%">
  <defs/>
  <rect fill="#eee" height="2" width="36" x="-1" y="0"/>
  <g fill="#80ffcc" stroke="#222" stroke-opacity="1" stroke-width="0.05">
    <rect height="1" transform="rotate(0 0.5 1)" width="1" x="0" y="0.5"/>
    <rect height="1" transform="rotate(1 1.5 1)" width="1" x="1" y="0.5"/>
    <rect height="1" transform="rotate(2 2.5 1)" width="1" x="2" y="0.5"/>
    <rect height="1" transform="rotate(3 3.5 1)" width="1" x="3" y="0.5"/>
    <rect height="1" transform="rotate(5 5.5 1)" width="1" x="5" y="0.5"/>
    <rect height="1" transform="rotate(6 6.5 1)" width="1" x="6" y="0.5"/>
    <rect height="1" transform="rotate(7 7.5 1)" width="1" x="7" y="0.5"/>
    <rect height="1" transform="rotate(8 8.5 1)" width="1" x="8" y="0.5"/>
    <rect height="1" transform="rotate(9 9.5 1)" width="1" x="9" y="0.5"/>
    <rect height="1" transform="rotate(10 10.5 1)" width="1" x="10" y="0.5"/>
    <rect height="1" transform="rotate(11 11.5 1)" width="1" x="11" y="0.5"/>
    <rect height="1" transform="rotate(12 12.5 1)" width="1" x="12" y="0.5"/>
    <rect height="1" transform="rotate(14 14.5 1)" width="1" x="14" y="0.5"/>
    <rect height="1" transform="rotate(15 15.5 1)" width="1" x="15" y="0.5"/>
    <rect height="1" transform="rotate(16 16.5 1)" width="1" x="16" y="0.5"/>
    <rect height="1" transform="rotate(17 17.5 1)" width="1" x="17" y="0.5"/>
    <rect height="1" transform="rotate(18 18.5 1)" width="1" x="18" y="0.5"/>
    <rect height="1" transform="rotate(19 19.5 1)" width="1" x="19" y="0.5"/>
    <rect height="1" transform="rotate(20 20.5 1)" width="1" x="20" y="0.5"/>
    <rect height="1" transform="rotate(21 21.5 1)" width="1" x="21" y="0.5"/>
    <rect height="1" transform="rotate(22 22.5 1)" width="1" x="22" y="0.5"/>
    <rect height="1" transform="rotate(24 24.5 1)" width="1" x="24" y="0.5"/>
    <rect height="1" transform="rotate(25 25.5 1)" width="1" x="25" y="0.5"/>
    <rect height="1" transform="rotate(27 27.5 1)" width="1" x="27" y="0.5"/>
    <rect height="1" transform="rotate(28 28.5 1)" width="1" x="28" y="0.5"/>
    <rect height="1" transform="rotate(29 29.5 1)" width="1" x="29" y="0.5"/>
    <rect height="1" transform="rotate(30 30.5 1)" width="1" x="30" y="0.5"/>
    <rect height="1" transform="rotate(31 31.5 1)" width="1" x="31" y="0.5"/>
    <rect height="1" transform="rotate(32 32.5 1)" width="1" x="32" y="0.5"/>
    <rect height="1" transform="rotate(33 33.5 1)" width="1" x="33" y="0.5"/>
  </g>
  <g fill="#222" font-family="sans-serif" font-size="0.67" text-anchor="middle">
    <text alignment-baseline="middle" x="0.5" y="1">I</text>
    <text alignment-baseline="middle" x="1.5" y="1">T</text>
    <text alignment-baseline="middle" x="2.5" y="1">'</text>
    <text alignment-baseline="middle" x="3.5" y="1">S</text>
    <text alignment-baseline="middle" x="4.5" y="1"> </text>
    <text alignment-baseline="middle" x="5.5" y="1">T</text>
    <text alignment-baseline="middle" x="6.5" y="1">H</text>
    <text alignment-baseline="middle" x="7.5" y="1">U</text>
    <text alignment-baseline="middle" x="8.5" y="1">R</text>
    <text alignment-baseline="middle" x="9.5" y="1">S</text>
    <text alignment-baseline="middle" x="10.5" y="1">D</text>
    <text alignment-baseline="middle" x="11.5" y="1">A</text>
    <text alignment-baseline="middle" x="12.5" y="1">Y</text>
    <text alignment-baseline="middle" x="13.5" y="1"> </text>
    <text alignment-baseline="middle" x="14.5" y="1">A</text>
    <text alignment-baseline="middle" x="15.5" y="1">F</text>
    <text alignment-baseline="middle" x="16.5" y="1">T</text>
    <text alignment-baseline="middle" x="17.5" y="1">E</text>
    <text alignment-baseline="middle" x="18.5" y="1">R</text>
    <text alignment-baseline="middle" x="19.5" y="1">N</text>
    <text alignment-baseline="middle" x="20.5" y="1">O</text>
    <text alignment-baseline="middle" x="21.5" y="1">O</text>
    <text alignment-baseline="middle" x="22.5" y="1">N</text>
    <text alignment-baseline="middle" x="23.5" y="1"> </text>
    <text alignment-baseline="middle" x="24.5" y="1">I</text>
    <text alignment-baseline="middle" x="25.5" y="1">N</text>
    <text alignment-baseline="middle" x="26.5" y="1"> </text>
    <text alignment-baseline="middle" x="27.5" y="1">C</text>
    <text alignment-baseline="middle" x="28.5" y="1">H</text>
    <text alignment-baseline="middle" x="29.5" y="1">I</text>
    <text alignment-baseline="middle" x="30.5" y="1">C</text>
    <text alignment-baseline="middle" x="31.5" y="1">A</text>
    <text alignment-baseline="middle" x="32.5" y="1">G</text>
    <text alignment-baseline="middle" x="33.5" y="1">O</text>
  </g>
  <g fill="none" stroke="#222" stroke-opacity="1" stroke-width="0.05">
    <rect height="1" transform="rotate(0.0 0.5 1)" width="1" x="0" y="0.5"/>
    <rect height="1" transform="rotate(1.4420159080412995 1.5 1)" width="1" x="1" y="0.5"/>
    <rect height="1" transform="rotate(3.6945404546203515 2.5 1)" width="1" x="2" y="0.5"/>
    <rect height="1" transform="rotate(4.117424813329472 3.5 1)" width="1" x="3" y="0.5"/>
    <rect height="1" transform="rotate(5.833630581968716 5.5 1)" width="1" x="5" y="0.5"/>
    <rect height="1" transform="rotate(10.156890940780652 6.5 1)" width="1" x="6" y="0.5"/>
    <rect height="1" transform="rotate(9.467533791357535 7.5 1)" width="1" x="7" y="0.5"/>
    <rect height="1" transform="rotate(10.916685731026602 8.5 1)" width="1" x="8" y="0.5"/>
    <rect height="1" transform="rotate(9.87258260741809 9.5 1)" width="1" x="9" y="0.5"/>
    <rect height="1" transform="rotate(13.426955932360144 10.5 1)" width="1" x="10" y="0.5"/>
    <rect height="1" transform="rotate(16.78766560679438 11.5 1)" width="1" x="11" y="0.5"/>
    <rect height="1" transform="rotate(16.438599629734004 12.5 1)" width="1" x="12" y="0.5"/>
    <rect height="1" transform="rotate(26.60762144057669 14.5 1)" width="1" x="14" y="0.5"/>
    <rect height="1" transform="rotate(21.179760983984355 15.5 1)" width="1" x="15" y="0.5"/>
    <rect height="1" transform="rotate(17.575237986932677 16.5 1)" width="1" x="16" y="0.5"/>
    <rect height="1" transform="rotate(31.32968671290269 17.5 1)" width="1" x="17" y="0.5"/>
    <rect height="1" transform="rotate(18.64941057960307 18.5 1)" width="1" x="18" y="0.5"/>
    <rect height="1" transform="rotate(24.424326073329112 19.5 1)" width="1" x="19" y="0.5"/>
    <rect height="1" transform="rotate(28.730783461393976 20.5 1)" width="1" x="20" y="0.5"/>
    <rect height="1" transform="rotate(23.798088243599192 21.5 1)" width="1" x="21" y="0.5"/>
    <rect height="1" transform="rotate(32.232631129080985 22.5 1)" width="1" x="22" y="0.5"/>
    <rect height="1" transform="rotate(24.01341439352251 24.5 1)" width="1" x="24" y="0.5"/>
    <rect height="1" transform="rotate(31.927571915430935 25.5 1)" width="1" x="25" y="0.5"/>
    <rect height="1" transform="rotate(50.477334477694065 27.5 1)" width="1" x="27" y="0.5"/>
    <rect height="1" transform="rotate(37.257472506250075 28.5 1)" width="1" x="28" y="0.5"/>
    <rect height="1" transform="rotate(57.7148936001099 29.5 1)" width="1" x="29" y="0.5"/>
    <rect height="1" transform="rotate(49.01295716480536 30.5 1)" width="1" x="30" y="0.5"/>
    <rect height="1" transform="rotate(53.071273059849766 31.5 1)" width="1" x="31" y="0.5"/>
    <rect height="1" transform="rotate(41.46965990609475 32.5 1)" width="1" x="32" y="0.5"/>
    <rect height="1" transform="rotate(53.539158634024126 33.5 1)" width="1" x="33" y="0.5"/>
  </g>
</svg>
