<?xml version="1.0" encoding="utf-8" ?>
<svg xmlns="http://www.w3.org/2000/svg" xmlns:ev="http://www.w3.org/2001/xml-events" xmlns:xlink="http://www.w3.org/1999/xlink" baseProfile="full" height="100%" version="1.1" viewBox="-1 0 35 2" width="100%">
  <defs/>
  <rect fill="#eee" height="2" width="35" x="-1" y="0"/>
  <g fill="#80ffcc" stroke="#222" stroke-opacity="1" stroke-width="0.05">
    <rect height="1" transform="rotate(0 0.5 1)" width="1" x="0" y="0.5"/>
    <rect height="1" transform="rotate(1 1.5 1)" width="1" x="1" y="0.5"/>
    <rect height="1" transform="rotate(2 2.5 1)" width="1" x="2" y="0.5"/>
    <rect height="1" transform="rotate(3 3.5 1)" width="1" x="3" y="0.5"/>
    <rect height="1" transform="rotate(5 5.5 1)" width="1" x="5" y="0.5"/>
    <rect height="1" transform="rotate(6 6.5 1)" width="1" x="6" y="0.5"/>
    <rect height="1" transform="rotate(7 7.5 1)" width="1" x="7" y="0.5"/>
    <rect height="1" transform="rotate(8 8.5 1)" width="1" x="8" y="0.5"/>
    <rect height="1" transform="rotate(9 9.5 1)" width="1" x="9" y="0.5"/>
    <rect height="1" transform="rotate(10 10.5 1)" width="1" x="10" y="0.5"/>
    <rect height="1" transform="rotate(11 11.5 1)" width="1" x="11" y="0.5"/>
    <rect height="1" transform="rotate(13 13.5 1)" width="1" x="13" y="0.5"/>
    <rect height="1" transform="rotate(14 14.5 1)" width="1" x="14" y="0.5"/>
    <rect height="1" transform="rotate(15 15.5 1)" width="1" x="15" y="0.5"/>
    <rect height="1" transform="rotate(16 16.5 1)" width="1" x="16" y="0.5"/>
    <rect height="1" transform="rotate(17 17.5 1)" width="1" x="17" y="0.5"/>
    <rect height="1" transform="rotate(18 18.5 1)" width="1" x="18" y="0.5"/>
    <rect height="1" transform="rotate(19 19.5 1)" width="1" x="19" y="0.5"/>
    <rect height="1" transform="rotate(20 20.5 1)" width="1" x="20" y="0.5"/>
    <rect height="1" transform="rotate(21 21.5 1)" width="1" x="21" y="0.5"/>
    <rect height="1" transform="rotate(23 23.5 1)" width="1" x="23" y="0.5"/>
    <rect height="1" transform="rotate(24 24.5 1)" width="1" x="24" y="0.5"/>
    <rect height="1" transform="rotate(26 26.5 1)" width="1" x="26" y="0.5"/>
    <rect height="1" transform="rotate(27 27.5 1)" width="1" x="27" y="0.5"/>
    <rect height="1" transform="rotate(28 28.5 1)" width="1" x="28" y="0.5"/>
    <rect height="1" transform="rotate(29 29.5 1)" width="1" x="29" y="0.5"/>
    <rect height="1" transform="rotate(30 30.5 1)" width="1" x="30" y="0.5"/>
    <rect height="1" transform="rotate(31 31.5 1)" width="1" x="31" y="0.5"/>
    <rect height="1" transform="rotate(32 32.5 1)" width="1" x="32" y="0.5"/>
  </g>
  <g fill="#222" font-family="sans-serif" font-size="0.67" text-anchor="middle">
    <text alignment-baseline="middle" x="0.5" y="1">I</text>
    <text alignment-baseline="middle" x="1.5" y="1">T</text>
    <text alignment-baseline="middle" x="2.5" y="1">'</text>
    <text alignment-baseline="middle" x="3.5" y="1">S</text>
    <text alignment-baseline="middle" x="4.5" y="1"> </text>
    <text alignment-baseline="middle" x="5.5" y="1">T</text>
    <text alignment-baseline="middle" x="6.5" y="1">U</text>
    <text alignment-baseline="middle" x="7.5" y="1">E</text>
    <text alignment-baseline="middle" x="8.5" y="1">S</text>
    <text alignment-baseline="middle" x="9.5" y="1">D</text>
    <text alignment-baseline="middle" x="10.5" y="1">A</text>
    <text alignment-baseline="middle" x="11.5" y="1">Y</text>
    <text alignment-baseline="middle" x="12.5" y="1"> </text>
    <text alignment-baseline="middle" x="13.5" y="1">A</text>
    <text alignment-baseline="middle" x="14.5" y="1">F</text>
    <text alignment-baseline="middle" x="15.5" y="1">T</text>
    <text alignment-baseline="middle" x="16.5" y="1">E</text>
    <text alignment-baseline="middle" x="17.5" y="1">R</text>
    <text alignment-baseline="middle" x="18.5" y="1">N</text>
    <text alignment-baseline="middle" x="19.5" y="1">O</text>
    <text alignment-baseline="middle" x="20.5" y="1">O</text>
    <text alignment-baseline="middle" x="21.5" y="1">N</text>
    <text alignment-baseline="middle" x="22.5" y="1"> </text>
    <text alignment-baseline="middle" x="23.5" y="1">I</text>
    <text alignment-baseline="middle" x="24.5" y="1">N</text>
    <text alignment-baseline="middle" x="25.5" y="1"> </text>
    <text alignment-baseline="middle" x="26.5" y="1">C</text>
    <text alignment-baseline="middle" x="27.5" y="1">H</text>
    <text alignment-baseline="middle" x="28.5" y="1">I</text>
    <text alignment-baseline="middle" x="29.5" y="1">C</text>
    <text alignment-baseline="middle" x="30.5" y="1">A</text>
    <text alignment-baseline="middle" x="31.5" y="1">G</text>
    <text alignment-baseline="middle" x="32.5" y="1">O</text>
  </g>
  <g fill="none" stroke="#222" stroke-opacity="1" stroke-width="0.05">
    <rect height="1" transform="rotate(0.0 0.5 1)" width="1" x="0" y="0.5"/>
    <rect height="1" transform="rotate(1.2973158743912019 1.5 1)" width="1" x="1" y="0.5"/>
    <rect height="1" transform="rotate(3.5766989394067705 2.5 1)" width="1" x="2" y="0.5"/>
    <rect height="1" transform="rotate(5.489089311636995 3.5 1)" width="1" x="3" y="0.5"/>
    <rect height="1" transform="rotate(9.067340011584132 5.5 1)" width="1" x="5" y="0.5"/>
    <rect height="1" transform="rotate(11.148616140542801 6.5 1)" width="1" x="6" y="0.5"/>
    <rect height="1" transform="rotate(9.72419363516666 7.5 1)" width="1" x="7" y="0.5"/>
    <rect height="1" transform="rotate(11.206520189689002 8.5 1)" width="1" x="8" y="0.5"/>
    <rect height="1" transform="rotate(11.17079101685434 9.5 1)" width="1" x="9" y="0.5"/>
    <rect height="1" transform="rotate(17.408429598014855 10.5 1)" width="1" x="10" y="0.5"/>
    <rect height="1" transform="rotate(13.068322379258603 11.5 1)" width="1" x="11" y="0.5"/>
    <rect height="1" transform="rotate(20.052697236758565 13.5 1)" width="1" x="13" y="0.5"/>
    <rect height="1" transform="rotate(16.488292928723084 14.5 1)" width="1" x="14" y="0.5"/>
    <rect height="1" transform="rotate(18.395717564975712 15.5 1)" width="1" x="15" y="0.5"/>
    <rect height="1" transform="rotate(26.245862234673197 16.5 1)" width="1" x="16" y="0.5"/>
    <rect height="1" transform="rotate(28.248575394359722 17.5 1)" width="1" x="17" y="0.5"/>
    <rect height="1" transform="rotate(35.79213622217495 18.5 1)" width="1" x="18" y="0.5"/>
    <rect height="1" transform="rotate(19.747055925127423 19.5 1)" width="1" x="19" y="0.5"/>
    <rect height="1" transform="rotate(36.89259397261938 20.5 1)" width="1" x="20" y="0.5"/>
    <rect height="1" transform="rotate(21.914734969676562 21.5 1)" width="1" x="21" y="0.5"/>
    <rect height="1" transform="rotate(29.264538687289573 23.5 1)" width="1" x="23" y="0.5"/>
    <rect height="1" transform="rotate(44.99935944854984 24.5 1)" width="1" x="24" y="0.5"/>
    <rect height="1" transform="rotate(47.274309342097496 26.5 1)" width="1" x="26" y="0.5"/>
    <rect height="1" transform="rotate(46.79168127903115 27.5 1)" width="1" x="27" y="0.5"/>
    <rect height="1" transform="rotate(30.049253386458155 28.5 1)" width="1" x="28" y="0.5"/>
    <rect height="1" transform="rotate(29.22547653126908 29.5 1)" width="1" x="29" y="0.5"/>
    <rect height="1" transform="rotate(54.32579393030819 30.5 1)" width="1" x="30" y="0.5"/>
    <rect height="1" transform="rotate(33.2769039969571 31.5 1)" width="1" x="31" y="0.5"/>
    <rect height="1" transform="rotate(63.404593142414555 32.5 1)" width="1" x="32" y="0.5"/>
  </g>
</svg>
