<?xml version="1.0" encoding="utf-8" ?>
<svg xmlns="http://www.w3.org/2000/svg" xmlns:ev="http://www.w3.org/2001/xml-events" xmlns:xlink="http://www.w3.org/1999/xlink" baseProfile="full" height="100%" version="1.1" viewBox="-1 0 35 2" width="100%">
  <defs/>
  <rect fill="#eee" height="2" width="35" x="-1" y="0"/>
  <g fill="#fff59e" stroke="#111" stroke-opacity="1" stroke-width="0.05">
    <rect height="1" transform="rotate(0 0.5 1)" width="1" x="0" y="0.5"/>
    <rect height="1" transform="rotate(1 1.5 1)" width="1" x="1" y="0.5"/>
    <rect height="1" transform="rotate(2 2.5 1)" width="1" x="2" y="0.5"/>
    <rect height="1" transform="rotate(3 3.5 1)" width="1" x="3" y="0.5"/>
    <rect height="1" transform="rotate(5 5.5 1)" width="1" x="5" y="0.5"/>
    <rect height="1" transform="rotate(6 6.5 1)" width="1" x="6" y="0.5"/>
    <rect height="1" transform="rotate(7 7.5 1)" width="1" x="7" y="0.5"/>
    <rect height="1" transform="rotate(8 8.5 1)" width="1" x="8" y="0.5"/>
    <rect height="1" transform="rotate(9 9.5 1)" width="1" x="9" y="0.5"/>
    <rect height="1" transform="rotate(10 10.5 1)" width="1" x="10" y="0.5"/>
    <rect height="1" transform="rotate(11 11.5 1)" width="1" x="11" y="0.5"/>
    <rect height="1" transform="rotate(12 12.5 1)" width="1" x="12" y="0.5"/>
    <rect height="1" transform="rotate(13 13.5 1)" width="1" x="13" y="0.5"/>
    <rect height="1" transform="rotate(15 15.5 1)" width="1" x="15" y="0.5"/>
    <rect height="1" transform="rotate(16 16.5 1)" width="1" x="16" y="0.5"/>
    <rect height="1" transform="rotate(17 17.5 1)" width="1" x="17" y="0.5"/>
    <rect height="1" transform="rotate(18 18.5 1)" width="1" x="18" y="0.5"/>
    <rect height="1" transform="rotate(19 19.5 1)" width="1" x="19" y="0.5"/>
    <rect height="1" transform="rotate(20 20.5 1)" width="1" x="20" y="0.5"/>
    <rect height="1" transform="rotate(21 21.5 1)" width="1" x="21" y="0.5"/>
    <rect height="1" transform="rotate(23 23.5 1)" width="1" x="23" y="0.5"/>
    <rect height="1" transform="rotate(24 24.5 1)" width="1" x="24" y="0.5"/>
    <rect height="1" transform="rotate(26 26.5 1)" width="1" x="26" y="0.5"/>
    <rect height="1" transform="rotate(27 27.5 1)" width="1" x="27" y="0.5"/>
    <rect height="1" transform="rotate(28 28.5 1)" width="1" x="28" y="0.5"/>
    <rect height="1" transform="rotate(29 29.5 1)" width="1" x="29" y="0.5"/>
    <rect height="1" transform="rotate(30 30.5 1)" width="1" x="30" y="0.5"/>
    <rect height="1" transform="rotate(31 31.5 1)" width="1" x="31" y="0.5"/>
    <rect height="1" transform="rotate(32 32.5 1)" width="1" x="32" y="0.5"/>
  </g>
  <g fill="#111" font-family="sans-serif" font-size="0.67" text-anchor="middle">
    <text alignment-baseline="middle" x="0.5" y="1">I</text>
    <text alignment-baseline="middle" x="1.5" y="1">T</text>
    <text alignment-baseline="middle" x="2.5" y="1">'</text>
    <text alignment-baseline="middle" x="3.5" y="1">S</text>
    <text alignment-baseline="middle" x="4.5" y="1"> </text>
    <text alignment-baseline="middle" x="5.5" y="1">W</text>
    <text alignment-baseline="middle" x="6.5" y="1">E</text>
    <text alignment-baseline="middle" x="7.5" y="1">D</text>
    <text alignment-baseline="middle" x="8.5" y="1">N</text>
    <text alignment-baseline="middle" x="9.5" y="1">E</text>
    <text alignment-baseline="middle" x="10.5" y="1">S</text>
    <text alignment-baseline="middle" x="11.5" y="1">D</text>
    <text alignment-baseline="middle" x="12.5" y="1">A</text>
    <text alignment-baseline="middle" x="13.5" y="1">Y</text>
    <text alignment-baseline="middle" x="14.5" y="1"> </text>
    <text alignment-baseline="middle" x="15.5" y="1">M</text>
    <text alignment-baseline="middle" x="16.5" y="1">O</text>
    <text alignment-baseline="middle" x="17.5" y="1">R</text>
    <text alignment-baseline="middle" x="18.5" y="1">N</text>
    <text alignment-baseline="middle" x="19.5" y="1">I</text>
    <text alignment-baseline="middle" x="20.5" y="1">N</text>
    <text alignment-baseline="middle" x="21.5" y="1">G</text>
    <text alignment-baseline="middle" x="22.5" y="1"> </text>
    <text alignment-baseline="middle" x="23.5" y="1">I</text>
    <text alignment-baseline="middle" x="24.5" y="1">N</text>
    <text alignment-baseline="middle" x="25.5" y="1"> </text>
    <text alignment-baseline="middle" x="26.5" y="1">C</text>
    <text alignment-baseline="middle" x="27.5" y="1">H</text>
    <text alignment-baseline="middle" x="28.5" y="1">I</text>
    <text alignment-baseline="middle" x="29.5" y="1">C</text>
    <text alignment-baseline="middle" x="30.5" y="1">A</text>
    <text alignment-baseline="middle" x="31.5" y="1">G</text>
    <text alignment-baseline="middle" x="32.5" y="1">O</text>
  </g>
  <g fill="none" stroke="#111" stroke-opacity="1" stroke-width="0.05">
    <rect height="1" transform="rotate(0.0 0.5 1)" width="1" x="0" y="0.5"/>
    <rect height="1" transform="rotate(1.2872204264314948 1.5 1)" width="1" x="1" y="0.5"/>
    <rect height="1" transform="rotate(2.820190992423364 2.5 1)" width="1" x="2" y="0.5"/>
    <rect height="1" transform="rotate(3.2923738677453662 3.5 1)" width="1" x="3" y="0.5"/>
    <rect height="1" transform="rotate(9.98696883644776 5.5 1)" width="1" x="5" y="0.5"/>
    <rect height="1" transform="rotate(8.166732959169302 6.5 1)" width="1" x="6" y="0.5"/>
    <rect height="1" transform="rotate(9.864438229867364 7.5 1)" width="1" x="7" y="0.5"/>
    <rect height="1" transform="rotate(15.632588070327543 8.5 1)" width="1" x="8" y="0.5"/>
    <rect height="1" transform="rotate(16.360134371611377 9.5 1)" width="1" x="9" y="0.5"/>
    <rect height="1" transform="rotate(17.87082695805751 10.5 1)" width="1" x="10" y="0.5"/>
    <rect height="1" transform="rotate(11.291747139934545 11.5 1)" width="1" x="11" y="0.5"/>
    <rect height="1" transform="rotate(12.700263947866356 12.5 1)" width="1" x="12" y="0.5"/>
    <rect height="1" transform="rotate(14.983520235092929 13.5 1)" width="1" x="13" y="0.5"/>
    <rect height="1" transform="rotate(21.52834765224334 15.5 1)" width="1" x="15" y="0.5"/>
    <rect height="1" transform="rotate(31.83813223356015 16.5 1)" width="1" x="16" y="0.5"/>
    <rect height="1" transform="rotate(24.28645850350378 17.5 1)" width="1" x="17" y="0.5"/>
    <rect height="1" transform="rotate(29.779578050629446 18.5 1)" width="1" x="18" y="0.5"/>
    <rect height="1" transform="rotate(33.65459897630055 19.5 1)" width="1" x="19" y="0.5"/>
    <rect height="1" transform="rotate(20.374743390336896 20.5 1)" width="1" x="20" y="0.5"/>
    <rect height="1" transform="rotate(39.71812902342222 21.5 1)" width="1" x="21" y="0.5"/>
    <rect height="1" transform="rotate(33.0717080418638 23.5 1)" width="1" x="23" y="0.5"/>
    <rect height="1" transform="rotate(47.520465096696405 24.5 1)" width="1" x="24" y="0.5"/>
    <rect height="1" transform="rotate(26.420458997760434 26.5 1)" width="1" x="26" y="0.5"/>
    <rect height="1" transform="rotate(27.251700882954324 27.5 1)" width="1" x="27" y="0.5"/>
    <rect height="1" transform="rotate(38.57809163294067 28.5 1)" width="1" x="28" y="0.5"/>
    <rect height="1" transform="rotate(42.17299769172177 29.5 1)" width="1" x="29" y="0.5"/>
    <rect height="1" transform="rotate(53.960335780489594 30.5 1)" width="1" x="30" y="0.5"/>
    <rect height="1" transform="rotate(37.256654082825 31.5 1)" width="1" x="31" y="0.5"/>
    <rect height="1" transform="rotate(46.10142100284376 32.5 1)" width="1" x="32" y="0.5"/>
  </g>
</svg>
