<?xml version="1.0" encoding="utf-8" ?>
<svg xmlns="http://www.w3.org/2000/svg" xmlns:ev="http://www.w3.org/2001/xml-events" xmlns:xlink="http://www.w3.org/1999/xlink" baseProfile="full" height="100%" version="1.1" viewBox="-1 0 33 2" width="100%">
  <defs/>
  <rect fill="#eee" height="2" width="33" x="-1" y="0"/>
  <g fill="#fff59e" stroke="#111" stroke-opacity="1" stroke-width="0.05">
    <rect height="1" transform="rotate(0 0.5 1)" width="1" x="0" y="0.5"/>
    <rect height="1" transform="rotate(1 1.5 1)" width="1" x="1" y="0.5"/>
    <rect height="1" transform="rotate(2 2.5 1)" width="1" x="2" y="0.5"/>
    <rect height="1" transform="rotate(3 3.5 1)" width="1" x="3" y="0.5"/>
    <rect height="1" transform="rotate(5 5.5 1)" width="1" x="5" y="0.5"/>
    <rect height="1" transform="rotate(6 6.5 1)" width="1" x="6" y="0.5"/>
    <rect height="1" transform="rotate(7 7.5 1)" width="1" x="7" y="0.5"/>
    <rect height="1" transform="rotate(8 8.5 1)" width="1" x="8" y="0.5"/>
    <rect height="1" transform="rotate(9 9.5 1)" width="1" x="9" y="0.5"/>
    <rect height="1" transform="rotate(10 10.5 1)" width="1" x="10" y="0.5"/>
    <rect height="1" transform="rotate(11 11.5 1)" width="1" x="11" y="0.5"/>
    <rect height="1" transform="rotate(13 13.5 1)" width="1" x="13" y="0.5"/>
    <rect height="1" transform="rotate(14 14.5 1)" width="1" x="14" y="0.5"/>
    <rect height="1" transform="rotate(15 15.5 1)" width="1" x="15" y="0.5"/>
    <rect height="1" transform="rotate(16 16.5 1)" width="1" x="16" y="0.5"/>
    <rect height="1" transform="rotate(17 17.5 1)" width="1" x="17" y="0.5"/>
    <rect height="1" transform="rotate(18 18.5 1)" width="1" x="18" y="0.5"/>
    <rect height="1" transform="rotate(19 19.5 1)" width="1" x="19" y="0.5"/>
    <rect height="1" transform="rotate(21 21.5 1)" width="1" x="21" y="0.5"/>
    <rect height="1" transform="rotate(22 22.5 1)" width="1" x="22" y="0.5"/>
    <rect height="1" transform="rotate(24 24.5 1)" width="1" x="24" y="0.5"/>
    <rect height="1" transform="rotate(25 25.5 1)" width="1" x="25" y="0.5"/>
    <rect height="1" transform="rotate(26 26.5 1)" width="1" x="26" y="0.5"/>
    <rect height="1" transform="rotate(27 27.5 1)" width="1" x="27" y="0.5"/>
    <rect height="1" transform="rotate(28 28.5 1)" width="1" x="28" y="0.5"/>
    <rect height="1" transform="rotate(29 29.5 1)" width="1" x="29" y="0.5"/>
    <rect height="1" transform="rotate(30 30.5 1)" width="1" x="30" y="0.5"/>
  </g>
  <g fill="#111" font-family="sans-serif" font-size="0.67" text-anchor="middle">
    <text alignment-baseline="middle" x="0.5" y="1">I</text>
    <text alignment-baseline="middle" x="1.5" y="1">T</text>
    <text alignment-baseline="middle" x="2.5" y="1">'</text>
    <text alignment-baseline="middle" x="3.5" y="1">S</text>
    <text alignment-baseline="middle" x="4.5" y="1"> </text>
    <text alignment-baseline="middle" x="5.5" y="1">T</text>
    <text alignment-baseline="middle" x="6.5" y="1">U</text>
    <text alignment-baseline="middle" x="7.5" y="1">E</text>
    <text alignment-baseline="middle" x="8.5" y="1">S</text>
    <text alignment-baseline="middle" x="9.5" y="1">D</text>
    <text alignment-baseline="middle" x="10.5" y="1">A</text>
    <text alignment-baseline="middle" x="11.5" y="1">Y</text>
    <text alignment-baseline="middle" x="12.5" y="1"> </text>
    <text alignment-baseline="middle" x="13.5" y="1">M</text>
    <text alignment-baseline="middle" x="14.5" y="1">O</text>
    <text alignment-baseline="middle" x="15.5" y="1">R</text>
    <text alignment-baseline="middle" x="16.5" y="1">N</text>
    <text alignment-baseline="middle" x="17.5" y="1">I</text>
    <text alignment-baseline="middle" x="18.5" y="1">N</text>
    <text alignment-baseline="middle" x="19.5" y="1">G</text>
    <text alignment-baseline="middle" x="20.5" y="1"> </text>
    <text alignment-baseline="middle" x="21.5" y="1">I</text>
    <text alignment-baseline="middle" x="22.5" y="1">N</text>
    <text alignment-baseline="middle" x="23.5" y="1"> </text>
    <text alignment-baseline="middle" x="24.5" y="1">C</text>
    <text alignment-baseline="middle" x="25.5" y="1">H</text>
    <text alignment-baseline="middle" x="26.5" y="1">I</text>
    <text alignment-baseline="middle" x="27.5" y="1">C</text>
    <text alignment-baseline="middle" x="28.5" y="1">A</text>
    <text alignment-baseline="middle" x="29.5" y="1">G</text>
    <text alignment-baseline="middle" x="30.5" y="1">O</text>
  </g>
  <g fill="none" stroke="#111" stroke-opacity="1" stroke-width="0.05">
    <rect height="1" transform="rotate(0.0 0.5 1)" width="1" x="0" y="0.5"/>
    <rect height="1" transform="rotate(1.641077734365267 1.5 1)" width="1" x="1" y="0.5"/>
    <rect height="1" transform="rotate(2.0240886347973124 2.5 1)" width="1" x="2" y="0.5"/>
    <rect height="1" transform="rotate(5.402588157695262 3.5 1)" width="1" x="3" y="0.5"/>
    <rect height="1" transform="rotate(9.720139601839232 5.5 1)" width="1" x="5" y="0.5"/>
    <rect height="1" transform="rotate(10.548662567607003 6.5 1)" width="1" x="6" y="0.5"/>
    <rect height="1" transform="rotate(11.846871792211346 7.5 1)" width="1" x="7" y="0.5"/>
    <rect height="1" transform="rotate(11.524172152333712 8.5 1)" width="1" x="8" y="0.5"/>
    <rect height="1" transform="rotate(15.209649586828487 9.5 1)" width="1" x="9" y="0.5"/>
    <rect height="1" transform="rotate(11.945511893062568 10.5 1)" width="1" x="10" y="0.5"/>
    <rect height="1" transform="rotate(12.290484590562233 11.5 1)" width="1" x="11" y="0.5"/>
    <rect height="1" transform="rotate(14.73745141904831 13.5 1)" width="1" x="13" y="0.5"/>
    <rect height="1" transform="rotate(20.434851852953134 14.5 1)" width="1" x="14" y="0.5"/>
    <rect height="1" transform="rotate(25.07582030255871 15.5 1)" width="1" x="15" y="0.5"/>
    <rect height="1" transform="rotate(21.434159477099485 16.5 1)" width="1" x="16" y="0.5"/>
    <rect height="1" transform="rotate(28.068627349673104 17.5 1)" width="1" x="17" y="0.5"/>
    <rect height="1" transform="rotate(29.33851295644019 18.5 1)" width="1" x="18" y="0.5"/>
    <rect height="1" transform="rotate(27.145901577430074 19.5 1)" width="1" x="19" y="0.5"/>
    <rect height="1" transform="rotate(27.231892377564208 21.5 1)" width="1" x="21" y="0.5"/>
    <rect height="1" transform="rotate(35.191208727845314 22.5 1)" width="1" x="22" y="0.5"/>
    <rect height="1" transform="rotate(33.836258362615375 24.5 1)" width="1" x="24" y="0.5"/>
    <rect height="1" transform="rotate(45.72340123200716 25.5 1)" width="1" x="25" y="0.5"/>
    <rect height="1" transform="rotate(43.9605458458543 26.5 1)" width="1" x="26" y="0.5"/>
    <rect height="1" transform="rotate(51.662109291212914 27.5 1)" width="1" x="27" y="0.5"/>
    <rect height="1" transform="rotate(35.801668443299334 28.5 1)" width="1" x="28" y="0.5"/>
    <rect height="1" transform="rotate(37.02697497554697 29.5 1)" width="1" x="29" y="0.5"/>
    <rect height="1" transform="rotate(33.88553011293494 30.5 1)" width="1" x="30" y="0.5"/>
  </g>
</svg>
