<?xml version="1.0" encoding="utf-8" ?>
<svg xmlns="http://www.w3.org/2000/svg" xmlns:ev="http://www.w3.org/2001/xml-events" xmlns:xlink="http://www.w3.org/1999/xlink" baseProfile="full" height="100%" version="1.1" viewBox="-1 0 32 2" width="100%">
  <defs/>
  <rect fill="#eee" height="2" width="32" x="-1" y="0"/>
  <g fill="#fff59e" stroke="#111" stroke-opacity="1" stroke-width="0.05">
    <rect height="1" transform="rotate(0 0.5 1)" width="1" x="0" y="0.5"/>
    <rect height="1" transform="rotate(1 1.5 1)" width="1" x="1" y="0.5"/>
    <rect height="1" transform="rotate(2 2.5 1)" width="1" x="2" y="0.5"/>
    <rect height="1" transform="rotate(3 3.5 1)" width="1" x="3" y="0.5"/>
    <rect height="1" transform="rotate(5 5.5 1)" width="1" x="5" y="0.5"/>
    <rect height="1" transform="rotate(6 6.5 1)" width="1" x="6" y="0.5"/>
    <rect height="1" transform="rotate(7 7.5 1)" width="1" x="7" y="0.5"/>
    <rect height="1" transform="rotate(8 8.5 1)" width="1" x="8" y="0.5"/>
    <rect height="1" transform="rotate(9 9.5 1)" width="1" x="9" y="0.5"/>
    <rect height="1" transform="rotate(10 10.5 1)" width="1" x="10" y="0.5"/>
    <rect height="1" transform="rotate(12 12.5 1)" width="1" x="12" y="0.5"/>
    <rect height="1" transform="rotate(13 13.5 1)" width="1" x="13" y="0.5"/>
    <rect height="1" transform="rotate(14 14.5 1)" width="1" x="14" y="0.5"/>
    <rect height="1" transform="rotate(15 15.5 1)" width="1" x="15" y="0.5"/>
    <rect height="1" transform="rotate(16 16.5 1)" width="1" x="16" y="0.5"/>
    <rect height="1" transform="rotate(17 17.5 1)" width="1" x="17" y="0.5"/>
    <rect height="1" transform="rotate(18 18.5 1)" width="1" x="18" y="0.5"/>
    <rect height="1" transform="rotate(20 20.5 1)" width="1" x="20" y="0.5"/>
    <rect height="1" transform="rotate(21 21.5 1)" width="1" x="21" y="0.5"/>
    <rect height="1" transform="rotate(23 23.5 1)" width="1" x="23" y="0.5"/>
    <rect height="1" transform="rotate(24 24.5 1)" width="1" x="24" y="0.5"/>
    <rect height="1" transform="rotate(25 25.5 1)" width="1" x="25" y="0.5"/>
    <rect height="1" transform="rotate(26 26.5 1)" width="1" x="26" y="0.5"/>
    <rect height="1" transform="rotate(27 27.5 1)" width="1" x="27" y="0.5"/>
    <rect height="1" transform="rotate(28 28.5 1)" width="1" x="28" y="0.5"/>
    <rect height="1" transform="rotate(29 29.5 1)" width="1" x="29" y="0.5"/>
  </g>
  <g fill="#111" font-family="sans-serif" font-size="0.67" text-anchor="middle">
    <text alignment-baseline="middle" x="0.5" y="1">I</text>
    <text alignment-baseline="middle" x="1.5" y="1">T</text>
    <text alignment-baseline="middle" x="2.5" y="1">'</text>
    <text alignment-baseline="middle" x="3.5" y="1">S</text>
    <text alignment-baseline="middle" x="4.5" y="1"> </text>
    <text alignment-baseline="middle" x="5.5" y="1">S</text>
    <text alignment-baseline="middle" x="6.5" y="1">U</text>
    <text alignment-baseline="middle" x="7.5" y="1">N</text>
    <text alignment-baseline="middle" x="8.5" y="1">D</text>
    <text alignment-baseline="middle" x="9.5" y="1">A</text>
    <text alignment-baseline="middle" x="10.5" y="1">Y</text>
    <text alignment-baseline="middle" x="11.5" y="1"> </text>
    <text alignment-baseline="middle" x="12.5" y="1">M</text>
    <text alignment-baseline="middle" x="13.5" y="1">O</text>
    <text alignment-baseline="middle" x="14.5" y="1">R</text>
    <text alignment-baseline="middle" x="15.5" y="1">N</text>
    <text alignment-baseline="middle" x="16.5" y="1">I</text>
    <text alignment-baseline="middle" x="17.5" y="1">N</text>
    <text alignment-baseline="middle" x="18.5" y="1">G</text>
    <text alignment-baseline="middle" x="19.5" y="1"> </text>
    <text alignment-baseline="middle" x="20.5" y="1">I</text>
    <text alignment-baseline="middle" x="21.5" y="1">N</text>
    <text alignment-baseline="middle" x="22.5" y="1"> </text>
    <text alignment-baseline="middle" x="23.5" y="1">C</text>
    <text alignment-baseline="middle" x="24.5" y="1">H</text>
    <text alignment-baseline="middle" x="25.5" y="1">I</text>
    <text alignment-baseline="middle" x="26.5" y="1">C</text>
    <text alignment-baseline="middle" x="27.5" y="1">A</text>
    <text alignment-baseline="middle" x="28.5" y="1">G</text>
    <text alignment-baseline="middle" x="29.5" y="1">O</text>
  </g>
  <g fill="none" stroke="#111" stroke-opacity="1" stroke-width="0.05">
    <rect height="1" transform="rotate(0.0 0.5 1)" width="1" x="0" y="0.5"/>
    <rect height="1" transform="rotate(1.1561320164820295 1.5 1)" width="1" x="1" y="0.5"/>
    <rect height="1" transform="rotate(3.264024448210451 2.5 1)" width="1" x="2" y="0.5"/>
    <rect height="1" transform="rotate(4.629943929533571 3.5 1)" width="1" x="3" y="0.5"/>
    <rect height="1" transform="rotate(8.140814342925001 5.5 1)" width="1" x="5" y="0.5"/>
    <rect height="1" transform="rotate(6.8911011147353864 6.5 1)" width="1" x="6" y="0.5"/>
    <rect height="1" transform="rotate(7.610203231606475 7.5 1)" width="1" x="7" y="0.5"/>
    <rect height="1" transform="rotate(8.910747916519483 8.5 1)" width="1" x="8" y="0.5"/>
    <rect height="1" transform="rotate(15.38991285726141 9.5 1)" width="1" x="9" y="0.5"/>
    <rect height="1" transform="rotate(13.613100811582463 10.5 1)" width="1" x="10" y="0.5"/>
    <rect height="1" transform="rotate(16.516476229030975 12.5 1)" width="1" x="12" y="0.5"/>
    <rect height="1" transform="rotate(19.291539912888837 13.5 1)" width="1" x="13" y="0.5"/>
    <rect height="1" transform="rotate(27.962650871871606 14.5 1)" width="1" x="14" y="0.5"/>
    <rect height="1" transform="rotate(20.627552402343174 15.5 1)" width="1" x="15" y="0.5"/>
    <rect height="1" transform="rotate(26.779270090785836 16.5 1)" width="1" x="16" y="0.5"/>
    <rect height="1" transform="rotate(21.919759535235592 17.5 1)" width="1" x="17" y="0.5"/>
    <rect height="1" transform="rotate(29.231285357962054 18.5 1)" width="1" x="18" y="0.5"/>
    <rect height="1" transform="rotate(27.184012743647124 20.5 1)" width="1" x="20" y="0.5"/>
    <rect height="1" transform="rotate(21.86141452022389 21.5 1)" width="1" x="21" y="0.5"/>
    <rect height="1" transform="rotate(35.21975738505556 23.5 1)" width="1" x="23" y="0.5"/>
    <rect height="1" transform="rotate(26.116473016022674 24.5 1)" width="1" x="24" y="0.5"/>
    <rect height="1" transform="rotate(26.257211369281 25.5 1)" width="1" x="25" y="0.5"/>
    <rect height="1" transform="rotate(41.64718784736437 26.5 1)" width="1" x="26" y="0.5"/>
    <rect height="1" transform="rotate(52.15874748855873 27.5 1)" width="1" x="27" y="0.5"/>
    <rect height="1" transform="rotate(28.07275341872502 28.5 1)" width="1" x="28" y="0.5"/>
    <rect height="1" transform="rotate(56.29686283696345 29.5 1)" width="1" x="29" y="0.5"/>
  </g>
</svg>
