<?xml version="1.0" encoding="utf-8" ?>
<svg xmlns="http://www.w3.org/2000/svg" xmlns:ev="http://www.w3.org/2001/xml-events" xmlns:xlink="http://www.w3.org/1999/xlink" baseProfile="full" height="100%" version="1.1" viewBox="-1 0 32 2" width="100%">
  <defs/>
  <rect fill="#eee" height="2" width="32" x="-1" y="0"/>
  <g fill="#fff59e" stroke="#111" stroke-opacity="1" stroke-width="0.05">
    <rect height="1" transform="rotate(0 0.5 1)" width="1" x="0" y="0.5"/>
    <rect height="1" transform="rotate(1 1.5 1)" width="1" x="1" y="0.5"/>
    <rect height="1" transform="rotate(2 2.5 1)" width="1" x="2" y="0.5"/>
    <rect height="1" transform="rotate(3 3.5 1)" width="1" x="3" y="0.5"/>
    <rect height="1" transform="rotate(5 5.5 1)" width="1" x="5" y="0.5"/>
    <rect height="1" transform="rotate(6 6.5 1)" width="1" x="6" y="0.5"/>
    <rect height="1" transform="rotate(7 7.5 1)" width="1" x="7" y="0.5"/>
    <rect height="1" transform="rotate(8 8.5 1)" width="1" x="8" y="0.5"/>
    <rect height="1" transform="rotate(9 9.5 1)" width="1" x="9" y="0.5"/>
    <rect height="1" transform="rotate(10 10.5 1)" width="1" x="10" y="0.5"/>
    <rect height="1" transform="rotate(12 12.5 1)" width="1" x="12" y="0.5"/>
    <rect height="1" transform="rotate(13 13.5 1)" width="1" x="13" y="0.5"/>
    <rect height="1" transform="rotate(14 14.5 1)" width="1" x="14" y="0.5"/>
    <rect height="1" transform="rotate(15 15.5 1)" width="1" x="15" y="0.5"/>
    <rect height="1" transform="rotate(16 16.5 1)" width="1" x="16" y="0.5"/>
    <rect height="1" transform="rotate(17 17.5 1)" width="1" x="17" y="0.5"/>
    <rect height="1" transform="rotate(18 18.5 1)" width="1" x="18" y="0.5"/>
    <rect height="1" transform="rotate(20 20.5 1)" width="1" x="20" y="0.5"/>
    <rect height="1" transform="rotate(21 21.5 1)" width="1" x="21" y="0.5"/>
    <rect height="1" transform="rotate(23 23.5 1)" width="1" x="23" y="0.5"/>
    <rect height="1" transform="rotate(24 24.5 1)" width="1" x="24" y="0.5"/>
    <rect height="1" transform="rotate(25 25.5 1)" width="1" x="25" y="0.5"/>
    <rect height="1" transform="rotate(26 26.5 1)" width="1" x="26" y="0.5"/>
    <rect height="1" transform="rotate(27 27.5 1)" width="1" x="27" y="0.5"/>
    <rect height="1" transform="rotate(28 28.5 1)" width="1" x="28" y="0.5"/>
    <rect height="1" transform="rotate(29 29.5 1)" width="1" x="29" y="0.5"/>
  </g>
  <g fill="#111" font-family="sans-serif" font-size="0.67" text-anchor="middle">
    <text alignment-baseline="middle" x="0.5" y="1">I</text>
    <text alignment-baseline="middle" x="1.5" y="1">T</text>
    <text alignment-baseline="middle" x="2.5" y="1">'</text>
    <text alignment-baseline="middle" x="3.5" y="1">S</text>
    <text alignment-baseline="middle" x="4.5" y="1"> </text>
    <text alignment-baseline="middle" x="5.5" y="1">S</text>
    <text alignment-baseline="middle" x="6.5" y="1">U</text>
    <text alignment-baseline="middle" x="7.5" y="1">N</text>
    <text alignment-baseline="middle" x="8.5" y="1">D</text>
    <text alignment-baseline="middle" x="9.5" y="1">A</text>
    <text alignment-baseline="middle" x="10.5" y="1">Y</text>
    <text alignment-baseline="middle" x="11.5" y="1"> </text>
    <text alignment-baseline="middle" x="12.5" y="1">M</text>
    <text alignment-baseline="middle" x="13.5" y="1">O</text>
    <text alignment-baseline="middle" x="14.5" y="1">R</text>
    <text alignment-baseline="middle" x="15.5" y="1">N</text>
    <text alignment-baseline="middle" x="16.5" y="1">I</text>
    <text alignment-baseline="middle" x="17.5" y="1">N</text>
    <text alignment-baseline="middle" x="18.5" y="1">G</text>
    <text alignment-baseline="middle" x="19.5" y="1"> </text>
    <text alignment-baseline="middle" x="20.5" y="1">I</text>
    <text alignment-baseline="middle" x="21.5" y="1">N</text>
    <text alignment-baseline="middle" x="22.5" y="1"> </text>
    <text alignment-baseline="middle" x="23.5" y="1">C</text>
    <text alignment-baseline="middle" x="24.5" y="1">H</text>
    <text alignment-baseline="middle" x="25.5" y="1">I</text>
    <text alignment-baseline="middle" x="26.5" y="1">C</text>
    <text alignment-baseline="middle" x="27.5" y="1">A</text>
    <text alignment-baseline="middle" x="28.5" y="1">G</text>
    <text alignment-baseline="middle" x="29.5" y="1">O</text>
  </g>
  <g fill="none" stroke="#111" stroke-opacity="1" stroke-width="0.05">
    <rect height="1" transform="rotate(0.0 0.5 1)" width="1" x="0" y="0.5"/>
    <rect height="1" transform="rotate(1.5610046603917038 1.5 1)" width="1" x="1" y="0.5"/>
    <rect height="1" transform="rotate(3.4422782247963335 2.5 1)" width="1" x="2" y="0.5"/>
    <rect height="1" transform="rotate(3.512181220585762 3.5 1)" width="1" x="3" y="0.5"/>
    <rect height="1" transform="rotate(7.045609951356622 5.5 1)" width="1" x="5" y="0.5"/>
    <rect height="1" transform="rotate(7.016010012735382 6.5 1)" width="1" x="6" y="0.5"/>
    <rect height="1" transform="rotate(7.8232454245252026 7.5 1)" width="1" x="7" y="0.5"/>
    <rect height="1" transform="rotate(11.175526665423268 8.5 1)" width="1" x="8" y="0.5"/>
    <rect height="1" transform="rotate(9.005490274920096 9.5 1)" width="1" x="9" y="0.5"/>
    <rect height="1" transform="rotate(12.45024042634256 10.5 1)" width="1" x="10" y="0.5"/>
    <rect height="1" transform="rotate(22.487713425953082 12.5 1)" width="1" x="12" y="0.5"/>
    <rect height="1" transform="rotate(14.209777417387514 13.5 1)" width="1" x="13" y="0.5"/>
    <rect height="1" transform="rotate(21.861773604242956 14.5 1)" width="1" x="14" y="0.5"/>
    <rect height="1" transform="rotate(17.422404561352486 15.5 1)" width="1" x="15" y="0.5"/>
    <rect height="1" transform="rotate(29.015413154970922 16.5 1)" width="1" x="16" y="0.5"/>
    <rect height="1" transform="rotate(27.37985963827127 17.5 1)" width="1" x="17" y="0.5"/>
    <rect height="1" transform="rotate(29.524919385779505 18.5 1)" width="1" x="18" y="0.5"/>
    <rect height="1" transform="rotate(29.196712858528755 20.5 1)" width="1" x="20" y="0.5"/>
    <rect height="1" transform="rotate(34.80294185213079 21.5 1)" width="1" x="21" y="0.5"/>
    <rect height="1" transform="rotate(37.955598325038295 23.5 1)" width="1" x="23" y="0.5"/>
    <rect height="1" transform="rotate(29.154584874079855 24.5 1)" width="1" x="24" y="0.5"/>
    <rect height="1" transform="rotate(37.29618665541506 25.5 1)" width="1" x="25" y="0.5"/>
    <rect height="1" transform="rotate(31.931631122147955 26.5 1)" width="1" x="26" y="0.5"/>
    <rect height="1" transform="rotate(35.60595750090928 27.5 1)" width="1" x="27" y="0.5"/>
    <rect height="1" transform="rotate(29.874380819109682 28.5 1)" width="1" x="28" y="0.5"/>
    <rect height="1" transform="rotate(32.56125700590521 29.5 1)" width="1" x="29" y="0.5"/>
  </g>
</svg>
