<?xml version="1.0" encoding="utf-8" ?>
<svg xmlns="http://www.w3.org/2000/svg" xmlns:ev="http://www.w3.org/2001/xml-events" xmlns:xlink="http://www.w3.org/1999/xlink" baseProfile="full" height="100%" version="1.1" viewBox="-1 0 34 2" width="100%">
  <defs/>
  <rect fill="#eee" height="2" width="34" x="-1" y="0"/>
  <g fill="#80ffcc" stroke="#222" stroke-opacity="1" stroke-width="0.05">
    <rect height="1" transform="rotate(0 0.5 1)" width="1" x="0" y="0.5"/>
    <rect height="1" transform="rotate(1 1.5 1)" width="1" x="1" y="0.5"/>
    <rect height="1" transform="rotate(2 2.5 1)" width="1" x="2" y="0.5"/>
    <rect height="1" transform="rotate(3 3.5 1)" width="1" x="3" y="0.5"/>
    <rect height="1" transform="rotate(5 5.5 1)" width="1" x="5" y="0.5"/>
    <rect height="1" transform="rotate(6 6.5 1)" width="1" x="6" y="0.5"/>
    <rect height="1" transform="rotate(7 7.5 1)" width="1" x="7" y="0.5"/>
    <rect height="1" transform="rotate(8 8.5 1)" width="1" x="8" y="0.5"/>
    <rect height="1" transform="rotate(9 9.5 1)" width="1" x="9" y="0.5"/>
    <rect height="1" transform="rotate(10 10.5 1)" width="1" x="10" y="0.5"/>
    <rect height="1" transform="rotate(12 12.5 1)" width="1" x="12" y="0.5"/>
    <rect height="1" transform="rotate(13 13.5 1)" width="1" x="13" y="0.5"/>
    <rect height="1" transform="rotate(14 14.5 1)" width="1" x="14" y="0.5"/>
    <rect height="1" transform="rotate(15 15.5 1)" width="1" x="15" y="0.5"/>
    <rect height="1" transform="rotate(16 16.5 1)" width="1" x="16" y="0.5"/>
    <rect height="1" transform="rotate(17 17.5 1)" width="1" x="17" y="0.5"/>
    <rect height="1" transform="rotate(18 18.5 1)" width="1" x="18" y="0.5"/>
    <rect height="1" transform="rotate(19 19.5 1)" width="1" x="19" y="0.5"/>
    <rect height="1" transform="rotate(20 20.5 1)" width="1" x="20" y="0.5"/>
    <rect height="1" transform="rotate(22 22.5 1)" width="1" x="22" y="0.5"/>
    <rect height="1" transform="rotate(23 23.5 1)" width="1" x="23" y="0.5"/>
    <rect height="1" transform="rotate(25 25.5 1)" width="1" x="25" y="0.5"/>
    <rect height="1" transform="rotate(26 26.5 1)" width="1" x="26" y="0.5"/>
    <rect height="1" transform="rotate(27 27.5 1)" width="1" x="27" y="0.5"/>
    <rect height="1" transform="rotate(28 28.5 1)" width="1" x="28" y="0.5"/>
    <rect height="1" transform="rotate(29 29.5 1)" width="1" x="29" y="0.5"/>
    <rect height="1" transform="rotate(30 30.5 1)" width="1" x="30" y="0.5"/>
    <rect height="1" transform="rotate(31 31.5 1)" width="1" x="31" y="0.5"/>
  </g>
  <g fill="#222" font-family="sans-serif" font-size="0.67" text-anchor="middle">
    <text alignment-baseline="middle" x="0.5" y="1">I</text>
    <text alignment-baseline="middle" x="1.5" y="1">T</text>
    <text alignment-baseline="middle" x="2.5" y="1">'</text>
    <text alignment-baseline="middle" x="3.5" y="1">S</text>
    <text alignment-baseline="middle" x="4.5" y="1"> </text>
    <text alignment-baseline="middle" x="5.5" y="1">F</text>
    <text alignment-baseline="middle" x="6.5" y="1">R</text>
    <text alignment-baseline="middle" x="7.5" y="1">I</text>
    <text alignment-baseline="middle" x="8.5" y="1">D</text>
    <text alignment-baseline="middle" x="9.5" y="1">A</text>
    <text alignment-baseline="middle" x="10.5" y="1">Y</text>
    <text alignment-baseline="middle" x="11.5" y="1"> </text>
    <text alignment-baseline="middle" x="12.5" y="1">A</text>
    <text alignment-baseline="middle" x="13.5" y="1">F</text>
    <text alignment-baseline="middle" x="14.5" y="1">T</text>
    <text alignment-baseline="middle" x="15.5" y="1">E</text>
    <text alignment-baseline="middle" x="16.5" y="1">R</text>
    <text alignment-baseline="middle" x="17.5" y="1">N</text>
    <text alignment-baseline="middle" x="18.5" y="1">O</text>
    <text alignment-baseline="middle" x="19.5" y="1">O</text>
    <text alignment-baseline="middle" x="20.5" y="1">N</text>
    <text alignment-baseline="middle" x="21.5" y="1"> </text>
    <text alignment-baseline="middle" x="22.5" y="1">I</text>
    <text alignment-baseline="middle" x="23.5" y="1">N</text>
    <text alignment-baseline="middle" x="24.5" y="1"> </text>
    <text alignment-baseline="middle" x="25.5" y="1">C</text>
    <text alignment-baseline="middle" x="26.5" y="1">H</text>
    <text alignment-baseline="middle" x="27.5" y="1">I</text>
    <text alignment-baseline="middle" x="28.5" y="1">C</text>
    <text alignment-baseline="middle" x="29.5" y="1">A</text>
    <text alignment-baseline="middle" x="30.5" y="1">G</text>
    <text alignment-baseline="middle" x="31.5" y="1">O</text>
  </g>
  <g fill="none" stroke="#222" stroke-opacity="1" stroke-width="0.05">
    <rect height="1" transform="rotate(0.0 0.5 1)" width="1" x="0" y="0.5"/>
    <rect height="1" transform="rotate(1.8055632880415649 1.5 1)" width="1" x="1" y="0.5"/>
    <rect height="1" transform="rotate(2.415177996683213 2.5 1)" width="1" x="2" y="0.5"/>
    <rect height="1" transform="rotate(4.348113157999201 3.5 1)" width="1" x="3" y="0.5"/>
    <rect height="1" transform="rotate(5.445275090113779 5.5 1)" width="1" x="5" y="0.5"/>
    <rect height="1" transform="rotate(9.634679524269153 6.5 1)" width="1" x="6" y="0.5"/>
    <rect height="1" transform="rotate(12.964884554269492 7.5 1)" width="1" x="7" y="0.5"/>
    <rect height="1" transform="rotate(8.394675633866811 8.5 1)" width="1" x="8" y="0.5"/>
    <rect height="1" transform="rotate(13.539568160433078 9.5 1)" width="1" x="9" y="0.5"/>
    <rect height="1" transform="rotate(12.453481617374297 10.5 1)" width="1" x="10" y="0.5"/>
    <rect height="1" transform="rotate(20.906190295176827 12.5 1)" width="1" x="12" y="0.5"/>
    <rect height="1" transform="rotate(23.65793603095687 13.5 1)" width="1" x="13" y="0.5"/>
    <rect height="1" transform="rotate(14.658070346029438 14.5 1)" width="1" x="14" y="0.5"/>
    <rect height="1" transform="rotate(24.41248918717365 15.5 1)" width="1" x="15" y="0.5"/>
    <rect height="1" transform="rotate(28.795473495162884 16.5 1)" width="1" x="16" y="0.5"/>
    <rect height="1" transform="rotate(31.822733317203596 17.5 1)" width="1" x="17" y="0.5"/>
    <rect height="1" transform="rotate(23.69733892115651 18.5 1)" width="1" x="18" y="0.5"/>
    <rect height="1" transform="rotate(26.11984786679854 19.5 1)" width="1" x="19" y="0.5"/>
    <rect height="1" transform="rotate(22.51206048687167 20.5 1)" width="1" x="20" y="0.5"/>
    <rect height="1" transform="rotate(28.886289270982765 22.5 1)" width="1" x="22" y="0.5"/>
    <rect height="1" transform="rotate(42.99204327175913 23.5 1)" width="1" x="23" y="0.5"/>
    <rect height="1" transform="rotate(42.410525986646306 25.5 1)" width="1" x="25" y="0.5"/>
    <rect height="1" transform="rotate(42.78531110951597 26.5 1)" width="1" x="26" y="0.5"/>
    <rect height="1" transform="rotate(27.48227021831877 27.5 1)" width="1" x="27" y="0.5"/>
    <rect height="1" transform="rotate(31.840216326128946 28.5 1)" width="1" x="28" y="0.5"/>
    <rect height="1" transform="rotate(53.44230819809176 29.5 1)" width="1" x="29" y="0.5"/>
    <rect height="1" transform="rotate(56.80050996348675 30.5 1)" width="1" x="30" y="0.5"/>
    <rect height="1" transform="rotate(61.55314410546452 31.5 1)" width="1" x="31" y="0.5"/>
  </g>
</svg>
