<?xml version="1.0" encoding="utf-8" ?>
<svg xmlns="http://www.w3.org/2000/svg" xmlns:ev="http://www.w3.org/2001/xml-events" xmlns:xlink="http://www.w3.org/1999/xlink" baseProfile="full" height="100%" version="1.1" viewBox="-1 0 37 2" width="100%">
  <defs/>
  <rect fill="#eee" height="2" width="37" x="-1" y="0"/>
  <g fill="#80ffcc" stroke="#222" stroke-opacity="1" stroke-width="0.05">
    <rect height="1" transform="rotate(0 0.5 1)" width="1" x="0" y="0.5"/>
    <rect height="1" transform="rotate(1 1.5 1)" width="1" x="1" y="0.5"/>
    <rect height="1" transform="rotate(2 2.5 1)" width="1" x="2" y="0.5"/>
    <rect height="1" transform="rotate(3 3.5 1)" width="1" x="3" y="0.5"/>
    <rect height="1" transform="rotate(5 5.5 1)" width="1" x="5" y="0.5"/>
    <rect height="1" transform="rotate(6 6.5 1)" width="1" x="6" y="0.5"/>
    <rect height="1" transform="rotate(7 7.5 1)" width="1" x="7" y="0.5"/>
    <rect height="1" transform="rotate(8 8.5 1)" width="1" x="8" y="0.5"/>
    <rect height="1" transform="rotate(9 9.5 1)" width="1" x="9" y="0.5"/>
    <rect height="1" transform="rotate(10 10.5 1)" width="1" x="10" y="0.5"/>
    <rect height="1" transform="rotate(11 11.5 1)" width="1" x="11" y="0.5"/>
    <rect height="1" transform="rotate(12 12.5 1)" width="1" x="12" y="0.5"/>
    <rect height="1" transform="rotate(13 13.5 1)" width="1" x="13" y="0.5"/>
    <rect height="1" transform="rotate(15 15.5 1)" width="1" x="15" y="0.5"/>
    <rect height="1" transform="rotate(16 16.5 1)" width="1" x="16" y="0.5"/>
    <rect height="1" transform="rotate(17 17.5 1)" width="1" x="17" y="0.5"/>
    <rect height="1" transform="rotate(18 18.5 1)" width="1" x="18" y="0.5"/>
    <rect height="1" transform="rotate(19 19.5 1)" width="1" x="19" y="0.5"/>
    <rect height="1" transform="rotate(20 20.5 1)" width="1" x="20" y="0.5"/>
    <rect height="1" transform="rotate(21 21.5 1)" width="1" x="21" y="0.5"/>
    <rect height="1" transform="rotate(22 22.5 1)" width="1" x="22" y="0.5"/>
    <rect height="1" transform="rotate(23 23.5 1)" width="1" x="23" y="0.5"/>
    <rect height="1" transform="rotate(25 25.5 1)" width="1" x="25" y="0.5"/>
    <rect height="1" transform="rotate(26 26.5 1)" width="1" x="26" y="0.5"/>
    <rect height="1" transform="rotate(28 28.5 1)" width="1" x="28" y="0.5"/>
    <rect height="1" transform="rotate(29 29.5 1)" width="1" x="29" y="0.5"/>
    <rect height="1" transform="rotate(30 30.5 1)" width="1" x="30" y="0.5"/>
    <rect height="1" transform="rotate(31 31.5 1)" width="1" x="31" y="0.5"/>
    <rect height="1" transform="rotate(32 32.5 1)" width="1" x="32" y="0.5"/>
    <rect height="1" transform="rotate(33 33.5 1)" width="1" x="33" y="0.5"/>
    <rect height="1" transform="rotate(34 34.5 1)" width="1" x="34" y="0.5"/>
  </g>
  <g fill="#222" font-family="sans-serif" font-size="0.67" text-anchor="middle">
    <text alignment-baseline="middle" x="0.5" y="1">I</text>
    <text alignment-baseline="middle" x="1.5" y="1">T</text>
    <text alignment-baseline="middle" x="2.5" y="1">'</text>
    <text alignment-baseline="middle" x="3.5" y="1">S</text>
    <text alignment-baseline="middle" x="4.5" y="1"> </text>
    <text alignment-baseline="middle" x="5.5" y="1">W</text>
    <text alignment-baseline="middle" x="6.5" y="1">E</text>
    <text alignment-baseline="middle" x="7.5" y="1">D</text>
    <text alignment-baseline="middle" x="8.5" y="1">N</text>
    <text alignment-baseline="middle" x="9.5" y="1">E</text>
    <text alignment-baseline="middle" x="10.5" y="1">S</text>
    <text alignment-baseline="middle" x="11.5" y="1">D</text>
    <text alignment-baseline="middle" x="12.5" y="1">A</text>
    <text alignment-baseline="middle" x="13.5" y="1">Y</text>
    <text alignment-baseline="middle" x="14.5" y="1"> </text>
    <text alignment-baseline="middle" x="15.5" y="1">A</text>
    <text alignment-baseline="middle" x="16.5" y="1">F</text>
    <text alignment-baseline="middle" x="17.5" y="1">T</text>
    <text alignment-baseline="middle" x="18.5" y="1">E</text>
    <text alignment-baseline="middle" x="19.5" y="1">R</text>
    <text alignment-baseline="middle" x="20.5" y="1">N</text>
    <text alignment-baseline="middle" x="21.5" y="1">O</text>
    <text alignment-baseline="middle" x="22.5" y="1">O</text>
    <text alignment-baseline="middle" x="23.5" y="1">N</text>
    <text alignment-baseline="middle" x="24.5" y="1"> </text>
    <text alignment-baseline="middle" x="25.5" y="1">I</text>
    <text alignment-baseline="middle" x="26.5" y="1">N</text>
    <text alignment-baseline="middle" x="27.5" y="1"> </text>
    <text alignment-baseline="middle" x="28.5" y="1">C</text>
    <text alignment-baseline="middle" x="29.5" y="1">H</text>
    <text alignment-baseline="middle" x="30.5" y="1">I</text>
    <text alignment-baseline="middle" x="31.5" y="1">C</text>
    <text alignment-baseline="middle" x="32.5" y="1">A</text>
    <text alignment-baseline="middle" x="33.5" y="1">G</text>
    <text alignment-baseline="middle" x="34.5" y="1">O</text>
  </g>
  <g fill="none" stroke="#222" stroke-opacity="1" stroke-width="0.05">
    <rect height="1" transform="rotate(0.0 0.5 1)" width="1" x="0" y="0.5"/>
    <rect height="1" transform="rotate(1.6831819051727974 1.5 1)" width="1" x="1" y="0.5"/>
    <rect height="1" transform="rotate(3.689804357137271 2.5 1)" width="1" x="2" y="0.5"/>
    <rect height="1" transform="rotate(3.4573140519205943 3.5 1)" width="1" x="3" y="0.5"/>
    <rect height="1" transform="rotate(7.452452230287443 5.5 1)" width="1" x="5" y="0.5"/>
    <rect height="1" transform="rotate(7.589995402660348 6.5 1)" width="1" x="6" y="0.5"/>
    <rect height="1" transform="rotate(11.907980533289924 7.5 1)" width="1" x="7" y="0.5"/>
    <rect height="1" transform="rotate(8.206730346916231 8.5 1)" width="1" x="8" y="0.5"/>
    <rect height="1" transform="rotate(13.824191021988284 9.5 1)" width="1" x="9" y="0.5"/>
    <rect height="1" transform="rotate(17.584078469316843 10.5 1)" width="1" x="10" y="0.5"/>
    <rect height="1" transform="rotate(12.654120395888842 11.5 1)" width="1" x="11" y="0.5"/>
    <rect height="1" transform="rotate(17.044849119719043 12.5 1)" width="1" x="12" y="0.5"/>
    <rect height="1" transform="rotate(15.593191056044478 13.5 1)" width="1" x="13" y="0.5"/>
    <rect height="1" transform="rotate(28.958803042976925 15.5 1)" width="1" x="15" y="0.5"/>
    <rect height="1" transform="rotate(23.262909572508317 16.5 1)" width="1" x="16" y="0.5"/>
    <rect height="1" transform="rotate(25.361019168480258 17.5 1)" width="1" x="17" y="0.5"/>
    <rect height="1" transform="rotate(23.65855540434748 18.5 1)" width="1" x="18" y="0.5"/>
    <rect height="1" transform="rotate(32.70904480933656 19.5 1)" width="1" x="19" y="0.5"/>
    <rect height="1" transform="rotate(31.73524083711242 20.5 1)" width="1" x="20" y="0.5"/>
    <rect height="1" transform="rotate(39.486096718284855 21.5 1)" width="1" x="21" y="0.5"/>
    <rect height="1" transform="rotate(37.79634735982204 22.5 1)" width="1" x="22" y="0.5"/>
    <rect height="1" transform="rotate(33.31050579607275 23.5 1)" width="1" x="23" y="0.5"/>
    <rect height="1" transform="rotate(28.618976224670767 25.5 1)" width="1" x="25" y="0.5"/>
    <rect height="1" transform="rotate(27.896913823092856 26.5 1)" width="1" x="26" y="0.5"/>
    <rect height="1" transform="rotate(35.85607803639735 28.5 1)" width="1" x="28" y="0.5"/>
    <rect height="1" transform="rotate(32.356866320084904 29.5 1)" width="1" x="29" y="0.5"/>
    <rect height="1" transform="rotate(58.74411296510625 30.5 1)" width="1" x="30" y="0.5"/>
    <rect height="1" transform="rotate(41.5112974297563 31.5 1)" width="1" x="31" y="0.5"/>
    <rect height="1" transform="rotate(47.312567832525275 32.5 1)" width="1" x="32" y="0.5"/>
    <rect height="1" transform="rotate(34.948661578432 33.5 1)" width="1" x="33" y="0.5"/>
    <rect height="1" transform="rotate(64.24654316317681 34.5 1)" width="1" x="34" y="0.5"/>
  </g>
</svg>
