<?xml version="1.0" encoding="utf-8" ?>
<svg xmlns="http://www.w3.org/2000/svg" xmlns:ev="http://www.w3.org/2001/xml-events" xmlns:xlink="http://www.w3.org/1999/xlink" baseProfile="full" height="100%" version="1.1" viewBox="-1 0 31 2" width="100%">
  <defs/>
  <rect fill="#111" height="2" width="31" x="-1" y="0"/>
  <g fill="#a10045" stroke="#eee" stroke-opacity="1" stroke-width="0.05">
    <rect height="1" transform="rotate(0 0.5 1)" width="1" x="0" y="0.5"/>
    <rect height="1" transform="rotate(1 1.5 1)" width="1" x="1" y="0.5"/>
    <rect height="1" transform="rotate(2 2.5 1)" width="1" x="2" y="0.5"/>
    <rect height="1" transform="rotate(3 3.5 1)" width="1" x="3" y="0.5"/>
    <rect height="1" transform="rotate(5 5.5 1)" width="1" x="5" y="0.5"/>
    <rect height="1" transform="rotate(6 6.5 1)" width="1" x="6" y="0.5"/>
    <rect height="1" transform="rotate(7 7.5 1)" width="1" x="7" y="0.5"/>
    <rect height="1" transform="rotate(8 8.5 1)" width="1" x="8" y="0.5"/>
    <rect height="1" transform="rotate(9 9.5 1)" width="1" x="9" y="0.5"/>
    <rect height="1" transform="rotate(10 10.5 1)" width="1" x="10" y="0.5"/>
    <rect height="1" transform="rotate(11 11.5 1)" width="1" x="11" y="0.5"/>
    <rect height="1" transform="rotate(13 13.5 1)" width="1" x="13" y="0.5"/>
    <rect height="1" transform="rotate(14 14.5 1)" width="1" x="14" y="0.5"/>
    <rect height="1" transform="rotate(15 15.5 1)" width="1" x="15" y="0.5"/>
    <rect height="1" transform="rotate(16 16.5 1)" width="1" x="16" y="0.5"/>
    <rect height="1" transform="rotate(17 17.5 1)" width="1" x="17" y="0.5"/>
    <rect height="1" transform="rotate(19 19.5 1)" width="1" x="19" y="0.5"/>
    <rect height="1" transform="rotate(20 20.5 1)" width="1" x="20" y="0.5"/>
    <rect height="1" transform="rotate(22 22.5 1)" width="1" x="22" y="0.5"/>
    <rect height="1" transform="rotate(23 23.5 1)" width="1" x="23" y="0.5"/>
    <rect height="1" transform="rotate(24 24.5 1)" width="1" x="24" y="0.5"/>
    <rect height="1" transform="rotate(25 25.5 1)" width="1" x="25" y="0.5"/>
    <rect height="1" transform="rotate(26 26.5 1)" width="1" x="26" y="0.5"/>
    <rect height="1" transform="rotate(27 27.5 1)" width="1" x="27" y="0.5"/>
    <rect height="1" transform="rotate(28 28.5 1)" width="1" x="28" y="0.5"/>
  </g>
  <g fill="#eee" font-family="sans-serif" font-size="0.67" text-anchor="middle">
    <text alignment-baseline="middle" x="0.5" y="1">I</text>
    <text alignment-baseline="middle" x="1.5" y="1">T</text>
    <text alignment-baseline="middle" x="2.5" y="1">'</text>
    <text alignment-baseline="middle" x="3.5" y="1">S</text>
    <text alignment-baseline="middle" x="4.5" y="1"> </text>
    <text alignment-baseline="middle" x="5.5" y="1">T</text>
    <text alignment-baseline="middle" x="6.5" y="1">U</text>
    <text alignment-baseline="middle" x="7.5" y="1">E</text>
    <text alignment-baseline="middle" x="8.5" y="1">S</text>
    <text alignment-baseline="middle" x="9.5" y="1">D</text>
    <text alignment-baseline="middle" x="10.5" y="1">A</text>
    <text alignment-baseline="middle" x="11.5" y="1">Y</text>
    <text alignment-baseline="middle" x="12.5" y="1"> </text>
    <text alignment-baseline="middle" x="13.5" y="1">N</text>
    <text alignment-baseline="middle" x="14.5" y="1">I</text>
    <text alignment-baseline="middle" x="15.5" y="1">G</text>
    <text alignment-baseline="middle" x="16.5" y="1">H</text>
    <text alignment-baseline="middle" x="17.5" y="1">T</text>
    <text alignment-baseline="middle" x="18.5" y="1"> </text>
    <text alignment-baseline="middle" x="19.5" y="1">I</text>
    <text alignment-baseline="middle" x="20.5" y="1">N</text>
    <text alignment-baseline="middle" x="21.5" y="1"> </text>
    <text alignment-baseline="middle" x="22.5" y="1">C</text>
    <text alignment-baseline="middle" x="23.5" y="1">H</text>
    <text alignment-baseline="middle" x="24.5" y="1">I</text>
    <text alignment-baseline="middle" x="25.5" y="1">C</text>
    <text alignment-baseline="middle" x="26.5" y="1">A</text>
    <text alignment-baseline="middle" x="27.5" y="1">G</text>
    <text alignment-baseline="middle" x="28.5" y="1">O</text>
  </g>
  <g fill="none" stroke="#eee" stroke-opacity="1" stroke-width="0.05">
    <rect height="1" transform="rotate(0.0 0.5 1)" width="1" x="0" y="0.5"/>
    <rect height="1" transform="rotate(1.4920417349140034 1.5 1)" width="1" x="1" y="0.5"/>
    <rect height="1" transform="rotate(3.2746256510816947 2.5 1)" width="1" x="2" y="0.5"/>
    <rect height="1" transform="rotate(3.8468385652337433 3.5 1)" width="1" x="3" y="0.5"/>
    <rect height="1" transform="rotate(9.574083534603046 5.5 1)" width="1" x="5" y="0.5"/>
    <rect height="1" transform="rotate(8.196238569685562 6.5 1)" width="1" x="6" y="0.5"/>
    <rect height="1" transform="rotate(13.891214719111703 7.5 1)" width="1" x="7" y="0.5"/>
    <rect height="1" transform="rotate(12.628798319124723 8.5 1)" width="1" x="8" y="0.5"/>
    <rect height="1" transform="rotate(9.799344013611165 9.5 1)" width="1" x="9" y="0.5"/>
    <rect height="1" transform="rotate(16.999697573261464 10.5 1)" width="1" x="10" y="0.5"/>
    <rect height="1" transform="rotate(16.457824224413216 11.5 1)" width="1" x="11" y="0.5"/>
    <rect height="1" transform="rotate(24.374456788209145 13.5 1)" width="1" x="13" y="0.5"/>
    <rect height="1" transform="rotate(18.358478335664092 14.5 1)" width="1" x="14" y="0.5"/>
    <rect height="1" transform="rotate(29.464061323337308 15.5 1)" width="1" x="15" y="0.5"/>
    <rect height="1" transform="rotate(31.501627079733186 16.5 1)" width="1" x="16" y="0.5"/>
    <rect height="1" transform="rotate(28.120799942449754 17.5 1)" width="1" x="17" y="0.5"/>
    <rect height="1" transform="rotate(27.523182462583595 19.5 1)" width="1" x="19" y="0.5"/>
    <rect height="1" transform="rotate(25.477334340221198 20.5 1)" width="1" x="20" y="0.5"/>
    <rect height="1" transform="rotate(24.95677254465458 22.5 1)" width="1" x="22" y="0.5"/>
    <rect height="1" transform="rotate(24.315338789770255 23.5 1)" width="1" x="23" y="0.5"/>
    <rect height="1" transform="rotate(37.40329511881484 24.5 1)" width="1" x="24" y="0.5"/>
    <rect height="1" transform="rotate(30.531002611429958 25.5 1)" width="1" x="25" y="0.5"/>
    <rect height="1" transform="rotate(48.62505062557525 26.5 1)" width="1" x="26" y="0.5"/>
    <rect height="1" transform="rotate(53.936047965571724 27.5 1)" width="1" x="27" y="0.5"/>
    <rect height="1" transform="rotate(30.33185169433162 28.5 1)" width="1" x="28" y="0.5"/>
  </g>
</svg>
