<?xml version="1.0" encoding="utf-8" ?>
<svg xmlns="http://www.w3.org/2000/svg" xmlns:ev="http://www.w3.org/2001/xml-events" xmlns:xlink="http://www.w3.org/1999/xlink" baseProfile="full" height="100%" version="1.1" viewBox="-1 0 33 2" width="100%">
  <defs/>
  <rect fill="#111" height="2" width="33" x="-1" y="0"/>
  <g fill="#a10045" stroke="#eee" stroke-opacity="1" stroke-width="0.05">
    <rect height="1" transform="rotate(0 0.5 1)" width="1" x="0" y="0.5"/>
    <rect height="1" transform="rotate(1 1.5 1)" width="1" x="1" y="0.5"/>
    <rect height="1" transform="rotate(2 2.5 1)" width="1" x="2" y="0.5"/>
    <rect height="1" transform="rotate(3 3.5 1)" width="1" x="3" y="0.5"/>
    <rect height="1" transform="rotate(5 5.5 1)" width="1" x="5" y="0.5"/>
    <rect height="1" transform="rotate(6 6.5 1)" width="1" x="6" y="0.5"/>
    <rect height="1" transform="rotate(7 7.5 1)" width="1" x="7" y="0.5"/>
    <rect height="1" transform="rotate(8 8.5 1)" width="1" x="8" y="0.5"/>
    <rect height="1" transform="rotate(9 9.5 1)" width="1" x="9" y="0.5"/>
    <rect height="1" transform="rotate(10 10.5 1)" width="1" x="10" y="0.5"/>
    <rect height="1" transform="rotate(11 11.5 1)" width="1" x="11" y="0.5"/>
    <rect height="1" transform="rotate(12 12.5 1)" width="1" x="12" y="0.5"/>
    <rect height="1" transform="rotate(13 13.5 1)" width="1" x="13" y="0.5"/>
    <rect height="1" transform="rotate(15 15.5 1)" width="1" x="15" y="0.5"/>
    <rect height="1" transform="rotate(16 16.5 1)" width="1" x="16" y="0.5"/>
    <rect height="1" transform="rotate(17 17.5 1)" width="1" x="17" y="0.5"/>
    <rect height="1" transform="rotate(18 18.5 1)" width="1" x="18" y="0.5"/>
    <rect height="1" transform="rotate(19 19.5 1)" width="1" x="19" y="0.5"/>
    <rect height="1" transform="rotate(21 21.5 1)" width="1" x="21" y="0.5"/>
    <rect height="1" transform="rotate(22 22.5 1)" width="1" x="22" y="0.5"/>
    <rect height="1" transform="rotate(24 24.5 1)" width="1" x="24" y="0.5"/>
    <rect height="1" transform="rotate(25 25.5 1)" width="1" x="25" y="0.5"/>
    <rect height="1" transform="rotate(26 26.5 1)" width="1" x="26" y="0.5"/>
    <rect height="1" transform="rotate(27 27.5 1)" width="1" x="27" y="0.5"/>
    <rect height="1" transform="rotate(28 28.5 1)" width="1" x="28" y="0.5"/>
    <rect height="1" transform="rotate(29 29.5 1)" width="1" x="29" y="0.5"/>
    <rect height="1" transform="rotate(30 30.5 1)" width="1" x="30" y="0.5"/>
  </g>
  <g fill="#eee" font-family="sans-serif" font-size="0.67" text-anchor="middle">
    <text alignment-baseline="middle" x="0.5" y="1">I</text>
    <text alignment-baseline="middle" x="1.5" y="1">T</text>
    <text alignment-baseline="middle" x="2.5" y="1">'</text>
    <text alignment-baseline="middle" x="3.5" y="1">S</text>
    <text alignment-baseline="middle" x="4.5" y="1"> </text>
    <text alignment-baseline="middle" x="5.5" y="1">W</text>
    <text alignment-baseline="middle" x="6.5" y="1">E</text>
    <text alignment-baseline="middle" x="7.5" y="1">D</text>
    <text alignment-baseline="middle" x="8.5" y="1">N</text>
    <text alignment-baseline="middle" x="9.5" y="1">E</text>
    <text alignment-baseline="middle" x="10.5" y="1">S</text>
    <text alignment-baseline="middle" x="11.5" y="1">D</text>
    <text alignment-baseline="middle" x="12.5" y="1">A</text>
    <text alignment-baseline="middle" x="13.5" y="1">Y</text>
    <text alignment-baseline="middle" x="14.5" y="1"> </text>
    <text alignment-baseline="middle" x="15.5" y="1">N</text>
    <text alignment-baseline="middle" x="16.5" y="1">I</text>
    <text alignment-baseline="middle" x="17.5" y="1">G</text>
    <text alignment-baseline="middle" x="18.5" y="1">H</text>
    <text alignment-baseline="middle" x="19.5" y="1">T</text>
    <text alignment-baseline="middle" x="20.5" y="1"> </text>
    <text alignment-baseline="middle" x="21.5" y="1">I</text>
    <text alignment-baseline="middle" x="22.5" y="1">N</text>
    <text alignment-baseline="middle" x="23.5" y="1"> </text>
    <text alignment-baseline="middle" x="24.5" y="1">C</text>
    <text alignment-baseline="middle" x="25.5" y="1">H</text>
    <text alignment-baseline="middle" x="26.5" y="1">I</text>
    <text alignment-baseline="middle" x="27.5" y="1">C</text>
    <text alignment-baseline="middle" x="28.5" y="1">A</text>
    <text alignment-baseline="middle" x="29.5" y="1">G</text>
    <text alignment-baseline="middle" x="30.5" y="1">O</text>
  </g>
  <g fill="none" stroke="#eee" stroke-opacity="1" stroke-width="0.05">
    <rect height="1" transform="rotate(0.0 0.5 1)" width="1" x="0" y="0.5"/>
    <rect height="1" transform="rotate(1.4470207186892008 1.5 1)" width="1" x="1" y="0.5"/>
    <rect height="1" transform="rotate(3.5268286728645823 2.5 1)" width="1" x="2" y="0.5"/>
    <rect height="1" transform="rotate(4.1291788603777695 3.5 1)" width="1" x="3" y="0.5"/>
    <rect height="1" transform="rotate(5.235036330203673 5.5 1)" width="1" x="5" y="0.5"/>
    <rect height="1" transform="rotate(6.978638603745432 6.5 1)" width="1" x="6" y="0.5"/>
    <rect height="1" transform="rotate(13.223309534621258 7.5 1)" width="1" x="7" y="0.5"/>
    <rect height="1" transform="rotate(10.334335013532058 8.5 1)" width="1" x="8" y="0.5"/>
    <rect height="1" transform="rotate(12.684589679462547 9.5 1)" width="1" x="9" y="0.5"/>
    <rect height="1" transform="rotate(10.103425466605207 10.5 1)" width="1" x="10" y="0.5"/>
    <rect height="1" transform="rotate(19.521629702094238 11.5 1)" width="1" x="11" y="0.5"/>
    <rect height="1" transform="rotate(18.59608264302767 12.5 1)" width="1" x="12" y="0.5"/>
    <rect height="1" transform="rotate(22.781488298624094 13.5 1)" width="1" x="13" y="0.5"/>
    <rect height="1" transform="rotate(23.010128075293903 15.5 1)" width="1" x="15" y="0.5"/>
    <rect height="1" transform="rotate(22.732735044088187 16.5 1)" width="1" x="16" y="0.5"/>
    <rect height="1" transform="rotate(33.7205511690853 17.5 1)" width="1" x="17" y="0.5"/>
    <rect height="1" transform="rotate(18.49482884047028 18.5 1)" width="1" x="18" y="0.5"/>
    <rect height="1" transform="rotate(28.275394898997426 19.5 1)" width="1" x="19" y="0.5"/>
    <rect height="1" transform="rotate(40.237933373839425 21.5 1)" width="1" x="21" y="0.5"/>
    <rect height="1" transform="rotate(36.42540612680974 22.5 1)" width="1" x="22" y="0.5"/>
    <rect height="1" transform="rotate(40.116973149358714 24.5 1)" width="1" x="24" y="0.5"/>
    <rect height="1" transform="rotate(49.34032186439967 25.5 1)" width="1" x="25" y="0.5"/>
    <rect height="1" transform="rotate(26.115472110967815 26.5 1)" width="1" x="26" y="0.5"/>
    <rect height="1" transform="rotate(30.19583639054646 27.5 1)" width="1" x="27" y="0.5"/>
    <rect height="1" transform="rotate(50.76399577029318 28.5 1)" width="1" x="28" y="0.5"/>
    <rect height="1" transform="rotate(38.448325495660235 29.5 1)" width="1" x="29" y="0.5"/>
    <rect height="1" transform="rotate(50.54624374758592 30.5 1)" width="1" x="30" y="0.5"/>
  </g>
</svg>
