<?xml version="1.0" encoding="utf-8" ?>
<svg xmlns="http://www.w3.org/2000/svg" xmlns:ev="http://www.w3.org/2001/xml-events" xmlns:xlink="http://www.w3.org/1999/xlink" baseProfile="full" height="100%" version="1.1" viewBox="-1 0 35 2" width="100%">
  <defs/>
  <rect fill="#eee" height="2" width="35" x="-1" y="0"/>
  <g fill="#80ffcc" stroke="#222" stroke-opacity="1" stroke-width="0.05">
    <rect height="1" transform="rotate(0 0.5 1)" width="1" x="0" y="0.5"/>
    <rect height="1" transform="rotate(1 1.5 1)" width="1" x="1" y="0.5"/>
    <rect height="1" transform="rotate(2 2.5 1)" width="1" x="2" y="0.5"/>
    <rect height="1" transform="rotate(3 3.5 1)" width="1" x="3" y="0.5"/>
    <rect height="1" transform="rotate(5 5.5 1)" width="1" x="5" y="0.5"/>
    <rect height="1" transform="rotate(6 6.5 1)" width="1" x="6" y="0.5"/>
    <rect height="1" transform="rotate(7 7.5 1)" width="1" x="7" y="0.5"/>
    <rect height="1" transform="rotate(8 8.5 1)" width="1" x="8" y="0.5"/>
    <rect height="1" transform="rotate(9 9.5 1)" width="1" x="9" y="0.5"/>
    <rect height="1" transform="rotate(10 10.5 1)" width="1" x="10" y="0.5"/>
    <rect height="1" transform="rotate(11 11.5 1)" width="1" x="11" y="0.5"/>
    <rect height="1" transform="rotate(13 13.5 1)" width="1" x="13" y="0.5"/>
    <rect height="1" transform="rotate(14 14.5 1)" width="1" x="14" y="0.5"/>
    <rect height="1" transform="rotate(15 15.5 1)" width="1" x="15" y="0.5"/>
    <rect height="1" transform="rotate(16 16.5 1)" width="1" x="16" y="0.5"/>
    <rect height="1" transform="rotate(17 17.5 1)" width="1" x="17" y="0.5"/>
    <rect height="1" transform="rotate(18 18.5 1)" width="1" x="18" y="0.5"/>
    <rect height="1" transform="rotate(19 19.5 1)" width="1" x="19" y="0.5"/>
    <rect height="1" transform="rotate(20 20.5 1)" width="1" x="20" y="0.5"/>
    <rect height="1" transform="rotate(21 21.5 1)" width="1" x="21" y="0.5"/>
    <rect height="1" transform="rotate(23 23.5 1)" width="1" x="23" y="0.5"/>
    <rect height="1" transform="rotate(24 24.5 1)" width="1" x="24" y="0.5"/>
    <rect height="1" transform="rotate(26 26.5 1)" width="1" x="26" y="0.5"/>
    <rect height="1" transform="rotate(27 27.5 1)" width="1" x="27" y="0.5"/>
    <rect height="1" transform="rotate(28 28.5 1)" width="1" x="28" y="0.5"/>
    <rect height="1" transform="rotate(29 29.5 1)" width="1" x="29" y="0.5"/>
    <rect height="1" transform="rotate(30 30.5 1)" width="1" x="30" y="0.5"/>
    <rect height="1" transform="rotate(31 31.5 1)" width="1" x="31" y="0.5"/>
    <rect height="1" transform="rotate(32 32.5 1)" width="1" x="32" y="0.5"/>
  </g>
  <g fill="#222" font-family="sans-serif" font-size="0.67" text-anchor="middle">
    <text alignment-baseline="middle" x="0.5" y="1">I</text>
    <text alignment-baseline="middle" x="1.5" y="1">T</text>
    <text alignment-baseline="middle" x="2.5" y="1">'</text>
    <text alignment-baseline="middle" x="3.5" y="1">S</text>
    <text alignment-baseline="middle" x="4.5" y="1"> </text>
    <text alignment-baseline="middle" x="5.5" y="1">T</text>
    <text alignment-baseline="middle" x="6.5" y="1">U</text>
    <text alignment-baseline="middle" x="7.5" y="1">E</text>
    <text alignment-baseline="middle" x="8.5" y="1">S</text>
    <text alignment-baseline="middle" x="9.5" y="1">D</text>
    <text alignment-baseline="middle" x="10.5" y="1">A</text>
    <text alignment-baseline="middle" x="11.5" y="1">Y</text>
    <text alignment-baseline="middle" x="12.5" y="1"> </text>
    <text alignment-baseline="middle" x="13.5" y="1">A</text>
    <text alignment-baseline="middle" x="14.5" y="1">F</text>
    <text alignment-baseline="middle" x="15.5" y="1">T</text>
    <text alignment-baseline="middle" x="16.5" y="1">E</text>
    <text alignment-baseline="middle" x="17.5" y="1">R</text>
    <text alignment-baseline="middle" x="18.5" y="1">N</text>
    <text alignment-baseline="middle" x="19.5" y="1">O</text>
    <text alignment-baseline="middle" x="20.5" y="1">O</text>
    <text alignment-baseline="middle" x="21.5" y="1">N</text>
    <text alignment-baseline="middle" x="22.5" y="1"> </text>
    <text alignment-baseline="middle" x="23.5" y="1">I</text>
    <text alignment-baseline="middle" x="24.5" y="1">N</text>
    <text alignment-baseline="middle" x="25.5" y="1"> </text>
    <text alignment-baseline="middle" x="26.5" y="1">C</text>
    <text alignment-baseline="middle" x="27.5" y="1">H</text>
    <text alignment-baseline="middle" x="28.5" y="1">I</text>
    <text alignment-baseline="middle" x="29.5" y="1">C</text>
    <text alignment-baseline="middle" x="30.5" y="1">A</text>
    <text alignment-baseline="middle" x="31.5" y="1">G</text>
    <text alignment-baseline="middle" x="32.5" y="1">O</text>
  </g>
  <g fill="none" stroke="#222" stroke-opacity="1" stroke-width="0.05">
    <rect height="1" transform="rotate(0.0 0.5 1)" width="1" x="0" y="0.5"/>
    <rect height="1" transform="rotate(1.01968432196895 1.5 1)" width="1" x="1" y="0.5"/>
    <rect height="1" transform="rotate(2.541554141375733 2.5 1)" width="1" x="2" y="0.5"/>
    <rect height="1" transform="rotate(3.4256366702100522 3.5 1)" width="1" x="3" y="0.5"/>
    <rect height="1" transform="rotate(6.213968384761587 5.5 1)" width="1" x="5" y="0.5"/>
    <rect height="1" transform="rotate(8.709649993894178 6.5 1)" width="1" x="6" y="0.5"/>
    <rect height="1" transform="rotate(12.713304094855683 7.5 1)" width="1" x="7" y="0.5"/>
    <rect height="1" transform="rotate(13.780117527875916 8.5 1)" width="1" x="8" y="0.5"/>
    <rect height="1" transform="rotate(15.139615131174345 9.5 1)" width="1" x="9" y="0.5"/>
    <rect height="1" transform="rotate(14.299639477486396 10.5 1)" width="1" x="10" y="0.5"/>
    <rect height="1" transform="rotate(16.15691412466748 11.5 1)" width="1" x="11" y="0.5"/>
    <rect height="1" transform="rotate(25.217640641757285 13.5 1)" width="1" x="13" y="0.5"/>
    <rect height="1" transform="rotate(19.77984543084557 14.5 1)" width="1" x="14" y="0.5"/>
    <rect height="1" transform="rotate(23.858697299868755 15.5 1)" width="1" x="15" y="0.5"/>
    <rect height="1" transform="rotate(19.394365382481283 16.5 1)" width="1" x="16" y="0.5"/>
    <rect height="1" transform="rotate(32.25781536427158 17.5 1)" width="1" x="17" y="0.5"/>
    <rect height="1" transform="rotate(19.24032672948618 18.5 1)" width="1" x="18" y="0.5"/>
    <rect height="1" transform="rotate(23.6526593430552 19.5 1)" width="1" x="19" y="0.5"/>
    <rect height="1" transform="rotate(21.777524341609013 20.5 1)" width="1" x="20" y="0.5"/>
    <rect height="1" transform="rotate(28.75724164583004 21.5 1)" width="1" x="21" y="0.5"/>
    <rect height="1" transform="rotate(27.0695081100583 23.5 1)" width="1" x="23" y="0.5"/>
    <rect height="1" transform="rotate(27.07067115334167 24.5 1)" width="1" x="24" y="0.5"/>
    <rect height="1" transform="rotate(42.80941577320018 26.5 1)" width="1" x="26" y="0.5"/>
    <rect height="1" transform="rotate(45.87740062418253 27.5 1)" width="1" x="27" y="0.5"/>
    <rect height="1" transform="rotate(52.02155165832845 28.5 1)" width="1" x="28" y="0.5"/>
    <rect height="1" transform="rotate(35.35630413869658 29.5 1)" width="1" x="29" y="0.5"/>
    <rect height="1" transform="rotate(40.07803814507043 30.5 1)" width="1" x="30" y="0.5"/>
    <rect height="1" transform="rotate(37.29591959847257 31.5 1)" width="1" x="31" y="0.5"/>
    <rect height="1" transform="rotate(50.32590946119852 32.5 1)" width="1" x="32" y="0.5"/>
  </g>
</svg>
