<?xml version="1.0" encoding="utf-8" ?>
<svg xmlns="http://www.w3.org/2000/svg" xmlns:ev="http://www.w3.org/2001/xml-events" xmlns:xlink="http://www.w3.org/1999/xlink" baseProfile="full" height="100%" version="1.1" viewBox="-1 0 32 2" width="100%">
  <defs/>
  <rect fill="#eee" height="2" width="32" x="-1" y="0"/>
  <g fill="#fff59e" stroke="#111" stroke-opacity="1" stroke-width="0.05">
    <rect height="1" transform="rotate(0 0.5 1)" width="1" x="0" y="0.5"/>
    <rect height="1" transform="rotate(1 1.5 1)" width="1" x="1" y="0.5"/>
    <rect height="1" transform="rotate(2 2.5 1)" width="1" x="2" y="0.5"/>
    <rect height="1" transform="rotate(3 3.5 1)" width="1" x="3" y="0.5"/>
    <rect height="1" transform="rotate(5 5.5 1)" width="1" x="5" y="0.5"/>
    <rect height="1" transform="rotate(6 6.5 1)" width="1" x="6" y="0.5"/>
    <rect height="1" transform="rotate(7 7.5 1)" width="1" x="7" y="0.5"/>
    <rect height="1" transform="rotate(8 8.5 1)" width="1" x="8" y="0.5"/>
    <rect height="1" transform="rotate(9 9.5 1)" width="1" x="9" y="0.5"/>
    <rect height="1" transform="rotate(10 10.5 1)" width="1" x="10" y="0.5"/>
    <rect height="1" transform="rotate(12 12.5 1)" width="1" x="12" y="0.5"/>
    <rect height="1" transform="rotate(13 13.5 1)" width="1" x="13" y="0.5"/>
    <rect height="1" transform="rotate(14 14.5 1)" width="1" x="14" y="0.5"/>
    <rect height="1" transform="rotate(15 15.5 1)" width="1" x="15" y="0.5"/>
    <rect height="1" transform="rotate(16 16.5 1)" width="1" x="16" y="0.5"/>
    <rect height="1" transform="rotate(17 17.5 1)" width="1" x="17" y="0.5"/>
    <rect height="1" transform="rotate(18 18.5 1)" width="1" x="18" y="0.5"/>
    <rect height="1" transform="rotate(20 20.5 1)" width="1" x="20" y="0.5"/>
    <rect height="1" transform="rotate(21 21.5 1)" width="1" x="21" y="0.5"/>
    <rect height="1" transform="rotate(23 23.5 1)" width="1" x="23" y="0.5"/>
    <rect height="1" transform="rotate(24 24.5 1)" width="1" x="24" y="0.5"/>
    <rect height="1" transform="rotate(25 25.5 1)" width="1" x="25" y="0.5"/>
    <rect height="1" transform="rotate(26 26.5 1)" width="1" x="26" y="0.5"/>
    <rect height="1" transform="rotate(27 27.5 1)" width="1" x="27" y="0.5"/>
    <rect height="1" transform="rotate(28 28.5 1)" width="1" x="28" y="0.5"/>
    <rect height="1" transform="rotate(29 29.5 1)" width="1" x="29" y="0.5"/>
  </g>
  <g fill="#111" font-family="sans-serif" font-size="0.67" text-anchor="middle">
    <text alignment-baseline="middle" x="0.5" y="1">I</text>
    <text alignment-baseline="middle" x="1.5" y="1">T</text>
    <text alignment-baseline="middle" x="2.5" y="1">'</text>
    <text alignment-baseline="middle" x="3.5" y="1">S</text>
    <text alignment-baseline="middle" x="4.5" y="1"> </text>
    <text alignment-baseline="middle" x="5.5" y="1">F</text>
    <text alignment-baseline="middle" x="6.5" y="1">R</text>
    <text alignment-baseline="middle" x="7.5" y="1">I</text>
    <text alignment-baseline="middle" x="8.5" y="1">D</text>
    <text alignment-baseline="middle" x="9.5" y="1">A</text>
    <text alignment-baseline="middle" x="10.5" y="1">Y</text>
    <text alignment-baseline="middle" x="11.5" y="1"> </text>
    <text alignment-baseline="middle" x="12.5" y="1">M</text>
    <text alignment-baseline="middle" x="13.5" y="1">O</text>
    <text alignment-baseline="middle" x="14.5" y="1">R</text>
    <text alignment-baseline="middle" x="15.5" y="1">N</text>
    <text alignment-baseline="middle" x="16.5" y="1">I</text>
    <text alignment-baseline="middle" x="17.5" y="1">N</text>
    <text alignment-baseline="middle" x="18.5" y="1">G</text>
    <text alignment-baseline="middle" x="19.5" y="1"> </text>
    <text alignment-baseline="middle" x="20.5" y="1">I</text>
    <text alignment-baseline="middle" x="21.5" y="1">N</text>
    <text alignment-baseline="middle" x="22.5" y="1"> </text>
    <text alignment-baseline="middle" x="23.5" y="1">C</text>
    <text alignment-baseline="middle" x="24.5" y="1">H</text>
    <text alignment-baseline="middle" x="25.5" y="1">I</text>
    <text alignment-baseline="middle" x="26.5" y="1">C</text>
    <text alignment-baseline="middle" x="27.5" y="1">A</text>
    <text alignment-baseline="middle" x="28.5" y="1">G</text>
    <text alignment-baseline="middle" x="29.5" y="1">O</text>
  </g>
  <g fill="none" stroke="#111" stroke-opacity="1" stroke-width="0.05">
    <rect height="1" transform="rotate(0.0 0.5 1)" width="1" x="0" y="0.5"/>
    <rect height="1" transform="rotate(1.5524893290372774 1.5 1)" width="1" x="1" y="0.5"/>
    <rect height="1" transform="rotate(2.447725916644342 2.5 1)" width="1" x="2" y="0.5"/>
    <rect height="1" transform="rotate(5.986170253873212 3.5 1)" width="1" x="3" y="0.5"/>
    <rect height="1" transform="rotate(6.016257016723731 5.5 1)" width="1" x="5" y="0.5"/>
    <rect height="1" transform="rotate(7.5948510632251205 6.5 1)" width="1" x="6" y="0.5"/>
    <rect height="1" transform="rotate(10.38194341473775 7.5 1)" width="1" x="7" y="0.5"/>
    <rect height="1" transform="rotate(10.035834628806224 8.5 1)" width="1" x="8" y="0.5"/>
    <rect height="1" transform="rotate(9.387404069308776 9.5 1)" width="1" x="9" y="0.5"/>
    <rect height="1" transform="rotate(12.357914104872538 10.5 1)" width="1" x="10" y="0.5"/>
    <rect height="1" transform="rotate(12.632264932344707 12.5 1)" width="1" x="12" y="0.5"/>
    <rect height="1" transform="rotate(17.898661111714404 13.5 1)" width="1" x="13" y="0.5"/>
    <rect height="1" transform="rotate(16.92350758402778 14.5 1)" width="1" x="14" y="0.5"/>
    <rect height="1" transform="rotate(23.64817431137645 15.5 1)" width="1" x="15" y="0.5"/>
    <rect height="1" transform="rotate(29.731638112773577 16.5 1)" width="1" x="16" y="0.5"/>
    <rect height="1" transform="rotate(19.802772083508987 17.5 1)" width="1" x="17" y="0.5"/>
    <rect height="1" transform="rotate(34.62378416287935 18.5 1)" width="1" x="18" y="0.5"/>
    <rect height="1" transform="rotate(27.0575751254881 20.5 1)" width="1" x="20" y="0.5"/>
    <rect height="1" transform="rotate(39.170610247354105 21.5 1)" width="1" x="21" y="0.5"/>
    <rect height="1" transform="rotate(38.21773138959687 23.5 1)" width="1" x="23" y="0.5"/>
    <rect height="1" transform="rotate(45.558535964515784 24.5 1)" width="1" x="24" y="0.5"/>
    <rect height="1" transform="rotate(39.544710671206055 25.5 1)" width="1" x="25" y="0.5"/>
    <rect height="1" transform="rotate(39.8972582315364 26.5 1)" width="1" x="26" y="0.5"/>
    <rect height="1" transform="rotate(46.48978949858116 27.5 1)" width="1" x="27" y="0.5"/>
    <rect height="1" transform="rotate(34.15835537867634 28.5 1)" width="1" x="28" y="0.5"/>
    <rect height="1" transform="rotate(46.70731928093148 29.5 1)" width="1" x="29" y="0.5"/>
  </g>
</svg>
