<?xml version="1.0" encoding="utf-8" ?>
<svg xmlns="http://www.w3.org/2000/svg" xmlns:ev="http://www.w3.org/2001/xml-events" xmlns:xlink="http://www.w3.org/1999/xlink" baseProfile="full" height="100%" version="1.1" viewBox="-1 0 35 2" width="100%">
  <defs/>
  <rect fill="#eee" height="2" width="35" x="-1" y="0"/>
  <g fill="#fff59e" stroke="#111" stroke-opacity="1" stroke-width="0.05">
    <rect height="1" transform="rotate(0 0.5 1)" width="1" x="0" y="0.5"/>
    <rect height="1" transform="rotate(1 1.5 1)" width="1" x="1" y="0.5"/>
    <rect height="1" transform="rotate(2 2.5 1)" width="1" x="2" y="0.5"/>
    <rect height="1" transform="rotate(3 3.5 1)" width="1" x="3" y="0.5"/>
    <rect height="1" transform="rotate(5 5.5 1)" width="1" x="5" y="0.5"/>
    <rect height="1" transform="rotate(6 6.5 1)" width="1" x="6" y="0.5"/>
    <rect height="1" transform="rotate(7 7.5 1)" width="1" x="7" y="0.5"/>
    <rect height="1" transform="rotate(8 8.5 1)" width="1" x="8" y="0.5"/>
    <rect height="1" transform="rotate(9 9.5 1)" width="1" x="9" y="0.5"/>
    <rect height="1" transform="rotate(10 10.5 1)" width="1" x="10" y="0.5"/>
    <rect height="1" transform="rotate(11 11.5 1)" width="1" x="11" y="0.5"/>
    <rect height="1" transform="rotate(12 12.5 1)" width="1" x="12" y="0.5"/>
    <rect height="1" transform="rotate(13 13.5 1)" width="1" x="13" y="0.5"/>
    <rect height="1" transform="rotate(15 15.5 1)" width="1" x="15" y="0.5"/>
    <rect height="1" transform="rotate(16 16.5 1)" width="1" x="16" y="0.5"/>
    <rect height="1" transform="rotate(17 17.5 1)" width="1" x="17" y="0.5"/>
    <rect height="1" transform="rotate(18 18.5 1)" width="1" x="18" y="0.5"/>
    <rect height="1" transform="rotate(19 19.5 1)" width="1" x="19" y="0.5"/>
    <rect height="1" transform="rotate(20 20.5 1)" width="1" x="20" y="0.5"/>
    <rect height="1" transform="rotate(21 21.5 1)" width="1" x="21" y="0.5"/>
    <rect height="1" transform="rotate(23 23.5 1)" width="1" x="23" y="0.5"/>
    <rect height="1" transform="rotate(24 24.5 1)" width="1" x="24" y="0.5"/>
    <rect height="1" transform="rotate(26 26.5 1)" width="1" x="26" y="0.5"/>
    <rect height="1" transform="rotate(27 27.5 1)" width="1" x="27" y="0.5"/>
    <rect height="1" transform="rotate(28 28.5 1)" width="1" x="28" y="0.5"/>
    <rect height="1" transform="rotate(29 29.5 1)" width="1" x="29" y="0.5"/>
    <rect height="1" transform="rotate(30 30.5 1)" width="1" x="30" y="0.5"/>
    <rect height="1" transform="rotate(31 31.5 1)" width="1" x="31" y="0.5"/>
    <rect height="1" transform="rotate(32 32.5 1)" width="1" x="32" y="0.5"/>
  </g>
  <g fill="#111" font-family="sans-serif" font-size="0.67" text-anchor="middle">
    <text alignment-baseline="middle" x="0.5" y="1">I</text>
    <text alignment-baseline="middle" x="1.5" y="1">T</text>
    <text alignment-baseline="middle" x="2.5" y="1">'</text>
    <text alignment-baseline="middle" x="3.5" y="1">S</text>
    <text alignment-baseline="middle" x="4.5" y="1"> </text>
    <text alignment-baseline="middle" x="5.5" y="1">W</text>
    <text alignment-baseline="middle" x="6.5" y="1">E</text>
    <text alignment-baseline="middle" x="7.5" y="1">D</text>
    <text alignment-baseline="middle" x="8.5" y="1">N</text>
    <text alignment-baseline="middle" x="9.5" y="1">E</text>
    <text alignment-baseline="middle" x="10.5" y="1">S</text>
    <text alignment-baseline="middle" x="11.5" y="1">D</text>
    <text alignment-baseline="middle" x="12.5" y="1">A</text>
    <text alignment-baseline="middle" x="13.5" y="1">Y</text>
    <text alignment-baseline="middle" x="14.5" y="1"> </text>
    <text alignment-baseline="middle" x="15.5" y="1">M</text>
    <text alignment-baseline="middle" x="16.5" y="1">O</text>
    <text alignment-baseline="middle" x="17.5" y="1">R</text>
    <text alignment-baseline="middle" x="18.5" y="1">N</text>
    <text alignment-baseline="middle" x="19.5" y="1">I</text>
    <text alignment-baseline="middle" x="20.5" y="1">N</text>
    <text alignment-baseline="middle" x="21.5" y="1">G</text>
    <text alignment-baseline="middle" x="22.5" y="1"> </text>
    <text alignment-baseline="middle" x="23.5" y="1">I</text>
    <text alignment-baseline="middle" x="24.5" y="1">N</text>
    <text alignment-baseline="middle" x="25.5" y="1"> </text>
    <text alignment-baseline="middle" x="26.5" y="1">C</text>
    <text alignment-baseline="middle" x="27.5" y="1">H</text>
    <text alignment-baseline="middle" x="28.5" y="1">I</text>
    <text alignment-baseline="middle" x="29.5" y="1">C</text>
    <text alignment-baseline="middle" x="30.5" y="1">A</text>
    <text alignment-baseline="middle" x="31.5" y="1">G</text>
    <text alignment-baseline="middle" x="32.5" y="1">O</text>
  </g>
  <g fill="none" stroke="#111" stroke-opacity="1" stroke-width="0.05">
    <rect height="1" transform="rotate(0.0 0.5 1)" width="1" x="0" y="0.5"/>
    <rect height="1" transform="rotate(1.2687449727518936 1.5 1)" width="1" x="1" y="0.5"/>
    <rect height="1" transform="rotate(3.3973388592032325 2.5 1)" width="1" x="2" y="0.5"/>
    <rect height="1" transform="rotate(5.57534766634501 3.5 1)" width="1" x="3" y="0.5"/>
    <rect height="1" transform="rotate(9.117864783081226 5.5 1)" width="1" x="5" y="0.5"/>
    <rect height="1" transform="rotate(8.596540585692043 6.5 1)" width="1" x="6" y="0.5"/>
    <rect height="1" transform="rotate(9.279262337670481 7.5 1)" width="1" x="7" y="0.5"/>
    <rect height="1" transform="rotate(8.9537070028974 8.5 1)" width="1" x="8" y="0.5"/>
    <rect height="1" transform="rotate(10.639261549223477 9.5 1)" width="1" x="9" y="0.5"/>
    <rect height="1" transform="rotate(10.366259674493005 10.5 1)" width="1" x="10" y="0.5"/>
    <rect height="1" transform="rotate(18.02143043513148 11.5 1)" width="1" x="11" y="0.5"/>
    <rect height="1" transform="rotate(12.662041655101335 12.5 1)" width="1" x="12" y="0.5"/>
    <rect height="1" transform="rotate(14.003562286719664 13.5 1)" width="1" x="13" y="0.5"/>
    <rect height="1" transform="rotate(23.70786625015484 15.5 1)" width="1" x="15" y="0.5"/>
    <rect height="1" transform="rotate(30.47075482695314 16.5 1)" width="1" x="16" y="0.5"/>
    <rect height="1" transform="rotate(31.68413722659929 17.5 1)" width="1" x="17" y="0.5"/>
    <rect height="1" transform="rotate(29.422238422648856 18.5 1)" width="1" x="18" y="0.5"/>
    <rect height="1" transform="rotate(21.90069673880838 19.5 1)" width="1" x="19" y="0.5"/>
    <rect height="1" transform="rotate(37.92586330579088 20.5 1)" width="1" x="20" y="0.5"/>
    <rect height="1" transform="rotate(31.366632544426334 21.5 1)" width="1" x="21" y="0.5"/>
    <rect height="1" transform="rotate(31.41343392019479 23.5 1)" width="1" x="23" y="0.5"/>
    <rect height="1" transform="rotate(46.45694343126965 24.5 1)" width="1" x="24" y="0.5"/>
    <rect height="1" transform="rotate(31.504810766895478 26.5 1)" width="1" x="26" y="0.5"/>
    <rect height="1" transform="rotate(42.79051536480035 27.5 1)" width="1" x="27" y="0.5"/>
    <rect height="1" transform="rotate(32.8522080555841 28.5 1)" width="1" x="28" y="0.5"/>
    <rect height="1" transform="rotate(33.10011631942661 29.5 1)" width="1" x="29" y="0.5"/>
    <rect height="1" transform="rotate(55.012344801439305 30.5 1)" width="1" x="30" y="0.5"/>
    <rect height="1" transform="rotate(51.02471538455489 31.5 1)" width="1" x="31" y="0.5"/>
    <rect height="1" transform="rotate(63.72406295316302 32.5 1)" width="1" x="32" y="0.5"/>
  </g>
</svg>
