<?xml version="1.0" encoding="utf-8" ?>
<svg xmlns="http://www.w3.org/2000/svg" xmlns:ev="http://www.w3.org/2001/xml-events" xmlns:xlink="http://www.w3.org/1999/xlink" baseProfile="full" height="100%" version="1.1" viewBox="-1 0 35 2" width="100%">
  <defs/>
  <rect fill="#eee" height="2" width="35" x="-1" y="0"/>
  <g fill="#9cb29e" stroke="#000" stroke-opacity="1" stroke-width="0.05">
    <rect height="1" transform="rotate(0 0.5 1)" width="1" x="0" y="0.5"/>
    <rect height="1" transform="rotate(1 1.5 1)" width="1" x="1" y="0.5"/>
    <rect height="1" transform="rotate(2 2.5 1)" width="1" x="2" y="0.5"/>
    <rect height="1" transform="rotate(3 3.5 1)" width="1" x="3" y="0.5"/>
    <rect height="1" transform="rotate(5 5.5 1)" width="1" x="5" y="0.5"/>
    <rect height="1" transform="rotate(6 6.5 1)" width="1" x="6" y="0.5"/>
    <rect height="1" transform="rotate(7 7.5 1)" width="1" x="7" y="0.5"/>
    <rect height="1" transform="rotate(8 8.5 1)" width="1" x="8" y="0.5"/>
    <rect height="1" transform="rotate(9 9.5 1)" width="1" x="9" y="0.5"/>
    <rect height="1" transform="rotate(10 10.5 1)" width="1" x="10" y="0.5"/>
    <rect height="1" transform="rotate(11 11.5 1)" width="1" x="11" y="0.5"/>
    <rect height="1" transform="rotate(12 12.5 1)" width="1" x="12" y="0.5"/>
    <rect height="1" transform="rotate(13 13.5 1)" width="1" x="13" y="0.5"/>
    <rect height="1" transform="rotate(15 15.5 1)" width="1" x="15" y="0.5"/>
    <rect height="1" transform="rotate(16 16.5 1)" width="1" x="16" y="0.5"/>
    <rect height="1" transform="rotate(17 17.5 1)" width="1" x="17" y="0.5"/>
    <rect height="1" transform="rotate(18 18.5 1)" width="1" x="18" y="0.5"/>
    <rect height="1" transform="rotate(19 19.5 1)" width="1" x="19" y="0.5"/>
    <rect height="1" transform="rotate(20 20.5 1)" width="1" x="20" y="0.5"/>
    <rect height="1" transform="rotate(21 21.5 1)" width="1" x="21" y="0.5"/>
    <rect height="1" transform="rotate(23 23.5 1)" width="1" x="23" y="0.5"/>
    <rect height="1" transform="rotate(24 24.5 1)" width="1" x="24" y="0.5"/>
    <rect height="1" transform="rotate(26 26.5 1)" width="1" x="26" y="0.5"/>
    <rect height="1" transform="rotate(27 27.5 1)" width="1" x="27" y="0.5"/>
    <rect height="1" transform="rotate(28 28.5 1)" width="1" x="28" y="0.5"/>
    <rect height="1" transform="rotate(29 29.5 1)" width="1" x="29" y="0.5"/>
    <rect height="1" transform="rotate(30 30.5 1)" width="1" x="30" y="0.5"/>
    <rect height="1" transform="rotate(31 31.5 1)" width="1" x="31" y="0.5"/>
    <rect height="1" transform="rotate(32 32.5 1)" width="1" x="32" y="0.5"/>
  </g>
  <g fill="#000" font-family="sans-serif" font-size="0.67" text-anchor="middle">
    <text alignment-baseline="middle" x="0.5" y="1">I</text>
    <text alignment-baseline="middle" x="1.5" y="1">T</text>
    <text alignment-baseline="middle" x="2.5" y="1">'</text>
    <text alignment-baseline="middle" x="3.5" y="1">S</text>
    <text alignment-baseline="middle" x="4.5" y="1"> </text>
    <text alignment-baseline="middle" x="5.5" y="1">W</text>
    <text alignment-baseline="middle" x="6.5" y="1">E</text>
    <text alignment-baseline="middle" x="7.5" y="1">D</text>
    <text alignment-baseline="middle" x="8.5" y="1">N</text>
    <text alignment-baseline="middle" x="9.5" y="1">E</text>
    <text alignment-baseline="middle" x="10.5" y="1">S</text>
    <text alignment-baseline="middle" x="11.5" y="1">D</text>
    <text alignment-baseline="middle" x="12.5" y="1">A</text>
    <text alignment-baseline="middle" x="13.5" y="1">Y</text>
    <text alignment-baseline="middle" x="14.5" y="1"> </text>
    <text alignment-baseline="middle" x="15.5" y="1">E</text>
    <text alignment-baseline="middle" x="16.5" y="1">V</text>
    <text alignment-baseline="middle" x="17.5" y="1">E</text>
    <text alignment-baseline="middle" x="18.5" y="1">N</text>
    <text alignment-baseline="middle" x="19.5" y="1">I</text>
    <text alignment-baseline="middle" x="20.5" y="1">N</text>
    <text alignment-baseline="middle" x="21.5" y="1">G</text>
    <text alignment-baseline="middle" x="22.5" y="1"> </text>
    <text alignment-baseline="middle" x="23.5" y="1">I</text>
    <text alignment-baseline="middle" x="24.5" y="1">N</text>
    <text alignment-baseline="middle" x="25.5" y="1"> </text>
    <text alignment-baseline="middle" x="26.5" y="1">C</text>
    <text alignment-baseline="middle" x="27.5" y="1">H</text>
    <text alignment-baseline="middle" x="28.5" y="1">I</text>
    <text alignment-baseline="middle" x="29.5" y="1">C</text>
    <text alignment-baseline="middle" x="30.5" y="1">A</text>
    <text alignment-baseline="middle" x="31.5" y="1">G</text>
    <text alignment-baseline="middle" x="32.5" y="1">O</text>
  </g>
  <g fill="none" stroke="#000" stroke-opacity="1" stroke-width="0.05">
    <rect height="1" transform="rotate(0.0 0.5 1)" width="1" x="0" y="0.5"/>
    <rect height="1" transform="rotate(1.5836308660441456 1.5 1)" width="1" x="1" y="0.5"/>
    <rect height="1" transform="rotate(2.000520758767057 2.5 1)" width="1" x="2" y="0.5"/>
    <rect height="1" transform="rotate(5.218396051753526 3.5 1)" width="1" x="3" y="0.5"/>
    <rect height="1" transform="rotate(6.287993303600534 5.5 1)" width="1" x="5" y="0.5"/>
    <rect height="1" transform="rotate(8.455869864192856 6.5 1)" width="1" x="6" y="0.5"/>
    <rect height="1" transform="rotate(13.908246836238012 7.5 1)" width="1" x="7" y="0.5"/>
    <rect height="1" transform="rotate(14.247676671084598 8.5 1)" width="1" x="8" y="0.5"/>
    <rect height="1" transform="rotate(17.300264069973938 9.5 1)" width="1" x="9" y="0.5"/>
    <rect height="1" transform="rotate(10.16327748322989 10.5 1)" width="1" x="10" y="0.5"/>
    <rect height="1" transform="rotate(16.352290378624843 11.5 1)" width="1" x="11" y="0.5"/>
    <rect height="1" transform="rotate(12.875264756832888 12.5 1)" width="1" x="12" y="0.5"/>
    <rect height="1" transform="rotate(15.665619938608383 13.5 1)" width="1" x="13" y="0.5"/>
    <rect height="1" transform="rotate(16.926218076019037 15.5 1)" width="1" x="15" y="0.5"/>
    <rect height="1" transform="rotate(31.071358489208308 16.5 1)" width="1" x="16" y="0.5"/>
    <rect height="1" transform="rotate(20.35196035504632 17.5 1)" width="1" x="17" y="0.5"/>
    <rect height="1" transform="rotate(29.975587825652887 18.5 1)" width="1" x="18" y="0.5"/>
    <rect height="1" transform="rotate(22.456779010470605 19.5 1)" width="1" x="19" y="0.5"/>
    <rect height="1" transform="rotate(20.08792997237359 20.5 1)" width="1" x="20" y="0.5"/>
    <rect height="1" transform="rotate(38.99667834409305 21.5 1)" width="1" x="21" y="0.5"/>
    <rect height="1" transform="rotate(37.09015149965236 23.5 1)" width="1" x="23" y="0.5"/>
    <rect height="1" transform="rotate(25.138760846420922 24.5 1)" width="1" x="24" y="0.5"/>
    <rect height="1" transform="rotate(37.56242768170272 26.5 1)" width="1" x="26" y="0.5"/>
    <rect height="1" transform="rotate(52.18224532051848 27.5 1)" width="1" x="27" y="0.5"/>
    <rect height="1" transform="rotate(31.05919655881108 28.5 1)" width="1" x="28" y="0.5"/>
    <rect height="1" transform="rotate(53.28299607387073 29.5 1)" width="1" x="29" y="0.5"/>
    <rect height="1" transform="rotate(34.83575789855633 30.5 1)" width="1" x="30" y="0.5"/>
    <rect height="1" transform="rotate(53.47872799946353 31.5 1)" width="1" x="31" y="0.5"/>
    <rect height="1" transform="rotate(32.39452398866088 32.5 1)" width="1" x="32" y="0.5"/>
  </g>
</svg>
