<?xml version="1.0" encoding="utf-8" ?>
<svg xmlns="http://www.w3.org/2000/svg" xmlns:ev="http://www.w3.org/2001/xml-events" xmlns:xlink="http://www.w3.org/1999/xlink" baseProfile="full" height="100%" version="1.1" viewBox="-1 0 33 2" width="100%">
  <defs/>
  <rect fill="#eee" height="2" width="33" x="-1" y="0"/>
  <g fill="#9cb29e" stroke="#000" stroke-opacity="1" stroke-width="0.05">
    <rect height="1" transform="rotate(0 0.5 1)" width="1" x="0" y="0.5"/>
    <rect height="1" transform="rotate(1 1.5 1)" width="1" x="1" y="0.5"/>
    <rect height="1" transform="rotate(2 2.5 1)" width="1" x="2" y="0.5"/>
    <rect height="1" transform="rotate(3 3.5 1)" width="1" x="3" y="0.5"/>
    <rect height="1" transform="rotate(5 5.5 1)" width="1" x="5" y="0.5"/>
    <rect height="1" transform="rotate(6 6.5 1)" width="1" x="6" y="0.5"/>
    <rect height="1" transform="rotate(7 7.5 1)" width="1" x="7" y="0.5"/>
    <rect height="1" transform="rotate(8 8.5 1)" width="1" x="8" y="0.5"/>
    <rect height="1" transform="rotate(9 9.5 1)" width="1" x="9" y="0.5"/>
    <rect height="1" transform="rotate(10 10.5 1)" width="1" x="10" y="0.5"/>
    <rect height="1" transform="rotate(11 11.5 1)" width="1" x="11" y="0.5"/>
    <rect height="1" transform="rotate(13 13.5 1)" width="1" x="13" y="0.5"/>
    <rect height="1" transform="rotate(14 14.5 1)" width="1" x="14" y="0.5"/>
    <rect height="1" transform="rotate(15 15.5 1)" width="1" x="15" y="0.5"/>
    <rect height="1" transform="rotate(16 16.5 1)" width="1" x="16" y="0.5"/>
    <rect height="1" transform="rotate(17 17.5 1)" width="1" x="17" y="0.5"/>
    <rect height="1" transform="rotate(18 18.5 1)" width="1" x="18" y="0.5"/>
    <rect height="1" transform="rotate(19 19.5 1)" width="1" x="19" y="0.5"/>
    <rect height="1" transform="rotate(21 21.5 1)" width="1" x="21" y="0.5"/>
    <rect height="1" transform="rotate(22 22.5 1)" width="1" x="22" y="0.5"/>
    <rect height="1" transform="rotate(24 24.5 1)" width="1" x="24" y="0.5"/>
    <rect height="1" transform="rotate(25 25.5 1)" width="1" x="25" y="0.5"/>
    <rect height="1" transform="rotate(26 26.5 1)" width="1" x="26" y="0.5"/>
    <rect height="1" transform="rotate(27 27.5 1)" width="1" x="27" y="0.5"/>
    <rect height="1" transform="rotate(28 28.5 1)" width="1" x="28" y="0.5"/>
    <rect height="1" transform="rotate(29 29.5 1)" width="1" x="29" y="0.5"/>
    <rect height="1" transform="rotate(30 30.5 1)" width="1" x="30" y="0.5"/>
  </g>
  <g fill="#000" font-family="sans-serif" font-size="0.67" text-anchor="middle">
    <text alignment-baseline="middle" x="0.5" y="1">I</text>
    <text alignment-baseline="middle" x="1.5" y="1">T</text>
    <text alignment-baseline="middle" x="2.5" y="1">'</text>
    <text alignment-baseline="middle" x="3.5" y="1">S</text>
    <text alignment-baseline="middle" x="4.5" y="1"> </text>
    <text alignment-baseline="middle" x="5.5" y="1">T</text>
    <text alignment-baseline="middle" x="6.5" y="1">U</text>
    <text alignment-baseline="middle" x="7.5" y="1">E</text>
    <text alignment-baseline="middle" x="8.5" y="1">S</text>
    <text alignment-baseline="middle" x="9.5" y="1">D</text>
    <text alignment-baseline="middle" x="10.5" y="1">A</text>
    <text alignment-baseline="middle" x="11.5" y="1">Y</text>
    <text alignment-baseline="middle" x="12.5" y="1"> </text>
    <text alignment-baseline="middle" x="13.5" y="1">E</text>
    <text alignment-baseline="middle" x="14.5" y="1">V</text>
    <text alignment-baseline="middle" x="15.5" y="1">E</text>
    <text alignment-baseline="middle" x="16.5" y="1">N</text>
    <text alignment-baseline="middle" x="17.5" y="1">I</text>
    <text alignment-baseline="middle" x="18.5" y="1">N</text>
    <text alignment-baseline="middle" x="19.5" y="1">G</text>
    <text alignment-baseline="middle" x="20.5" y="1"> </text>
    <text alignment-baseline="middle" x="21.5" y="1">I</text>
    <text alignment-baseline="middle" x="22.5" y="1">N</text>
    <text alignment-baseline="middle" x="23.5" y="1"> </text>
    <text alignment-baseline="middle" x="24.5" y="1">C</text>
    <text alignment-baseline="middle" x="25.5" y="1">H</text>
    <text alignment-baseline="middle" x="26.5" y="1">I</text>
    <text alignment-baseline="middle" x="27.5" y="1">C</text>
    <text alignment-baseline="middle" x="28.5" y="1">A</text>
    <text alignment-baseline="middle" x="29.5" y="1">G</text>
    <text alignment-baseline="middle" x="30.5" y="1">O</text>
  </g>
  <g fill="none" stroke="#000" stroke-opacity="1" stroke-width="0.05">
    <rect height="1" transform="rotate(0.0 0.5 1)" width="1" x="0" y="0.5"/>
    <rect height="1" transform="rotate(1.015866453900851 1.5 1)" width="1" x="1" y="0.5"/>
    <rect height="1" transform="rotate(3.8894593676796063 2.5 1)" width="1" x="2" y="0.5"/>
    <rect height="1" transform="rotate(3.207835914607424 3.5 1)" width="1" x="3" y="0.5"/>
    <rect height="1" transform="rotate(8.048679274312425 5.5 1)" width="1" x="5" y="0.5"/>
    <rect height="1" transform="rotate(8.06159531267144 6.5 1)" width="1" x="6" y="0.5"/>
    <rect height="1" transform="rotate(8.354378915710363 7.5 1)" width="1" x="7" y="0.5"/>
    <rect height="1" transform="rotate(15.96115544321004 8.5 1)" width="1" x="8" y="0.5"/>
    <rect height="1" transform="rotate(16.3419071051931 9.5 1)" width="1" x="9" y="0.5"/>
    <rect height="1" transform="rotate(16.387922116904548 10.5 1)" width="1" x="10" y="0.5"/>
    <rect height="1" transform="rotate(20.9313729250744 11.5 1)" width="1" x="11" y="0.5"/>
    <rect height="1" transform="rotate(24.225203940602256 13.5 1)" width="1" x="13" y="0.5"/>
    <rect height="1" transform="rotate(16.34084520275306 14.5 1)" width="1" x="14" y="0.5"/>
    <rect height="1" transform="rotate(20.046412097056383 15.5 1)" width="1" x="15" y="0.5"/>
    <rect height="1" transform="rotate(27.699070621910735 16.5 1)" width="1" x="16" y="0.5"/>
    <rect height="1" transform="rotate(21.05610090211207 17.5 1)" width="1" x="17" y="0.5"/>
    <rect height="1" transform="rotate(21.891590636986344 18.5 1)" width="1" x="18" y="0.5"/>
    <rect height="1" transform="rotate(33.07200637607236 19.5 1)" width="1" x="19" y="0.5"/>
    <rect height="1" transform="rotate(25.304228160040857 21.5 1)" width="1" x="21" y="0.5"/>
    <rect height="1" transform="rotate(39.662924052214144 22.5 1)" width="1" x="22" y="0.5"/>
    <rect height="1" transform="rotate(43.22314981044909 24.5 1)" width="1" x="24" y="0.5"/>
    <rect height="1" transform="rotate(40.96378539634782 25.5 1)" width="1" x="25" y="0.5"/>
    <rect height="1" transform="rotate(28.463809870575872 26.5 1)" width="1" x="26" y="0.5"/>
    <rect height="1" transform="rotate(45.475617218841265 27.5 1)" width="1" x="27" y="0.5"/>
    <rect height="1" transform="rotate(32.26933413060891 28.5 1)" width="1" x="28" y="0.5"/>
    <rect height="1" transform="rotate(56.02417904962199 29.5 1)" width="1" x="29" y="0.5"/>
    <rect height="1" transform="rotate(45.05698034069023 30.5 1)" width="1" x="30" y="0.5"/>
  </g>
</svg>
