<?xml version="1.0" encoding="utf-8" ?>
<svg xmlns="http://www.w3.org/2000/svg" xmlns:ev="http://www.w3.org/2001/xml-events" xmlns:xlink="http://www.w3.org/1999/xlink" baseProfile="full" height="100%" version="1.1" viewBox="-1 0 32 2" width="100%">
  <defs/>
  <rect fill="#111" height="2" width="32" x="-1" y="0"/>
  <g fill="#a10045" stroke="#eee" stroke-opacity="1" stroke-width="0.05">
    <rect height="1" transform="rotate(0 0.5 1)" width="1" x="0" y="0.5"/>
    <rect height="1" transform="rotate(1 1.5 1)" width="1" x="1" y="0.5"/>
    <rect height="1" transform="rotate(2 2.5 1)" width="1" x="2" y="0.5"/>
    <rect height="1" transform="rotate(3 3.5 1)" width="1" x="3" y="0.5"/>
    <rect height="1" transform="rotate(5 5.5 1)" width="1" x="5" y="0.5"/>
    <rect height="1" transform="rotate(6 6.5 1)" width="1" x="6" y="0.5"/>
    <rect height="1" transform="rotate(7 7.5 1)" width="1" x="7" y="0.5"/>
    <rect height="1" transform="rotate(8 8.5 1)" width="1" x="8" y="0.5"/>
    <rect height="1" transform="rotate(9 9.5 1)" width="1" x="9" y="0.5"/>
    <rect height="1" transform="rotate(10 10.5 1)" width="1" x="10" y="0.5"/>
    <rect height="1" transform="rotate(11 11.5 1)" width="1" x="11" y="0.5"/>
    <rect height="1" transform="rotate(12 12.5 1)" width="1" x="12" y="0.5"/>
    <rect height="1" transform="rotate(14 14.5 1)" width="1" x="14" y="0.5"/>
    <rect height="1" transform="rotate(15 15.5 1)" width="1" x="15" y="0.5"/>
    <rect height="1" transform="rotate(16 16.5 1)" width="1" x="16" y="0.5"/>
    <rect height="1" transform="rotate(17 17.5 1)" width="1" x="17" y="0.5"/>
    <rect height="1" transform="rotate(18 18.5 1)" width="1" x="18" y="0.5"/>
    <rect height="1" transform="rotate(20 20.5 1)" width="1" x="20" y="0.5"/>
    <rect height="1" transform="rotate(21 21.5 1)" width="1" x="21" y="0.5"/>
    <rect height="1" transform="rotate(23 23.5 1)" width="1" x="23" y="0.5"/>
    <rect height="1" transform="rotate(24 24.5 1)" width="1" x="24" y="0.5"/>
    <rect height="1" transform="rotate(25 25.5 1)" width="1" x="25" y="0.5"/>
    <rect height="1" transform="rotate(26 26.5 1)" width="1" x="26" y="0.5"/>
    <rect height="1" transform="rotate(27 27.5 1)" width="1" x="27" y="0.5"/>
    <rect height="1" transform="rotate(28 28.5 1)" width="1" x="28" y="0.5"/>
    <rect height="1" transform="rotate(29 29.5 1)" width="1" x="29" y="0.5"/>
  </g>
  <g fill="#eee" font-family="sans-serif" font-size="0.67" text-anchor="middle">
    <text alignment-baseline="middle" x="0.5" y="1">I</text>
    <text alignment-baseline="middle" x="1.5" y="1">T</text>
    <text alignment-baseline="middle" x="2.5" y="1">'</text>
    <text alignment-baseline="middle" x="3.5" y="1">S</text>
    <text alignment-baseline="middle" x="4.5" y="1"> </text>
    <text alignment-baseline="middle" x="5.5" y="1">T</text>
    <text alignment-baseline="middle" x="6.5" y="1">H</text>
    <text alignment-baseline="middle" x="7.5" y="1">U</text>
    <text alignment-baseline="middle" x="8.5" y="1">R</text>
    <text alignment-baseline="middle" x="9.5" y="1">S</text>
    <text alignment-baseline="middle" x="10.5" y="1">D</text>
    <text alignment-baseline="middle" x="11.5" y="1">A</text>
    <text alignment-baseline="middle" x="12.5" y="1">Y</text>
    <text alignment-baseline="middle" x="13.5" y="1"> </text>
    <text alignment-baseline="middle" x="14.5" y="1">N</text>
    <text alignment-baseline="middle" x="15.5" y="1">I</text>
    <text alignment-baseline="middle" x="16.5" y="1">G</text>
    <text alignment-baseline="middle" x="17.5" y="1">H</text>
    <text alignment-baseline="middle" x="18.5" y="1">T</text>
    <text alignment-baseline="middle" x="19.5" y="1"> </text>
    <text alignment-baseline="middle" x="20.5" y="1">I</text>
    <text alignment-baseline="middle" x="21.5" y="1">N</text>
    <text alignment-baseline="middle" x="22.5" y="1"> </text>
    <text alignment-baseline="middle" x="23.5" y="1">C</text>
    <text alignment-baseline="middle" x="24.5" y="1">H</text>
    <text alignment-baseline="middle" x="25.5" y="1">I</text>
    <text alignment-baseline="middle" x="26.5" y="1">C</text>
    <text alignment-baseline="middle" x="27.5" y="1">A</text>
    <text alignment-baseline="middle" x="28.5" y="1">G</text>
    <text alignment-baseline="middle" x="29.5" y="1">O</text>
  </g>
  <g fill="none" stroke="#eee" stroke-opacity="1" stroke-width="0.05">
    <rect height="1" transform="rotate(0.0 0.5 1)" width="1" x="0" y="0.5"/>
    <rect height="1" transform="rotate(1.230736068322313 1.5 1)" width="1" x="1" y="0.5"/>
    <rect height="1" transform="rotate(2.0448253752868615 2.5 1)" width="1" x="2" y="0.5"/>
    <rect height="1" transform="rotate(5.976740616686579 3.5 1)" width="1" x="3" y="0.5"/>
    <rect height="1" transform="rotate(8.740921181959717 5.5 1)" width="1" x="5" y="0.5"/>
    <rect height="1" transform="rotate(11.176189299099136 6.5 1)" width="1" x="6" y="0.5"/>
    <rect height="1" transform="rotate(10.671498256041835 7.5 1)" width="1" x="7" y="0.5"/>
    <rect height="1" transform="rotate(11.878111712866414 8.5 1)" width="1" x="8" y="0.5"/>
    <rect height="1" transform="rotate(15.64330465426684 9.5 1)" width="1" x="9" y="0.5"/>
    <rect height="1" transform="rotate(15.332215734559549 10.5 1)" width="1" x="10" y="0.5"/>
    <rect height="1" transform="rotate(18.88240202647711 11.5 1)" width="1" x="11" y="0.5"/>
    <rect height="1" transform="rotate(19.256713658555793 12.5 1)" width="1" x="12" y="0.5"/>
    <rect height="1" transform="rotate(24.872621328580614 14.5 1)" width="1" x="14" y="0.5"/>
    <rect height="1" transform="rotate(29.097757447397044 15.5 1)" width="1" x="15" y="0.5"/>
    <rect height="1" transform="rotate(30.226627810852563 16.5 1)" width="1" x="16" y="0.5"/>
    <rect height="1" transform="rotate(29.079683709698966 17.5 1)" width="1" x="17" y="0.5"/>
    <rect height="1" transform="rotate(21.824061130006278 18.5 1)" width="1" x="18" y="0.5"/>
    <rect height="1" transform="rotate(31.23420031175047 20.5 1)" width="1" x="20" y="0.5"/>
    <rect height="1" transform="rotate(25.713779496756608 21.5 1)" width="1" x="21" y="0.5"/>
    <rect height="1" transform="rotate(33.114342429952856 23.5 1)" width="1" x="23" y="0.5"/>
    <rect height="1" transform="rotate(33.03627276296399 24.5 1)" width="1" x="24" y="0.5"/>
    <rect height="1" transform="rotate(25.61920671180195 25.5 1)" width="1" x="25" y="0.5"/>
    <rect height="1" transform="rotate(47.74902480209496 26.5 1)" width="1" x="26" y="0.5"/>
    <rect height="1" transform="rotate(46.22321829224603 27.5 1)" width="1" x="27" y="0.5"/>
    <rect height="1" transform="rotate(36.889006217790524 28.5 1)" width="1" x="28" y="0.5"/>
    <rect height="1" transform="rotate(29.15549746170456 29.5 1)" width="1" x="29" y="0.5"/>
  </g>
</svg>
