<?xml version="1.0" encoding="utf-8" ?>
<svg xmlns="http://www.w3.org/2000/svg" xmlns:ev="http://www.w3.org/2001/xml-events" xmlns:xlink="http://www.w3.org/1999/xlink" baseProfile="full" height="100%" version="1.1" viewBox="-1 0 33 2" width="100%">
  <defs/>
  <rect fill="#eee" height="2" width="33" x="-1" y="0"/>
  <g fill="#9cb29e" stroke="#000" stroke-opacity="1" stroke-width="0.05">
    <rect height="1" transform="rotate(0 0.5 1)" width="1" x="0" y="0.5"/>
    <rect height="1" transform="rotate(1 1.5 1)" width="1" x="1" y="0.5"/>
    <rect height="1" transform="rotate(2 2.5 1)" width="1" x="2" y="0.5"/>
    <rect height="1" transform="rotate(3 3.5 1)" width="1" x="3" y="0.5"/>
    <rect height="1" transform="rotate(5 5.5 1)" width="1" x="5" y="0.5"/>
    <rect height="1" transform="rotate(6 6.5 1)" width="1" x="6" y="0.5"/>
    <rect height="1" transform="rotate(7 7.5 1)" width="1" x="7" y="0.5"/>
    <rect height="1" transform="rotate(8 8.5 1)" width="1" x="8" y="0.5"/>
    <rect height="1" transform="rotate(9 9.5 1)" width="1" x="9" y="0.5"/>
    <rect height="1" transform="rotate(10 10.5 1)" width="1" x="10" y="0.5"/>
    <rect height="1" transform="rotate(11 11.5 1)" width="1" x="11" y="0.5"/>
    <rect height="1" transform="rotate(13 13.5 1)" width="1" x="13" y="0.5"/>
    <rect height="1" transform="rotate(14 14.5 1)" width="1" x="14" y="0.5"/>
    <rect height="1" transform="rotate(15 15.5 1)" width="1" x="15" y="0.5"/>
    <rect height="1" transform="rotate(16 16.5 1)" width="1" x="16" y="0.5"/>
    <rect height="1" transform="rotate(17 17.5 1)" width="1" x="17" y="0.5"/>
    <rect height="1" transform="rotate(18 18.5 1)" width="1" x="18" y="0.5"/>
    <rect height="1" transform="rotate(19 19.5 1)" width="1" x="19" y="0.5"/>
    <rect height="1" transform="rotate(21 21.5 1)" width="1" x="21" y="0.5"/>
    <rect height="1" transform="rotate(22 22.5 1)" width="1" x="22" y="0.5"/>
    <rect height="1" transform="rotate(24 24.5 1)" width="1" x="24" y="0.5"/>
    <rect height="1" transform="rotate(25 25.5 1)" width="1" x="25" y="0.5"/>
    <rect height="1" transform="rotate(26 26.5 1)" width="1" x="26" y="0.5"/>
    <rect height="1" transform="rotate(27 27.5 1)" width="1" x="27" y="0.5"/>
    <rect height="1" transform="rotate(28 28.5 1)" width="1" x="28" y="0.5"/>
    <rect height="1" transform="rotate(29 29.5 1)" width="1" x="29" y="0.5"/>
    <rect height="1" transform="rotate(30 30.5 1)" width="1" x="30" y="0.5"/>
  </g>
  <g fill="#000" font-family="sans-serif" font-size="0.67" text-anchor="middle">
    <text alignment-baseline="middle" x="0.5" y="1">I</text>
    <text alignment-baseline="middle" x="1.5" y="1">T</text>
    <text alignment-baseline="middle" x="2.5" y="1">'</text>
    <text alignment-baseline="middle" x="3.5" y="1">S</text>
    <text alignment-baseline="middle" x="4.5" y="1"> </text>
    <text alignment-baseline="middle" x="5.5" y="1">T</text>
    <text alignment-baseline="middle" x="6.5" y="1">U</text>
    <text alignment-baseline="middle" x="7.5" y="1">E</text>
    <text alignment-baseline="middle" x="8.5" y="1">S</text>
    <text alignment-baseline="middle" x="9.5" y="1">D</text>
    <text alignment-baseline="middle" x="10.5" y="1">A</text>
    <text alignment-baseline="middle" x="11.5" y="1">Y</text>
    <text alignment-baseline="middle" x="12.5" y="1"> </text>
    <text alignment-baseline="middle" x="13.5" y="1">E</text>
    <text alignment-baseline="middle" x="14.5" y="1">V</text>
    <text alignment-baseline="middle" x="15.5" y="1">E</text>
    <text alignment-baseline="middle" x="16.5" y="1">N</text>
    <text alignment-baseline="middle" x="17.5" y="1">I</text>
    <text alignment-baseline="middle" x="18.5" y="1">N</text>
    <text alignment-baseline="middle" x="19.5" y="1">G</text>
    <text alignment-baseline="middle" x="20.5" y="1"> </text>
    <text alignment-baseline="middle" x="21.5" y="1">I</text>
    <text alignment-baseline="middle" x="22.5" y="1">N</text>
    <text alignment-baseline="middle" x="23.5" y="1"> </text>
    <text alignment-baseline="middle" x="24.5" y="1">C</text>
    <text alignment-baseline="middle" x="25.5" y="1">H</text>
    <text alignment-baseline="middle" x="26.5" y="1">I</text>
    <text alignment-baseline="middle" x="27.5" y="1">C</text>
    <text alignment-baseline="middle" x="28.5" y="1">A</text>
    <text alignment-baseline="middle" x="29.5" y="1">G</text>
    <text alignment-baseline="middle" x="30.5" y="1">O</text>
  </g>
  <g fill="none" stroke="#000" stroke-opacity="1" stroke-width="0.05">
    <rect height="1" transform="rotate(0.0 0.5 1)" width="1" x="0" y="0.5"/>
    <rect height="1" transform="rotate(1.2792171162354957 1.5 1)" width="1" x="1" y="0.5"/>
    <rect height="1" transform="rotate(3.1981701944841823 2.5 1)" width="1" x="2" y="0.5"/>
    <rect height="1" transform="rotate(4.318342859262472 3.5 1)" width="1" x="3" y="0.5"/>
    <rect height="1" transform="rotate(5.722368845560407 5.5 1)" width="1" x="5" y="0.5"/>
    <rect height="1" transform="rotate(6.243700937101805 6.5 1)" width="1" x="6" y="0.5"/>
    <rect height="1" transform="rotate(8.837777332118183 7.5 1)" width="1" x="7" y="0.5"/>
    <rect height="1" transform="rotate(15.480437320819846 8.5 1)" width="1" x="8" y="0.5"/>
    <rect height="1" transform="rotate(9.018481096103566 9.5 1)" width="1" x="9" y="0.5"/>
    <rect height="1" transform="rotate(14.429938952307468 10.5 1)" width="1" x="10" y="0.5"/>
    <rect height="1" transform="rotate(14.400539192739192 11.5 1)" width="1" x="11" y="0.5"/>
    <rect height="1" transform="rotate(13.849453795555396 13.5 1)" width="1" x="13" y="0.5"/>
    <rect height="1" transform="rotate(24.10602430977359 14.5 1)" width="1" x="14" y="0.5"/>
    <rect height="1" transform="rotate(19.42512984600881 15.5 1)" width="1" x="15" y="0.5"/>
    <rect height="1" transform="rotate(17.545330759727406 16.5 1)" width="1" x="16" y="0.5"/>
    <rect height="1" transform="rotate(30.627663421656177 17.5 1)" width="1" x="17" y="0.5"/>
    <rect height="1" transform="rotate(29.57192861487359 18.5 1)" width="1" x="18" y="0.5"/>
    <rect height="1" transform="rotate(19.45798214081875 19.5 1)" width="1" x="19" y="0.5"/>
    <rect height="1" transform="rotate(36.43876496225289 21.5 1)" width="1" x="21" y="0.5"/>
    <rect height="1" transform="rotate(35.38163618625863 22.5 1)" width="1" x="22" y="0.5"/>
    <rect height="1" transform="rotate(26.806037313273116 24.5 1)" width="1" x="24" y="0.5"/>
    <rect height="1" transform="rotate(30.931426936365497 25.5 1)" width="1" x="25" y="0.5"/>
    <rect height="1" transform="rotate(42.64201689272337 26.5 1)" width="1" x="26" y="0.5"/>
    <rect height="1" transform="rotate(52.31298401481532 27.5 1)" width="1" x="27" y="0.5"/>
    <rect height="1" transform="rotate(30.869468254537672 28.5 1)" width="1" x="28" y="0.5"/>
    <rect height="1" transform="rotate(49.60455977097106 29.5 1)" width="1" x="29" y="0.5"/>
    <rect height="1" transform="rotate(51.97685362892993 30.5 1)" width="1" x="30" y="0.5"/>
  </g>
</svg>
