<?xml version="1.0" encoding="utf-8" ?>
<svg xmlns="http://www.w3.org/2000/svg" xmlns:ev="http://www.w3.org/2001/xml-events" xmlns:xlink="http://www.w3.org/1999/xlink" baseProfile="full" height="100%" version="1.1" viewBox="-1 0 34 2" width="100%">
  <defs/>
  <rect fill="#eee" height="2" width="34" x="-1" y="0"/>
  <g fill="#80ffcc" stroke="#222" stroke-opacity="1" stroke-width="0.05">
    <rect height="1" transform="rotate(0 0.5 1)" width="1" x="0" y="0.5"/>
    <rect height="1" transform="rotate(1 1.5 1)" width="1" x="1" y="0.5"/>
    <rect height="1" transform="rotate(2 2.5 1)" width="1" x="2" y="0.5"/>
    <rect height="1" transform="rotate(3 3.5 1)" width="1" x="3" y="0.5"/>
    <rect height="1" transform="rotate(5 5.5 1)" width="1" x="5" y="0.5"/>
    <rect height="1" transform="rotate(6 6.5 1)" width="1" x="6" y="0.5"/>
    <rect height="1" transform="rotate(7 7.5 1)" width="1" x="7" y="0.5"/>
    <rect height="1" transform="rotate(8 8.5 1)" width="1" x="8" y="0.5"/>
    <rect height="1" transform="rotate(9 9.5 1)" width="1" x="9" y="0.5"/>
    <rect height="1" transform="rotate(10 10.5 1)" width="1" x="10" y="0.5"/>
    <rect height="1" transform="rotate(12 12.5 1)" width="1" x="12" y="0.5"/>
    <rect height="1" transform="rotate(13 13.5 1)" width="1" x="13" y="0.5"/>
    <rect height="1" transform="rotate(14 14.5 1)" width="1" x="14" y="0.5"/>
    <rect height="1" transform="rotate(15 15.5 1)" width="1" x="15" y="0.5"/>
    <rect height="1" transform="rotate(16 16.5 1)" width="1" x="16" y="0.5"/>
    <rect height="1" transform="rotate(17 17.5 1)" width="1" x="17" y="0.5"/>
    <rect height="1" transform="rotate(18 18.5 1)" width="1" x="18" y="0.5"/>
    <rect height="1" transform="rotate(19 19.5 1)" width="1" x="19" y="0.5"/>
    <rect height="1" transform="rotate(20 20.5 1)" width="1" x="20" y="0.5"/>
    <rect height="1" transform="rotate(22 22.5 1)" width="1" x="22" y="0.5"/>
    <rect height="1" transform="rotate(23 23.5 1)" width="1" x="23" y="0.5"/>
    <rect height="1" transform="rotate(25 25.5 1)" width="1" x="25" y="0.5"/>
    <rect height="1" transform="rotate(26 26.5 1)" width="1" x="26" y="0.5"/>
    <rect height="1" transform="rotate(27 27.5 1)" width="1" x="27" y="0.5"/>
    <rect height="1" transform="rotate(28 28.5 1)" width="1" x="28" y="0.5"/>
    <rect height="1" transform="rotate(29 29.5 1)" width="1" x="29" y="0.5"/>
    <rect height="1" transform="rotate(30 30.5 1)" width="1" x="30" y="0.5"/>
    <rect height="1" transform="rotate(31 31.5 1)" width="1" x="31" y="0.5"/>
  </g>
  <g fill="#222" font-family="sans-serif" font-size="0.67" text-anchor="middle">
    <text alignment-baseline="middle" x="0.5" y="1">I</text>
    <text alignment-baseline="middle" x="1.5" y="1">T</text>
    <text alignment-baseline="middle" x="2.5" y="1">'</text>
    <text alignment-baseline="middle" x="3.5" y="1">S</text>
    <text alignment-baseline="middle" x="4.5" y="1"> </text>
    <text alignment-baseline="middle" x="5.5" y="1">M</text>
    <text alignment-baseline="middle" x="6.5" y="1">O</text>
    <text alignment-baseline="middle" x="7.5" y="1">N</text>
    <text alignment-baseline="middle" x="8.5" y="1">D</text>
    <text alignment-baseline="middle" x="9.5" y="1">A</text>
    <text alignment-baseline="middle" x="10.5" y="1">Y</text>
    <text alignment-baseline="middle" x="11.5" y="1"> </text>
    <text alignment-baseline="middle" x="12.5" y="1">A</text>
    <text alignment-baseline="middle" x="13.5" y="1">F</text>
    <text alignment-baseline="middle" x="14.5" y="1">T</text>
    <text alignment-baseline="middle" x="15.5" y="1">E</text>
    <text alignment-baseline="middle" x="16.5" y="1">R</text>
    <text alignment-baseline="middle" x="17.5" y="1">N</text>
    <text alignment-baseline="middle" x="18.5" y="1">O</text>
    <text alignment-baseline="middle" x="19.5" y="1">O</text>
    <text alignment-baseline="middle" x="20.5" y="1">N</text>
    <text alignment-baseline="middle" x="21.5" y="1"> </text>
    <text alignment-baseline="middle" x="22.5" y="1">I</text>
    <text alignment-baseline="middle" x="23.5" y="1">N</text>
    <text alignment-baseline="middle" x="24.5" y="1"> </text>
    <text alignment-baseline="middle" x="25.5" y="1">C</text>
    <text alignment-baseline="middle" x="26.5" y="1">H</text>
    <text alignment-baseline="middle" x="27.5" y="1">I</text>
    <text alignment-baseline="middle" x="28.5" y="1">C</text>
    <text alignment-baseline="middle" x="29.5" y="1">A</text>
    <text alignment-baseline="middle" x="30.5" y="1">G</text>
    <text alignment-baseline="middle" x="31.5" y="1">O</text>
  </g>
  <g fill="none" stroke="#222" stroke-opacity="1" stroke-width="0.05">
    <rect height="1" transform="rotate(0.0 0.5 1)" width="1" x="0" y="0.5"/>
    <rect height="1" transform="rotate(1.9769569947907901 1.5 1)" width="1" x="1" y="0.5"/>
    <rect height="1" transform="rotate(3.50160613863188 2.5 1)" width="1" x="2" y="0.5"/>
    <rect height="1" transform="rotate(5.383317978858228 3.5 1)" width="1" x="3" y="0.5"/>
    <rect height="1" transform="rotate(5.4668815626841845 5.5 1)" width="1" x="5" y="0.5"/>
    <rect height="1" transform="rotate(7.437350557877287 6.5 1)" width="1" x="6" y="0.5"/>
    <rect height="1" transform="rotate(9.376632898382757 7.5 1)" width="1" x="7" y="0.5"/>
    <rect height="1" transform="rotate(12.01713976767267 8.5 1)" width="1" x="8" y="0.5"/>
    <rect height="1" transform="rotate(9.397551427073578 9.5 1)" width="1" x="9" y="0.5"/>
    <rect height="1" transform="rotate(16.90785380102966 10.5 1)" width="1" x="10" y="0.5"/>
    <rect height="1" transform="rotate(12.731264495557182 12.5 1)" width="1" x="12" y="0.5"/>
    <rect height="1" transform="rotate(25.672357960556003 13.5 1)" width="1" x="13" y="0.5"/>
    <rect height="1" transform="rotate(27.534577746902475 14.5 1)" width="1" x="14" y="0.5"/>
    <rect height="1" transform="rotate(17.267069010500258 15.5 1)" width="1" x="15" y="0.5"/>
    <rect height="1" transform="rotate(22.536477672142595 16.5 1)" width="1" x="16" y="0.5"/>
    <rect height="1" transform="rotate(27.208630991402572 17.5 1)" width="1" x="17" y="0.5"/>
    <rect height="1" transform="rotate(33.18637548808604 18.5 1)" width="1" x="18" y="0.5"/>
    <rect height="1" transform="rotate(19.994982315125625 19.5 1)" width="1" x="19" y="0.5"/>
    <rect height="1" transform="rotate(29.577451501966088 20.5 1)" width="1" x="20" y="0.5"/>
    <rect height="1" transform="rotate(42.49772190077645 22.5 1)" width="1" x="22" y="0.5"/>
    <rect height="1" transform="rotate(27.908723246088204 23.5 1)" width="1" x="23" y="0.5"/>
    <rect height="1" transform="rotate(46.57588186239247 25.5 1)" width="1" x="25" y="0.5"/>
    <rect height="1" transform="rotate(45.791665371749666 26.5 1)" width="1" x="26" y="0.5"/>
    <rect height="1" transform="rotate(32.75372075752098 27.5 1)" width="1" x="27" y="0.5"/>
    <rect height="1" transform="rotate(51.56792446030079 28.5 1)" width="1" x="28" y="0.5"/>
    <rect height="1" transform="rotate(50.42925020977725 29.5 1)" width="1" x="29" y="0.5"/>
    <rect height="1" transform="rotate(52.625019598047984 30.5 1)" width="1" x="30" y="0.5"/>
    <rect height="1" transform="rotate(58.37660390914147 31.5 1)" width="1" x="31" y="0.5"/>
  </g>
</svg>
