<?xml version="1.0" encoding="utf-8" ?>
<svg xmlns="http://www.w3.org/2000/svg" xmlns:ev="http://www.w3.org/2001/xml-events" xmlns:xlink="http://www.w3.org/1999/xlink" baseProfile="full" height="100%" version="1.1" viewBox="-1 0 34 2" width="100%">
  <defs/>
  <rect fill="#eee" height="2" width="34" x="-1" y="0"/>
  <g fill="#9cb29e" stroke="#000" stroke-opacity="1" stroke-width="0.05">
    <rect height="1" transform="rotate(0 0.5 1)" width="1" x="0" y="0.5"/>
    <rect height="1" transform="rotate(1 1.5 1)" width="1" x="1" y="0.5"/>
    <rect height="1" transform="rotate(2 2.5 1)" width="1" x="2" y="0.5"/>
    <rect height="1" transform="rotate(3 3.5 1)" width="1" x="3" y="0.5"/>
    <rect height="1" transform="rotate(5 5.5 1)" width="1" x="5" y="0.5"/>
    <rect height="1" transform="rotate(6 6.5 1)" width="1" x="6" y="0.5"/>
    <rect height="1" transform="rotate(7 7.5 1)" width="1" x="7" y="0.5"/>
    <rect height="1" transform="rotate(8 8.5 1)" width="1" x="8" y="0.5"/>
    <rect height="1" transform="rotate(9 9.5 1)" width="1" x="9" y="0.5"/>
    <rect height="1" transform="rotate(10 10.5 1)" width="1" x="10" y="0.5"/>
    <rect height="1" transform="rotate(11 11.5 1)" width="1" x="11" y="0.5"/>
    <rect height="1" transform="rotate(12 12.5 1)" width="1" x="12" y="0.5"/>
    <rect height="1" transform="rotate(14 14.5 1)" width="1" x="14" y="0.5"/>
    <rect height="1" transform="rotate(15 15.5 1)" width="1" x="15" y="0.5"/>
    <rect height="1" transform="rotate(16 16.5 1)" width="1" x="16" y="0.5"/>
    <rect height="1" transform="rotate(17 17.5 1)" width="1" x="17" y="0.5"/>
    <rect height="1" transform="rotate(18 18.5 1)" width="1" x="18" y="0.5"/>
    <rect height="1" transform="rotate(19 19.5 1)" width="1" x="19" y="0.5"/>
    <rect height="1" transform="rotate(20 20.5 1)" width="1" x="20" y="0.5"/>
    <rect height="1" transform="rotate(22 22.5 1)" width="1" x="22" y="0.5"/>
    <rect height="1" transform="rotate(23 23.5 1)" width="1" x="23" y="0.5"/>
    <rect height="1" transform="rotate(25 25.5 1)" width="1" x="25" y="0.5"/>
    <rect height="1" transform="rotate(26 26.5 1)" width="1" x="26" y="0.5"/>
    <rect height="1" transform="rotate(27 27.5 1)" width="1" x="27" y="0.5"/>
    <rect height="1" transform="rotate(28 28.5 1)" width="1" x="28" y="0.5"/>
    <rect height="1" transform="rotate(29 29.5 1)" width="1" x="29" y="0.5"/>
    <rect height="1" transform="rotate(30 30.5 1)" width="1" x="30" y="0.5"/>
    <rect height="1" transform="rotate(31 31.5 1)" width="1" x="31" y="0.5"/>
  </g>
  <g fill="#000" font-family="sans-serif" font-size="0.67" text-anchor="middle">
    <text alignment-baseline="middle" x="0.5" y="1">I</text>
    <text alignment-baseline="middle" x="1.5" y="1">T</text>
    <text alignment-baseline="middle" x="2.5" y="1">'</text>
    <text alignment-baseline="middle" x="3.5" y="1">S</text>
    <text alignment-baseline="middle" x="4.5" y="1"> </text>
    <text alignment-baseline="middle" x="5.5" y="1">T</text>
    <text alignment-baseline="middle" x="6.5" y="1">H</text>
    <text alignment-baseline="middle" x="7.5" y="1">U</text>
    <text alignment-baseline="middle" x="8.5" y="1">R</text>
    <text alignment-baseline="middle" x="9.5" y="1">S</text>
    <text alignment-baseline="middle" x="10.5" y="1">D</text>
    <text alignment-baseline="middle" x="11.5" y="1">A</text>
    <text alignment-baseline="middle" x="12.5" y="1">Y</text>
    <text alignment-baseline="middle" x="13.5" y="1"> </text>
    <text alignment-baseline="middle" x="14.5" y="1">E</text>
    <text alignment-baseline="middle" x="15.5" y="1">V</text>
    <text alignment-baseline="middle" x="16.5" y="1">E</text>
    <text alignment-baseline="middle" x="17.5" y="1">N</text>
    <text alignment-baseline="middle" x="18.5" y="1">I</text>
    <text alignment-baseline="middle" x="19.5" y="1">N</text>
    <text alignment-baseline="middle" x="20.5" y="1">G</text>
    <text alignment-baseline="middle" x="21.5" y="1"> </text>
    <text alignment-baseline="middle" x="22.5" y="1">I</text>
    <text alignment-baseline="middle" x="23.5" y="1">N</text>
    <text alignment-baseline="middle" x="24.5" y="1"> </text>
    <text alignment-baseline="middle" x="25.5" y="1">C</text>
    <text alignment-baseline="middle" x="26.5" y="1">H</text>
    <text alignment-baseline="middle" x="27.5" y="1">I</text>
    <text alignment-baseline="middle" x="28.5" y="1">C</text>
    <text alignment-baseline="middle" x="29.5" y="1">A</text>
    <text alignment-baseline="middle" x="30.5" y="1">G</text>
    <text alignment-baseline="middle" x="31.5" y="1">O</text>
  </g>
  <g fill="none" stroke="#000" stroke-opacity="1" stroke-width="0.05">
    <rect height="1" transform="rotate(0.0 0.5 1)" width="1" x="0" y="0.5"/>
    <rect height="1" transform="rotate(1.8180765265900385 1.5 1)" width="1" x="1" y="0.5"/>
    <rect height="1" transform="rotate(2.9766033440319926 2.5 1)" width="1" x="2" y="0.5"/>
    <rect height="1" transform="rotate(3.624833193350601 3.5 1)" width="1" x="3" y="0.5"/>
    <rect height="1" transform="rotate(5.550119392585731 5.5 1)" width="1" x="5" y="0.5"/>
    <rect height="1" transform="rotate(10.565994488122968 6.5 1)" width="1" x="6" y="0.5"/>
    <rect height="1" transform="rotate(12.44636939771323 7.5 1)" width="1" x="7" y="0.5"/>
    <rect height="1" transform="rotate(15.640215621452219 8.5 1)" width="1" x="8" y="0.5"/>
    <rect height="1" transform="rotate(15.852462258992393 9.5 1)" width="1" x="9" y="0.5"/>
    <rect height="1" transform="rotate(17.374166390689147 10.5 1)" width="1" x="10" y="0.5"/>
    <rect height="1" transform="rotate(15.516751528117814 11.5 1)" width="1" x="11" y="0.5"/>
    <rect height="1" transform="rotate(13.064534056567092 12.5 1)" width="1" x="12" y="0.5"/>
    <rect height="1" transform="rotate(15.698126092652917 14.5 1)" width="1" x="14" y="0.5"/>
    <rect height="1" transform="rotate(23.76444194305955 15.5 1)" width="1" x="15" y="0.5"/>
    <rect height="1" transform="rotate(28.129615840580172 16.5 1)" width="1" x="16" y="0.5"/>
    <rect height="1" transform="rotate(20.064019214593525 17.5 1)" width="1" x="17" y="0.5"/>
    <rect height="1" transform="rotate(28.041639073429522 18.5 1)" width="1" x="18" y="0.5"/>
    <rect height="1" transform="rotate(23.178501451083225 19.5 1)" width="1" x="19" y="0.5"/>
    <rect height="1" transform="rotate(21.440413445889142 20.5 1)" width="1" x="20" y="0.5"/>
    <rect height="1" transform="rotate(40.82146246101751 22.5 1)" width="1" x="22" y="0.5"/>
    <rect height="1" transform="rotate(23.98132698540044 23.5 1)" width="1" x="23" y="0.5"/>
    <rect height="1" transform="rotate(45.13016737030286 25.5 1)" width="1" x="25" y="0.5"/>
    <rect height="1" transform="rotate(33.853876436335135 26.5 1)" width="1" x="26" y="0.5"/>
    <rect height="1" transform="rotate(45.60337584171428 27.5 1)" width="1" x="27" y="0.5"/>
    <rect height="1" transform="rotate(31.267988592714666 28.5 1)" width="1" x="28" y="0.5"/>
    <rect height="1" transform="rotate(51.421683960072585 29.5 1)" width="1" x="29" y="0.5"/>
    <rect height="1" transform="rotate(48.94878548879685 30.5 1)" width="1" x="30" y="0.5"/>
    <rect height="1" transform="rotate(45.39064678986688 31.5 1)" width="1" x="31" y="0.5"/>
  </g>
</svg>
