<?xml version="1.0" encoding="utf-8" ?>
<svg xmlns="http://www.w3.org/2000/svg" xmlns:ev="http://www.w3.org/2001/xml-events" xmlns:xlink="http://www.w3.org/1999/xlink" baseProfile="full" height="100%" version="1.1" viewBox="-1 0 34 2" width="100%">
  <defs/>
  <rect fill="#eee" height="2" width="34" x="-1" y="0"/>
  <g fill="#fff59e" stroke="#111" stroke-opacity="1" stroke-width="0.05">
    <rect height="1" transform="rotate(0 0.5 1)" width="1" x="0" y="0.5"/>
    <rect height="1" transform="rotate(1 1.5 1)" width="1" x="1" y="0.5"/>
    <rect height="1" transform="rotate(2 2.5 1)" width="1" x="2" y="0.5"/>
    <rect height="1" transform="rotate(3 3.5 1)" width="1" x="3" y="0.5"/>
    <rect height="1" transform="rotate(5 5.5 1)" width="1" x="5" y="0.5"/>
    <rect height="1" transform="rotate(6 6.5 1)" width="1" x="6" y="0.5"/>
    <rect height="1" transform="rotate(7 7.5 1)" width="1" x="7" y="0.5"/>
    <rect height="1" transform="rotate(8 8.5 1)" width="1" x="8" y="0.5"/>
    <rect height="1" transform="rotate(9 9.5 1)" width="1" x="9" y="0.5"/>
    <rect height="1" transform="rotate(10 10.5 1)" width="1" x="10" y="0.5"/>
    <rect height="1" transform="rotate(11 11.5 1)" width="1" x="11" y="0.5"/>
    <rect height="1" transform="rotate(12 12.5 1)" width="1" x="12" y="0.5"/>
    <rect height="1" transform="rotate(14 14.5 1)" width="1" x="14" y="0.5"/>
    <rect height="1" transform="rotate(15 15.5 1)" width="1" x="15" y="0.5"/>
    <rect height="1" transform="rotate(16 16.5 1)" width="1" x="16" y="0.5"/>
    <rect height="1" transform="rotate(17 17.5 1)" width="1" x="17" y="0.5"/>
    <rect height="1" transform="rotate(18 18.5 1)" width="1" x="18" y="0.5"/>
    <rect height="1" transform="rotate(19 19.5 1)" width="1" x="19" y="0.5"/>
    <rect height="1" transform="rotate(20 20.5 1)" width="1" x="20" y="0.5"/>
    <rect height="1" transform="rotate(22 22.5 1)" width="1" x="22" y="0.5"/>
    <rect height="1" transform="rotate(23 23.5 1)" width="1" x="23" y="0.5"/>
    <rect height="1" transform="rotate(25 25.5 1)" width="1" x="25" y="0.5"/>
    <rect height="1" transform="rotate(26 26.5 1)" width="1" x="26" y="0.5"/>
    <rect height="1" transform="rotate(27 27.5 1)" width="1" x="27" y="0.5"/>
    <rect height="1" transform="rotate(28 28.5 1)" width="1" x="28" y="0.5"/>
    <rect height="1" transform="rotate(29 29.5 1)" width="1" x="29" y="0.5"/>
    <rect height="1" transform="rotate(30 30.5 1)" width="1" x="30" y="0.5"/>
    <rect height="1" transform="rotate(31 31.5 1)" width="1" x="31" y="0.5"/>
  </g>
  <g fill="#111" font-family="sans-serif" font-size="0.67" text-anchor="middle">
    <text alignment-baseline="middle" x="0.5" y="1">I</text>
    <text alignment-baseline="middle" x="1.5" y="1">T</text>
    <text alignment-baseline="middle" x="2.5" y="1">'</text>
    <text alignment-baseline="middle" x="3.5" y="1">S</text>
    <text alignment-baseline="middle" x="4.5" y="1"> </text>
    <text alignment-baseline="middle" x="5.5" y="1">T</text>
    <text alignment-baseline="middle" x="6.5" y="1">H</text>
    <text alignment-baseline="middle" x="7.5" y="1">U</text>
    <text alignment-baseline="middle" x="8.5" y="1">R</text>
    <text alignment-baseline="middle" x="9.5" y="1">S</text>
    <text alignment-baseline="middle" x="10.5" y="1">D</text>
    <text alignment-baseline="middle" x="11.5" y="1">A</text>
    <text alignment-baseline="middle" x="12.5" y="1">Y</text>
    <text alignment-baseline="middle" x="13.5" y="1"> </text>
    <text alignment-baseline="middle" x="14.5" y="1">M</text>
    <text alignment-baseline="middle" x="15.5" y="1">O</text>
    <text alignment-baseline="middle" x="16.5" y="1">R</text>
    <text alignment-baseline="middle" x="17.5" y="1">N</text>
    <text alignment-baseline="middle" x="18.5" y="1">I</text>
    <text alignment-baseline="middle" x="19.5" y="1">N</text>
    <text alignment-baseline="middle" x="20.5" y="1">G</text>
    <text alignment-baseline="middle" x="21.5" y="1"> </text>
    <text alignment-baseline="middle" x="22.5" y="1">I</text>
    <text alignment-baseline="middle" x="23.5" y="1">N</text>
    <text alignment-baseline="middle" x="24.5" y="1"> </text>
    <text alignment-baseline="middle" x="25.5" y="1">C</text>
    <text alignment-baseline="middle" x="26.5" y="1">H</text>
    <text alignment-baseline="middle" x="27.5" y="1">I</text>
    <text alignment-baseline="middle" x="28.5" y="1">C</text>
    <text alignment-baseline="middle" x="29.5" y="1">A</text>
    <text alignment-baseline="middle" x="30.5" y="1">G</text>
    <text alignment-baseline="middle" x="31.5" y="1">O</text>
  </g>
  <g fill="none" stroke="#111" stroke-opacity="1" stroke-width="0.05">
    <rect height="1" transform="rotate(0.0 0.5 1)" width="1" x="0" y="0.5"/>
    <rect height="1" transform="rotate(1.914158531341711 1.5 1)" width="1" x="1" y="0.5"/>
    <rect height="1" transform="rotate(2.856299465370098 2.5 1)" width="1" x="2" y="0.5"/>
    <rect height="1" transform="rotate(5.00824903321566 3.5 1)" width="1" x="3" y="0.5"/>
    <rect height="1" transform="rotate(5.1537388533687505 5.5 1)" width="1" x="5" y="0.5"/>
    <rect height="1" transform="rotate(7.785952178433609 6.5 1)" width="1" x="6" y="0.5"/>
    <rect height="1" transform="rotate(13.220720437603237 7.5 1)" width="1" x="7" y="0.5"/>
    <rect height="1" transform="rotate(9.6419455773616 8.5 1)" width="1" x="8" y="0.5"/>
    <rect height="1" transform="rotate(10.396625472082388 9.5 1)" width="1" x="9" y="0.5"/>
    <rect height="1" transform="rotate(15.835890883369544 10.5 1)" width="1" x="10" y="0.5"/>
    <rect height="1" transform="rotate(17.250285850815494 11.5 1)" width="1" x="11" y="0.5"/>
    <rect height="1" transform="rotate(14.783351100579129 12.5 1)" width="1" x="12" y="0.5"/>
    <rect height="1" transform="rotate(18.157545893943006 14.5 1)" width="1" x="14" y="0.5"/>
    <rect height="1" transform="rotate(29.64611704347879 15.5 1)" width="1" x="15" y="0.5"/>
    <rect height="1" transform="rotate(24.514226183767864 16.5 1)" width="1" x="16" y="0.5"/>
    <rect height="1" transform="rotate(28.370306881745524 17.5 1)" width="1" x="17" y="0.5"/>
    <rect height="1" transform="rotate(32.27375058479187 18.5 1)" width="1" x="18" y="0.5"/>
    <rect height="1" transform="rotate(36.65083048656254 19.5 1)" width="1" x="19" y="0.5"/>
    <rect height="1" transform="rotate(36.01325290060657 20.5 1)" width="1" x="20" y="0.5"/>
    <rect height="1" transform="rotate(42.703072579383544 22.5 1)" width="1" x="22" y="0.5"/>
    <rect height="1" transform="rotate(44.479138479043826 23.5 1)" width="1" x="23" y="0.5"/>
    <rect height="1" transform="rotate(38.58550363439532 25.5 1)" width="1" x="25" y="0.5"/>
    <rect height="1" transform="rotate(39.17889773976128 26.5 1)" width="1" x="26" y="0.5"/>
    <rect height="1" transform="rotate(47.306856267494766 27.5 1)" width="1" x="27" y="0.5"/>
    <rect height="1" transform="rotate(40.941741978424666 28.5 1)" width="1" x="28" y="0.5"/>
    <rect height="1" transform="rotate(49.04208486186754 29.5 1)" width="1" x="29" y="0.5"/>
    <rect height="1" transform="rotate(45.34241577063788 30.5 1)" width="1" x="30" y="0.5"/>
    <rect height="1" transform="rotate(41.82542848173275 31.5 1)" width="1" x="31" y="0.5"/>
  </g>
</svg>
