<?xml version="1.0" encoding="utf-8" ?>
<svg xmlns="http://www.w3.org/2000/svg" xmlns:ev="http://www.w3.org/2001/xml-events" xmlns:xlink="http://www.w3.org/1999/xlink" baseProfile="full" height="100%" version="1.1" viewBox="-1 0 33 2" width="100%">
  <defs/>
  <rect fill="#eee" height="2" width="33" x="-1" y="0"/>
  <g fill="#9cb29e" stroke="#000" stroke-opacity="1" stroke-width="0.05">
    <rect height="1" transform="rotate(0 0.5 1)" width="1" x="0" y="0.5"/>
    <rect height="1" transform="rotate(1 1.5 1)" width="1" x="1" y="0.5"/>
    <rect height="1" transform="rotate(2 2.5 1)" width="1" x="2" y="0.5"/>
    <rect height="1" transform="rotate(3 3.5 1)" width="1" x="3" y="0.5"/>
    <rect height="1" transform="rotate(5 5.5 1)" width="1" x="5" y="0.5"/>
    <rect height="1" transform="rotate(6 6.5 1)" width="1" x="6" y="0.5"/>
    <rect height="1" transform="rotate(7 7.5 1)" width="1" x="7" y="0.5"/>
    <rect height="1" transform="rotate(8 8.5 1)" width="1" x="8" y="0.5"/>
    <rect height="1" transform="rotate(9 9.5 1)" width="1" x="9" y="0.5"/>
    <rect height="1" transform="rotate(10 10.5 1)" width="1" x="10" y="0.5"/>
    <rect height="1" transform="rotate(11 11.5 1)" width="1" x="11" y="0.5"/>
    <rect height="1" transform="rotate(13 13.5 1)" width="1" x="13" y="0.5"/>
    <rect height="1" transform="rotate(14 14.5 1)" width="1" x="14" y="0.5"/>
    <rect height="1" transform="rotate(15 15.5 1)" width="1" x="15" y="0.5"/>
    <rect height="1" transform="rotate(16 16.5 1)" width="1" x="16" y="0.5"/>
    <rect height="1" transform="rotate(17 17.5 1)" width="1" x="17" y="0.5"/>
    <rect height="1" transform="rotate(18 18.5 1)" width="1" x="18" y="0.5"/>
    <rect height="1" transform="rotate(19 19.5 1)" width="1" x="19" y="0.5"/>
    <rect height="1" transform="rotate(21 21.5 1)" width="1" x="21" y="0.5"/>
    <rect height="1" transform="rotate(22 22.5 1)" width="1" x="22" y="0.5"/>
    <rect height="1" transform="rotate(24 24.5 1)" width="1" x="24" y="0.5"/>
    <rect height="1" transform="rotate(25 25.5 1)" width="1" x="25" y="0.5"/>
    <rect height="1" transform="rotate(26 26.5 1)" width="1" x="26" y="0.5"/>
    <rect height="1" transform="rotate(27 27.5 1)" width="1" x="27" y="0.5"/>
    <rect height="1" transform="rotate(28 28.5 1)" width="1" x="28" y="0.5"/>
    <rect height="1" transform="rotate(29 29.5 1)" width="1" x="29" y="0.5"/>
    <rect height="1" transform="rotate(30 30.5 1)" width="1" x="30" y="0.5"/>
  </g>
  <g fill="#000" font-family="sans-serif" font-size="0.67" text-anchor="middle">
    <text alignment-baseline="middle" x="0.5" y="1">I</text>
    <text alignment-baseline="middle" x="1.5" y="1">T</text>
    <text alignment-baseline="middle" x="2.5" y="1">'</text>
    <text alignment-baseline="middle" x="3.5" y="1">S</text>
    <text alignment-baseline="middle" x="4.5" y="1"> </text>
    <text alignment-baseline="middle" x="5.5" y="1">T</text>
    <text alignment-baseline="middle" x="6.5" y="1">U</text>
    <text alignment-baseline="middle" x="7.5" y="1">E</text>
    <text alignment-baseline="middle" x="8.5" y="1">S</text>
    <text alignment-baseline="middle" x="9.5" y="1">D</text>
    <text alignment-baseline="middle" x="10.5" y="1">A</text>
    <text alignment-baseline="middle" x="11.5" y="1">Y</text>
    <text alignment-baseline="middle" x="12.5" y="1"> </text>
    <text alignment-baseline="middle" x="13.5" y="1">E</text>
    <text alignment-baseline="middle" x="14.5" y="1">V</text>
    <text alignment-baseline="middle" x="15.5" y="1">E</text>
    <text alignment-baseline="middle" x="16.5" y="1">N</text>
    <text alignment-baseline="middle" x="17.5" y="1">I</text>
    <text alignment-baseline="middle" x="18.5" y="1">N</text>
    <text alignment-baseline="middle" x="19.5" y="1">G</text>
    <text alignment-baseline="middle" x="20.5" y="1"> </text>
    <text alignment-baseline="middle" x="21.5" y="1">I</text>
    <text alignment-baseline="middle" x="22.5" y="1">N</text>
    <text alignment-baseline="middle" x="23.5" y="1"> </text>
    <text alignment-baseline="middle" x="24.5" y="1">C</text>
    <text alignment-baseline="middle" x="25.5" y="1">H</text>
    <text alignment-baseline="middle" x="26.5" y="1">I</text>
    <text alignment-baseline="middle" x="27.5" y="1">C</text>
    <text alignment-baseline="middle" x="28.5" y="1">A</text>
    <text alignment-baseline="middle" x="29.5" y="1">G</text>
    <text alignment-baseline="middle" x="30.5" y="1">O</text>
  </g>
  <g fill="none" stroke="#000" stroke-opacity="1" stroke-width="0.05">
    <rect height="1" transform="rotate(0.0 0.5 1)" width="1" x="0" y="0.5"/>
    <rect height="1" transform="rotate(1.2201546063252995 1.5 1)" width="1" x="1" y="0.5"/>
    <rect height="1" transform="rotate(3.3807168126255793 2.5 1)" width="1" x="2" y="0.5"/>
    <rect height="1" transform="rotate(5.491151848264469 3.5 1)" width="1" x="3" y="0.5"/>
    <rect height="1" transform="rotate(8.774267400111952 5.5 1)" width="1" x="5" y="0.5"/>
    <rect height="1" transform="rotate(10.430278170441849 6.5 1)" width="1" x="6" y="0.5"/>
    <rect height="1" transform="rotate(10.102222624468292 7.5 1)" width="1" x="7" y="0.5"/>
    <rect height="1" transform="rotate(15.398884886126531 8.5 1)" width="1" x="8" y="0.5"/>
    <rect height="1" transform="rotate(16.53203883562468 9.5 1)" width="1" x="9" y="0.5"/>
    <rect height="1" transform="rotate(11.30417315739576 10.5 1)" width="1" x="10" y="0.5"/>
    <rect height="1" transform="rotate(20.101132133909452 11.5 1)" width="1" x="11" y="0.5"/>
    <rect height="1" transform="rotate(25.637556134765088 13.5 1)" width="1" x="13" y="0.5"/>
    <rect height="1" transform="rotate(15.90770046512661 14.5 1)" width="1" x="14" y="0.5"/>
    <rect height="1" transform="rotate(20.124907266519738 15.5 1)" width="1" x="15" y="0.5"/>
    <rect height="1" transform="rotate(25.87930630819174 16.5 1)" width="1" x="16" y="0.5"/>
    <rect height="1" transform="rotate(22.87163545019063 17.5 1)" width="1" x="17" y="0.5"/>
    <rect height="1" transform="rotate(26.05559491853644 18.5 1)" width="1" x="18" y="0.5"/>
    <rect height="1" transform="rotate(22.291196023325305 19.5 1)" width="1" x="19" y="0.5"/>
    <rect height="1" transform="rotate(30.89501330726026 21.5 1)" width="1" x="21" y="0.5"/>
    <rect height="1" transform="rotate(35.39883291673108 22.5 1)" width="1" x="22" y="0.5"/>
    <rect height="1" transform="rotate(41.55067632736169 24.5 1)" width="1" x="24" y="0.5"/>
    <rect height="1" transform="rotate(29.933892044325315 25.5 1)" width="1" x="25" y="0.5"/>
    <rect height="1" transform="rotate(30.271609728185002 26.5 1)" width="1" x="26" y="0.5"/>
    <rect height="1" transform="rotate(35.86120342774315 27.5 1)" width="1" x="27" y="0.5"/>
    <rect height="1" transform="rotate(45.53591628657686 28.5 1)" width="1" x="28" y="0.5"/>
    <rect height="1" transform="rotate(49.134887687658384 29.5 1)" width="1" x="29" y="0.5"/>
    <rect height="1" transform="rotate(51.1763202902644 30.5 1)" width="1" x="30" y="0.5"/>
  </g>
</svg>
