<?xml version="1.0" encoding="utf-8" ?>
<svg xmlns="http://www.w3.org/2000/svg" xmlns:ev="http://www.w3.org/2001/xml-events" xmlns:xlink="http://www.w3.org/1999/xlink" baseProfile="full" height="100%" version="1.1" viewBox="-1 0 34 2" width="100%">
  <defs/>
  <rect fill="#eee" height="2" width="34" x="-1" y="0"/>
  <g fill="#80ffcc" stroke="#222" stroke-opacity="1" stroke-width="0.05">
    <rect height="1" transform="rotate(0 0.5 1)" width="1" x="0" y="0.5"/>
    <rect height="1" transform="rotate(1 1.5 1)" width="1" x="1" y="0.5"/>
    <rect height="1" transform="rotate(2 2.5 1)" width="1" x="2" y="0.5"/>
    <rect height="1" transform="rotate(3 3.5 1)" width="1" x="3" y="0.5"/>
    <rect height="1" transform="rotate(5 5.5 1)" width="1" x="5" y="0.5"/>
    <rect height="1" transform="rotate(6 6.5 1)" width="1" x="6" y="0.5"/>
    <rect height="1" transform="rotate(7 7.5 1)" width="1" x="7" y="0.5"/>
    <rect height="1" transform="rotate(8 8.5 1)" width="1" x="8" y="0.5"/>
    <rect height="1" transform="rotate(9 9.5 1)" width="1" x="9" y="0.5"/>
    <rect height="1" transform="rotate(10 10.5 1)" width="1" x="10" y="0.5"/>
    <rect height="1" transform="rotate(12 12.5 1)" width="1" x="12" y="0.5"/>
    <rect height="1" transform="rotate(13 13.5 1)" width="1" x="13" y="0.5"/>
    <rect height="1" transform="rotate(14 14.5 1)" width="1" x="14" y="0.5"/>
    <rect height="1" transform="rotate(15 15.5 1)" width="1" x="15" y="0.5"/>
    <rect height="1" transform="rotate(16 16.5 1)" width="1" x="16" y="0.5"/>
    <rect height="1" transform="rotate(17 17.5 1)" width="1" x="17" y="0.5"/>
    <rect height="1" transform="rotate(18 18.5 1)" width="1" x="18" y="0.5"/>
    <rect height="1" transform="rotate(19 19.5 1)" width="1" x="19" y="0.5"/>
    <rect height="1" transform="rotate(20 20.5 1)" width="1" x="20" y="0.5"/>
    <rect height="1" transform="rotate(22 22.5 1)" width="1" x="22" y="0.5"/>
    <rect height="1" transform="rotate(23 23.5 1)" width="1" x="23" y="0.5"/>
    <rect height="1" transform="rotate(25 25.5 1)" width="1" x="25" y="0.5"/>
    <rect height="1" transform="rotate(26 26.5 1)" width="1" x="26" y="0.5"/>
    <rect height="1" transform="rotate(27 27.5 1)" width="1" x="27" y="0.5"/>
    <rect height="1" transform="rotate(28 28.5 1)" width="1" x="28" y="0.5"/>
    <rect height="1" transform="rotate(29 29.5 1)" width="1" x="29" y="0.5"/>
    <rect height="1" transform="rotate(30 30.5 1)" width="1" x="30" y="0.5"/>
    <rect height="1" transform="rotate(31 31.5 1)" width="1" x="31" y="0.5"/>
  </g>
  <g fill="#222" font-family="sans-serif" font-size="0.67" text-anchor="middle">
    <text alignment-baseline="middle" x="0.5" y="1">I</text>
    <text alignment-baseline="middle" x="1.5" y="1">T</text>
    <text alignment-baseline="middle" x="2.5" y="1">'</text>
    <text alignment-baseline="middle" x="3.5" y="1">S</text>
    <text alignment-baseline="middle" x="4.5" y="1"> </text>
    <text alignment-baseline="middle" x="5.5" y="1">S</text>
    <text alignment-baseline="middle" x="6.5" y="1">U</text>
    <text alignment-baseline="middle" x="7.5" y="1">N</text>
    <text alignment-baseline="middle" x="8.5" y="1">D</text>
    <text alignment-baseline="middle" x="9.5" y="1">A</text>
    <text alignment-baseline="middle" x="10.5" y="1">Y</text>
    <text alignment-baseline="middle" x="11.5" y="1"> </text>
    <text alignment-baseline="middle" x="12.5" y="1">A</text>
    <text alignment-baseline="middle" x="13.5" y="1">F</text>
    <text alignment-baseline="middle" x="14.5" y="1">T</text>
    <text alignment-baseline="middle" x="15.5" y="1">E</text>
    <text alignment-baseline="middle" x="16.5" y="1">R</text>
    <text alignment-baseline="middle" x="17.5" y="1">N</text>
    <text alignment-baseline="middle" x="18.5" y="1">O</text>
    <text alignment-baseline="middle" x="19.5" y="1">O</text>
    <text alignment-baseline="middle" x="20.5" y="1">N</text>
    <text alignment-baseline="middle" x="21.5" y="1"> </text>
    <text alignment-baseline="middle" x="22.5" y="1">I</text>
    <text alignment-baseline="middle" x="23.5" y="1">N</text>
    <text alignment-baseline="middle" x="24.5" y="1"> </text>
    <text alignment-baseline="middle" x="25.5" y="1">C</text>
    <text alignment-baseline="middle" x="26.5" y="1">H</text>
    <text alignment-baseline="middle" x="27.5" y="1">I</text>
    <text alignment-baseline="middle" x="28.5" y="1">C</text>
    <text alignment-baseline="middle" x="29.5" y="1">A</text>
    <text alignment-baseline="middle" x="30.5" y="1">G</text>
    <text alignment-baseline="middle" x="31.5" y="1">O</text>
  </g>
  <g fill="none" stroke="#222" stroke-opacity="1" stroke-width="0.05">
    <rect height="1" transform="rotate(0.0 0.5 1)" width="1" x="0" y="0.5"/>
    <rect height="1" transform="rotate(1.2451499349822868 1.5 1)" width="1" x="1" y="0.5"/>
    <rect height="1" transform="rotate(3.0190040515501115 2.5 1)" width="1" x="2" y="0.5"/>
    <rect height="1" transform="rotate(3.216265069841935 3.5 1)" width="1" x="3" y="0.5"/>
    <rect height="1" transform="rotate(8.30589108242171 5.5 1)" width="1" x="5" y="0.5"/>
    <rect height="1" transform="rotate(10.736244708065115 6.5 1)" width="1" x="6" y="0.5"/>
    <rect height="1" transform="rotate(13.647560666151382 7.5 1)" width="1" x="7" y="0.5"/>
    <rect height="1" transform="rotate(11.441329404893422 8.5 1)" width="1" x="8" y="0.5"/>
    <rect height="1" transform="rotate(13.541840954905808 9.5 1)" width="1" x="9" y="0.5"/>
    <rect height="1" transform="rotate(14.268401842510237 10.5 1)" width="1" x="10" y="0.5"/>
    <rect height="1" transform="rotate(20.184416058662933 12.5 1)" width="1" x="12" y="0.5"/>
    <rect height="1" transform="rotate(19.738460665327338 13.5 1)" width="1" x="13" y="0.5"/>
    <rect height="1" transform="rotate(18.186847293151416 14.5 1)" width="1" x="14" y="0.5"/>
    <rect height="1" transform="rotate(19.80377941912071 15.5 1)" width="1" x="15" y="0.5"/>
    <rect height="1" transform="rotate(26.553374585716245 16.5 1)" width="1" x="16" y="0.5"/>
    <rect height="1" transform="rotate(32.195527252662885 17.5 1)" width="1" x="17" y="0.5"/>
    <rect height="1" transform="rotate(33.11177898682265 18.5 1)" width="1" x="18" y="0.5"/>
    <rect height="1" transform="rotate(29.89489854050224 19.5 1)" width="1" x="19" y="0.5"/>
    <rect height="1" transform="rotate(32.74153200661677 20.5 1)" width="1" x="20" y="0.5"/>
    <rect height="1" transform="rotate(41.711194657418865 22.5 1)" width="1" x="22" y="0.5"/>
    <rect height="1" transform="rotate(31.968770754433525 23.5 1)" width="1" x="23" y="0.5"/>
    <rect height="1" transform="rotate(31.180966652324884 25.5 1)" width="1" x="25" y="0.5"/>
    <rect height="1" transform="rotate(38.31953530801621 26.5 1)" width="1" x="26" y="0.5"/>
    <rect height="1" transform="rotate(29.00376542128708 27.5 1)" width="1" x="27" y="0.5"/>
    <rect height="1" transform="rotate(53.32420789785755 28.5 1)" width="1" x="28" y="0.5"/>
    <rect height="1" transform="rotate(48.658080830778914 29.5 1)" width="1" x="29" y="0.5"/>
    <rect height="1" transform="rotate(58.65796606874418 30.5 1)" width="1" x="30" y="0.5"/>
    <rect height="1" transform="rotate(38.07046618473238 31.5 1)" width="1" x="31" y="0.5"/>
  </g>
</svg>
