<?xml version="1.0" encoding="utf-8" ?>
<svg xmlns="http://www.w3.org/2000/svg" xmlns:ev="http://www.w3.org/2001/xml-events" xmlns:xlink="http://www.w3.org/1999/xlink" baseProfile="full" height="100%" version="1.1" viewBox="-1 0 30 2" width="100%">
  <defs/>
  <rect fill="#111" height="2" width="30" x="-1" y="0"/>
  <g fill="#a10045" stroke="#eee" stroke-opacity="1" stroke-width="0.05">
    <rect height="1" transform="rotate(0 0.5 1)" width="1" x="0" y="0.5"/>
    <rect height="1" transform="rotate(1 1.5 1)" width="1" x="1" y="0.5"/>
    <rect height="1" transform="rotate(2 2.5 1)" width="1" x="2" y="0.5"/>
    <rect height="1" transform="rotate(3 3.5 1)" width="1" x="3" y="0.5"/>
    <rect height="1" transform="rotate(5 5.5 1)" width="1" x="5" y="0.5"/>
    <rect height="1" transform="rotate(6 6.5 1)" width="1" x="6" y="0.5"/>
    <rect height="1" transform="rotate(7 7.5 1)" width="1" x="7" y="0.5"/>
    <rect height="1" transform="rotate(8 8.5 1)" width="1" x="8" y="0.5"/>
    <rect height="1" transform="rotate(9 9.5 1)" width="1" x="9" y="0.5"/>
    <rect height="1" transform="rotate(10 10.5 1)" width="1" x="10" y="0.5"/>
    <rect height="1" transform="rotate(12 12.5 1)" width="1" x="12" y="0.5"/>
    <rect height="1" transform="rotate(13 13.5 1)" width="1" x="13" y="0.5"/>
    <rect height="1" transform="rotate(14 14.5 1)" width="1" x="14" y="0.5"/>
    <rect height="1" transform="rotate(15 15.5 1)" width="1" x="15" y="0.5"/>
    <rect height="1" transform="rotate(16 16.5 1)" width="1" x="16" y="0.5"/>
    <rect height="1" transform="rotate(18 18.5 1)" width="1" x="18" y="0.5"/>
    <rect height="1" transform="rotate(19 19.5 1)" width="1" x="19" y="0.5"/>
    <rect height="1" transform="rotate(21 21.5 1)" width="1" x="21" y="0.5"/>
    <rect height="1" transform="rotate(22 22.5 1)" width="1" x="22" y="0.5"/>
    <rect height="1" transform="rotate(23 23.5 1)" width="1" x="23" y="0.5"/>
    <rect height="1" transform="rotate(24 24.5 1)" width="1" x="24" y="0.5"/>
    <rect height="1" transform="rotate(25 25.5 1)" width="1" x="25" y="0.5"/>
    <rect height="1" transform="rotate(26 26.5 1)" width="1" x="26" y="0.5"/>
    <rect height="1" transform="rotate(27 27.5 1)" width="1" x="27" y="0.5"/>
  </g>
  <g fill="#eee" font-family="sans-serif" font-size="0.67" text-anchor="middle">
    <text alignment-baseline="middle" x="0.5" y="1">I</text>
    <text alignment-baseline="middle" x="1.5" y="1">T</text>
    <text alignment-baseline="middle" x="2.5" y="1">'</text>
    <text alignment-baseline="middle" x="3.5" y="1">S</text>
    <text alignment-baseline="middle" x="4.5" y="1"> </text>
    <text alignment-baseline="middle" x="5.5" y="1">M</text>
    <text alignment-baseline="middle" x="6.5" y="1">O</text>
    <text alignment-baseline="middle" x="7.5" y="1">N</text>
    <text alignment-baseline="middle" x="8.5" y="1">D</text>
    <text alignment-baseline="middle" x="9.5" y="1">A</text>
    <text alignment-baseline="middle" x="10.5" y="1">Y</text>
    <text alignment-baseline="middle" x="11.5" y="1"> </text>
    <text alignment-baseline="middle" x="12.5" y="1">N</text>
    <text alignment-baseline="middle" x="13.5" y="1">I</text>
    <text alignment-baseline="middle" x="14.5" y="1">G</text>
    <text alignment-baseline="middle" x="15.5" y="1">H</text>
    <text alignment-baseline="middle" x="16.5" y="1">T</text>
    <text alignment-baseline="middle" x="17.5" y="1"> </text>
    <text alignment-baseline="middle" x="18.5" y="1">I</text>
    <text alignment-baseline="middle" x="19.5" y="1">N</text>
    <text alignment-baseline="middle" x="20.5" y="1"> </text>
    <text alignment-baseline="middle" x="21.5" y="1">C</text>
    <text alignment-baseline="middle" x="22.5" y="1">H</text>
    <text alignment-baseline="middle" x="23.5" y="1">I</text>
    <text alignment-baseline="middle" x="24.5" y="1">C</text>
    <text alignment-baseline="middle" x="25.5" y="1">A</text>
    <text alignment-baseline="middle" x="26.5" y="1">G</text>
    <text alignment-baseline="middle" x="27.5" y="1">O</text>
  </g>
  <g fill="none" stroke="#eee" stroke-opacity="1" stroke-width="0.05">
    <rect height="1" transform="rotate(0.0 0.5 1)" width="1" x="0" y="0.5"/>
    <rect height="1" transform="rotate(1.8417289509558483 1.5 1)" width="1" x="1" y="0.5"/>
    <rect height="1" transform="rotate(2.812632696075391 2.5 1)" width="1" x="2" y="0.5"/>
    <rect height="1" transform="rotate(3.355165914933223 3.5 1)" width="1" x="3" y="0.5"/>
    <rect height="1" transform="rotate(6.096974669992006 5.5 1)" width="1" x="5" y="0.5"/>
    <rect height="1" transform="rotate(11.766427493764136 6.5 1)" width="1" x="6" y="0.5"/>
    <rect height="1" transform="rotate(10.459526126015323 7.5 1)" width="1" x="7" y="0.5"/>
    <rect height="1" transform="rotate(15.83500774490771 8.5 1)" width="1" x="8" y="0.5"/>
    <rect height="1" transform="rotate(17.417603047926722 9.5 1)" width="1" x="9" y="0.5"/>
    <rect height="1" transform="rotate(12.663849566808597 10.5 1)" width="1" x="10" y="0.5"/>
    <rect height="1" transform="rotate(22.7076761028845 12.5 1)" width="1" x="12" y="0.5"/>
    <rect height="1" transform="rotate(18.77802934066711 13.5 1)" width="1" x="13" y="0.5"/>
    <rect height="1" transform="rotate(16.436579220500533 14.5 1)" width="1" x="14" y="0.5"/>
    <rect height="1" transform="rotate(23.863975503487158 15.5 1)" width="1" x="15" y="0.5"/>
    <rect height="1" transform="rotate(22.473527787982505 16.5 1)" width="1" x="16" y="0.5"/>
    <rect height="1" transform="rotate(30.698117205959356 18.5 1)" width="1" x="18" y="0.5"/>
    <rect height="1" transform="rotate(29.334810444072534 19.5 1)" width="1" x="19" y="0.5"/>
    <rect height="1" transform="rotate(25.045487379597095 21.5 1)" width="1" x="21" y="0.5"/>
    <rect height="1" transform="rotate(42.75118535057707 22.5 1)" width="1" x="22" y="0.5"/>
    <rect height="1" transform="rotate(29.646840123170712 23.5 1)" width="1" x="23" y="0.5"/>
    <rect height="1" transform="rotate(42.03499299026291 24.5 1)" width="1" x="24" y="0.5"/>
    <rect height="1" transform="rotate(35.08402000035002 25.5 1)" width="1" x="25" y="0.5"/>
    <rect height="1" transform="rotate(51.78754778475827 26.5 1)" width="1" x="26" y="0.5"/>
    <rect height="1" transform="rotate(40.16630700568752 27.5 1)" width="1" x="27" y="0.5"/>
  </g>
</svg>
