<?xml version="1.0" encoding="utf-8" ?>
<svg xmlns="http://www.w3.org/2000/svg" xmlns:ev="http://www.w3.org/2001/xml-events" xmlns:xlink="http://www.w3.org/1999/xlink" baseProfile="full" height="100%" version="1.1" viewBox="-1 0 35 2" width="100%">
  <defs/>
  <rect fill="#eee" height="2" width="35" x="-1" y="0"/>
  <g fill="#fff59e" stroke="#111" stroke-opacity="1" stroke-width="0.05">
    <rect height="1" transform="rotate(0 0.5 1)" width="1" x="0" y="0.5"/>
    <rect height="1" transform="rotate(1 1.5 1)" width="1" x="1" y="0.5"/>
    <rect height="1" transform="rotate(2 2.5 1)" width="1" x="2" y="0.5"/>
    <rect height="1" transform="rotate(3 3.5 1)" width="1" x="3" y="0.5"/>
    <rect height="1" transform="rotate(5 5.5 1)" width="1" x="5" y="0.5"/>
    <rect height="1" transform="rotate(6 6.5 1)" width="1" x="6" y="0.5"/>
    <rect height="1" transform="rotate(7 7.5 1)" width="1" x="7" y="0.5"/>
    <rect height="1" transform="rotate(8 8.5 1)" width="1" x="8" y="0.5"/>
    <rect height="1" transform="rotate(9 9.5 1)" width="1" x="9" y="0.5"/>
    <rect height="1" transform="rotate(10 10.5 1)" width="1" x="10" y="0.5"/>
    <rect height="1" transform="rotate(11 11.5 1)" width="1" x="11" y="0.5"/>
    <rect height="1" transform="rotate(12 12.5 1)" width="1" x="12" y="0.5"/>
    <rect height="1" transform="rotate(13 13.5 1)" width="1" x="13" y="0.5"/>
    <rect height="1" transform="rotate(15 15.5 1)" width="1" x="15" y="0.5"/>
    <rect height="1" transform="rotate(16 16.5 1)" width="1" x="16" y="0.5"/>
    <rect height="1" transform="rotate(17 17.5 1)" width="1" x="17" y="0.5"/>
    <rect height="1" transform="rotate(18 18.5 1)" width="1" x="18" y="0.5"/>
    <rect height="1" transform="rotate(19 19.5 1)" width="1" x="19" y="0.5"/>
    <rect height="1" transform="rotate(20 20.5 1)" width="1" x="20" y="0.5"/>
    <rect height="1" transform="rotate(21 21.5 1)" width="1" x="21" y="0.5"/>
    <rect height="1" transform="rotate(23 23.5 1)" width="1" x="23" y="0.5"/>
    <rect height="1" transform="rotate(24 24.5 1)" width="1" x="24" y="0.5"/>
    <rect height="1" transform="rotate(26 26.5 1)" width="1" x="26" y="0.5"/>
    <rect height="1" transform="rotate(27 27.5 1)" width="1" x="27" y="0.5"/>
    <rect height="1" transform="rotate(28 28.5 1)" width="1" x="28" y="0.5"/>
    <rect height="1" transform="rotate(29 29.5 1)" width="1" x="29" y="0.5"/>
    <rect height="1" transform="rotate(30 30.5 1)" width="1" x="30" y="0.5"/>
    <rect height="1" transform="rotate(31 31.5 1)" width="1" x="31" y="0.5"/>
    <rect height="1" transform="rotate(32 32.5 1)" width="1" x="32" y="0.5"/>
  </g>
  <g fill="#111" font-family="sans-serif" font-size="0.67" text-anchor="middle">
    <text alignment-baseline="middle" x="0.5" y="1">I</text>
    <text alignment-baseline="middle" x="1.5" y="1">T</text>
    <text alignment-baseline="middle" x="2.5" y="1">'</text>
    <text alignment-baseline="middle" x="3.5" y="1">S</text>
    <text alignment-baseline="middle" x="4.5" y="1"> </text>
    <text alignment-baseline="middle" x="5.5" y="1">W</text>
    <text alignment-baseline="middle" x="6.5" y="1">E</text>
    <text alignment-baseline="middle" x="7.5" y="1">D</text>
    <text alignment-baseline="middle" x="8.5" y="1">N</text>
    <text alignment-baseline="middle" x="9.5" y="1">E</text>
    <text alignment-baseline="middle" x="10.5" y="1">S</text>
    <text alignment-baseline="middle" x="11.5" y="1">D</text>
    <text alignment-baseline="middle" x="12.5" y="1">A</text>
    <text alignment-baseline="middle" x="13.5" y="1">Y</text>
    <text alignment-baseline="middle" x="14.5" y="1"> </text>
    <text alignment-baseline="middle" x="15.5" y="1">M</text>
    <text alignment-baseline="middle" x="16.5" y="1">O</text>
    <text alignment-baseline="middle" x="17.5" y="1">R</text>
    <text alignment-baseline="middle" x="18.5" y="1">N</text>
    <text alignment-baseline="middle" x="19.5" y="1">I</text>
    <text alignment-baseline="middle" x="20.5" y="1">N</text>
    <text alignment-baseline="middle" x="21.5" y="1">G</text>
    <text alignment-baseline="middle" x="22.5" y="1"> </text>
    <text alignment-baseline="middle" x="23.5" y="1">I</text>
    <text alignment-baseline="middle" x="24.5" y="1">N</text>
    <text alignment-baseline="middle" x="25.5" y="1"> </text>
    <text alignment-baseline="middle" x="26.5" y="1">C</text>
    <text alignment-baseline="middle" x="27.5" y="1">H</text>
    <text alignment-baseline="middle" x="28.5" y="1">I</text>
    <text alignment-baseline="middle" x="29.5" y="1">C</text>
    <text alignment-baseline="middle" x="30.5" y="1">A</text>
    <text alignment-baseline="middle" x="31.5" y="1">G</text>
    <text alignment-baseline="middle" x="32.5" y="1">O</text>
  </g>
  <g fill="none" stroke="#111" stroke-opacity="1" stroke-width="0.05">
    <rect height="1" transform="rotate(0.0 0.5 1)" width="1" x="0" y="0.5"/>
    <rect height="1" transform="rotate(1.7215742552041569 1.5 1)" width="1" x="1" y="0.5"/>
    <rect height="1" transform="rotate(3.398578794607334 2.5 1)" width="1" x="2" y="0.5"/>
    <rect height="1" transform="rotate(3.981722576690411 3.5 1)" width="1" x="3" y="0.5"/>
    <rect height="1" transform="rotate(9.926365473808541 5.5 1)" width="1" x="5" y="0.5"/>
    <rect height="1" transform="rotate(11.237416208325891 6.5 1)" width="1" x="6" y="0.5"/>
    <rect height="1" transform="rotate(13.94201420802015 7.5 1)" width="1" x="7" y="0.5"/>
    <rect height="1" transform="rotate(12.2605756106949 8.5 1)" width="1" x="8" y="0.5"/>
    <rect height="1" transform="rotate(10.32321692221757 9.5 1)" width="1" x="9" y="0.5"/>
    <rect height="1" transform="rotate(10.387649414528116 10.5 1)" width="1" x="10" y="0.5"/>
    <rect height="1" transform="rotate(13.91383950779754 11.5 1)" width="1" x="11" y="0.5"/>
    <rect height="1" transform="rotate(16.015345418237917 12.5 1)" width="1" x="12" y="0.5"/>
    <rect height="1" transform="rotate(17.090645060471974 13.5 1)" width="1" x="13" y="0.5"/>
    <rect height="1" transform="rotate(27.87389661886468 15.5 1)" width="1" x="15" y="0.5"/>
    <rect height="1" transform="rotate(25.409237704710847 16.5 1)" width="1" x="16" y="0.5"/>
    <rect height="1" transform="rotate(24.411165235145837 17.5 1)" width="1" x="17" y="0.5"/>
    <rect height="1" transform="rotate(28.84732889987643 18.5 1)" width="1" x="18" y="0.5"/>
    <rect height="1" transform="rotate(36.06663513418917 19.5 1)" width="1" x="19" y="0.5"/>
    <rect height="1" transform="rotate(38.00357802623755 20.5 1)" width="1" x="20" y="0.5"/>
    <rect height="1" transform="rotate(21.33492390892374 21.5 1)" width="1" x="21" y="0.5"/>
    <rect height="1" transform="rotate(25.1021478488337 23.5 1)" width="1" x="23" y="0.5"/>
    <rect height="1" transform="rotate(35.00911052777527 24.5 1)" width="1" x="24" y="0.5"/>
    <rect height="1" transform="rotate(50.28789051929608 26.5 1)" width="1" x="26" y="0.5"/>
    <rect height="1" transform="rotate(50.75240349019314 27.5 1)" width="1" x="27" y="0.5"/>
    <rect height="1" transform="rotate(55.09188115724344 28.5 1)" width="1" x="28" y="0.5"/>
    <rect height="1" transform="rotate(47.55541600649987 29.5 1)" width="1" x="29" y="0.5"/>
    <rect height="1" transform="rotate(30.930243874846507 30.5 1)" width="1" x="30" y="0.5"/>
    <rect height="1" transform="rotate(34.179404847981 31.5 1)" width="1" x="31" y="0.5"/>
    <rect height="1" transform="rotate(53.45587883123408 32.5 1)" width="1" x="32" y="0.5"/>
  </g>
</svg>
