<?xml version="1.0" encoding="utf-8" ?>
<svg xmlns="http://www.w3.org/2000/svg" xmlns:ev="http://www.w3.org/2001/xml-events" xmlns:xlink="http://www.w3.org/1999/xlink" baseProfile="full" height="100%" version="1.1" viewBox="-1 0 37 2" width="100%">
  <defs/>
  <rect fill="#eee" height="2" width="37" x="-1" y="0"/>
  <g fill="#80ffcc" stroke="#222" stroke-opacity="1" stroke-width="0.05">
    <rect height="1" transform="rotate(0 0.5 1)" width="1" x="0" y="0.5"/>
    <rect height="1" transform="rotate(1 1.5 1)" width="1" x="1" y="0.5"/>
    <rect height="1" transform="rotate(2 2.5 1)" width="1" x="2" y="0.5"/>
    <rect height="1" transform="rotate(3 3.5 1)" width="1" x="3" y="0.5"/>
    <rect height="1" transform="rotate(5 5.5 1)" width="1" x="5" y="0.5"/>
    <rect height="1" transform="rotate(6 6.5 1)" width="1" x="6" y="0.5"/>
    <rect height="1" transform="rotate(7 7.5 1)" width="1" x="7" y="0.5"/>
    <rect height="1" transform="rotate(8 8.5 1)" width="1" x="8" y="0.5"/>
    <rect height="1" transform="rotate(9 9.5 1)" width="1" x="9" y="0.5"/>
    <rect height="1" transform="rotate(10 10.5 1)" width="1" x="10" y="0.5"/>
    <rect height="1" transform="rotate(11 11.5 1)" width="1" x="11" y="0.5"/>
    <rect height="1" transform="rotate(12 12.5 1)" width="1" x="12" y="0.5"/>
    <rect height="1" transform="rotate(13 13.5 1)" width="1" x="13" y="0.5"/>
    <rect height="1" transform="rotate(15 15.5 1)" width="1" x="15" y="0.5"/>
    <rect height="1" transform="rotate(16 16.5 1)" width="1" x="16" y="0.5"/>
    <rect height="1" transform="rotate(17 17.5 1)" width="1" x="17" y="0.5"/>
    <rect height="1" transform="rotate(18 18.5 1)" width="1" x="18" y="0.5"/>
    <rect height="1" transform="rotate(19 19.5 1)" width="1" x="19" y="0.5"/>
    <rect height="1" transform="rotate(20 20.5 1)" width="1" x="20" y="0.5"/>
    <rect height="1" transform="rotate(21 21.5 1)" width="1" x="21" y="0.5"/>
    <rect height="1" transform="rotate(22 22.5 1)" width="1" x="22" y="0.5"/>
    <rect height="1" transform="rotate(23 23.5 1)" width="1" x="23" y="0.5"/>
    <rect height="1" transform="rotate(25 25.5 1)" width="1" x="25" y="0.5"/>
    <rect height="1" transform="rotate(26 26.5 1)" width="1" x="26" y="0.5"/>
    <rect height="1" transform="rotate(28 28.5 1)" width="1" x="28" y="0.5"/>
    <rect height="1" transform="rotate(29 29.5 1)" width="1" x="29" y="0.5"/>
    <rect height="1" transform="rotate(30 30.5 1)" width="1" x="30" y="0.5"/>
    <rect height="1" transform="rotate(31 31.5 1)" width="1" x="31" y="0.5"/>
    <rect height="1" transform="rotate(32 32.5 1)" width="1" x="32" y="0.5"/>
    <rect height="1" transform="rotate(33 33.5 1)" width="1" x="33" y="0.5"/>
    <rect height="1" transform="rotate(34 34.5 1)" width="1" x="34" y="0.5"/>
  </g>
  <g fill="#222" font-family="sans-serif" font-size="0.67" text-anchor="middle">
    <text alignment-baseline="middle" x="0.5" y="1">I</text>
    <text alignment-baseline="middle" x="1.5" y="1">T</text>
    <text alignment-baseline="middle" x="2.5" y="1">'</text>
    <text alignment-baseline="middle" x="3.5" y="1">S</text>
    <text alignment-baseline="middle" x="4.5" y="1"> </text>
    <text alignment-baseline="middle" x="5.5" y="1">W</text>
    <text alignment-baseline="middle" x="6.5" y="1">E</text>
    <text alignment-baseline="middle" x="7.5" y="1">D</text>
    <text alignment-baseline="middle" x="8.5" y="1">N</text>
    <text alignment-baseline="middle" x="9.5" y="1">E</text>
    <text alignment-baseline="middle" x="10.5" y="1">S</text>
    <text alignment-baseline="middle" x="11.5" y="1">D</text>
    <text alignment-baseline="middle" x="12.5" y="1">A</text>
    <text alignment-baseline="middle" x="13.5" y="1">Y</text>
    <text alignment-baseline="middle" x="14.5" y="1"> </text>
    <text alignment-baseline="middle" x="15.5" y="1">A</text>
    <text alignment-baseline="middle" x="16.5" y="1">F</text>
    <text alignment-baseline="middle" x="17.5" y="1">T</text>
    <text alignment-baseline="middle" x="18.5" y="1">E</text>
    <text alignment-baseline="middle" x="19.5" y="1">R</text>
    <text alignment-baseline="middle" x="20.5" y="1">N</text>
    <text alignment-baseline="middle" x="21.5" y="1">O</text>
    <text alignment-baseline="middle" x="22.5" y="1">O</text>
    <text alignment-baseline="middle" x="23.5" y="1">N</text>
    <text alignment-baseline="middle" x="24.5" y="1"> </text>
    <text alignment-baseline="middle" x="25.5" y="1">I</text>
    <text alignment-baseline="middle" x="26.5" y="1">N</text>
    <text alignment-baseline="middle" x="27.5" y="1"> </text>
    <text alignment-baseline="middle" x="28.5" y="1">C</text>
    <text alignment-baseline="middle" x="29.5" y="1">H</text>
    <text alignment-baseline="middle" x="30.5" y="1">I</text>
    <text alignment-baseline="middle" x="31.5" y="1">C</text>
    <text alignment-baseline="middle" x="32.5" y="1">A</text>
    <text alignment-baseline="middle" x="33.5" y="1">G</text>
    <text alignment-baseline="middle" x="34.5" y="1">O</text>
  </g>
  <g fill="none" stroke="#222" stroke-opacity="1" stroke-width="0.05">
    <rect height="1" transform="rotate(0.0 0.5 1)" width="1" x="0" y="0.5"/>
    <rect height="1" transform="rotate(1.2820982865244759 1.5 1)" width="1" x="1" y="0.5"/>
    <rect height="1" transform="rotate(2.748181243836549 2.5 1)" width="1" x="2" y="0.5"/>
    <rect height="1" transform="rotate(5.735042503977822 3.5 1)" width="1" x="3" y="0.5"/>
    <rect height="1" transform="rotate(7.690842629312096 5.5 1)" width="1" x="5" y="0.5"/>
    <rect height="1" transform="rotate(7.962988629669612 6.5 1)" width="1" x="6" y="0.5"/>
    <rect height="1" transform="rotate(9.061213394519633 7.5 1)" width="1" x="7" y="0.5"/>
    <rect height="1" transform="rotate(8.36782150486973 8.5 1)" width="1" x="8" y="0.5"/>
    <rect height="1" transform="rotate(17.744363799217204 9.5 1)" width="1" x="9" y="0.5"/>
    <rect height="1" transform="rotate(14.013006795309229 10.5 1)" width="1" x="10" y="0.5"/>
    <rect height="1" transform="rotate(15.734175944615405 11.5 1)" width="1" x="11" y="0.5"/>
    <rect height="1" transform="rotate(18.10766165417585 12.5 1)" width="1" x="12" y="0.5"/>
    <rect height="1" transform="rotate(17.492673627257286 13.5 1)" width="1" x="13" y="0.5"/>
    <rect height="1" transform="rotate(27.59887155389705 15.5 1)" width="1" x="15" y="0.5"/>
    <rect height="1" transform="rotate(26.382320651768254 16.5 1)" width="1" x="16" y="0.5"/>
    <rect height="1" transform="rotate(25.290593718936833 17.5 1)" width="1" x="17" y="0.5"/>
    <rect height="1" transform="rotate(19.63589861516965 18.5 1)" width="1" x="18" y="0.5"/>
    <rect height="1" transform="rotate(33.23021908477477 19.5 1)" width="1" x="19" y="0.5"/>
    <rect height="1" transform="rotate(26.25503079601149 20.5 1)" width="1" x="20" y="0.5"/>
    <rect height="1" transform="rotate(36.61736419965 21.5 1)" width="1" x="21" y="0.5"/>
    <rect height="1" transform="rotate(25.352093587056626 22.5 1)" width="1" x="22" y="0.5"/>
    <rect height="1" transform="rotate(30.595400880524338 23.5 1)" width="1" x="23" y="0.5"/>
    <rect height="1" transform="rotate(29.51619216879565 25.5 1)" width="1" x="25" y="0.5"/>
    <rect height="1" transform="rotate(48.18186183058474 26.5 1)" width="1" x="26" y="0.5"/>
    <rect height="1" transform="rotate(39.18772627581539 28.5 1)" width="1" x="28" y="0.5"/>
    <rect height="1" transform="rotate(49.12958228874163 29.5 1)" width="1" x="29" y="0.5"/>
    <rect height="1" transform="rotate(44.20872425745219 30.5 1)" width="1" x="30" y="0.5"/>
    <rect height="1" transform="rotate(39.34430641302193 31.5 1)" width="1" x="31" y="0.5"/>
    <rect height="1" transform="rotate(45.197155790959165 32.5 1)" width="1" x="32" y="0.5"/>
    <rect height="1" transform="rotate(52.923238956839995 33.5 1)" width="1" x="33" y="0.5"/>
    <rect height="1" transform="rotate(41.4416676760537 34.5 1)" width="1" x="34" y="0.5"/>
  </g>
</svg>
