<?xml version="1.0" encoding="utf-8" ?>
<svg xmlns="http://www.w3.org/2000/svg" xmlns:ev="http://www.w3.org/2001/xml-events" xmlns:xlink="http://www.w3.org/1999/xlink" baseProfile="full" height="100%" version="1.1" viewBox="-1 0 33 2" width="100%">
  <defs/>
  <rect fill="#111" height="2" width="33" x="-1" y="0"/>
  <g fill="#a10045" stroke="#eee" stroke-opacity="1" stroke-width="0.05">
    <rect height="1" transform="rotate(0 0.5 1)" width="1" x="0" y="0.5"/>
    <rect height="1" transform="rotate(1 1.5 1)" width="1" x="1" y="0.5"/>
    <rect height="1" transform="rotate(2 2.5 1)" width="1" x="2" y="0.5"/>
    <rect height="1" transform="rotate(3 3.5 1)" width="1" x="3" y="0.5"/>
    <rect height="1" transform="rotate(5 5.5 1)" width="1" x="5" y="0.5"/>
    <rect height="1" transform="rotate(6 6.5 1)" width="1" x="6" y="0.5"/>
    <rect height="1" transform="rotate(7 7.5 1)" width="1" x="7" y="0.5"/>
    <rect height="1" transform="rotate(8 8.5 1)" width="1" x="8" y="0.5"/>
    <rect height="1" transform="rotate(9 9.5 1)" width="1" x="9" y="0.5"/>
    <rect height="1" transform="rotate(10 10.5 1)" width="1" x="10" y="0.5"/>
    <rect height="1" transform="rotate(11 11.5 1)" width="1" x="11" y="0.5"/>
    <rect height="1" transform="rotate(12 12.5 1)" width="1" x="12" y="0.5"/>
    <rect height="1" transform="rotate(13 13.5 1)" width="1" x="13" y="0.5"/>
    <rect height="1" transform="rotate(15 15.5 1)" width="1" x="15" y="0.5"/>
    <rect height="1" transform="rotate(16 16.5 1)" width="1" x="16" y="0.5"/>
    <rect height="1" transform="rotate(17 17.5 1)" width="1" x="17" y="0.5"/>
    <rect height="1" transform="rotate(18 18.5 1)" width="1" x="18" y="0.5"/>
    <rect height="1" transform="rotate(19 19.5 1)" width="1" x="19" y="0.5"/>
    <rect height="1" transform="rotate(21 21.5 1)" width="1" x="21" y="0.5"/>
    <rect height="1" transform="rotate(22 22.5 1)" width="1" x="22" y="0.5"/>
    <rect height="1" transform="rotate(24 24.5 1)" width="1" x="24" y="0.5"/>
    <rect height="1" transform="rotate(25 25.5 1)" width="1" x="25" y="0.5"/>
    <rect height="1" transform="rotate(26 26.5 1)" width="1" x="26" y="0.5"/>
    <rect height="1" transform="rotate(27 27.5 1)" width="1" x="27" y="0.5"/>
    <rect height="1" transform="rotate(28 28.5 1)" width="1" x="28" y="0.5"/>
    <rect height="1" transform="rotate(29 29.5 1)" width="1" x="29" y="0.5"/>
    <rect height="1" transform="rotate(30 30.5 1)" width="1" x="30" y="0.5"/>
  </g>
  <g fill="#eee" font-family="sans-serif" font-size="0.67" text-anchor="middle">
    <text alignment-baseline="middle" x="0.5" y="1">I</text>
    <text alignment-baseline="middle" x="1.5" y="1">T</text>
    <text alignment-baseline="middle" x="2.5" y="1">'</text>
    <text alignment-baseline="middle" x="3.5" y="1">S</text>
    <text alignment-baseline="middle" x="4.5" y="1"> </text>
    <text alignment-baseline="middle" x="5.5" y="1">W</text>
    <text alignment-baseline="middle" x="6.5" y="1">E</text>
    <text alignment-baseline="middle" x="7.5" y="1">D</text>
    <text alignment-baseline="middle" x="8.5" y="1">N</text>
    <text alignment-baseline="middle" x="9.5" y="1">E</text>
    <text alignment-baseline="middle" x="10.5" y="1">S</text>
    <text alignment-baseline="middle" x="11.5" y="1">D</text>
    <text alignment-baseline="middle" x="12.5" y="1">A</text>
    <text alignment-baseline="middle" x="13.5" y="1">Y</text>
    <text alignment-baseline="middle" x="14.5" y="1"> </text>
    <text alignment-baseline="middle" x="15.5" y="1">N</text>
    <text alignment-baseline="middle" x="16.5" y="1">I</text>
    <text alignment-baseline="middle" x="17.5" y="1">G</text>
    <text alignment-baseline="middle" x="18.5" y="1">H</text>
    <text alignment-baseline="middle" x="19.5" y="1">T</text>
    <text alignment-baseline="middle" x="20.5" y="1"> </text>
    <text alignment-baseline="middle" x="21.5" y="1">I</text>
    <text alignment-baseline="middle" x="22.5" y="1">N</text>
    <text alignment-baseline="middle" x="23.5" y="1"> </text>
    <text alignment-baseline="middle" x="24.5" y="1">C</text>
    <text alignment-baseline="middle" x="25.5" y="1">H</text>
    <text alignment-baseline="middle" x="26.5" y="1">I</text>
    <text alignment-baseline="middle" x="27.5" y="1">C</text>
    <text alignment-baseline="middle" x="28.5" y="1">A</text>
    <text alignment-baseline="middle" x="29.5" y="1">G</text>
    <text alignment-baseline="middle" x="30.5" y="1">O</text>
  </g>
  <g fill="none" stroke="#eee" stroke-opacity="1" stroke-width="0.05">
    <rect height="1" transform="rotate(0.0 0.5 1)" width="1" x="0" y="0.5"/>
    <rect height="1" transform="rotate(1.0280391583964605 1.5 1)" width="1" x="1" y="0.5"/>
    <rect height="1" transform="rotate(2.3994901639924047 2.5 1)" width="1" x="2" y="0.5"/>
    <rect height="1" transform="rotate(5.492912365795326 3.5 1)" width="1" x="3" y="0.5"/>
    <rect height="1" transform="rotate(6.366677984508982 5.5 1)" width="1" x="5" y="0.5"/>
    <rect height="1" transform="rotate(7.631924729966901 6.5 1)" width="1" x="6" y="0.5"/>
    <rect height="1" transform="rotate(10.247880690319711 7.5 1)" width="1" x="7" y="0.5"/>
    <rect height="1" transform="rotate(8.433334670973277 8.5 1)" width="1" x="8" y="0.5"/>
    <rect height="1" transform="rotate(10.658859209334064 9.5 1)" width="1" x="9" y="0.5"/>
    <rect height="1" transform="rotate(16.313243177971735 10.5 1)" width="1" x="10" y="0.5"/>
    <rect height="1" transform="rotate(14.816919375945734 11.5 1)" width="1" x="11" y="0.5"/>
    <rect height="1" transform="rotate(21.505565300598498 12.5 1)" width="1" x="12" y="0.5"/>
    <rect height="1" transform="rotate(24.95937053862987 13.5 1)" width="1" x="13" y="0.5"/>
    <rect height="1" transform="rotate(29.387670522426838 15.5 1)" width="1" x="15" y="0.5"/>
    <rect height="1" transform="rotate(17.749999333774063 16.5 1)" width="1" x="16" y="0.5"/>
    <rect height="1" transform="rotate(24.559299515207393 17.5 1)" width="1" x="17" y="0.5"/>
    <rect height="1" transform="rotate(23.25036156473069 18.5 1)" width="1" x="18" y="0.5"/>
    <rect height="1" transform="rotate(36.317330181083044 19.5 1)" width="1" x="19" y="0.5"/>
    <rect height="1" transform="rotate(26.61279045669227 21.5 1)" width="1" x="21" y="0.5"/>
    <rect height="1" transform="rotate(31.168187086517644 22.5 1)" width="1" x="22" y="0.5"/>
    <rect height="1" transform="rotate(30.84476467860518 24.5 1)" width="1" x="24" y="0.5"/>
    <rect height="1" transform="rotate(28.806246266707525 25.5 1)" width="1" x="25" y="0.5"/>
    <rect height="1" transform="rotate(30.97072157554409 26.5 1)" width="1" x="26" y="0.5"/>
    <rect height="1" transform="rotate(39.18284648888646 27.5 1)" width="1" x="27" y="0.5"/>
    <rect height="1" transform="rotate(55.08615908448442 28.5 1)" width="1" x="28" y="0.5"/>
    <rect height="1" transform="rotate(50.26116506612729 29.5 1)" width="1" x="29" y="0.5"/>
    <rect height="1" transform="rotate(43.99130470720058 30.5 1)" width="1" x="30" y="0.5"/>
  </g>
</svg>
