<?xml version="1.0" encoding="utf-8" ?>
<svg xmlns="http://www.w3.org/2000/svg" xmlns:ev="http://www.w3.org/2001/xml-events" xmlns:xlink="http://www.w3.org/1999/xlink" baseProfile="full" height="100%" version="1.1" viewBox="-1 0 34 2" width="100%">
  <defs/>
  <rect fill="#eee" height="2" width="34" x="-1" y="0"/>
  <g fill="#80ffcc" stroke="#222" stroke-opacity="1" stroke-width="0.05">
    <rect height="1" transform="rotate(0 0.5 1)" width="1" x="0" y="0.5"/>
    <rect height="1" transform="rotate(1 1.5 1)" width="1" x="1" y="0.5"/>
    <rect height="1" transform="rotate(2 2.5 1)" width="1" x="2" y="0.5"/>
    <rect height="1" transform="rotate(3 3.5 1)" width="1" x="3" y="0.5"/>
    <rect height="1" transform="rotate(5 5.5 1)" width="1" x="5" y="0.5"/>
    <rect height="1" transform="rotate(6 6.5 1)" width="1" x="6" y="0.5"/>
    <rect height="1" transform="rotate(7 7.5 1)" width="1" x="7" y="0.5"/>
    <rect height="1" transform="rotate(8 8.5 1)" width="1" x="8" y="0.5"/>
    <rect height="1" transform="rotate(9 9.5 1)" width="1" x="9" y="0.5"/>
    <rect height="1" transform="rotate(10 10.5 1)" width="1" x="10" y="0.5"/>
    <rect height="1" transform="rotate(12 12.5 1)" width="1" x="12" y="0.5"/>
    <rect height="1" transform="rotate(13 13.5 1)" width="1" x="13" y="0.5"/>
    <rect height="1" transform="rotate(14 14.5 1)" width="1" x="14" y="0.5"/>
    <rect height="1" transform="rotate(15 15.5 1)" width="1" x="15" y="0.5"/>
    <rect height="1" transform="rotate(16 16.5 1)" width="1" x="16" y="0.5"/>
    <rect height="1" transform="rotate(17 17.5 1)" width="1" x="17" y="0.5"/>
    <rect height="1" transform="rotate(18 18.5 1)" width="1" x="18" y="0.5"/>
    <rect height="1" transform="rotate(19 19.5 1)" width="1" x="19" y="0.5"/>
    <rect height="1" transform="rotate(20 20.5 1)" width="1" x="20" y="0.5"/>
    <rect height="1" transform="rotate(22 22.5 1)" width="1" x="22" y="0.5"/>
    <rect height="1" transform="rotate(23 23.5 1)" width="1" x="23" y="0.5"/>
    <rect height="1" transform="rotate(25 25.5 1)" width="1" x="25" y="0.5"/>
    <rect height="1" transform="rotate(26 26.5 1)" width="1" x="26" y="0.5"/>
    <rect height="1" transform="rotate(27 27.5 1)" width="1" x="27" y="0.5"/>
    <rect height="1" transform="rotate(28 28.5 1)" width="1" x="28" y="0.5"/>
    <rect height="1" transform="rotate(29 29.5 1)" width="1" x="29" y="0.5"/>
    <rect height="1" transform="rotate(30 30.5 1)" width="1" x="30" y="0.5"/>
    <rect height="1" transform="rotate(31 31.5 1)" width="1" x="31" y="0.5"/>
  </g>
  <g fill="#222" font-family="sans-serif" font-size="0.67" text-anchor="middle">
    <text alignment-baseline="middle" x="0.5" y="1">I</text>
    <text alignment-baseline="middle" x="1.5" y="1">T</text>
    <text alignment-baseline="middle" x="2.5" y="1">'</text>
    <text alignment-baseline="middle" x="3.5" y="1">S</text>
    <text alignment-baseline="middle" x="4.5" y="1"> </text>
    <text alignment-baseline="middle" x="5.5" y="1">S</text>
    <text alignment-baseline="middle" x="6.5" y="1">U</text>
    <text alignment-baseline="middle" x="7.5" y="1">N</text>
    <text alignment-baseline="middle" x="8.5" y="1">D</text>
    <text alignment-baseline="middle" x="9.5" y="1">A</text>
    <text alignment-baseline="middle" x="10.5" y="1">Y</text>
    <text alignment-baseline="middle" x="11.5" y="1"> </text>
    <text alignment-baseline="middle" x="12.5" y="1">A</text>
    <text alignment-baseline="middle" x="13.5" y="1">F</text>
    <text alignment-baseline="middle" x="14.5" y="1">T</text>
    <text alignment-baseline="middle" x="15.5" y="1">E</text>
    <text alignment-baseline="middle" x="16.5" y="1">R</text>
    <text alignment-baseline="middle" x="17.5" y="1">N</text>
    <text alignment-baseline="middle" x="18.5" y="1">O</text>
    <text alignment-baseline="middle" x="19.5" y="1">O</text>
    <text alignment-baseline="middle" x="20.5" y="1">N</text>
    <text alignment-baseline="middle" x="21.5" y="1"> </text>
    <text alignment-baseline="middle" x="22.5" y="1">I</text>
    <text alignment-baseline="middle" x="23.5" y="1">N</text>
    <text alignment-baseline="middle" x="24.5" y="1"> </text>
    <text alignment-baseline="middle" x="25.5" y="1">C</text>
    <text alignment-baseline="middle" x="26.5" y="1">H</text>
    <text alignment-baseline="middle" x="27.5" y="1">I</text>
    <text alignment-baseline="middle" x="28.5" y="1">C</text>
    <text alignment-baseline="middle" x="29.5" y="1">A</text>
    <text alignment-baseline="middle" x="30.5" y="1">G</text>
    <text alignment-baseline="middle" x="31.5" y="1">O</text>
  </g>
  <g fill="none" stroke="#222" stroke-opacity="1" stroke-width="0.05">
    <rect height="1" transform="rotate(0.0 0.5 1)" width="1" x="0" y="0.5"/>
    <rect height="1" transform="rotate(1.8180347880655492 1.5 1)" width="1" x="1" y="0.5"/>
    <rect height="1" transform="rotate(2.8294550225817936 2.5 1)" width="1" x="2" y="0.5"/>
    <rect height="1" transform="rotate(4.159338098479597 3.5 1)" width="1" x="3" y="0.5"/>
    <rect height="1" transform="rotate(8.262832195447562 5.5 1)" width="1" x="5" y="0.5"/>
    <rect height="1" transform="rotate(7.048517049345461 6.5 1)" width="1" x="6" y="0.5"/>
    <rect height="1" transform="rotate(12.678458950665753 7.5 1)" width="1" x="7" y="0.5"/>
    <rect height="1" transform="rotate(8.73484831306294 8.5 1)" width="1" x="8" y="0.5"/>
    <rect height="1" transform="rotate(17.900442133505084 9.5 1)" width="1" x="9" y="0.5"/>
    <rect height="1" transform="rotate(13.48297797810904 10.5 1)" width="1" x="10" y="0.5"/>
    <rect height="1" transform="rotate(21.71701682139824 12.5 1)" width="1" x="12" y="0.5"/>
    <rect height="1" transform="rotate(17.986038601203 13.5 1)" width="1" x="13" y="0.5"/>
    <rect height="1" transform="rotate(27.80440294585705 14.5 1)" width="1" x="14" y="0.5"/>
    <rect height="1" transform="rotate(26.081939399569766 15.5 1)" width="1" x="15" y="0.5"/>
    <rect height="1" transform="rotate(26.256895009696468 16.5 1)" width="1" x="16" y="0.5"/>
    <rect height="1" transform="rotate(28.092295204315747 17.5 1)" width="1" x="17" y="0.5"/>
    <rect height="1" transform="rotate(21.03158336777304 18.5 1)" width="1" x="18" y="0.5"/>
    <rect height="1" transform="rotate(23.61319177135293 19.5 1)" width="1" x="19" y="0.5"/>
    <rect height="1" transform="rotate(34.92364068593504 20.5 1)" width="1" x="20" y="0.5"/>
    <rect height="1" transform="rotate(31.11422855981752 22.5 1)" width="1" x="22" y="0.5"/>
    <rect height="1" transform="rotate(43.90424482094688 23.5 1)" width="1" x="23" y="0.5"/>
    <rect height="1" transform="rotate(27.369932697032475 25.5 1)" width="1" x="25" y="0.5"/>
    <rect height="1" transform="rotate(45.45378130981463 26.5 1)" width="1" x="26" y="0.5"/>
    <rect height="1" transform="rotate(43.330777101042834 27.5 1)" width="1" x="27" y="0.5"/>
    <rect height="1" transform="rotate(29.37077465539057 28.5 1)" width="1" x="28" y="0.5"/>
    <rect height="1" transform="rotate(47.91239985226989 29.5 1)" width="1" x="29" y="0.5"/>
    <rect height="1" transform="rotate(32.22088016173449 30.5 1)" width="1" x="30" y="0.5"/>
    <rect height="1" transform="rotate(49.44290167928128 31.5 1)" width="1" x="31" y="0.5"/>
  </g>
</svg>
