<?xml version="1.0" encoding="utf-8" ?>
<svg xmlns="http://www.w3.org/2000/svg" xmlns:ev="http://www.w3.org/2001/xml-events" xmlns:xlink="http://www.w3.org/1999/xlink" baseProfile="full" height="100%" version="1.1" viewBox="-1 0 33 2" width="100%">
  <defs/>
  <rect fill="#eee" height="2" width="33" x="-1" y="0"/>
  <g fill="#9cb29e" stroke="#000" stroke-opacity="1" stroke-width="0.05">
    <rect height="1" transform="rotate(0 0.5 1)" width="1" x="0" y="0.5"/>
    <rect height="1" transform="rotate(1 1.5 1)" width="1" x="1" y="0.5"/>
    <rect height="1" transform="rotate(2 2.5 1)" width="1" x="2" y="0.5"/>
    <rect height="1" transform="rotate(3 3.5 1)" width="1" x="3" y="0.5"/>
    <rect height="1" transform="rotate(5 5.5 1)" width="1" x="5" y="0.5"/>
    <rect height="1" transform="rotate(6 6.5 1)" width="1" x="6" y="0.5"/>
    <rect height="1" transform="rotate(7 7.5 1)" width="1" x="7" y="0.5"/>
    <rect height="1" transform="rotate(8 8.5 1)" width="1" x="8" y="0.5"/>
    <rect height="1" transform="rotate(9 9.5 1)" width="1" x="9" y="0.5"/>
    <rect height="1" transform="rotate(10 10.5 1)" width="1" x="10" y="0.5"/>
    <rect height="1" transform="rotate(11 11.5 1)" width="1" x="11" y="0.5"/>
    <rect height="1" transform="rotate(13 13.5 1)" width="1" x="13" y="0.5"/>
    <rect height="1" transform="rotate(14 14.5 1)" width="1" x="14" y="0.5"/>
    <rect height="1" transform="rotate(15 15.5 1)" width="1" x="15" y="0.5"/>
    <rect height="1" transform="rotate(16 16.5 1)" width="1" x="16" y="0.5"/>
    <rect height="1" transform="rotate(17 17.5 1)" width="1" x="17" y="0.5"/>
    <rect height="1" transform="rotate(18 18.5 1)" width="1" x="18" y="0.5"/>
    <rect height="1" transform="rotate(19 19.5 1)" width="1" x="19" y="0.5"/>
    <rect height="1" transform="rotate(21 21.5 1)" width="1" x="21" y="0.5"/>
    <rect height="1" transform="rotate(22 22.5 1)" width="1" x="22" y="0.5"/>
    <rect height="1" transform="rotate(24 24.5 1)" width="1" x="24" y="0.5"/>
    <rect height="1" transform="rotate(25 25.5 1)" width="1" x="25" y="0.5"/>
    <rect height="1" transform="rotate(26 26.5 1)" width="1" x="26" y="0.5"/>
    <rect height="1" transform="rotate(27 27.5 1)" width="1" x="27" y="0.5"/>
    <rect height="1" transform="rotate(28 28.5 1)" width="1" x="28" y="0.5"/>
    <rect height="1" transform="rotate(29 29.5 1)" width="1" x="29" y="0.5"/>
    <rect height="1" transform="rotate(30 30.5 1)" width="1" x="30" y="0.5"/>
  </g>
  <g fill="#000" font-family="sans-serif" font-size="0.67" text-anchor="middle">
    <text alignment-baseline="middle" x="0.5" y="1">I</text>
    <text alignment-baseline="middle" x="1.5" y="1">T</text>
    <text alignment-baseline="middle" x="2.5" y="1">'</text>
    <text alignment-baseline="middle" x="3.5" y="1">S</text>
    <text alignment-baseline="middle" x="4.5" y="1"> </text>
    <text alignment-baseline="middle" x="5.5" y="1">T</text>
    <text alignment-baseline="middle" x="6.5" y="1">U</text>
    <text alignment-baseline="middle" x="7.5" y="1">E</text>
    <text alignment-baseline="middle" x="8.5" y="1">S</text>
    <text alignment-baseline="middle" x="9.5" y="1">D</text>
    <text alignment-baseline="middle" x="10.5" y="1">A</text>
    <text alignment-baseline="middle" x="11.5" y="1">Y</text>
    <text alignment-baseline="middle" x="12.5" y="1"> </text>
    <text alignment-baseline="middle" x="13.5" y="1">E</text>
    <text alignment-baseline="middle" x="14.5" y="1">V</text>
    <text alignment-baseline="middle" x="15.5" y="1">E</text>
    <text alignment-baseline="middle" x="16.5" y="1">N</text>
    <text alignment-baseline="middle" x="17.5" y="1">I</text>
    <text alignment-baseline="middle" x="18.5" y="1">N</text>
    <text alignment-baseline="middle" x="19.5" y="1">G</text>
    <text alignment-baseline="middle" x="20.5" y="1"> </text>
    <text alignment-baseline="middle" x="21.5" y="1">I</text>
    <text alignment-baseline="middle" x="22.5" y="1">N</text>
    <text alignment-baseline="middle" x="23.5" y="1"> </text>
    <text alignment-baseline="middle" x="24.5" y="1">C</text>
    <text alignment-baseline="middle" x="25.5" y="1">H</text>
    <text alignment-baseline="middle" x="26.5" y="1">I</text>
    <text alignment-baseline="middle" x="27.5" y="1">C</text>
    <text alignment-baseline="middle" x="28.5" y="1">A</text>
    <text alignment-baseline="middle" x="29.5" y="1">G</text>
    <text alignment-baseline="middle" x="30.5" y="1">O</text>
  </g>
  <g fill="none" stroke="#000" stroke-opacity="1" stroke-width="0.05">
    <rect height="1" transform="rotate(0.0 0.5 1)" width="1" x="0" y="0.5"/>
    <rect height="1" transform="rotate(1.774221077415602 1.5 1)" width="1" x="1" y="0.5"/>
    <rect height="1" transform="rotate(3.4289877204922323 2.5 1)" width="1" x="2" y="0.5"/>
    <rect height="1" transform="rotate(5.890068401085903 3.5 1)" width="1" x="3" y="0.5"/>
    <rect height="1" transform="rotate(5.119437605474209 5.5 1)" width="1" x="5" y="0.5"/>
    <rect height="1" transform="rotate(6.533674159755051 6.5 1)" width="1" x="6" y="0.5"/>
    <rect height="1" transform="rotate(7.3204388185439555 7.5 1)" width="1" x="7" y="0.5"/>
    <rect height="1" transform="rotate(10.685539355747807 8.5 1)" width="1" x="8" y="0.5"/>
    <rect height="1" transform="rotate(13.984455203659367 9.5 1)" width="1" x="9" y="0.5"/>
    <rect height="1" transform="rotate(19.991755242678217 10.5 1)" width="1" x="10" y="0.5"/>
    <rect height="1" transform="rotate(11.592584775447804 11.5 1)" width="1" x="11" y="0.5"/>
    <rect height="1" transform="rotate(13.803569082703557 13.5 1)" width="1" x="13" y="0.5"/>
    <rect height="1" transform="rotate(20.197385895069175 14.5 1)" width="1" x="14" y="0.5"/>
    <rect height="1" transform="rotate(19.213471441951185 15.5 1)" width="1" x="15" y="0.5"/>
    <rect height="1" transform="rotate(19.771187484743876 16.5 1)" width="1" x="16" y="0.5"/>
    <rect height="1" transform="rotate(25.030896908399118 17.5 1)" width="1" x="17" y="0.5"/>
    <rect height="1" transform="rotate(22.85583063903151 18.5 1)" width="1" x="18" y="0.5"/>
    <rect height="1" transform="rotate(34.4396968503167 19.5 1)" width="1" x="19" y="0.5"/>
    <rect height="1" transform="rotate(39.091629555872345 21.5 1)" width="1" x="21" y="0.5"/>
    <rect height="1" transform="rotate(42.04086684736485 22.5 1)" width="1" x="22" y="0.5"/>
    <rect height="1" transform="rotate(47.73079802473876 24.5 1)" width="1" x="24" y="0.5"/>
    <rect height="1" transform="rotate(28.27117523882423 25.5 1)" width="1" x="25" y="0.5"/>
    <rect height="1" transform="rotate(32.66221243040862 26.5 1)" width="1" x="26" y="0.5"/>
    <rect height="1" transform="rotate(44.58589076146832 27.5 1)" width="1" x="27" y="0.5"/>
    <rect height="1" transform="rotate(40.905017815934514 28.5 1)" width="1" x="28" y="0.5"/>
    <rect height="1" transform="rotate(57.55597240595906 29.5 1)" width="1" x="29" y="0.5"/>
    <rect height="1" transform="rotate(53.439127603389295 30.5 1)" width="1" x="30" y="0.5"/>
  </g>
</svg>
