<?xml version="1.0" encoding="utf-8" ?>
<svg xmlns="http://www.w3.org/2000/svg" xmlns:ev="http://www.w3.org/2001/xml-events" xmlns:xlink="http://www.w3.org/1999/xlink" baseProfile="full" height="100%" version="1.1" viewBox="-1 0 34 2" width="100%">
  <defs/>
  <rect fill="#eee" height="2" width="34" x="-1" y="0"/>
  <g fill="#80ffcc" stroke="#222" stroke-opacity="1" stroke-width="0.05">
    <rect height="1" transform="rotate(0 0.5 1)" width="1" x="0" y="0.5"/>
    <rect height="1" transform="rotate(1 1.5 1)" width="1" x="1" y="0.5"/>
    <rect height="1" transform="rotate(2 2.5 1)" width="1" x="2" y="0.5"/>
    <rect height="1" transform="rotate(3 3.5 1)" width="1" x="3" y="0.5"/>
    <rect height="1" transform="rotate(5 5.5 1)" width="1" x="5" y="0.5"/>
    <rect height="1" transform="rotate(6 6.5 1)" width="1" x="6" y="0.5"/>
    <rect height="1" transform="rotate(7 7.5 1)" width="1" x="7" y="0.5"/>
    <rect height="1" transform="rotate(8 8.5 1)" width="1" x="8" y="0.5"/>
    <rect height="1" transform="rotate(9 9.5 1)" width="1" x="9" y="0.5"/>
    <rect height="1" transform="rotate(10 10.5 1)" width="1" x="10" y="0.5"/>
    <rect height="1" transform="rotate(12 12.5 1)" width="1" x="12" y="0.5"/>
    <rect height="1" transform="rotate(13 13.5 1)" width="1" x="13" y="0.5"/>
    <rect height="1" transform="rotate(14 14.5 1)" width="1" x="14" y="0.5"/>
    <rect height="1" transform="rotate(15 15.5 1)" width="1" x="15" y="0.5"/>
    <rect height="1" transform="rotate(16 16.5 1)" width="1" x="16" y="0.5"/>
    <rect height="1" transform="rotate(17 17.5 1)" width="1" x="17" y="0.5"/>
    <rect height="1" transform="rotate(18 18.5 1)" width="1" x="18" y="0.5"/>
    <rect height="1" transform="rotate(19 19.5 1)" width="1" x="19" y="0.5"/>
    <rect height="1" transform="rotate(20 20.5 1)" width="1" x="20" y="0.5"/>
    <rect height="1" transform="rotate(22 22.5 1)" width="1" x="22" y="0.5"/>
    <rect height="1" transform="rotate(23 23.5 1)" width="1" x="23" y="0.5"/>
    <rect height="1" transform="rotate(25 25.5 1)" width="1" x="25" y="0.5"/>
    <rect height="1" transform="rotate(26 26.5 1)" width="1" x="26" y="0.5"/>
    <rect height="1" transform="rotate(27 27.5 1)" width="1" x="27" y="0.5"/>
    <rect height="1" transform="rotate(28 28.5 1)" width="1" x="28" y="0.5"/>
    <rect height="1" transform="rotate(29 29.5 1)" width="1" x="29" y="0.5"/>
    <rect height="1" transform="rotate(30 30.5 1)" width="1" x="30" y="0.5"/>
    <rect height="1" transform="rotate(31 31.5 1)" width="1" x="31" y="0.5"/>
  </g>
  <g fill="#222" font-family="sans-serif" font-size="0.67" text-anchor="middle">
    <text alignment-baseline="middle" x="0.5" y="1">I</text>
    <text alignment-baseline="middle" x="1.5" y="1">T</text>
    <text alignment-baseline="middle" x="2.5" y="1">'</text>
    <text alignment-baseline="middle" x="3.5" y="1">S</text>
    <text alignment-baseline="middle" x="4.5" y="1"> </text>
    <text alignment-baseline="middle" x="5.5" y="1">F</text>
    <text alignment-baseline="middle" x="6.5" y="1">R</text>
    <text alignment-baseline="middle" x="7.5" y="1">I</text>
    <text alignment-baseline="middle" x="8.5" y="1">D</text>
    <text alignment-baseline="middle" x="9.5" y="1">A</text>
    <text alignment-baseline="middle" x="10.5" y="1">Y</text>
    <text alignment-baseline="middle" x="11.5" y="1"> </text>
    <text alignment-baseline="middle" x="12.5" y="1">A</text>
    <text alignment-baseline="middle" x="13.5" y="1">F</text>
    <text alignment-baseline="middle" x="14.5" y="1">T</text>
    <text alignment-baseline="middle" x="15.5" y="1">E</text>
    <text alignment-baseline="middle" x="16.5" y="1">R</text>
    <text alignment-baseline="middle" x="17.5" y="1">N</text>
    <text alignment-baseline="middle" x="18.5" y="1">O</text>
    <text alignment-baseline="middle" x="19.5" y="1">O</text>
    <text alignment-baseline="middle" x="20.5" y="1">N</text>
    <text alignment-baseline="middle" x="21.5" y="1"> </text>
    <text alignment-baseline="middle" x="22.5" y="1">I</text>
    <text alignment-baseline="middle" x="23.5" y="1">N</text>
    <text alignment-baseline="middle" x="24.5" y="1"> </text>
    <text alignment-baseline="middle" x="25.5" y="1">C</text>
    <text alignment-baseline="middle" x="26.5" y="1">H</text>
    <text alignment-baseline="middle" x="27.5" y="1">I</text>
    <text alignment-baseline="middle" x="28.5" y="1">C</text>
    <text alignment-baseline="middle" x="29.5" y="1">A</text>
    <text alignment-baseline="middle" x="30.5" y="1">G</text>
    <text alignment-baseline="middle" x="31.5" y="1">O</text>
  </g>
  <g fill="none" stroke="#222" stroke-opacity="1" stroke-width="0.05">
    <rect height="1" transform="rotate(0.0 0.5 1)" width="1" x="0" y="0.5"/>
    <rect height="1" transform="rotate(1.9655923023855255 1.5 1)" width="1" x="1" y="0.5"/>
    <rect height="1" transform="rotate(2.8673664202362694 2.5 1)" width="1" x="2" y="0.5"/>
    <rect height="1" transform="rotate(4.453994461070014 3.5 1)" width="1" x="3" y="0.5"/>
    <rect height="1" transform="rotate(9.33037540779527 5.5 1)" width="1" x="5" y="0.5"/>
    <rect height="1" transform="rotate(6.97997765371925 6.5 1)" width="1" x="6" y="0.5"/>
    <rect height="1" transform="rotate(11.10627140186849 7.5 1)" width="1" x="7" y="0.5"/>
    <rect height="1" transform="rotate(11.565233854221582 8.5 1)" width="1" x="8" y="0.5"/>
    <rect height="1" transform="rotate(17.210620036695016 9.5 1)" width="1" x="9" y="0.5"/>
    <rect height="1" transform="rotate(12.373973974081762 10.5 1)" width="1" x="10" y="0.5"/>
    <rect height="1" transform="rotate(20.155889805214798 12.5 1)" width="1" x="12" y="0.5"/>
    <rect height="1" transform="rotate(23.4058952151935 13.5 1)" width="1" x="13" y="0.5"/>
    <rect height="1" transform="rotate(26.874850155874096 14.5 1)" width="1" x="14" y="0.5"/>
    <rect height="1" transform="rotate(28.90814076201263 15.5 1)" width="1" x="15" y="0.5"/>
    <rect height="1" transform="rotate(20.862646242615774 16.5 1)" width="1" x="16" y="0.5"/>
    <rect height="1" transform="rotate(23.531820341634297 17.5 1)" width="1" x="17" y="0.5"/>
    <rect height="1" transform="rotate(19.762529717870514 18.5 1)" width="1" x="18" y="0.5"/>
    <rect height="1" transform="rotate(24.326696635581246 19.5 1)" width="1" x="19" y="0.5"/>
    <rect height="1" transform="rotate(30.143541156061797 20.5 1)" width="1" x="20" y="0.5"/>
    <rect height="1" transform="rotate(41.22033488588362 22.5 1)" width="1" x="22" y="0.5"/>
    <rect height="1" transform="rotate(31.45630643666826 23.5 1)" width="1" x="23" y="0.5"/>
    <rect height="1" transform="rotate(45.38777676890402 25.5 1)" width="1" x="25" y="0.5"/>
    <rect height="1" transform="rotate(41.96464641752095 26.5 1)" width="1" x="26" y="0.5"/>
    <rect height="1" transform="rotate(27.946542900789847 27.5 1)" width="1" x="27" y="0.5"/>
    <rect height="1" transform="rotate(44.18219272956795 28.5 1)" width="1" x="28" y="0.5"/>
    <rect height="1" transform="rotate(36.85383636329094 29.5 1)" width="1" x="29" y="0.5"/>
    <rect height="1" transform="rotate(33.87446239229953 30.5 1)" width="1" x="30" y="0.5"/>
    <rect height="1" transform="rotate(36.62849887912055 31.5 1)" width="1" x="31" y="0.5"/>
  </g>
</svg>
