<?xml version="1.0" encoding="utf-8" ?>
<svg xmlns="http://www.w3.org/2000/svg" xmlns:ev="http://www.w3.org/2001/xml-events" xmlns:xlink="http://www.w3.org/1999/xlink" baseProfile="full" height="100%" version="1.1" viewBox="-1 0 34 2" width="100%">
  <defs/>
  <rect fill="#eee" height="2" width="34" x="-1" y="0"/>
  <g fill="#9cb29e" stroke="#000" stroke-opacity="1" stroke-width="0.05">
    <rect height="1" transform="rotate(0 0.5 1)" width="1" x="0" y="0.5"/>
    <rect height="1" transform="rotate(1 1.5 1)" width="1" x="1" y="0.5"/>
    <rect height="1" transform="rotate(2 2.5 1)" width="1" x="2" y="0.5"/>
    <rect height="1" transform="rotate(3 3.5 1)" width="1" x="3" y="0.5"/>
    <rect height="1" transform="rotate(5 5.5 1)" width="1" x="5" y="0.5"/>
    <rect height="1" transform="rotate(6 6.5 1)" width="1" x="6" y="0.5"/>
    <rect height="1" transform="rotate(7 7.5 1)" width="1" x="7" y="0.5"/>
    <rect height="1" transform="rotate(8 8.5 1)" width="1" x="8" y="0.5"/>
    <rect height="1" transform="rotate(9 9.5 1)" width="1" x="9" y="0.5"/>
    <rect height="1" transform="rotate(10 10.5 1)" width="1" x="10" y="0.5"/>
    <rect height="1" transform="rotate(11 11.5 1)" width="1" x="11" y="0.5"/>
    <rect height="1" transform="rotate(12 12.5 1)" width="1" x="12" y="0.5"/>
    <rect height="1" transform="rotate(14 14.5 1)" width="1" x="14" y="0.5"/>
    <rect height="1" transform="rotate(15 15.5 1)" width="1" x="15" y="0.5"/>
    <rect height="1" transform="rotate(16 16.5 1)" width="1" x="16" y="0.5"/>
    <rect height="1" transform="rotate(17 17.5 1)" width="1" x="17" y="0.5"/>
    <rect height="1" transform="rotate(18 18.5 1)" width="1" x="18" y="0.5"/>
    <rect height="1" transform="rotate(19 19.5 1)" width="1" x="19" y="0.5"/>
    <rect height="1" transform="rotate(20 20.5 1)" width="1" x="20" y="0.5"/>
    <rect height="1" transform="rotate(22 22.5 1)" width="1" x="22" y="0.5"/>
    <rect height="1" transform="rotate(23 23.5 1)" width="1" x="23" y="0.5"/>
    <rect height="1" transform="rotate(25 25.5 1)" width="1" x="25" y="0.5"/>
    <rect height="1" transform="rotate(26 26.5 1)" width="1" x="26" y="0.5"/>
    <rect height="1" transform="rotate(27 27.5 1)" width="1" x="27" y="0.5"/>
    <rect height="1" transform="rotate(28 28.5 1)" width="1" x="28" y="0.5"/>
    <rect height="1" transform="rotate(29 29.5 1)" width="1" x="29" y="0.5"/>
    <rect height="1" transform="rotate(30 30.5 1)" width="1" x="30" y="0.5"/>
    <rect height="1" transform="rotate(31 31.5 1)" width="1" x="31" y="0.5"/>
  </g>
  <g fill="#000" font-family="sans-serif" font-size="0.67" text-anchor="middle">
    <text alignment-baseline="middle" x="0.5" y="1">I</text>
    <text alignment-baseline="middle" x="1.5" y="1">T</text>
    <text alignment-baseline="middle" x="2.5" y="1">'</text>
    <text alignment-baseline="middle" x="3.5" y="1">S</text>
    <text alignment-baseline="middle" x="4.5" y="1"> </text>
    <text alignment-baseline="middle" x="5.5" y="1">T</text>
    <text alignment-baseline="middle" x="6.5" y="1">H</text>
    <text alignment-baseline="middle" x="7.5" y="1">U</text>
    <text alignment-baseline="middle" x="8.5" y="1">R</text>
    <text alignment-baseline="middle" x="9.5" y="1">S</text>
    <text alignment-baseline="middle" x="10.5" y="1">D</text>
    <text alignment-baseline="middle" x="11.5" y="1">A</text>
    <text alignment-baseline="middle" x="12.5" y="1">Y</text>
    <text alignment-baseline="middle" x="13.5" y="1"> </text>
    <text alignment-baseline="middle" x="14.5" y="1">E</text>
    <text alignment-baseline="middle" x="15.5" y="1">V</text>
    <text alignment-baseline="middle" x="16.5" y="1">E</text>
    <text alignment-baseline="middle" x="17.5" y="1">N</text>
    <text alignment-baseline="middle" x="18.5" y="1">I</text>
    <text alignment-baseline="middle" x="19.5" y="1">N</text>
    <text alignment-baseline="middle" x="20.5" y="1">G</text>
    <text alignment-baseline="middle" x="21.5" y="1"> </text>
    <text alignment-baseline="middle" x="22.5" y="1">I</text>
    <text alignment-baseline="middle" x="23.5" y="1">N</text>
    <text alignment-baseline="middle" x="24.5" y="1"> </text>
    <text alignment-baseline="middle" x="25.5" y="1">C</text>
    <text alignment-baseline="middle" x="26.5" y="1">H</text>
    <text alignment-baseline="middle" x="27.5" y="1">I</text>
    <text alignment-baseline="middle" x="28.5" y="1">C</text>
    <text alignment-baseline="middle" x="29.5" y="1">A</text>
    <text alignment-baseline="middle" x="30.5" y="1">G</text>
    <text alignment-baseline="middle" x="31.5" y="1">O</text>
  </g>
  <g fill="none" stroke="#000" stroke-opacity="1" stroke-width="0.05">
    <rect height="1" transform="rotate(0.0 0.5 1)" width="1" x="0" y="0.5"/>
    <rect height="1" transform="rotate(1.5076899981587673 1.5 1)" width="1" x="1" y="0.5"/>
    <rect height="1" transform="rotate(2.1179686445562576 2.5 1)" width="1" x="2" y="0.5"/>
    <rect height="1" transform="rotate(5.495716110824031 3.5 1)" width="1" x="3" y="0.5"/>
    <rect height="1" transform="rotate(6.357506971588367 5.5 1)" width="1" x="5" y="0.5"/>
    <rect height="1" transform="rotate(10.112446595162147 6.5 1)" width="1" x="6" y="0.5"/>
    <rect height="1" transform="rotate(12.83704359204129 7.5 1)" width="1" x="7" y="0.5"/>
    <rect height="1" transform="rotate(14.96184983416428 8.5 1)" width="1" x="8" y="0.5"/>
    <rect height="1" transform="rotate(10.14324186561392 9.5 1)" width="1" x="9" y="0.5"/>
    <rect height="1" transform="rotate(12.704912856997822 10.5 1)" width="1" x="10" y="0.5"/>
    <rect height="1" transform="rotate(20.58448671811576 11.5 1)" width="1" x="11" y="0.5"/>
    <rect height="1" transform="rotate(23.735161949651015 12.5 1)" width="1" x="12" y="0.5"/>
    <rect height="1" transform="rotate(16.595140220184824 14.5 1)" width="1" x="14" y="0.5"/>
    <rect height="1" transform="rotate(19.913056003932116 15.5 1)" width="1" x="15" y="0.5"/>
    <rect height="1" transform="rotate(31.80149059115837 16.5 1)" width="1" x="16" y="0.5"/>
    <rect height="1" transform="rotate(23.441438760618293 17.5 1)" width="1" x="17" y="0.5"/>
    <rect height="1" transform="rotate(26.32554373762796 18.5 1)" width="1" x="18" y="0.5"/>
    <rect height="1" transform="rotate(24.94887269556221 19.5 1)" width="1" x="19" y="0.5"/>
    <rect height="1" transform="rotate(26.850149270130483 20.5 1)" width="1" x="20" y="0.5"/>
    <rect height="1" transform="rotate(38.467571535846986 22.5 1)" width="1" x="22" y="0.5"/>
    <rect height="1" transform="rotate(34.13070271316303 23.5 1)" width="1" x="23" y="0.5"/>
    <rect height="1" transform="rotate(29.61044836262399 25.5 1)" width="1" x="25" y="0.5"/>
    <rect height="1" transform="rotate(26.759794245172845 26.5 1)" width="1" x="26" y="0.5"/>
    <rect height="1" transform="rotate(30.63164665664476 27.5 1)" width="1" x="27" y="0.5"/>
    <rect height="1" transform="rotate(42.937542560889376 28.5 1)" width="1" x="28" y="0.5"/>
    <rect height="1" transform="rotate(50.83035254656506 29.5 1)" width="1" x="29" y="0.5"/>
    <rect height="1" transform="rotate(40.021943213339256 30.5 1)" width="1" x="30" y="0.5"/>
    <rect height="1" transform="rotate(52.951219852956854 31.5 1)" width="1" x="31" y="0.5"/>
  </g>
</svg>
