<?xml version="1.0" encoding="utf-8" ?>
<svg xmlns="http://www.w3.org/2000/svg" xmlns:ev="http://www.w3.org/2001/xml-events" xmlns:xlink="http://www.w3.org/1999/xlink" baseProfile="full" height="100%" version="1.1" viewBox="-1 0 32 2" width="100%">
  <defs/>
  <rect fill="#eee" height="2" width="32" x="-1" y="0"/>
  <g fill="#fff59e" stroke="#111" stroke-opacity="1" stroke-width="0.05">
    <rect height="1" transform="rotate(0 0.5 1)" width="1" x="0" y="0.5"/>
    <rect height="1" transform="rotate(1 1.5 1)" width="1" x="1" y="0.5"/>
    <rect height="1" transform="rotate(2 2.5 1)" width="1" x="2" y="0.5"/>
    <rect height="1" transform="rotate(3 3.5 1)" width="1" x="3" y="0.5"/>
    <rect height="1" transform="rotate(5 5.5 1)" width="1" x="5" y="0.5"/>
    <rect height="1" transform="rotate(6 6.5 1)" width="1" x="6" y="0.5"/>
    <rect height="1" transform="rotate(7 7.5 1)" width="1" x="7" y="0.5"/>
    <rect height="1" transform="rotate(8 8.5 1)" width="1" x="8" y="0.5"/>
    <rect height="1" transform="rotate(9 9.5 1)" width="1" x="9" y="0.5"/>
    <rect height="1" transform="rotate(10 10.5 1)" width="1" x="10" y="0.5"/>
    <rect height="1" transform="rotate(12 12.5 1)" width="1" x="12" y="0.5"/>
    <rect height="1" transform="rotate(13 13.5 1)" width="1" x="13" y="0.5"/>
    <rect height="1" transform="rotate(14 14.5 1)" width="1" x="14" y="0.5"/>
    <rect height="1" transform="rotate(15 15.5 1)" width="1" x="15" y="0.5"/>
    <rect height="1" transform="rotate(16 16.5 1)" width="1" x="16" y="0.5"/>
    <rect height="1" transform="rotate(17 17.5 1)" width="1" x="17" y="0.5"/>
    <rect height="1" transform="rotate(18 18.5 1)" width="1" x="18" y="0.5"/>
    <rect height="1" transform="rotate(20 20.5 1)" width="1" x="20" y="0.5"/>
    <rect height="1" transform="rotate(21 21.5 1)" width="1" x="21" y="0.5"/>
    <rect height="1" transform="rotate(23 23.5 1)" width="1" x="23" y="0.5"/>
    <rect height="1" transform="rotate(24 24.5 1)" width="1" x="24" y="0.5"/>
    <rect height="1" transform="rotate(25 25.5 1)" width="1" x="25" y="0.5"/>
    <rect height="1" transform="rotate(26 26.5 1)" width="1" x="26" y="0.5"/>
    <rect height="1" transform="rotate(27 27.5 1)" width="1" x="27" y="0.5"/>
    <rect height="1" transform="rotate(28 28.5 1)" width="1" x="28" y="0.5"/>
    <rect height="1" transform="rotate(29 29.5 1)" width="1" x="29" y="0.5"/>
  </g>
  <g fill="#111" font-family="sans-serif" font-size="0.67" text-anchor="middle">
    <text alignment-baseline="middle" x="0.5" y="1">I</text>
    <text alignment-baseline="middle" x="1.5" y="1">T</text>
    <text alignment-baseline="middle" x="2.5" y="1">'</text>
    <text alignment-baseline="middle" x="3.5" y="1">S</text>
    <text alignment-baseline="middle" x="4.5" y="1"> </text>
    <text alignment-baseline="middle" x="5.5" y="1">M</text>
    <text alignment-baseline="middle" x="6.5" y="1">O</text>
    <text alignment-baseline="middle" x="7.5" y="1">N</text>
    <text alignment-baseline="middle" x="8.5" y="1">D</text>
    <text alignment-baseline="middle" x="9.5" y="1">A</text>
    <text alignment-baseline="middle" x="10.5" y="1">Y</text>
    <text alignment-baseline="middle" x="11.5" y="1"> </text>
    <text alignment-baseline="middle" x="12.5" y="1">M</text>
    <text alignment-baseline="middle" x="13.5" y="1">O</text>
    <text alignment-baseline="middle" x="14.5" y="1">R</text>
    <text alignment-baseline="middle" x="15.5" y="1">N</text>
    <text alignment-baseline="middle" x="16.5" y="1">I</text>
    <text alignment-baseline="middle" x="17.5" y="1">N</text>
    <text alignment-baseline="middle" x="18.5" y="1">G</text>
    <text alignment-baseline="middle" x="19.5" y="1"> </text>
    <text alignment-baseline="middle" x="20.5" y="1">I</text>
    <text alignment-baseline="middle" x="21.5" y="1">N</text>
    <text alignment-baseline="middle" x="22.5" y="1"> </text>
    <text alignment-baseline="middle" x="23.5" y="1">C</text>
    <text alignment-baseline="middle" x="24.5" y="1">H</text>
    <text alignment-baseline="middle" x="25.5" y="1">I</text>
    <text alignment-baseline="middle" x="26.5" y="1">C</text>
    <text alignment-baseline="middle" x="27.5" y="1">A</text>
    <text alignment-baseline="middle" x="28.5" y="1">G</text>
    <text alignment-baseline="middle" x="29.5" y="1">O</text>
  </g>
  <g fill="none" stroke="#111" stroke-opacity="1" stroke-width="0.05">
    <rect height="1" transform="rotate(0.0 0.5 1)" width="1" x="0" y="0.5"/>
    <rect height="1" transform="rotate(1.9449394428107178 1.5 1)" width="1" x="1" y="0.5"/>
    <rect height="1" transform="rotate(3.799951891850517 2.5 1)" width="1" x="2" y="0.5"/>
    <rect height="1" transform="rotate(5.84159795406344 3.5 1)" width="1" x="3" y="0.5"/>
    <rect height="1" transform="rotate(6.483538892325069 5.5 1)" width="1" x="5" y="0.5"/>
    <rect height="1" transform="rotate(6.734184225347126 6.5 1)" width="1" x="6" y="0.5"/>
    <rect height="1" transform="rotate(11.514099403941902 7.5 1)" width="1" x="7" y="0.5"/>
    <rect height="1" transform="rotate(13.557991373343773 8.5 1)" width="1" x="8" y="0.5"/>
    <rect height="1" transform="rotate(13.920375777721565 9.5 1)" width="1" x="9" y="0.5"/>
    <rect height="1" transform="rotate(17.191042494958847 10.5 1)" width="1" x="10" y="0.5"/>
    <rect height="1" transform="rotate(18.010811280919498 12.5 1)" width="1" x="12" y="0.5"/>
    <rect height="1" transform="rotate(13.20046469473342 13.5 1)" width="1" x="13" y="0.5"/>
    <rect height="1" transform="rotate(26.460167020008907 14.5 1)" width="1" x="14" y="0.5"/>
    <rect height="1" transform="rotate(24.685486028712603 15.5 1)" width="1" x="15" y="0.5"/>
    <rect height="1" transform="rotate(29.53587465458184 16.5 1)" width="1" x="16" y="0.5"/>
    <rect height="1" transform="rotate(17.89755154558235 17.5 1)" width="1" x="17" y="0.5"/>
    <rect height="1" transform="rotate(29.199937978695502 18.5 1)" width="1" x="18" y="0.5"/>
    <rect height="1" transform="rotate(31.879576958949905 20.5 1)" width="1" x="20" y="0.5"/>
    <rect height="1" transform="rotate(28.933816416256942 21.5 1)" width="1" x="21" y="0.5"/>
    <rect height="1" transform="rotate(41.88322520046318 23.5 1)" width="1" x="23" y="0.5"/>
    <rect height="1" transform="rotate(29.75561215797276 24.5 1)" width="1" x="24" y="0.5"/>
    <rect height="1" transform="rotate(42.85804344911933 25.5 1)" width="1" x="25" y="0.5"/>
    <rect height="1" transform="rotate(30.705689005195108 26.5 1)" width="1" x="26" y="0.5"/>
    <rect height="1" transform="rotate(49.79637669438181 27.5 1)" width="1" x="27" y="0.5"/>
    <rect height="1" transform="rotate(41.12242059222096 28.5 1)" width="1" x="28" y="0.5"/>
    <rect height="1" transform="rotate(32.187523515500644 29.5 1)" width="1" x="29" y="0.5"/>
  </g>
</svg>
