<?xml version="1.0" encoding="utf-8" ?>
<svg xmlns="http://www.w3.org/2000/svg" xmlns:ev="http://www.w3.org/2001/xml-events" xmlns:xlink="http://www.w3.org/1999/xlink" baseProfile="full" height="100%" version="1.1" viewBox="-1 0 35 2" width="100%">
  <defs/>
  <rect fill="#eee" height="2" width="35" x="-1" y="0"/>
  <g fill="#9cb29e" stroke="#000" stroke-opacity="1" stroke-width="0.05">
    <rect height="1" transform="rotate(0 0.5 1)" width="1" x="0" y="0.5"/>
    <rect height="1" transform="rotate(1 1.5 1)" width="1" x="1" y="0.5"/>
    <rect height="1" transform="rotate(2 2.5 1)" width="1" x="2" y="0.5"/>
    <rect height="1" transform="rotate(3 3.5 1)" width="1" x="3" y="0.5"/>
    <rect height="1" transform="rotate(5 5.5 1)" width="1" x="5" y="0.5"/>
    <rect height="1" transform="rotate(6 6.5 1)" width="1" x="6" y="0.5"/>
    <rect height="1" transform="rotate(7 7.5 1)" width="1" x="7" y="0.5"/>
    <rect height="1" transform="rotate(8 8.5 1)" width="1" x="8" y="0.5"/>
    <rect height="1" transform="rotate(9 9.5 1)" width="1" x="9" y="0.5"/>
    <rect height="1" transform="rotate(10 10.5 1)" width="1" x="10" y="0.5"/>
    <rect height="1" transform="rotate(11 11.5 1)" width="1" x="11" y="0.5"/>
    <rect height="1" transform="rotate(12 12.5 1)" width="1" x="12" y="0.5"/>
    <rect height="1" transform="rotate(13 13.5 1)" width="1" x="13" y="0.5"/>
    <rect height="1" transform="rotate(15 15.5 1)" width="1" x="15" y="0.5"/>
    <rect height="1" transform="rotate(16 16.5 1)" width="1" x="16" y="0.5"/>
    <rect height="1" transform="rotate(17 17.5 1)" width="1" x="17" y="0.5"/>
    <rect height="1" transform="rotate(18 18.5 1)" width="1" x="18" y="0.5"/>
    <rect height="1" transform="rotate(19 19.5 1)" width="1" x="19" y="0.5"/>
    <rect height="1" transform="rotate(20 20.5 1)" width="1" x="20" y="0.5"/>
    <rect height="1" transform="rotate(21 21.5 1)" width="1" x="21" y="0.5"/>
    <rect height="1" transform="rotate(23 23.5 1)" width="1" x="23" y="0.5"/>
    <rect height="1" transform="rotate(24 24.5 1)" width="1" x="24" y="0.5"/>
    <rect height="1" transform="rotate(26 26.5 1)" width="1" x="26" y="0.5"/>
    <rect height="1" transform="rotate(27 27.5 1)" width="1" x="27" y="0.5"/>
    <rect height="1" transform="rotate(28 28.5 1)" width="1" x="28" y="0.5"/>
    <rect height="1" transform="rotate(29 29.5 1)" width="1" x="29" y="0.5"/>
    <rect height="1" transform="rotate(30 30.5 1)" width="1" x="30" y="0.5"/>
    <rect height="1" transform="rotate(31 31.5 1)" width="1" x="31" y="0.5"/>
    <rect height="1" transform="rotate(32 32.5 1)" width="1" x="32" y="0.5"/>
  </g>
  <g fill="#000" font-family="sans-serif" font-size="0.67" text-anchor="middle">
    <text alignment-baseline="middle" x="0.5" y="1">I</text>
    <text alignment-baseline="middle" x="1.5" y="1">T</text>
    <text alignment-baseline="middle" x="2.5" y="1">'</text>
    <text alignment-baseline="middle" x="3.5" y="1">S</text>
    <text alignment-baseline="middle" x="4.5" y="1"> </text>
    <text alignment-baseline="middle" x="5.5" y="1">W</text>
    <text alignment-baseline="middle" x="6.5" y="1">E</text>
    <text alignment-baseline="middle" x="7.5" y="1">D</text>
    <text alignment-baseline="middle" x="8.5" y="1">N</text>
    <text alignment-baseline="middle" x="9.5" y="1">E</text>
    <text alignment-baseline="middle" x="10.5" y="1">S</text>
    <text alignment-baseline="middle" x="11.5" y="1">D</text>
    <text alignment-baseline="middle" x="12.5" y="1">A</text>
    <text alignment-baseline="middle" x="13.5" y="1">Y</text>
    <text alignment-baseline="middle" x="14.5" y="1"> </text>
    <text alignment-baseline="middle" x="15.5" y="1">E</text>
    <text alignment-baseline="middle" x="16.5" y="1">V</text>
    <text alignment-baseline="middle" x="17.5" y="1">E</text>
    <text alignment-baseline="middle" x="18.5" y="1">N</text>
    <text alignment-baseline="middle" x="19.5" y="1">I</text>
    <text alignment-baseline="middle" x="20.5" y="1">N</text>
    <text alignment-baseline="middle" x="21.5" y="1">G</text>
    <text alignment-baseline="middle" x="22.5" y="1"> </text>
    <text alignment-baseline="middle" x="23.5" y="1">I</text>
    <text alignment-baseline="middle" x="24.5" y="1">N</text>
    <text alignment-baseline="middle" x="25.5" y="1"> </text>
    <text alignment-baseline="middle" x="26.5" y="1">C</text>
    <text alignment-baseline="middle" x="27.5" y="1">H</text>
    <text alignment-baseline="middle" x="28.5" y="1">I</text>
    <text alignment-baseline="middle" x="29.5" y="1">C</text>
    <text alignment-baseline="middle" x="30.5" y="1">A</text>
    <text alignment-baseline="middle" x="31.5" y="1">G</text>
    <text alignment-baseline="middle" x="32.5" y="1">O</text>
  </g>
  <g fill="none" stroke="#000" stroke-opacity="1" stroke-width="0.05">
    <rect height="1" transform="rotate(0.0 0.5 1)" width="1" x="0" y="0.5"/>
    <rect height="1" transform="rotate(1.913153432996753 1.5 1)" width="1" x="1" y="0.5"/>
    <rect height="1" transform="rotate(2.7303556752377616 2.5 1)" width="1" x="2" y="0.5"/>
    <rect height="1" transform="rotate(4.801833050247604 3.5 1)" width="1" x="3" y="0.5"/>
    <rect height="1" transform="rotate(5.309155401631324 5.5 1)" width="1" x="5" y="0.5"/>
    <rect height="1" transform="rotate(7.918278879312738 6.5 1)" width="1" x="6" y="0.5"/>
    <rect height="1" transform="rotate(10.81075431890585 7.5 1)" width="1" x="7" y="0.5"/>
    <rect height="1" transform="rotate(9.579588970045855 8.5 1)" width="1" x="8" y="0.5"/>
    <rect height="1" transform="rotate(13.468845740634103 9.5 1)" width="1" x="9" y="0.5"/>
    <rect height="1" transform="rotate(12.987470634095612 10.5 1)" width="1" x="10" y="0.5"/>
    <rect height="1" transform="rotate(11.78253064253316 11.5 1)" width="1" x="11" y="0.5"/>
    <rect height="1" transform="rotate(13.163769660637435 12.5 1)" width="1" x="12" y="0.5"/>
    <rect height="1" transform="rotate(17.535301027180846 13.5 1)" width="1" x="13" y="0.5"/>
    <rect height="1" transform="rotate(25.69972831415428 15.5 1)" width="1" x="15" y="0.5"/>
    <rect height="1" transform="rotate(26.76346009784033 16.5 1)" width="1" x="16" y="0.5"/>
    <rect height="1" transform="rotate(29.513030395715678 17.5 1)" width="1" x="17" y="0.5"/>
    <rect height="1" transform="rotate(29.58955670566715 18.5 1)" width="1" x="18" y="0.5"/>
    <rect height="1" transform="rotate(30.322377804225074 19.5 1)" width="1" x="19" y="0.5"/>
    <rect height="1" transform="rotate(33.22361734218137 20.5 1)" width="1" x="20" y="0.5"/>
    <rect height="1" transform="rotate(32.1286409721186 21.5 1)" width="1" x="21" y="0.5"/>
    <rect height="1" transform="rotate(41.72532430922414 23.5 1)" width="1" x="23" y="0.5"/>
    <rect height="1" transform="rotate(41.166376307312774 24.5 1)" width="1" x="24" y="0.5"/>
    <rect height="1" transform="rotate(27.360127289556864 26.5 1)" width="1" x="26" y="0.5"/>
    <rect height="1" transform="rotate(34.37055784698615 27.5 1)" width="1" x="27" y="0.5"/>
    <rect height="1" transform="rotate(50.094376132986504 28.5 1)" width="1" x="28" y="0.5"/>
    <rect height="1" transform="rotate(52.55878583486887 29.5 1)" width="1" x="29" y="0.5"/>
    <rect height="1" transform="rotate(38.95489197280094 30.5 1)" width="1" x="30" y="0.5"/>
    <rect height="1" transform="rotate(51.9633120960079 31.5 1)" width="1" x="31" y="0.5"/>
    <rect height="1" transform="rotate(35.166343149208814 32.5 1)" width="1" x="32" y="0.5"/>
  </g>
</svg>
