<?xml version="1.0" encoding="utf-8" ?>
<svg xmlns="http://www.w3.org/2000/svg" xmlns:ev="http://www.w3.org/2001/xml-events" xmlns:xlink="http://www.w3.org/1999/xlink" baseProfile="full" height="100%" version="1.1" viewBox="-1 0 30 2" width="100%">
  <defs/>
  <rect fill="#111" height="2" width="30" x="-1" y="0"/>
  <g fill="#a10045" stroke="#eee" stroke-opacity="1" stroke-width="0.05">
    <rect height="1" transform="rotate(0 0.5 1)" width="1" x="0" y="0.5"/>
    <rect height="1" transform="rotate(1 1.5 1)" width="1" x="1" y="0.5"/>
    <rect height="1" transform="rotate(2 2.5 1)" width="1" x="2" y="0.5"/>
    <rect height="1" transform="rotate(3 3.5 1)" width="1" x="3" y="0.5"/>
    <rect height="1" transform="rotate(5 5.5 1)" width="1" x="5" y="0.5"/>
    <rect height="1" transform="rotate(6 6.5 1)" width="1" x="6" y="0.5"/>
    <rect height="1" transform="rotate(7 7.5 1)" width="1" x="7" y="0.5"/>
    <rect height="1" transform="rotate(8 8.5 1)" width="1" x="8" y="0.5"/>
    <rect height="1" transform="rotate(9 9.5 1)" width="1" x="9" y="0.5"/>
    <rect height="1" transform="rotate(10 10.5 1)" width="1" x="10" y="0.5"/>
    <rect height="1" transform="rotate(12 12.5 1)" width="1" x="12" y="0.5"/>
    <rect height="1" transform="rotate(13 13.5 1)" width="1" x="13" y="0.5"/>
    <rect height="1" transform="rotate(14 14.5 1)" width="1" x="14" y="0.5"/>
    <rect height="1" transform="rotate(15 15.5 1)" width="1" x="15" y="0.5"/>
    <rect height="1" transform="rotate(16 16.5 1)" width="1" x="16" y="0.5"/>
    <rect height="1" transform="rotate(18 18.5 1)" width="1" x="18" y="0.5"/>
    <rect height="1" transform="rotate(19 19.5 1)" width="1" x="19" y="0.5"/>
    <rect height="1" transform="rotate(21 21.5 1)" width="1" x="21" y="0.5"/>
    <rect height="1" transform="rotate(22 22.5 1)" width="1" x="22" y="0.5"/>
    <rect height="1" transform="rotate(23 23.5 1)" width="1" x="23" y="0.5"/>
    <rect height="1" transform="rotate(24 24.5 1)" width="1" x="24" y="0.5"/>
    <rect height="1" transform="rotate(25 25.5 1)" width="1" x="25" y="0.5"/>
    <rect height="1" transform="rotate(26 26.5 1)" width="1" x="26" y="0.5"/>
    <rect height="1" transform="rotate(27 27.5 1)" width="1" x="27" y="0.5"/>
  </g>
  <g fill="#eee" font-family="sans-serif" font-size="0.67" text-anchor="middle">
    <text alignment-baseline="middle" x="0.5" y="1">I</text>
    <text alignment-baseline="middle" x="1.5" y="1">T</text>
    <text alignment-baseline="middle" x="2.5" y="1">'</text>
    <text alignment-baseline="middle" x="3.5" y="1">S</text>
    <text alignment-baseline="middle" x="4.5" y="1"> </text>
    <text alignment-baseline="middle" x="5.5" y="1">F</text>
    <text alignment-baseline="middle" x="6.5" y="1">R</text>
    <text alignment-baseline="middle" x="7.5" y="1">I</text>
    <text alignment-baseline="middle" x="8.5" y="1">D</text>
    <text alignment-baseline="middle" x="9.5" y="1">A</text>
    <text alignment-baseline="middle" x="10.5" y="1">Y</text>
    <text alignment-baseline="middle" x="11.5" y="1"> </text>
    <text alignment-baseline="middle" x="12.5" y="1">N</text>
    <text alignment-baseline="middle" x="13.5" y="1">I</text>
    <text alignment-baseline="middle" x="14.5" y="1">G</text>
    <text alignment-baseline="middle" x="15.5" y="1">H</text>
    <text alignment-baseline="middle" x="16.5" y="1">T</text>
    <text alignment-baseline="middle" x="17.5" y="1"> </text>
    <text alignment-baseline="middle" x="18.5" y="1">I</text>
    <text alignment-baseline="middle" x="19.5" y="1">N</text>
    <text alignment-baseline="middle" x="20.5" y="1"> </text>
    <text alignment-baseline="middle" x="21.5" y="1">C</text>
    <text alignment-baseline="middle" x="22.5" y="1">H</text>
    <text alignment-baseline="middle" x="23.5" y="1">I</text>
    <text alignment-baseline="middle" x="24.5" y="1">C</text>
    <text alignment-baseline="middle" x="25.5" y="1">A</text>
    <text alignment-baseline="middle" x="26.5" y="1">G</text>
    <text alignment-baseline="middle" x="27.5" y="1">O</text>
  </g>
  <g fill="none" stroke="#eee" stroke-opacity="1" stroke-width="0.05">
    <rect height="1" transform="rotate(0.0 0.5 1)" width="1" x="0" y="0.5"/>
    <rect height="1" transform="rotate(1.1485433537896936 1.5 1)" width="1" x="1" y="0.5"/>
    <rect height="1" transform="rotate(3.1335191532739946 2.5 1)" width="1" x="2" y="0.5"/>
    <rect height="1" transform="rotate(5.429867826540541 3.5 1)" width="1" x="3" y="0.5"/>
    <rect height="1" transform="rotate(5.076153415196767 5.5 1)" width="1" x="5" y="0.5"/>
    <rect height="1" transform="rotate(9.441005691452268 6.5 1)" width="1" x="6" y="0.5"/>
    <rect height="1" transform="rotate(7.785086918855285 7.5 1)" width="1" x="7" y="0.5"/>
    <rect height="1" transform="rotate(8.46813000528764 8.5 1)" width="1" x="8" y="0.5"/>
    <rect height="1" transform="rotate(13.673386819841335 9.5 1)" width="1" x="9" y="0.5"/>
    <rect height="1" transform="rotate(13.377129287446742 10.5 1)" width="1" x="10" y="0.5"/>
    <rect height="1" transform="rotate(17.440400537612845 12.5 1)" width="1" x="12" y="0.5"/>
    <rect height="1" transform="rotate(25.764643646301483 13.5 1)" width="1" x="13" y="0.5"/>
    <rect height="1" transform="rotate(25.673170092484856 14.5 1)" width="1" x="14" y="0.5"/>
    <rect height="1" transform="rotate(24.2708746669229 15.5 1)" width="1" x="15" y="0.5"/>
    <rect height="1" transform="rotate(27.104126937720032 16.5 1)" width="1" x="16" y="0.5"/>
    <rect height="1" transform="rotate(22.099697244210496 18.5 1)" width="1" x="18" y="0.5"/>
    <rect height="1" transform="rotate(35.90161276503347 19.5 1)" width="1" x="19" y="0.5"/>
    <rect height="1" transform="rotate(22.545320308493256 21.5 1)" width="1" x="21" y="0.5"/>
    <rect height="1" transform="rotate(30.46587525071875 22.5 1)" width="1" x="22" y="0.5"/>
    <rect height="1" transform="rotate(31.393396011582848 23.5 1)" width="1" x="23" y="0.5"/>
    <rect height="1" transform="rotate(24.377372768349545 24.5 1)" width="1" x="24" y="0.5"/>
    <rect height="1" transform="rotate(41.177251728814305 25.5 1)" width="1" x="25" y="0.5"/>
    <rect height="1" transform="rotate(42.274285806653964 26.5 1)" width="1" x="26" y="0.5"/>
    <rect height="1" transform="rotate(44.53650567084725 27.5 1)" width="1" x="27" y="0.5"/>
  </g>
</svg>
