<?xml version="1.0" encoding="utf-8" ?>
<svg xmlns="http://www.w3.org/2000/svg" xmlns:ev="http://www.w3.org/2001/xml-events" xmlns:xlink="http://www.w3.org/1999/xlink" baseProfile="full" height="100%" version="1.1" viewBox="-1 0 30 2" width="100%">
  <defs/>
  <rect fill="#111" height="2" width="30" x="-1" y="0"/>
  <g fill="#a10045" stroke="#eee" stroke-opacity="1" stroke-width="0.05">
    <rect height="1" transform="rotate(0 0.5 1)" width="1" x="0" y="0.5"/>
    <rect height="1" transform="rotate(1 1.5 1)" width="1" x="1" y="0.5"/>
    <rect height="1" transform="rotate(2 2.5 1)" width="1" x="2" y="0.5"/>
    <rect height="1" transform="rotate(3 3.5 1)" width="1" x="3" y="0.5"/>
    <rect height="1" transform="rotate(5 5.5 1)" width="1" x="5" y="0.5"/>
    <rect height="1" transform="rotate(6 6.5 1)" width="1" x="6" y="0.5"/>
    <rect height="1" transform="rotate(7 7.5 1)" width="1" x="7" y="0.5"/>
    <rect height="1" transform="rotate(8 8.5 1)" width="1" x="8" y="0.5"/>
    <rect height="1" transform="rotate(9 9.5 1)" width="1" x="9" y="0.5"/>
    <rect height="1" transform="rotate(10 10.5 1)" width="1" x="10" y="0.5"/>
    <rect height="1" transform="rotate(12 12.5 1)" width="1" x="12" y="0.5"/>
    <rect height="1" transform="rotate(13 13.5 1)" width="1" x="13" y="0.5"/>
    <rect height="1" transform="rotate(14 14.5 1)" width="1" x="14" y="0.5"/>
    <rect height="1" transform="rotate(15 15.5 1)" width="1" x="15" y="0.5"/>
    <rect height="1" transform="rotate(16 16.5 1)" width="1" x="16" y="0.5"/>
    <rect height="1" transform="rotate(18 18.5 1)" width="1" x="18" y="0.5"/>
    <rect height="1" transform="rotate(19 19.5 1)" width="1" x="19" y="0.5"/>
    <rect height="1" transform="rotate(21 21.5 1)" width="1" x="21" y="0.5"/>
    <rect height="1" transform="rotate(22 22.5 1)" width="1" x="22" y="0.5"/>
    <rect height="1" transform="rotate(23 23.5 1)" width="1" x="23" y="0.5"/>
    <rect height="1" transform="rotate(24 24.5 1)" width="1" x="24" y="0.5"/>
    <rect height="1" transform="rotate(25 25.5 1)" width="1" x="25" y="0.5"/>
    <rect height="1" transform="rotate(26 26.5 1)" width="1" x="26" y="0.5"/>
    <rect height="1" transform="rotate(27 27.5 1)" width="1" x="27" y="0.5"/>
  </g>
  <g fill="#eee" font-family="sans-serif" font-size="0.67" text-anchor="middle">
    <text alignment-baseline="middle" x="0.5" y="1">I</text>
    <text alignment-baseline="middle" x="1.5" y="1">T</text>
    <text alignment-baseline="middle" x="2.5" y="1">'</text>
    <text alignment-baseline="middle" x="3.5" y="1">S</text>
    <text alignment-baseline="middle" x="4.5" y="1"> </text>
    <text alignment-baseline="middle" x="5.5" y="1">S</text>
    <text alignment-baseline="middle" x="6.5" y="1">U</text>
    <text alignment-baseline="middle" x="7.5" y="1">N</text>
    <text alignment-baseline="middle" x="8.5" y="1">D</text>
    <text alignment-baseline="middle" x="9.5" y="1">A</text>
    <text alignment-baseline="middle" x="10.5" y="1">Y</text>
    <text alignment-baseline="middle" x="11.5" y="1"> </text>
    <text alignment-baseline="middle" x="12.5" y="1">N</text>
    <text alignment-baseline="middle" x="13.5" y="1">I</text>
    <text alignment-baseline="middle" x="14.5" y="1">G</text>
    <text alignment-baseline="middle" x="15.5" y="1">H</text>
    <text alignment-baseline="middle" x="16.5" y="1">T</text>
    <text alignment-baseline="middle" x="17.5" y="1"> </text>
    <text alignment-baseline="middle" x="18.5" y="1">I</text>
    <text alignment-baseline="middle" x="19.5" y="1">N</text>
    <text alignment-baseline="middle" x="20.5" y="1"> </text>
    <text alignment-baseline="middle" x="21.5" y="1">C</text>
    <text alignment-baseline="middle" x="22.5" y="1">H</text>
    <text alignment-baseline="middle" x="23.5" y="1">I</text>
    <text alignment-baseline="middle" x="24.5" y="1">C</text>
    <text alignment-baseline="middle" x="25.5" y="1">A</text>
    <text alignment-baseline="middle" x="26.5" y="1">G</text>
    <text alignment-baseline="middle" x="27.5" y="1">O</text>
  </g>
  <g fill="none" stroke="#eee" stroke-opacity="1" stroke-width="0.05">
    <rect height="1" transform="rotate(0.0 0.5 1)" width="1" x="0" y="0.5"/>
    <rect height="1" transform="rotate(1.4856891186506993 1.5 1)" width="1" x="1" y="0.5"/>
    <rect height="1" transform="rotate(2.7675666523388216 2.5 1)" width="1" x="2" y="0.5"/>
    <rect height="1" transform="rotate(3.607029611666789 3.5 1)" width="1" x="3" y="0.5"/>
    <rect height="1" transform="rotate(7.744295801514845 5.5 1)" width="1" x="5" y="0.5"/>
    <rect height="1" transform="rotate(9.034520952215289 6.5 1)" width="1" x="6" y="0.5"/>
    <rect height="1" transform="rotate(13.18932867281352 7.5 1)" width="1" x="7" y="0.5"/>
    <rect height="1" transform="rotate(10.86626718648402 8.5 1)" width="1" x="8" y="0.5"/>
    <rect height="1" transform="rotate(10.192232601711835 9.5 1)" width="1" x="9" y="0.5"/>
    <rect height="1" transform="rotate(17.559365984438095 10.5 1)" width="1" x="10" y="0.5"/>
    <rect height="1" transform="rotate(23.279038229734816 12.5 1)" width="1" x="12" y="0.5"/>
    <rect height="1" transform="rotate(21.812432775057363 13.5 1)" width="1" x="13" y="0.5"/>
    <rect height="1" transform="rotate(17.408207059760645 14.5 1)" width="1" x="14" y="0.5"/>
    <rect height="1" transform="rotate(17.92534364641669 15.5 1)" width="1" x="15" y="0.5"/>
    <rect height="1" transform="rotate(28.36296986805661 16.5 1)" width="1" x="16" y="0.5"/>
    <rect height="1" transform="rotate(34.906277689798465 18.5 1)" width="1" x="18" y="0.5"/>
    <rect height="1" transform="rotate(28.803327764676986 19.5 1)" width="1" x="19" y="0.5"/>
    <rect height="1" transform="rotate(27.251316951011482 21.5 1)" width="1" x="21" y="0.5"/>
    <rect height="1" transform="rotate(22.27308549911169 22.5 1)" width="1" x="22" y="0.5"/>
    <rect height="1" transform="rotate(23.47570758192641 23.5 1)" width="1" x="23" y="0.5"/>
    <rect height="1" transform="rotate(45.56280138637656 24.5 1)" width="1" x="24" y="0.5"/>
    <rect height="1" transform="rotate(27.267445023921315 25.5 1)" width="1" x="25" y="0.5"/>
    <rect height="1" transform="rotate(38.929882996206274 26.5 1)" width="1" x="26" y="0.5"/>
    <rect height="1" transform="rotate(43.1201185033625 27.5 1)" width="1" x="27" y="0.5"/>
  </g>
</svg>
