<?xml version="1.0" encoding="utf-8" ?>
<svg xmlns="http://www.w3.org/2000/svg" xmlns:ev="http://www.w3.org/2001/xml-events" xmlns:xlink="http://www.w3.org/1999/xlink" baseProfile="full" height="100%" version="1.1" viewBox="-1 0 33 2" width="100%">
  <defs/>
  <rect fill="#eee" height="2" width="33" x="-1" y="0"/>
  <g fill="#9cb29e" stroke="#000" stroke-opacity="1" stroke-width="0.05">
    <rect height="1" transform="rotate(0 0.5 1)" width="1" x="0" y="0.5"/>
    <rect height="1" transform="rotate(1 1.5 1)" width="1" x="1" y="0.5"/>
    <rect height="1" transform="rotate(2 2.5 1)" width="1" x="2" y="0.5"/>
    <rect height="1" transform="rotate(3 3.5 1)" width="1" x="3" y="0.5"/>
    <rect height="1" transform="rotate(5 5.5 1)" width="1" x="5" y="0.5"/>
    <rect height="1" transform="rotate(6 6.5 1)" width="1" x="6" y="0.5"/>
    <rect height="1" transform="rotate(7 7.5 1)" width="1" x="7" y="0.5"/>
    <rect height="1" transform="rotate(8 8.5 1)" width="1" x="8" y="0.5"/>
    <rect height="1" transform="rotate(9 9.5 1)" width="1" x="9" y="0.5"/>
    <rect height="1" transform="rotate(10 10.5 1)" width="1" x="10" y="0.5"/>
    <rect height="1" transform="rotate(11 11.5 1)" width="1" x="11" y="0.5"/>
    <rect height="1" transform="rotate(13 13.5 1)" width="1" x="13" y="0.5"/>
    <rect height="1" transform="rotate(14 14.5 1)" width="1" x="14" y="0.5"/>
    <rect height="1" transform="rotate(15 15.5 1)" width="1" x="15" y="0.5"/>
    <rect height="1" transform="rotate(16 16.5 1)" width="1" x="16" y="0.5"/>
    <rect height="1" transform="rotate(17 17.5 1)" width="1" x="17" y="0.5"/>
    <rect height="1" transform="rotate(18 18.5 1)" width="1" x="18" y="0.5"/>
    <rect height="1" transform="rotate(19 19.5 1)" width="1" x="19" y="0.5"/>
    <rect height="1" transform="rotate(21 21.5 1)" width="1" x="21" y="0.5"/>
    <rect height="1" transform="rotate(22 22.5 1)" width="1" x="22" y="0.5"/>
    <rect height="1" transform="rotate(24 24.5 1)" width="1" x="24" y="0.5"/>
    <rect height="1" transform="rotate(25 25.5 1)" width="1" x="25" y="0.5"/>
    <rect height="1" transform="rotate(26 26.5 1)" width="1" x="26" y="0.5"/>
    <rect height="1" transform="rotate(27 27.5 1)" width="1" x="27" y="0.5"/>
    <rect height="1" transform="rotate(28 28.5 1)" width="1" x="28" y="0.5"/>
    <rect height="1" transform="rotate(29 29.5 1)" width="1" x="29" y="0.5"/>
    <rect height="1" transform="rotate(30 30.5 1)" width="1" x="30" y="0.5"/>
  </g>
  <g fill="#000" font-family="sans-serif" font-size="0.67" text-anchor="middle">
    <text alignment-baseline="middle" x="0.5" y="1">I</text>
    <text alignment-baseline="middle" x="1.5" y="1">T</text>
    <text alignment-baseline="middle" x="2.5" y="1">'</text>
    <text alignment-baseline="middle" x="3.5" y="1">S</text>
    <text alignment-baseline="middle" x="4.5" y="1"> </text>
    <text alignment-baseline="middle" x="5.5" y="1">T</text>
    <text alignment-baseline="middle" x="6.5" y="1">U</text>
    <text alignment-baseline="middle" x="7.5" y="1">E</text>
    <text alignment-baseline="middle" x="8.5" y="1">S</text>
    <text alignment-baseline="middle" x="9.5" y="1">D</text>
    <text alignment-baseline="middle" x="10.5" y="1">A</text>
    <text alignment-baseline="middle" x="11.5" y="1">Y</text>
    <text alignment-baseline="middle" x="12.5" y="1"> </text>
    <text alignment-baseline="middle" x="13.5" y="1">E</text>
    <text alignment-baseline="middle" x="14.5" y="1">V</text>
    <text alignment-baseline="middle" x="15.5" y="1">E</text>
    <text alignment-baseline="middle" x="16.5" y="1">N</text>
    <text alignment-baseline="middle" x="17.5" y="1">I</text>
    <text alignment-baseline="middle" x="18.5" y="1">N</text>
    <text alignment-baseline="middle" x="19.5" y="1">G</text>
    <text alignment-baseline="middle" x="20.5" y="1"> </text>
    <text alignment-baseline="middle" x="21.5" y="1">I</text>
    <text alignment-baseline="middle" x="22.5" y="1">N</text>
    <text alignment-baseline="middle" x="23.5" y="1"> </text>
    <text alignment-baseline="middle" x="24.5" y="1">C</text>
    <text alignment-baseline="middle" x="25.5" y="1">H</text>
    <text alignment-baseline="middle" x="26.5" y="1">I</text>
    <text alignment-baseline="middle" x="27.5" y="1">C</text>
    <text alignment-baseline="middle" x="28.5" y="1">A</text>
    <text alignment-baseline="middle" x="29.5" y="1">G</text>
    <text alignment-baseline="middle" x="30.5" y="1">O</text>
  </g>
  <g fill="none" stroke="#000" stroke-opacity="1" stroke-width="0.05">
    <rect height="1" transform="rotate(0.0 0.5 1)" width="1" x="0" y="0.5"/>
    <rect height="1" transform="rotate(1.4437297883956175 1.5 1)" width="1" x="1" y="0.5"/>
    <rect height="1" transform="rotate(2.687574945409205 2.5 1)" width="1" x="2" y="0.5"/>
    <rect height="1" transform="rotate(4.275748675360351 3.5 1)" width="1" x="3" y="0.5"/>
    <rect height="1" transform="rotate(8.71563680616055 5.5 1)" width="1" x="5" y="0.5"/>
    <rect height="1" transform="rotate(7.605973587348526 6.5 1)" width="1" x="6" y="0.5"/>
    <rect height="1" transform="rotate(10.786376927182912 7.5 1)" width="1" x="7" y="0.5"/>
    <rect height="1" transform="rotate(9.345340494845349 8.5 1)" width="1" x="8" y="0.5"/>
    <rect height="1" transform="rotate(14.35860837948847 9.5 1)" width="1" x="9" y="0.5"/>
    <rect height="1" transform="rotate(17.726261816424387 10.5 1)" width="1" x="10" y="0.5"/>
    <rect height="1" transform="rotate(14.878759158375106 11.5 1)" width="1" x="11" y="0.5"/>
    <rect height="1" transform="rotate(23.36272110356338 13.5 1)" width="1" x="13" y="0.5"/>
    <rect height="1" transform="rotate(21.140784530132297 14.5 1)" width="1" x="14" y="0.5"/>
    <rect height="1" transform="rotate(26.08995235365666 15.5 1)" width="1" x="15" y="0.5"/>
    <rect height="1" transform="rotate(29.818691323225366 16.5 1)" width="1" x="16" y="0.5"/>
    <rect height="1" transform="rotate(28.501248200520813 17.5 1)" width="1" x="17" y="0.5"/>
    <rect height="1" transform="rotate(23.370287198991132 18.5 1)" width="1" x="18" y="0.5"/>
    <rect height="1" transform="rotate(32.62752950595125 19.5 1)" width="1" x="19" y="0.5"/>
    <rect height="1" transform="rotate(37.8344150351242 21.5 1)" width="1" x="21" y="0.5"/>
    <rect height="1" transform="rotate(30.920048830651194 22.5 1)" width="1" x="22" y="0.5"/>
    <rect height="1" transform="rotate(37.58931262765018 24.5 1)" width="1" x="24" y="0.5"/>
    <rect height="1" transform="rotate(43.2685215761932 25.5 1)" width="1" x="25" y="0.5"/>
    <rect height="1" transform="rotate(51.29110682649427 26.5 1)" width="1" x="26" y="0.5"/>
    <rect height="1" transform="rotate(29.612123139021918 27.5 1)" width="1" x="27" y="0.5"/>
    <rect height="1" transform="rotate(35.3186790398495 28.5 1)" width="1" x="28" y="0.5"/>
    <rect height="1" transform="rotate(30.27950267879119 29.5 1)" width="1" x="29" y="0.5"/>
    <rect height="1" transform="rotate(43.29333415625086 30.5 1)" width="1" x="30" y="0.5"/>
  </g>
</svg>
