<?xml version="1.0" encoding="utf-8" ?>
<svg xmlns="http://www.w3.org/2000/svg" xmlns:ev="http://www.w3.org/2001/xml-events" xmlns:xlink="http://www.w3.org/1999/xlink" baseProfile="full" height="100%" version="1.1" viewBox="-1 0 30 2" width="100%">
  <defs/>
  <rect fill="#111" height="2" width="30" x="-1" y="0"/>
  <g fill="#a10045" stroke="#eee" stroke-opacity="1" stroke-width="0.05">
    <rect height="1" transform="rotate(0 0.5 1)" width="1" x="0" y="0.5"/>
    <rect height="1" transform="rotate(1 1.5 1)" width="1" x="1" y="0.5"/>
    <rect height="1" transform="rotate(2 2.5 1)" width="1" x="2" y="0.5"/>
    <rect height="1" transform="rotate(3 3.5 1)" width="1" x="3" y="0.5"/>
    <rect height="1" transform="rotate(5 5.5 1)" width="1" x="5" y="0.5"/>
    <rect height="1" transform="rotate(6 6.5 1)" width="1" x="6" y="0.5"/>
    <rect height="1" transform="rotate(7 7.5 1)" width="1" x="7" y="0.5"/>
    <rect height="1" transform="rotate(8 8.5 1)" width="1" x="8" y="0.5"/>
    <rect height="1" transform="rotate(9 9.5 1)" width="1" x="9" y="0.5"/>
    <rect height="1" transform="rotate(10 10.5 1)" width="1" x="10" y="0.5"/>
    <rect height="1" transform="rotate(12 12.5 1)" width="1" x="12" y="0.5"/>
    <rect height="1" transform="rotate(13 13.5 1)" width="1" x="13" y="0.5"/>
    <rect height="1" transform="rotate(14 14.5 1)" width="1" x="14" y="0.5"/>
    <rect height="1" transform="rotate(15 15.5 1)" width="1" x="15" y="0.5"/>
    <rect height="1" transform="rotate(16 16.5 1)" width="1" x="16" y="0.5"/>
    <rect height="1" transform="rotate(18 18.5 1)" width="1" x="18" y="0.5"/>
    <rect height="1" transform="rotate(19 19.5 1)" width="1" x="19" y="0.5"/>
    <rect height="1" transform="rotate(21 21.5 1)" width="1" x="21" y="0.5"/>
    <rect height="1" transform="rotate(22 22.5 1)" width="1" x="22" y="0.5"/>
    <rect height="1" transform="rotate(23 23.5 1)" width="1" x="23" y="0.5"/>
    <rect height="1" transform="rotate(24 24.5 1)" width="1" x="24" y="0.5"/>
    <rect height="1" transform="rotate(25 25.5 1)" width="1" x="25" y="0.5"/>
    <rect height="1" transform="rotate(26 26.5 1)" width="1" x="26" y="0.5"/>
    <rect height="1" transform="rotate(27 27.5 1)" width="1" x="27" y="0.5"/>
  </g>
  <g fill="#eee" font-family="sans-serif" font-size="0.67" text-anchor="middle">
    <text alignment-baseline="middle" x="0.5" y="1">I</text>
    <text alignment-baseline="middle" x="1.5" y="1">T</text>
    <text alignment-baseline="middle" x="2.5" y="1">'</text>
    <text alignment-baseline="middle" x="3.5" y="1">S</text>
    <text alignment-baseline="middle" x="4.5" y="1"> </text>
    <text alignment-baseline="middle" x="5.5" y="1">M</text>
    <text alignment-baseline="middle" x="6.5" y="1">O</text>
    <text alignment-baseline="middle" x="7.5" y="1">N</text>
    <text alignment-baseline="middle" x="8.5" y="1">D</text>
    <text alignment-baseline="middle" x="9.5" y="1">A</text>
    <text alignment-baseline="middle" x="10.5" y="1">Y</text>
    <text alignment-baseline="middle" x="11.5" y="1"> </text>
    <text alignment-baseline="middle" x="12.5" y="1">N</text>
    <text alignment-baseline="middle" x="13.5" y="1">I</text>
    <text alignment-baseline="middle" x="14.5" y="1">G</text>
    <text alignment-baseline="middle" x="15.5" y="1">H</text>
    <text alignment-baseline="middle" x="16.5" y="1">T</text>
    <text alignment-baseline="middle" x="17.5" y="1"> </text>
    <text alignment-baseline="middle" x="18.5" y="1">I</text>
    <text alignment-baseline="middle" x="19.5" y="1">N</text>
    <text alignment-baseline="middle" x="20.5" y="1"> </text>
    <text alignment-baseline="middle" x="21.5" y="1">C</text>
    <text alignment-baseline="middle" x="22.5" y="1">H</text>
    <text alignment-baseline="middle" x="23.5" y="1">I</text>
    <text alignment-baseline="middle" x="24.5" y="1">C</text>
    <text alignment-baseline="middle" x="25.5" y="1">A</text>
    <text alignment-baseline="middle" x="26.5" y="1">G</text>
    <text alignment-baseline="middle" x="27.5" y="1">O</text>
  </g>
  <g fill="none" stroke="#eee" stroke-opacity="1" stroke-width="0.05">
    <rect height="1" transform="rotate(0.0 0.5 1)" width="1" x="0" y="0.5"/>
    <rect height="1" transform="rotate(1.0073136621486403 1.5 1)" width="1" x="1" y="0.5"/>
    <rect height="1" transform="rotate(2.0145388246821456 2.5 1)" width="1" x="2" y="0.5"/>
    <rect height="1" transform="rotate(3.3781995695603144 3.5 1)" width="1" x="3" y="0.5"/>
    <rect height="1" transform="rotate(9.297856693670305 5.5 1)" width="1" x="5" y="0.5"/>
    <rect height="1" transform="rotate(9.27692342613742 6.5 1)" width="1" x="6" y="0.5"/>
    <rect height="1" transform="rotate(12.182606917478733 7.5 1)" width="1" x="7" y="0.5"/>
    <rect height="1" transform="rotate(15.924225527307517 8.5 1)" width="1" x="8" y="0.5"/>
    <rect height="1" transform="rotate(12.577885754136414 9.5 1)" width="1" x="9" y="0.5"/>
    <rect height="1" transform="rotate(11.655419482396558 10.5 1)" width="1" x="10" y="0.5"/>
    <rect height="1" transform="rotate(22.686670695010122 12.5 1)" width="1" x="12" y="0.5"/>
    <rect height="1" transform="rotate(24.0605383335485 13.5 1)" width="1" x="13" y="0.5"/>
    <rect height="1" transform="rotate(24.605457351980466 14.5 1)" width="1" x="14" y="0.5"/>
    <rect height="1" transform="rotate(22.775362770884758 15.5 1)" width="1" x="15" y="0.5"/>
    <rect height="1" transform="rotate(20.67791518359045 16.5 1)" width="1" x="16" y="0.5"/>
    <rect height="1" transform="rotate(23.602255946881748 18.5 1)" width="1" x="18" y="0.5"/>
    <rect height="1" transform="rotate(25.540586291284754 19.5 1)" width="1" x="19" y="0.5"/>
    <rect height="1" transform="rotate(33.04253278916979 21.5 1)" width="1" x="21" y="0.5"/>
    <rect height="1" transform="rotate(33.427620742625685 22.5 1)" width="1" x="22" y="0.5"/>
    <rect height="1" transform="rotate(40.225628126646335 23.5 1)" width="1" x="23" y="0.5"/>
    <rect height="1" transform="rotate(44.60103240623742 24.5 1)" width="1" x="24" y="0.5"/>
    <rect height="1" transform="rotate(43.56481585800777 25.5 1)" width="1" x="25" y="0.5"/>
    <rect height="1" transform="rotate(49.42761830946006 26.5 1)" width="1" x="26" y="0.5"/>
    <rect height="1" transform="rotate(30.85533351337479 27.5 1)" width="1" x="27" y="0.5"/>
  </g>
</svg>
