<?xml version="1.0" encoding="utf-8" ?>
<svg xmlns="http://www.w3.org/2000/svg" xmlns:ev="http://www.w3.org/2001/xml-events" xmlns:xlink="http://www.w3.org/1999/xlink" baseProfile="full" height="100%" version="1.1" viewBox="-1 0 33 2" width="100%">
  <defs/>
  <rect fill="#111" height="2" width="33" x="-1" y="0"/>
  <g fill="#a10045" stroke="#eee" stroke-opacity="1" stroke-width="0.05">
    <rect height="1" transform="rotate(0 0.5 1)" width="1" x="0" y="0.5"/>
    <rect height="1" transform="rotate(1 1.5 1)" width="1" x="1" y="0.5"/>
    <rect height="1" transform="rotate(2 2.5 1)" width="1" x="2" y="0.5"/>
    <rect height="1" transform="rotate(3 3.5 1)" width="1" x="3" y="0.5"/>
    <rect height="1" transform="rotate(5 5.5 1)" width="1" x="5" y="0.5"/>
    <rect height="1" transform="rotate(6 6.5 1)" width="1" x="6" y="0.5"/>
    <rect height="1" transform="rotate(7 7.5 1)" width="1" x="7" y="0.5"/>
    <rect height="1" transform="rotate(8 8.5 1)" width="1" x="8" y="0.5"/>
    <rect height="1" transform="rotate(9 9.5 1)" width="1" x="9" y="0.5"/>
    <rect height="1" transform="rotate(10 10.5 1)" width="1" x="10" y="0.5"/>
    <rect height="1" transform="rotate(11 11.5 1)" width="1" x="11" y="0.5"/>
    <rect height="1" transform="rotate(12 12.5 1)" width="1" x="12" y="0.5"/>
    <rect height="1" transform="rotate(13 13.5 1)" width="1" x="13" y="0.5"/>
    <rect height="1" transform="rotate(15 15.5 1)" width="1" x="15" y="0.5"/>
    <rect height="1" transform="rotate(16 16.5 1)" width="1" x="16" y="0.5"/>
    <rect height="1" transform="rotate(17 17.5 1)" width="1" x="17" y="0.5"/>
    <rect height="1" transform="rotate(18 18.5 1)" width="1" x="18" y="0.5"/>
    <rect height="1" transform="rotate(19 19.5 1)" width="1" x="19" y="0.5"/>
    <rect height="1" transform="rotate(21 21.5 1)" width="1" x="21" y="0.5"/>
    <rect height="1" transform="rotate(22 22.5 1)" width="1" x="22" y="0.5"/>
    <rect height="1" transform="rotate(24 24.5 1)" width="1" x="24" y="0.5"/>
    <rect height="1" transform="rotate(25 25.5 1)" width="1" x="25" y="0.5"/>
    <rect height="1" transform="rotate(26 26.5 1)" width="1" x="26" y="0.5"/>
    <rect height="1" transform="rotate(27 27.5 1)" width="1" x="27" y="0.5"/>
    <rect height="1" transform="rotate(28 28.5 1)" width="1" x="28" y="0.5"/>
    <rect height="1" transform="rotate(29 29.5 1)" width="1" x="29" y="0.5"/>
    <rect height="1" transform="rotate(30 30.5 1)" width="1" x="30" y="0.5"/>
  </g>
  <g fill="#eee" font-family="sans-serif" font-size="0.67" text-anchor="middle">
    <text alignment-baseline="middle" x="0.5" y="1">I</text>
    <text alignment-baseline="middle" x="1.5" y="1">T</text>
    <text alignment-baseline="middle" x="2.5" y="1">'</text>
    <text alignment-baseline="middle" x="3.5" y="1">S</text>
    <text alignment-baseline="middle" x="4.5" y="1"> </text>
    <text alignment-baseline="middle" x="5.5" y="1">W</text>
    <text alignment-baseline="middle" x="6.5" y="1">E</text>
    <text alignment-baseline="middle" x="7.5" y="1">D</text>
    <text alignment-baseline="middle" x="8.5" y="1">N</text>
    <text alignment-baseline="middle" x="9.5" y="1">E</text>
    <text alignment-baseline="middle" x="10.5" y="1">S</text>
    <text alignment-baseline="middle" x="11.5" y="1">D</text>
    <text alignment-baseline="middle" x="12.5" y="1">A</text>
    <text alignment-baseline="middle" x="13.5" y="1">Y</text>
    <text alignment-baseline="middle" x="14.5" y="1"> </text>
    <text alignment-baseline="middle" x="15.5" y="1">N</text>
    <text alignment-baseline="middle" x="16.5" y="1">I</text>
    <text alignment-baseline="middle" x="17.5" y="1">G</text>
    <text alignment-baseline="middle" x="18.5" y="1">H</text>
    <text alignment-baseline="middle" x="19.5" y="1">T</text>
    <text alignment-baseline="middle" x="20.5" y="1"> </text>
    <text alignment-baseline="middle" x="21.5" y="1">I</text>
    <text alignment-baseline="middle" x="22.5" y="1">N</text>
    <text alignment-baseline="middle" x="23.5" y="1"> </text>
    <text alignment-baseline="middle" x="24.5" y="1">C</text>
    <text alignment-baseline="middle" x="25.5" y="1">H</text>
    <text alignment-baseline="middle" x="26.5" y="1">I</text>
    <text alignment-baseline="middle" x="27.5" y="1">C</text>
    <text alignment-baseline="middle" x="28.5" y="1">A</text>
    <text alignment-baseline="middle" x="29.5" y="1">G</text>
    <text alignment-baseline="middle" x="30.5" y="1">O</text>
  </g>
  <g fill="none" stroke="#eee" stroke-opacity="1" stroke-width="0.05">
    <rect height="1" transform="rotate(0.0 0.5 1)" width="1" x="0" y="0.5"/>
    <rect height="1" transform="rotate(1.0123720307390078 1.5 1)" width="1" x="1" y="0.5"/>
    <rect height="1" transform="rotate(3.1291353558541743 2.5 1)" width="1" x="2" y="0.5"/>
    <rect height="1" transform="rotate(5.883890115805668 3.5 1)" width="1" x="3" y="0.5"/>
    <rect height="1" transform="rotate(5.615066384756147 5.5 1)" width="1" x="5" y="0.5"/>
    <rect height="1" transform="rotate(6.308525194140666 6.5 1)" width="1" x="6" y="0.5"/>
    <rect height="1" transform="rotate(12.012659509226106 7.5 1)" width="1" x="7" y="0.5"/>
    <rect height="1" transform="rotate(12.007321168442946 8.5 1)" width="1" x="8" y="0.5"/>
    <rect height="1" transform="rotate(16.716719263975296 9.5 1)" width="1" x="9" y="0.5"/>
    <rect height="1" transform="rotate(18.352501305433154 10.5 1)" width="1" x="10" y="0.5"/>
    <rect height="1" transform="rotate(11.864827703545469 11.5 1)" width="1" x="11" y="0.5"/>
    <rect height="1" transform="rotate(16.326503736097024 12.5 1)" width="1" x="12" y="0.5"/>
    <rect height="1" transform="rotate(21.014838306355312 13.5 1)" width="1" x="13" y="0.5"/>
    <rect height="1" transform="rotate(17.38811262075519 15.5 1)" width="1" x="15" y="0.5"/>
    <rect height="1" transform="rotate(17.501018647601462 16.5 1)" width="1" x="16" y="0.5"/>
    <rect height="1" transform="rotate(33.52344428002424 17.5 1)" width="1" x="17" y="0.5"/>
    <rect height="1" transform="rotate(25.473166014854748 18.5 1)" width="1" x="18" y="0.5"/>
    <rect height="1" transform="rotate(22.3411965615647 19.5 1)" width="1" x="19" y="0.5"/>
    <rect height="1" transform="rotate(32.75595887088502 21.5 1)" width="1" x="21" y="0.5"/>
    <rect height="1" transform="rotate(36.690429649426264 22.5 1)" width="1" x="22" y="0.5"/>
    <rect height="1" transform="rotate(31.86723489097126 24.5 1)" width="1" x="24" y="0.5"/>
    <rect height="1" transform="rotate(25.738185196737927 25.5 1)" width="1" x="25" y="0.5"/>
    <rect height="1" transform="rotate(50.03228053008764 26.5 1)" width="1" x="26" y="0.5"/>
    <rect height="1" transform="rotate(52.1518974625889 27.5 1)" width="1" x="27" y="0.5"/>
    <rect height="1" transform="rotate(46.175662196126275 28.5 1)" width="1" x="28" y="0.5"/>
    <rect height="1" transform="rotate(30.455404571472528 29.5 1)" width="1" x="29" y="0.5"/>
    <rect height="1" transform="rotate(59.19769607530891 30.5 1)" width="1" x="30" y="0.5"/>
  </g>
</svg>
